<?xml version="1.0" encoding="UTF-8" standalone="no"?>
<svg
   xmlns:dc="http://purl.org/dc/elements/1.1/"
   xmlns:cc="http://creativecommons.org/ns#"
   xmlns:rdf="http://www.w3.org/1999/02/22-rdf-syntax-ns#"
   xmlns:svg="http://www.w3.org/2000/svg"
   xmlns="http://www.w3.org/2000/svg"
   xmlns:sodipodi="http://sodipodi.sourceforge.net/DTD/sodipodi-0.dtd"
   xmlns:inkscape="http://www.inkscape.org/namespaces/inkscape"
   height="512"
   viewBox="0 0 60 56"
   width="512"
   version="1.1"
   id="svg5618"
   sodipodi:docname="acorn2.svg"
   inkscape:version="0.92.2 (5c3e80d, 2017-08-06)">
  <metadata
     id="metadata5624">
    <rdf:RDF>
      <cc:Work
         rdf:about="">
        <dc:format>image/svg+xml</dc:format>
        <dc:type
           rdf:resource="http://purl.org/dc/dcmitype/StillImage" />
        <dc:title></dc:title>
      </cc:Work>
    </rdf:RDF>
  </metadata>
  <defs
     id="defs5622" />
  <sodipodi:namedview
     pagecolor="#ffffff"
     bordercolor="#666666"
     borderopacity="1"
     objecttolerance="10"
     gridtolerance="10"
     guidetolerance="10"
     inkscape:pageopacity="0"
     inkscape:pageshadow="2"
     inkscape:window-width="1920"
     inkscape:window-height="1017"
     id="namedview5620"
     showgrid="false"
     inkscape:zoom="0.4609375"
     inkscape:cx="256"
     inkscape:cy="256"
     inkscape:window-x="-8"
     inkscape:window-y="-8"
     inkscape:window-maximized="1"
     inkscape:current-layer="svg5618" />
  <ellipse
     style="opacity:1;fill:#ffd5d5;stroke-width:0.10506614"
     id="path9193"
     cx="35.308498"
     cy="23.532068"
     rx="27.584745"
     ry="21.355932"
     transform="rotate(17.552471)" />
  <g
     id="Page-1"
     fill="none"
     fill-rule="evenodd"
     style="fill:#ff5555">
    <g
       id="022---Acorns"
       fill="rgb(0,0,0)"
       fill-rule="nonzero"
       transform="translate(-1)"
       style="fill:#ff5555">
      <path
         id="Shape"
         d="m55.9 33.553c-3.983-7.953-15.02-9.366-16.631-9.532 0-.037 0-.074-.006-.111-.116196-.638081-.5317112-1.1815615-1.117-1.461-.6186667-.2953333-1.227-.558-1.825-.788-.673-2.766-3.317-9.4-13.1-11.822.486626-.85701919 1.0679336-1.6566944 1.733-2.384.8059656-.87537226 1.7227036-1.64184185 2.727-2.28.9139733-.43871273 1.5907842-1.25468444 1.853-2.234.0677974-.60123631-.1476271-1.19984288-.583-1.62-.8950629-.75380745-2.0409701-1.14327312-3.21-1.091-1.4491784-.06251423-2.8808354.33627698-4.089 1.139-1.371226 1.07755484-2.3865593 2.54271499-2.914 4.205-.404786 1.11871584-.7060493 2.2722198-.9 3.446-.079 0-.155-.014-.234-.018-6.171-.367-10.737 1.026-13.55 4.129-3.549 3.919-3.042 9.185-2.801 10.711.09929724.624546.49094979 1.1640901 1.054 1.452.018.009.038.012.056.021-1.91606147 4.8670953-1.81784415 10.2963906.273 15.091 1.23186969 3.0137768 3.15209134 5.697361 5.607 7.836.96929353.6966089 1.69877937 1.6765935 2.088 2.805.1943739.7038644.7619586 1.2425889 1.475 1.4.1455104.0320018.2940132.0484276.443.049.584973.0003309 1.1407676-.2554589 1.521-.7.111-.129.214-.264.316-.4.1142725-.1618582.2420636-.3137356.382-.454.0659367-.0658371.137547-.1257355.214-.179 1.0508045-.5830722 2.2017429-.9636655 3.393-1.122.365-.074.738-.154 1.111-.241.3274424.5896052.7087342 1.1476503 1.139 1.667 3.07 3.634 7.554 3.944 9.707 3.944.262 0 .489 0 .676-.009l.292-.002c.5008141.0145347.9827267-.1916859 1.318-.564.006-.007.009-.015.015-.021 2.4760094.6544695 5.025957.987539 7.587.991 6.639 0 12.713-2.184 14.937-5.891 1.2456023-1.9348874 2.9228515-3.5546309 4.9-4.732l.37-.246c.4720961-.318575.7846113-.8245837.8580775-1.3893558.0734663-.564772-.0991945-1.1338931-.4740775-1.5626442-.688-.779-1.772-2.343-4.611-8.032zm-33.078-30.559c.855207-.55087323 1.8621381-.81852519 2.878-.765.6508798-.03400604 1.2975666.12236636 1.861.45-.014.044-.123.29-.944.808-1.1537323.73308967-2.2066572 1.61388891-3.132 2.62-.9096742.99022462-1.6791834 2.10057894-2.287 3.3-.4293333-.072-.873-.13633333-1.331-.193.1648881-1.00254588.4175258-1.98866942.755-2.947.3932124-1.28470397 1.158875-2.42380098 2.2-3.273zm-17.283 11.481c2.387-2.633 6.408-3.805 11.961-3.475.371.019.731.047 1.1.087.9992774.0858368 1.9933271.2243629 2.978.415 8.4 1.653 11.389 6.525 12.436 9.429-2.8074915-.8763553-5.8409358-.6738167-8.507.568-1.2507375.6461969-2.3640269 1.5292208-3.278 2.6-5.5384005-3.1466162-12.22984207-3.5214257-18.085-1.013-.271.121-.581.27-.916.438-.205-1.298-.645-5.789 2.311-9.049zm12.139 33.208c-1.4413096.1995458-2.8300749.6774115-4.089 1.407-.1731134.1162549-.3357325.2474209-.486.392-.2235424.217085-.4276547.4533198-.61.706-.078.1-.157.208-.233.33-.4774813-1.4974366-1.409686-2.8088848-2.667-3.752-2.2527536-1.9516643-4.01081104-4.4095177-5.13-7.172-1.99808133-4.6477165-1.94033719-9.9231334.159-14.526.113-.053.226-.106.33-.152 5.1941883-2.2175983 11.120177-1.9199341 16.066.807-1.3023622 2.1342924-2.2329177 4.4742066-2.752 6.92-.6648397-.2587898-1.3459755-.4735864-2.039-.643-1.4844438-.4248235-3.0627635-.3899589-4.527.1-1.1992198.4870215-2.20612464 1.353093-2.867 2.466-.63754564.8419888-.91419525 1.9028987-.769 2.949.09873498.5508109.44642537 1.0251019.942 1.285.27984275.1372432.58836886.2058046.9.2.6029073-.0341036 1.1930158-.1877493 1.736-.452.9408303-.4208054 1.9330534-.7156816 2.951-.877.9536676-.1535631 1.9235681-.1791222 2.884-.076-.4657044 3.3397874-.1717363 6.7416136.86 9.952-.216.044-.437.09-.659.136zm.054-12.075c-1.146195-.127587-2.3043906-.0993301-3.443.084-1.1877423.1870633-2.3456904.5296734-3.444 1.019-.2688388.1285568-.5527121.2229573-.845.281.0454462-.4969232.2271113-.9716747.525-1.372.4336104-.738947 1.0924445-1.3196321 1.88-1.657 1.0940562-.3413421 2.2651568-.3479585 3.363-.019.7217528.1781602 1.4285519.4121996 2.114.7-.053.327-.102.646-.15.964zm12.935 17.4c-1.48.029-5.986.121-8.814-3.227-2.619-3.1-3.248-8.344-1.871-15.591.6-3.159 2.234-8.777 6.429-10.906 1.2009124-.5984436 2.5273523-.9015124 3.869-.884 2.44786.0951126 4.8446889.7284627 7.02 1.855-2.2 2.27-7.3 8.345-7.3 15.745.0218507 3.0808208.2272145 6.157604.615 9.214.19728 1.2387042.2769681 2.49329.238 3.747v.036zm27.987-9.892c-2.2257033 1.3429944-4.1115986 3.1813232-5.511 5.372-2.6 4.332-12.087 6.157-20.253 4.015-.0292794-1.1751832-.1254349-2.3477468-.288-3.512-.3784182-2.9824458-.5794385-5.9847275-.602-8.991 0-6.376 4.3-11.751 6.445-14.043l.472.04c.114.009 11.483 1.039 15.188 8.45 2.939 5.878 4.093 7.539 4.9 8.434z"
         style="fill:#ff5555" />
      <path
         id="path5612"
         d="m7.761 17.49c.28221778.0001266.55134966-.1190033.741-.328 1.657-1.827 4.867-2.212 7.268-2.214.5522847 0 1-.4477153 1-1s-.4477153-1-1-1c-2.805 0-6.6.5-8.747 2.87-.26581151.292927-.3339779.7150072-.17389093 1.0767173.16008698.36171.51833823.5950647.91389093.5952827z"
         style="fill:#ff5555" />
      <path
         id="path5614"
         d="m38.767 27.991c-.5474316-.0480824-1.0310878.3545828-1.0830205.9016625-.0519327.5470798.3473197 1.033557.8940205 1.0893375.092.009 9.3.948 11.95 6.254.1702259.3406694.5191744.5550788.9.553.3464401-.000185.6681037-.1796678.8501945-.4743943.1820909-.2947265.1986643-.6627032.0438055-.9726057-3.155-6.3-13.133-7.311-13.555-7.351z"
         style="fill:#ff5555" />
    </g>
  </g>
</svg>
