<?xml version="1.0" encoding="UTF-8" standalone="no"?>
<svg
   xmlns:dc="http://purl.org/dc/elements/1.1/"
   xmlns:cc="http://creativecommons.org/ns#"
   xmlns:rdf="http://www.w3.org/1999/02/22-rdf-syntax-ns#"
   xmlns:svg="http://www.w3.org/2000/svg"
   xmlns="http://www.w3.org/2000/svg"
   xmlns:sodipodi="http://sodipodi.sourceforge.net/DTD/sodipodi-0.dtd"
   xmlns:inkscape="http://www.inkscape.org/namespaces/inkscape"
   height="55.671329"
   viewBox="0 0 14.20661 6.5239839"
   width="121.22974"
   version="1.1"
   id="svg5952"
   sodipodi:docname="arrowbear.svg"
   inkscape:version="0.92.2 (5c3e80d, 2017-08-06)">
  <metadata
     id="metadata5958">
    <rdf:RDF>
      <cc:Work
         rdf:about="">
        <dc:format>image/svg+xml</dc:format>
        <dc:type
           rdf:resource="http://purl.org/dc/dcmitype/StillImage" />
        <dc:title></dc:title>
      </cc:Work>
    </rdf:RDF>
  </metadata>
  <defs
     id="defs5956" />
  <sodipodi:namedview
     pagecolor="#ffffff"
     bordercolor="#666666"
     borderopacity="1"
     objecttolerance="10"
     gridtolerance="10"
     guidetolerance="10"
     inkscape:pageopacity="0"
     inkscape:pageshadow="2"
     inkscape:window-width="1920"
     inkscape:window-height="1017"
     id="namedview5954"
     showgrid="false"
     fit-margin-top="0"
     fit-margin-left="0"
     fit-margin-right="0"
     fit-margin-bottom="0"
     inkscape:zoom="1.1516419"
     inkscape:cx="74.766297"
     inkscape:cy="-118.44693"
     inkscape:window-x="-8"
     inkscape:window-y="-8"
     inkscape:window-maximized="1"
     inkscape:current-layer="svg5952" />
  <g
     id="Page-1"
     transform="matrix(0.07862193,0,0,0.08428825,-0.00573272,1.4666888)"
     style="fill:#ff5555;fill-rule:evenodd">
    <g
       id="009---Bear"
       style="fill:#ff5555;fill-rule:nonzero">
      <path
         id="Shape"
         d="m 21,24 c -0.0017,-0.32648 -0.03515,-0.652021 -0.1,-0.972 -0.530036,-2.606375 -3.011876,-4.338392 -5.641104,-3.936792 -2.629229,0.401599 -4.480855,2.795528 -4.208658,5.441286 0.272198,2.645758 2.572456,4.612538 5.228378,4.470398 C 18.934538,28.860751 21.011741,26.659697 21,24 Z m -2.151,-0.894 c -0.265451,0.611129 -0.905235,0.970862 -1.56532,0.880135 -0.660084,-0.09073 -1.179089,-0.609731 -1.269815,-1.269815 -0.09073,-0.660085 0.269006,-1.299869 0.880135,-1.56532 0.931645,0.2936 1.6614,1.023355 1.955,1.955 z M 16,27 C 14.732456,27.0054 13.599505,26.210292 13.173721,25.016388 12.747937,23.822485 13.122054,22.48986 14.107,21.692 14.039458,21.956145 14.00354,22.22738 14,22.5 c 0,1.932997 1.567003,3.5 3.5,3.5 0.27262,-0.0035 0.543855,-0.03946 0.808,-0.107 C 17.744131,26.59011 16.896604,26.996614 16,27 Z"
         inkscape:connector-curvature="0"
         style="fill:#ff5555" />
      <path
         id="path5941"
         d="m 39.9,31.126 c -0.327,-0.51 -0.659,-1.028 -0.985,-1.564 -0.65661,-1.222893 -1.125523,-2.537603 -1.391,-3.9 C 37.213486,24.088429 36.654851,22.574208 35.869,21.176 34.614273,19.201915 32.439088,18.004413 30.1,18 h -0.123 c -2.342857,0.002 -4.522094,1.201568 -5.777,3.18 -0.786268,1.398015 -1.344928,2.912304 -1.655,4.486 -0.266275,1.362319 -0.735501,2.676961 -1.392,3.9 -0.326,0.536 -0.658,1.054 -0.985,1.564 -1.5,2.331 -2.908,4.532 -3.233,7.6 -0.422,3.975 0.858,7.49 3.423,9.4 0.456645,0.338817 0.950516,0.624336 1.472,0.851 1.576147,3.077294 4.742547,5.013075 8.2,5.013075 3.457452,0 6.623853,-1.935781 8.2,-5.013075 0.522918,-0.226907 1.017866,-0.513474 1.475,-0.854 2.564,-1.913 3.845,-5.428 3.423,-9.4 C 42.809,35.658 41.4,33.457 39.9,31.126 Z M 30,52 c -2.001489,0.01089 -3.908821,-0.848978 -5.226,-2.356 0.167,0.008 0.335,0.014 0.5,0.014 1.539268,-0.05144 3.069694,-0.254762 4.569,-0.607 l 0.19,-0.038 0.191,0.038 c 1.659178,0.40155 3.360943,0.600336 5.068,0.592 C 33.952558,51.157946 32.022091,52.017755 30,52 Z m 0,-5 c -2.479,0 -6,-2.586 -6,-5 0,-1.3 3.485,-2 6,-2 h 0.071 c 2.092,0 6,0.586 6,2 0.001,2.414 -3.52,5 -6.071,5 z m 8.516,-0.472 c -1.229179,0.869839 -2.732028,1.264559 -4.23,1.111 2.1,-1.32 3.786,-3.438 3.786,-5.639 0,-3.888 -7.181,-4 -8,-4 H 30 c -0.818,0 -8,0.112 -8,4 0,2.2 1.682,4.319 3.8,5.638 -1.502476,0.157043 -3.010809,-0.237455 -4.244,-1.11 -1.994,-1.486 -2.977,-4.323 -2.631,-7.588 0.276,-2.6 1.505,-4.516 2.928,-6.734 0.336,-0.524 0.677,-1.056 1.011,-1.607 0.764971,-1.390631 1.312005,-2.890421 1.622,-4.447 0.265386,-1.370134 0.74243,-2.690608 1.414,-3.914 C 26.795739,20.84179 28.341161,19.998215 30,20 h 0.059 c 1.662837,-0.0038 3.213066,0.83973 4.113,2.238 0.671756,1.223113 1.148174,2.543723 1.412,3.914 0.310612,1.556724 0.857609,3.05675 1.622,4.448 0.334,0.55 0.675,1.082 1.012,1.606 1.423,2.218 2.651,4.134 2.928,6.734 0.345,3.265 -0.638,6.102 -2.63,7.588 z"
         inkscape:connector-curvature="0"
         style="fill:#ff5555" />
      <path
         id="path5943"
         d="m 44.072,19 c -0.325488,0.0017 -0.650033,0.03515 -0.969,0.1 -1.983019,0.396937 -3.533063,1.94698 -3.93,3.93 -0.06534,0.319904 -0.09884,0.645493 -0.1,0.972 0,2.761424 2.238576,5 5,5 2.761424,0 5,-2.238576 5,-5 0,-2.761424 -2.238576,-5 -5,-5 z m -0.894,2.151 c 0.611587,0.264993 0.97191,0.904796 0.881463,1.565159 -0.09045,0.660364 -0.609536,1.179717 -1.269853,1.270503 -0.660316,0.09079 -1.300304,-0.269211 -1.56561,-0.880662 0.292952,-0.931685 1.022465,-1.661572 1.954,-1.955 z M 44.072,27 c -0.896385,-0.0031 -1.743715,-0.409702 -2.307,-1.107 0.263806,0.06754 0.534709,0.103457 0.807,0.107 1.074261,0.0131 2.093589,-0.473851 2.758447,-1.317753 0.664857,-0.843904 0.899713,-1.948888 0.635553,-2.990247 0.985092,0.797975 1.359163,2.130855 0.933117,3.324863 C 46.473071,26.210871 45.339728,27.005877 44.072,27 Z"
         inkscape:connector-curvature="0"
         style="fill:#ff5555" />
      <circle
         id="Oval"
         cx="28"
         cy="44"
         r="1"
         style="fill:#ff5555" />
      <circle
         id="circle5946"
         cx="32"
         cy="44"
         r="1"
         style="fill:#ff5555" />
      <path
         id="path5948"
         d="m 52.39,0.371 c -3,-1 -5.512,0.059 -7.038,2.905 -0.586,-0.4 -1.184,-0.79 -1.8,-1.144 -4.164402,-2.41964126 -9.280176,-2.52880094 -13.544,-0.289 0,0 0,0 -0.008,0 -4.23872,-2.24374961 -9.336737,-2.13403347 -13.475,0.29 -0.618,0.354 -1.215,0.741 -1.8,1.143 C 13.2,0.431 10.686,-0.628 7.684,0.371 3.926,1.626 0.052,5.083 0.073,8.7 0.084,10.463 1.023,12.833 5.214,14.479 2.059012,20.784283 1.2130022,27.995712 2.823,34.86 4.4848911,41.018236 7.8928916,46.564181 12.636,50.829 16.305,54.254 23.439,60 30.072,60 c 6.559,0 13.7,-5.746 17.365,-9.171 4.742153,-4.265264 8.149399,-9.811113 9.811,-15.969 C 58.859481,27.994477 58.01343,20.781284 54.857,14.475 59.05,12.829 59.989,10.46 60,8.7 60.021,5.083 56.147,1.626 52.39,0.371 Z M 2.073,8.685 C 2.058,6.1 5.289,3.279 8.316,2.269 9.132,2 11.52,1.2 13.1,4.494 12.553,4.935 12.027,5.399 11.515,5.881 11.31654,5.1837952 10.902415,4.5673338 10.332,4.12 10.140673,4.0104701 9.918158,3.9682205 9.7,4 9.439987,4.0225152 9.18373,4.0769236 8.937,4.162 c -2.673,0.9 -4.85,3.2 -4.87,4.493 -0.00299,0.2084623 0.05924,0.4126479 0.178,0.584 0.8273305,0.830952 1.8638856,1.422825 3,1.713 C 6.865,11.523 6.503,12.104 6.161,12.7 4.16,11.949 2.085,10.69 2.073,8.685 Z m 6.4,0.557 C 7.7169751,9.0380098 6.987615,8.7456616 6.3,8.371 7.1146787,7.3396217 8.2006193,6.5556391 9.436,6.107 9.6541949,6.552617 9.8186808,7.0225765 9.926,7.507 9.4206667,8.0656667 8.937,8.644 8.475,9.242 Z M 55.307,34.376 C 53.738616,40.159204 50.531078,45.365377 46.071,49.367 42.617,52.591 35.945,58 30,58 24.125,58 17.454,52.591 14,49.367 9.5401126,45.365394 6.3328946,40.159178 4.765,34.376 1.879,22.8 7.361,9.68 17.517,3.868 c 1.811898,-1.0645897 3.873513,-1.6301104 5.975,-1.639 1.935695,0.00296 3.842053,0.4732899 5.557,1.371 0.592903,0.3200379 1.307097,0.3200379 1.9,0 C 34.605407,1.6835213 38.990427,1.7821162 42.557,3.861 52.711,9.68 58.192,22.8 55.307,34.376 Z M 50.146,7.507 c 0.107757,-0.4845674 0.272924,-0.9545533 0.492,-1.4 1.232319,0.4493123 2.316303,1.2308054 3.132,2.258 C 53.083777,8.7443379 52.354129,9.0391519 51.597,9.243 51.132333,8.645 50.648667,8.0663333 50.146,7.507 Z m 3.761,5.193 c -0.340667,-0.596 -0.701667,-1.178333 -1.083,-1.747 1.135232,-0.290708 2.171407,-0.881328 3,-1.71 C 55.943256,9.0697373 56.004843,8.8632821 56,8.653 55.978,7.353 53.8,5.063 51.118,4.159 50.876357,4.0759465 50.62552,4.0225554 50.371,4 50.152318,3.9696765 49.929748,4.0125731 49.738,4.122 49.168367,4.5696373 48.754403,5.1855093 48.555,5.882 48.043,5.4 47.517,4.936 46.971,4.495 48.552,1.2 50.937,2 51.757,2.269 54.784,3.279 58.016,6.1 58,8.685 57.988,10.69 55.913,11.95 53.907,12.7 Z"
         inkscape:connector-curvature="0"
         style="fill:#ff5555" />
    </g>
  </g>
  <path
     style="fill:#ff5555;fill-opacity:1;stroke:none;stroke-width:0.01495039px;stroke-linecap:butt;stroke-linejoin:miter;stroke-opacity:1"
     d="m 6.1280069,5.0838848 c -0.05573,-9e-6 -0.112514,-0.0039 -0.169478,-0.01196 -0.364586,-0.05157 -0.736086,-0.272597 -0.921836,-0.670457 -0.185759,-0.397859 -0.185713,-0.972501 0.06882,-1.385099 0.254535,-0.412598 0.763569,-0.663089 1.265758,-0.744131 0.48067,-0.07757 0.955002,2.03e-4 1.362737,0.21374 0.01551,-0.08161 0.0333,-0.162951 0.05441,-0.2432 0.144484,-0.552578 0.419634,-1.053551 0.797998,-1.30404998 0.37836,-0.2505 0.859906,-0.25051 1.252016,0.0221 0.002,0.0014 0.004,0.0029 0.0059,0.0043 0.101477,-0.215888 0.2428601,-0.409745 0.3998861,-0.556897 0.330198,-0.309442 0.729217,-0.412584 1.210763,-0.309438 0.446725,0.09568 0.964106,0.368767 1.256335,0.554836 0.01432,-0.05434 0.01961,-0.116195 0.0312,-0.190043 0.02094,-0.133387 0.06244,-0.305757 0.127254,-0.391783 0.06481,-0.08602 0.152908,-0.08564 0.176378,-0.04643 0.02349,0.03924 -0.01765,0.117271 -0.01596,0.232352 0.0017,0.115075 0.04624,0.267182 0.147595,0.449438 0.101354,0.182257 0.259524,0.39465898 0.475568,0.64761498 0.216043,0.252953 0.489975,0.546452 0.543321,0.639879 0.05335,0.09343 -0.113845,-0.01319 -0.363587,-0.162727 -0.249742,-0.149545 -0.582079,-0.342021 -0.848053,-0.458263 -0.265974,-0.116233 -0.465679,-0.15627 -0.609741,-0.129305 -0.14406,0.02696 -0.232516,0.120937 -0.294884,0.133324 -0.06237,0.01238 -0.09864,-0.05683 -0.05751,-0.134891 0.04114,-0.07807 0.159635,-0.164984 0.288872,-0.242657 0.117545,-0.07064 0.243759,-0.13364798 0.318446,-0.20569698 -0.114685,-0.05265 -0.242632,-0.115437 -0.363501,-0.172551 -0.233902,-0.110518 -0.440244,-0.19892 -0.625993,-0.26523 -0.18575,-0.06631 -0.350849,-0.110522 -0.536608,-0.08842 -0.185755,0.0221 -0.392105,0.110508 -0.570972,0.228393 -0.178872,0.117885 -0.330198,0.265249 -0.447181,0.449439 -0.0301,0.04753 -0.05801,0.09756 -0.08323,0.14936898 0.310633,0.293384 0.541375,0.74296 0.606077,1.095724 0.07567,0.412574 -0.07568,0.692555 -0.316443,0.596786 -0.240762,-0.09577 -0.5709681,-0.5673 -0.6053651,-1.060943 -0.01323,-0.188324 0.01687,-0.379815 0.07726,-0.561883 -0.06494,-0.04296 -0.13062,-0.08015 -0.194242,-0.108547 -0.165099,-0.07368 -0.31647,-0.08842 -0.495329,-0.04419 -0.178873,0.04419 -0.385247,0.14734 -0.564087,0.302066 -0.178872,0.154727 -0.330198,0.360999 -0.426521,0.567293 -0.09632,0.206296 -0.137598,0.412598 -0.165099,0.663087 -0.0017,0.01543 -0.0032,0.03148 -0.0046,0.04719 0.361713,0.237128 0.651717,0.579069 0.775254,0.903234 0.137598,0.360999 0.06878,0.699924 -0.144439,0.780967 -0.21326,0.08104 -0.57096,-0.09578 -0.74295,-0.486277 -0.119902,-0.272202 -0.14941,-0.648229 -0.107451,-1.038219 -0.08319,-0.05643 -0.167607,-0.111356 -0.243362,-0.155321 -0.165099,-0.09578 -0.288923,-0.139992 -0.467818,-0.169465 -0.178873,-0.02948 -0.412748,-0.04419 -0.605371,-0.0221 -0.1926,0.0221 -0.343971,0.08103 -0.522835,0.191553 -0.178872,0.110522 -0.385246,0.272582 -0.536576,0.44941 -0.151326,0.176828 -0.247649,0.3684 -0.27515,0.574697 -0.02736,0.206297 0.01368,0.427304 0.08255,0.596756 0.06878,0.169446 0.165099,0.287346 0.302696,0.390482 0.137598,0.103137 0.316471,0.191572 0.481556,0.243138 0.165099,0.05157 0.31647,0.06628 0.433408,0.04419 0.116937,-0.0221 0.199487,-0.08103 0.247648,-0.169437 0.04816,-0.0884 0.06194,-0.206287 0.04816,-0.309438 -0.01368,-0.103146 -0.055,-0.191557 -0.151371,-0.243137 -0.09632,-0.05158 -0.247649,-0.0663 -0.323312,-0.07367 -0.07566,-0.0074 -0.07566,-0.0074 0.01368,-0.04419 0.08944,-0.03686 0.268308,-0.110527 0.426521,0.0221 0.158212,0.13262 0.29581,0.471574 0.185759,0.699954 -0.09286,0.1927 -0.362032,0.306704 -0.662905,0.306661 z m 2.194166,-0.995429 c 0.0561,3.42e-4 0.102571,-0.03143 0.133539,-0.0922 0.04105,-0.08103 0.055,-0.213664 0.02052,-0.361023 -0.0342,-0.147359 -0.116938,-0.309423 -0.199487,-0.419946 -0.08255,-0.110523 -0.165099,-0.169442 -0.309584,-0.272602 -0.0228,-0.01634 -0.04939,-0.03514 -0.07498,-0.0533 -0.0073,0.150874 -0.0087,0.30048 -6.89e-4,0.429043 0.01368,0.228393 0.05505,0.390496 0.123824,0.515738 0.06878,0.125243 0.165099,0.213673 0.247648,0.243137 0.02053,0.0074 0.04059,0.01105 0.05911,0.01114 z m 2.0407881,-1.461521 c 0.02509,7.62e-4 0.04771,-0.0043 0.06709,-0.01576 0.06189,-0.03681 0.08939,-0.139986 0.08255,-0.279973 -0.0068,-0.139987 -0.04812,-0.31681 -0.123824,-0.478905 -0.07566,-0.162093 -0.185759,-0.309414 -0.330198,-0.44941 -0.04196,-0.04058 -0.08679,-0.08027 -0.1332191,-0.118338 -0.03147,0.09386 -0.05418,0.1908 -0.06627,0.287769 -0.02736,0.221027 -1.4e-5,0.442087 0.06189,0.611534 0.06194,0.169451 0.1582121,0.287322 0.2545351,0.360989 0.06622,0.05065 0.132445,0.08042 0.187447,0.0821 z"
     id="path10535"
     inkscape:connector-curvature="0" />
</svg>
