<?xml version="1.0" encoding="UTF-8" standalone="no"?>
<!-- Created with Inkscape (http://www.inkscape.org/) -->

<svg
   xmlns:dc="http://purl.org/dc/elements/1.1/"
   xmlns:cc="http://creativecommons.org/ns#"
   xmlns:rdf="http://www.w3.org/1999/02/22-rdf-syntax-ns#"
   xmlns:svg="http://www.w3.org/2000/svg"
   xmlns="http://www.w3.org/2000/svg"
   xmlns:sodipodi="http://sodipodi.sourceforge.net/DTD/sodipodi-0.dtd"
   xmlns:inkscape="http://www.inkscape.org/namespaces/inkscape"
   width="14.856605mm"
   height="15.176101mm"
   viewBox="0 0 14.856604 15.176101"
   version="1.1"
   id="svg4520"
   inkscape:version="0.92.2 (5c3e80d, 2017-08-06)"
   sodipodi:docname="beer.svg">
  <defs
     id="defs4514" />
  <sodipodi:namedview
     id="base"
     pagecolor="#ffffff"
     bordercolor="#666666"
     borderopacity="1.0"
     inkscape:pageopacity="0.0"
     inkscape:pageshadow="2"
     inkscape:zoom="1.65625"
     inkscape:cx="17.191022"
     inkscape:cy="204.18976"
     inkscape:document-units="mm"
     inkscape:current-layer="layer1"
     showgrid="false"
     fit-margin-top="0"
     fit-margin-left="0"
     fit-margin-right="0"
     fit-margin-bottom="0"
     inkscape:window-width="1920"
     inkscape:window-height="1017"
     inkscape:window-x="-8"
     inkscape:window-y="-8"
     inkscape:window-maximized="1"
     inkscape:lockguides="true" />
  <metadata
     id="metadata4517">
    <rdf:RDF>
      <cc:Work
         rdf:about="">
        <dc:format>image/svg+xml</dc:format>
        <dc:type
           rdf:resource="http://purl.org/dc/dcmitype/StillImage" />
        <dc:title></dc:title>
      </cc:Work>
    </rdf:RDF>
  </metadata>
  <g
     inkscape:label="Layer 1"
     inkscape:groupmode="layer"
     id="layer1"
     transform="translate(-80.854053,-146.25095)">
    <path
       style="fill:#ffd5d5;stroke-width:0.14434929"
       inkscape:connector-curvature="0"
       id="path1446-3"
       d="m 85.99072,146.7661 c -3.050955,0.81017 -4.687316,4.66606 -3.645373,8.58982 1.041946,3.92377 4.375684,6.45985 7.426639,5.64968 3.05095,-0.81018 4.687326,-4.66605 3.645379,-8.58983 -1.041943,-3.92376 -4.375689,-6.45984 -7.426645,-5.64967 z" />
    <g
       transform="matrix(0.41747402,0,0,0.48838587,30.451875,138.43736)"
       style="fill:#806600;fill-rule:evenodd"
       id="Page-1" />
    <g
       transform="matrix(0.19706242,0,0,0.19169812,82.355944,149.58513)"
       style="fill:#ff5555;fill-rule:evenodd"
       id="Page-1-5">
      <g
         style="fill:#ff5555;fill-rule:nonzero"
         id="023---Canadian-Beer">
        <path
           inkscape:connector-curvature="0"
           id="Shape"
           d="m 23.306,35.441 c -0.108,-0.047 -0.214,-0.1 -0.32,-0.146 l 0.62,-1.92 C 23.737109,32.979107 23.64738,32.543349 23.370535,32.231458 23.093687,31.919566 22.671651,31.778781 22.263,31.862 l -1.8,0.383 c -0.075,-0.175 -0.149,-0.353 -0.224,-0.538 -0.129573,-0.359767 -0.440817,-0.623391 -0.817,-0.692 -0.378145,-0.06087 -0.760563,0.08064 -1.008,0.373 l -0.319,0.345 0.475,-2.42 C 18.65776,28.862985 18.474113,28.403245 18.100456,28.137548 17.726798,27.87185 17.232248,27.849342 16.836,28.08 l -0.654,0.379 c -0.324,-0.638 -0.748,-1.477 -1.136,-2.244 -0.198191,-0.393939 -0.601515,-0.642517 -1.0425,-0.642517 -0.440985,0 -0.844308,0.248578 -1.0425,0.642517 -0.389,0.769 -0.813,1.609 -1.137,2.245 L 11.171,28.081 C 10.774702,27.849719 10.279697,27.871903 9.9056751,28.137706 9.5316536,28.403509 9.347913,28.863684 9.436,29.314 l 0.475,2.42 -0.324,-0.351 C 9.3403874,31.086781 8.9528586,30.947096 8.5739694,31.017852 8.1950803,31.088609 7.8840837,31.358741 7.761,31.724 7.69,31.899 7.617,32.071 7.543,32.246 L 5.751,31.865 C 5.3432459,31.778069 4.9200552,31.914879 4.6403557,32.224053 4.3606561,32.533228 4.2667868,32.967964 4.394,33.365 L 5.014,35.3 C 4.908,35.35 4.8,35.4 4.691,35.447 4.3208085,35.585911 4.0580454,35.918479 4.0085379,36.310763 3.9590304,36.703047 4.1309282,37.090471 4.455,37.317 4.687,37.499 4.916,37.685 5.144,37.87 L 8.521,40.6 8.48,40.712 C 8.401,40.939 8.319,41.165 8.231,41.403 8.0868639,41.801935 8.1701371,42.247647 8.4485901,42.567629 8.727043,42.887611 9.1569795,43.031651 9.572,42.944 L 13,42.218 v 3.765 c 0,0.552285 0.447715,1 1,1 0.552285,0 1,-0.447715 1,-1 v -3.765 l 3.437,0.731 c 0.415112,0.08396 0.843167,-0.06318 1.118942,-0.384601 C 19.831716,42.242973 19.912075,41.797528 19.766,41.4 19.681,41.17 19.599,40.944 19.518,40.71 l -0.039,-0.106 3.377,-2.737 c 0.228,-0.185 0.457,-0.371 0.688,-0.552 0.325084,-0.226589 0.497486,-0.614928 0.447509,-1.008024 C 23.941532,35.91388 23.677441,35.581035 23.306,35.443 Z m -13.22,-0.585 c 0.407443,0.420755 1.043794,0.521879 1.561597,0.248157 C 12.165401,34.830434 12.44022,34.247645 12.322,33.674 l -0.584,-3 c 0.23936,0.07403 0.495088,0.07681 0.736,0.008 0.364221,-0.11165 0.664256,-0.372092 0.826,-0.717 0.17,-0.335 0.422,-0.83 0.7,-1.38 0.278,0.551 0.531,1.047 0.7,1.385 0.16158,0.342828 0.460492,0.601425 0.823,0.712 0.240671,0.07019 0.496708,0.06775 0.736,-0.007 l -0.579,2.976 c -0.130027,0.575862 0.139043,1.167896 0.658381,1.448632 0.519338,0.280736 1.162044,0.181576 1.572619,-0.242632 l 0.1,-0.111 0.289,-0.309 0.647,-0.692 c 0.303764,0.48123 0.885218,0.708949 1.435,0.562 l 0.875,-0.188 -0.343,1.062 c -0.187947,0.494524 -0.06149,1.053519 0.321,1.419 l -3.334,2.7 c -0.446645,0.305873 -0.652801,0.859492 -0.515,1.383 l -3.183,-0.677 h -0.017 c -0.139247,-0.02797 -0.282916,-0.02524 -0.421,0.008 L 10.6,40.687 c 0.138736,-0.522297 -0.06632,-1.075374 -0.512,-1.381 L 6.759,36.6 c 0.3814865,-0.365664 0.5074724,-0.923939 0.32,-1.418 l -0.343,-1.063 0.882,0.189 c 0.5479505,0.142505 1.1251192,-0.08602 1.427,-0.565 l 0.648,0.694 0.289,0.309 z"
           style="fill:#ff5555" />
        <path
           inkscape:connector-curvature="0"
           id="path7972"
           d="M 21.53,44.273 C 21.029066,44.041324 20.435152,44.259287 20.203,44.76 18.683,48.041 16.364,50 14,50 11.636,50 9.317,48.041 7.8,44.76 7.6550419,44.427463 7.3413646,44.199505 6.9803166,44.164315 6.6192686,44.129125 6.2674766,44.292222 6.0610344,44.59051 5.8545921,44.888797 5.8258779,45.275493 5.986,45.601 7.867,49.667 10.789,52 14,52 c 3.211,0 6.133,-2.333 8.017,-6.4 0.231676,-0.500934 0.01371,-1.094848 -0.487,-1.327 z"
           style="fill:#ff5555" />
        <path
           inkscape:connector-curvature="0"
           id="path7974"
           d="M 5.772,29.831 C 6.2972053,30.000885 6.8607292,29.71308 7.031,29.188 8.468,24.754 11.139,22 14,22 c 2.861,0 5.532,2.754 6.969,7.188 0.09577,0.356903 0.38055,0.631902 0.740581,0.71514 0.360031,0.08324 0.73662,-0.03886 0.979324,-0.317507 C 22.931608,29.306982 23.000862,28.9172 22.869,28.572 21.158,23.285 17.758,20 14,20 c -3.758,0 -7.158,3.285 -8.871,8.572 -0.1698848,0.525205 0.1179197,1.088729 0.643,1.259 z"
           style="fill:#ff5555" />
        <path
           inkscape:connector-curvature="0"
           id="path7976"
           d="M 23.544,17.227 C 21.401446,16.057612 20.049173,13.830407 20,11.39 V 5.968 C 20.560989,5.8935 21.063377,5.582749 21.380545,5.1140662 21.697713,4.6453835 21.799408,4.0634746 21.66,3.515 l -0.5,-2 C 20.93738,0.62437904 20.137023,-3.2e-4 19.219,0 H 8.781 C 7.8629774,-3.2e-4 7.0626204,0.62437904 6.84,1.515 l -0.5,2 C 6.2005916,4.0634746 6.3022867,4.6453835 6.6194548,5.1140662 6.9366229,5.582749 7.4390108,5.8935001 8,5.968 V 11.39 C 7.9516649,13.831189 6.5982197,16.059069 4.454,17.227 1.7006485,18.849455 0.00756224,21.804183 0,25 v 30 c 0.00330612,2.760053 2.2399469,4.996694 5,5 h 18 c 2.760053,-0.0033 4.996694,-2.239947 5,-5 V 25 C 27.9924,21.803668 26.298417,18.848661 23.544,17.227 Z M 8.781,2 h 10.438 l 0.5,2 H 8.281 Z M 26,55 c 0,1.656854 -1.343146,3 -3,3 H 5 C 3.3431457,58 2,56.656854 2,55 V 25 C 2.0058565,22.514065 3.3225433,20.215565 5.464,18.953 8.2241082,17.429142 9.9553976,14.542515 10,11.39 V 6 h 8 v 5.39 c 0.04461,3.151977 1.774963,6.038314 4.534,7.563 2.14267,1.261625 3.460329,3.560496 3.466,6.047 z"
           style="fill:#ff5555" />
        <path
           inkscape:connector-curvature="0"
           id="path7978"
           d="M 57.086,15.69 C 56.712417,13.24517 54.613198,11.437108 52.14,11.43 51.821578,11.429894 51.50385,11.45969 51.191,11.519 50.132035,9.9488398 48.36388,9.0053994 46.47,9 c -2.491413,-0.00882 -4.693993,1.616698 -5.42,4 -1.369126,0.261231 -2.545967,1.129152 -3.2,2.36 -2.258685,0.577588 -3.841598,2.60865 -3.85,4.94 -8e-4,0.730227 0.157183,1.451896 0.463,2.115 C 34.162148,22.889038 34.001627,23.438555 34,24 v 3.082 C 31.527945,28.509238 30.003642,31.145521 30,34 v 13 c 0.0036,2.854479 1.527945,5.490762 4,6.918 V 57 c 0,1.656854 1.343146,3 3,3 h 20 c 1.656854,0 3,-1.343146 3,-3 V 24 c -0.0016,-0.561445 -0.162148,-1.110962 -0.463,-1.585 1.161497,-2.534663 0.06904,-5.532114 -2.451,-6.725 z M 32,47 V 34 c 0.0033,-3.312338 2.687662,-5.996693 6,-6 h 3 c 0.454334,0.119478 0.771025,0.530219 0.771025,1 0,0.469781 -0.316691,0.880521 -0.771025,1 h -3 c -2.209139,0 -4,1.790861 -4,4 v 13 c 0,2.209139 1.790861,4 4,4 h 3 c 0.454334,0.119478 0.771025,0.530219 0.771025,1 0,0.469781 -0.316691,0.880521 -0.771025,1 h -3 c -3.312338,-0.0033 -5.996693,-2.687662 -6,-6 z m 26,10 c 0,0.552285 -0.447715,1 -1,1 H 37 c -0.552285,0 -1,-0.447715 -1,-1 v -2.263 c 0.652801,0.172202 1.324873,0.260579 2,0.263 h 3 c 1.562115,-0.127652 2.764847,-1.432678 2.764847,-3 0,-1.567322 -1.202732,-2.872348 -2.764847,-3 h -3 c -1.104569,0 -2,-0.895431 -2,-2 V 34 c 0,-1.104569 0.895431,-2 2,-2 h 3 c 1.562115,-0.127652 2.764847,-1.432678 2.764847,-3 0,-1.567322 -1.202732,-2.872348 -2.764847,-3 h -3 c -0.675127,0.0024 -1.347199,0.0908 -2,0.263 V 24 c 0,-0.552285 0.447715,-1 1,-1 h 8 c 0.552285,0 1,-0.447715 1,-1 0,-0.552285 -0.447715,-1 -1,-1 h -8 c -0.299088,0.0041 -0.595812,0.05368 -0.88,0.147 -0.248101,-0.864058 -0.107611,-1.793324 0.384826,-2.545424 0.492438,-0.7521 1.287996,-1.252461 2.179174,-1.370576 0.364233,-0.05034 0.67146,-0.296505 0.8,-0.641 0.372886,-0.994322 1.318131,-1.657582 2.38,-1.67 0.48783,-0.0035 0.901958,-0.358441 0.98,-0.84 0.262232,-1.589803 1.528724,-2.823829 3.1248,-3.044698 1.596075,-0.220868 3.15009,0.622852 3.8342,2.081698 0.222741,0.470874 0.769642,0.691896 1.257,0.508 0.344024,-0.130989 0.708884,-0.198744 1.077,-0.2 1.643044,0.0042 2.978703,1.326089 3,2.969 0.0043,0.433044 0.286875,0.814102 0.7,0.944 1.597879,0.504244 2.504008,2.188829 2.044,3.8 C 57.596019,21.047639 57.298962,21.001108 57,21 h -2 v -1 c 0,-0.552285 -0.447715,-1 -1,-1 -0.552285,0 -1,0.447715 -1,1 V 30.5 C 53,31.328427 52.328427,32 51.5,32 50.671573,32 50,31.328427 50,30.5 V 20 c 0,-0.552285 -0.447715,-1 -1,-1 -0.552285,0 -1,0.447715 -1,1 v 10.5 c 0,1.932997 1.567003,3.5 3.5,3.5 1.932997,0 3.5,-1.567003 3.5,-3.5 V 23 h 2 c 0.552285,0 1,0.447715 1,1 z"
           style="fill:#ff5555" />
        <path
           inkscape:connector-curvature="0"
           id="path7980"
           d="M 10,54 H 6 V 50 C 6,49.447715 5.5522847,49 5,49 4.4477152,49 4,49.447715 4,50 v 5 c 0,0.552285 0.4477152,1 1,1 h 5 c 0.552285,0 1,-0.447715 1,-1 0,-0.552285 -0.447715,-1 -1,-1 z"
           style="fill:#ff5555" />
        <path
           inkscape:connector-curvature="0"
           id="path7982"
           d="m 55,51 c -0.552285,0 -1,0.447715 -1,1 v 2 h -2 c -0.552285,0 -1,0.447715 -1,1 0,0.552285 0.447715,1 1,1 h 3 c 0.552285,0 1,-0.447715 1,-1 v -3 c 0,-0.552285 -0.447715,-1 -1,-1 z"
           style="fill:#ff5555" />
      </g>
    </g>
  </g>
</svg>
