<?xml version="1.0" encoding="UTF-8" standalone="no"?>
<!-- Created with Inkscape (http://www.inkscape.org/) -->

<svg
   xmlns:dc="http://purl.org/dc/elements/1.1/"
   xmlns:cc="http://creativecommons.org/ns#"
   xmlns:rdf="http://www.w3.org/1999/02/22-rdf-syntax-ns#"
   xmlns:svg="http://www.w3.org/2000/svg"
   xmlns="http://www.w3.org/2000/svg"
   xmlns:sodipodi="http://sodipodi.sourceforge.net/DTD/sodipodi-0.dtd"
   xmlns:inkscape="http://www.inkscape.org/namespaces/inkscape"
   width="23.843946mm"
   height="23.901859mm"
   viewBox="0 0 23.843946 23.901859"
   version="1.1"
   id="svg4520"
   inkscape:version="0.92.2 (5c3e80d, 2017-08-06)"
   sodipodi:docname="bronze2.svg">
  <defs
     id="defs4514" />
  <sodipodi:namedview
     id="base"
     pagecolor="#ffffff"
     bordercolor="#666666"
     borderopacity="1.0"
     inkscape:pageopacity="0.0"
     inkscape:pageshadow="2"
     inkscape:zoom="9.3869961"
     inkscape:cx="45.059426"
     inkscape:cy="45.168867"
     inkscape:document-units="mm"
     inkscape:current-layer="Page-1-0"
     showgrid="false"
     fit-margin-top="0"
     fit-margin-left="0"
     fit-margin-right="0"
     fit-margin-bottom="0"
     inkscape:window-width="1920"
     inkscape:window-height="1017"
     inkscape:window-x="-8"
     inkscape:window-y="-8"
     inkscape:window-maximized="1" />
  <metadata
     id="metadata4517">
    <rdf:RDF>
      <cc:Work
         rdf:about="">
        <dc:format>image/svg+xml</dc:format>
        <dc:type
           rdf:resource="http://purl.org/dc/dcmitype/StillImage" />
        <dc:title />
      </cc:Work>
    </rdf:RDF>
  </metadata>
  <g
     inkscape:label="Layer 1"
     inkscape:groupmode="layer"
     id="layer1"
     transform="translate(-76.524454,-138.39431)">
    <path
       style="fill:#d38d5f;stroke-width:0.26458332"
       inkscape:connector-curvature="0"
       id="path1446-3"
       d="m 88.430705,138.39431 c -6.56167,0 -11.906251,5.34458 -11.906251,11.90625 0,6.56167 5.344581,11.90625 11.906251,11.90625 6.561659,0 11.906255,-5.34458 11.906255,-11.90625 0,-6.56167 -5.344596,-11.90625 -11.906255,-11.90625 z" />
    <path
       style="fill:#a05a2c;stroke-width:0.26458332"
       inkscape:connector-curvature="0"
       id="path1448-7"
       d="m 96.584854,141.68513 c 1.984381,2.14312 3.227921,5.00062 3.227921,8.14916 0,6.56167 -5.344581,11.90625 -11.906251,11.90625 -3.148539,0 -6.006039,-1.21708 -8.14917,-3.22791 2.169591,2.32833 5.26521,3.78354 8.704801,3.78354 6.561659,0 11.906245,-5.34458 11.906245,-11.90625 0,-3.43959 -1.455206,-6.53521 -3.783546,-8.70479 z" />
    <path
       style="fill:#d38d5f;stroke-width:0.29488391"
       inkscape:connector-curvature="0"
       id="path1500-3"
       d="m 90.456057,140.72907 c -5.669047,0 -10.301823,4.30806 -10.301823,9.64321 0,2.65331 1.158195,5.04984 2.986922,6.79018 1.798244,1.36946 4.084145,2.19683 6.55293,2.19683 5.699529,0 10.332294,-4.33659 10.332294,-9.67174 0,-2.33948 -0.883886,-4.47924 -2.346863,-6.13399 -1.859209,-1.74035 -4.419424,-2.82449 -7.22346,-2.82449 z" />
    <g
       transform="matrix(0.29789948,0,0,0.32018134,80.55667,139.74291)"
       style="fill:#784421;fill-rule:evenodd"
       id="Page-1-0"
       inkscape:transform-center-x="1.6054658"
       inkscape:transform-center-y="2.2273701">
      <g
         style="fill:#784421;fill-rule:nonzero"
         id="008---Beaver"
         transform="matrix(1.2457928,0,0,1.2156755,-11.983248,-4.2383033)">
        <path
           inkscape:connector-curvature="0"
           id="Shape-1"
           d="m 23.9,22.028 c -0.397329,-1.983173 -1.947726,-3.533175 -3.931,-3.93 -2.166894,-0.433686 -4.362224,0.602417 -5.404852,2.550863 -1.042629,1.948446 -0.686685,4.349755 0.876324,5.91197 1.56301,1.562214 3.9645,1.916936 5.912415,0.873316 C 23.300802,26.39053 24.335788,24.194673 23.901,22.028 Z m -2.053,0.078 c -0.265451,0.611129 -0.905235,0.970862 -1.56532,0.880135 -0.660084,-0.09073 -1.179089,-0.609731 -1.269815,-1.269815 -0.09073,-0.660085 0.269006,-1.299869 0.880135,-1.56532 0.932411,0.293044 1.663003,1.02289 1.957,1.955 z M 19,26 C 17.732456,26.0054 16.599505,25.210292 16.173721,24.016388 15.747937,22.822485 16.122054,21.48986 17.107,20.692 17.039458,20.956145 17.00354,21.22738 17,21.5 c 0,1.932997 1.567003,3.5 3.5,3.5 0.27262,-0.0035 0.543855,-0.03946 0.808,-0.107 C 20.744131,25.59011 19.896604,25.996614 19,26 Z"
           style="fill:#784421" />
        <path
           inkscape:connector-curvature="0"
           id="path3163"
           d="M 61.03,7.384 C 60.958684,5.005415 59.636189,2.841437 57.552,1.693 54.083,-0.207 50.091,1.827 46.252,7.414 36.611878,2.8625972 25.441122,2.8625972 15.801,7.414 11.952,1.832 7.958,-0.2 4.5,1.691 2.415329,2.8337274 1.0905233,4.9938111 1.017,7.37 c -0.234,3.521 1.657,7.434 4.739,10 -0.809557,1.732693 -1.3939736,3.561893 -1.739,5.443 -4.074,21.8 -3.025,29.76 4.488,34.053 2.363113,1.314664 5.034569,1.974069 7.738,1.91 2.625948,-0.08044 5.239711,-0.391974 7.811,-0.931 l 0.426,-0.076 0.2,0.881 c 0.300959,1.371692 1.515679,2.349293 2.92,2.35 H 29 c 0.740399,-0.0026 1.453333,-0.280648 2,-0.78 0.546667,0.499352 1.259601,0.777396 2,0.78 h 1.4 c 1.407677,4.63e-4 2.625564,-0.979757 2.926,-2.355 l 0.2,-0.883 0.478,0.085 c 5.17,0.926 10.519,1.885 15.546,-0.979 C 61.062,52.576 62.11,44.62 58.037,22.816 57.691441,20.932079 57.106012,19.100175 56.295,17.365 59.367,14.8 61.259,10.9 61.03,7.384 Z M 3.013,7.5 C 3.049956,5.8092048 3.9825611,4.2653989 5.462,3.446 c 3.133,-1.72 6.527,2 8.575,4.923 -0.566,0.338 -1.12,0.71 -1.667,1.1 C 11.27,7.923 9.389,5.625 7.67,5.089 7.2573827,4.9396184 6.7998382,4.9802484 6.42,5.2 5.645,5.624 4.776,6.572 5.047,8.666 c 0.3072738,2.003081 1.2899127,3.840986 2.785,5.209 -0.4024209,0.547174 -0.7765768,1.114582 -1.121,1.7 C 4.3413131,13.565316 2.9865395,10.607015 3.013,7.5 Z m 6.11,4.838 C 8.0136552,11.298644 7.2785952,9.9220324 7.032,8.422 6.9054808,7.9590017 6.9841638,7.463955 7.248,7.063 c 1.4329892,0.9411132 2.6429034,2.1841337 3.545,3.642 -0.587228,0.513237 -1.1447945,1.059452 -1.67,1.636 z m 28.038,18.95 c -0.865032,0.735354 -1.827871,1.347182 -2.861,1.818 l -0.354,0.183 c -1.858465,0.944317 -4.057352,0.938737 -5.911,-0.015 L 27.71,33.106 c -1.034578,-0.469722 -1.999083,-1.08053 -2.866,-1.815 -0.479,-0.443 -1.241,-1.48 -0.7,-2.243 0.707071,-0.753023 1.630644,-1.267749 2.643,-1.473 1.288645,-0.347729 2.614591,-0.538445 3.949,-0.568 0.06584,-0.0056 0.131925,-0.0079 0.198,-0.007 H 31 c 0.087,0 0.18,0 0.329,0.01 1.312898,0.03111 2.617279,0.22014 3.885,0.563 1.014382,0.20564 1.939948,0.721008 2.649,1.475 0.537,0.763 -0.223,1.8 -0.702,2.243 z M 23.98,33.171 c 0.877197,0.663564 1.818546,1.237753 2.81,1.714 l 0.358,0.184 c 1.189104,0.607688 2.505615,0.924048 3.841,0.923 1.356246,-7.94e-4 2.692917,-0.323651 3.9,-0.942 l 0.32,-0.165 c 1.00439,-0.481201 1.956717,-1.064259 2.842,-1.74 2.881,2.654 7.791,8.35 5.084,14.449 -1.458,3.282 -3.7,4.526 -6.866,3.8 -3.13,-0.706 -4.4,-2.367 -5.22,-2.385 -0.807,-0.042 -2.153,1.681 -5.274,2.386 -3.159,0.721 -5.4,-0.521 -6.862,-3.8 C 16.2,41.484 21.105,35.81 23.98,33.171 Z M 29,59 H 27.6 C 27.131614,58.9982 26.727232,58.671539 26.627,58.214 L 26.235,56.456 V 56.45 56.44 l -0.664,-2.981 c 0.216,-0.034 0.431,-0.063 0.652,-0.113 1.325128,-0.319844 2.597216,-0.829083 3.777,-1.512 V 58 c 0,0.552285 -0.447715,1 -1,1 z m 5.4,0 H 33 c -0.552285,0 -1,-0.447715 -1,-1 v -6.194 c 1.19353,0.696688 2.482489,1.215169 3.826,1.539 0.2,0.047 0.405,0.082 0.6,0.115 l -0.658,2.959 c -0.0031,0.0065 -0.0058,0.01317 -0.008,0.02 v 0.014 l -0.39,1.755 C 35.272445,58.666831 34.869072,58.996184 34.4,59 Z m 18.155,-3.869 c -4.4,2.5 -9.381,1.61 -14.2,0.747 l -0.4,-0.07 0.5,-2.247 c 2.832,-0.209 5.094,-1.973 6.508,-5.155 3.221,-7.255 -2.321,-13.75 -5.556,-16.732 0.809084,-1.120638 0.844072,-2.623934 0.088,-3.781 -0.957353,-1.146588 -2.273147,-1.937122 -3.735,-2.244 -1.406522,-0.384378 -2.854365,-0.597257 -4.312,-0.634 -0.279863,-0.02297 -0.561137,-0.02297 -0.841,0 -1.478815,0.03602 -2.947833,0.250914 -4.375,0.64 -1.460246,0.305172 -2.775015,1.09361 -3.732,2.238 -0.76323,1.170799 -0.720193,2.692218 0.108,3.818 -3.233,2.974 -8.746,9.437 -5.526,16.7 1.4,3.16 3.65,4.907 6.452,5.137 l 0.506,2.275 -0.343,0.061 C 18.873,56.747 13.885,57.641 9.497,55.137 2.931,51.38 2.109,43.916 5.983,23.184 c 0.5564242,-3.236041 1.9305605,-6.276215 3.992,-8.832 0.007,-0.009 0.017,-0.012 0.024,-0.02 0.007,-0.008 0.007,-0.018 0.012,-0.026 0.772531,-0.93729 1.634609,-1.797024 2.574,-2.567 0.02957,-0.0102 0.05861,-0.02188 0.087,-0.035 0.07997,-0.05814 0.150473,-0.128307 0.209,-0.208 0.882515,-0.694776 1.818789,-1.318401 2.8,-1.865 C 15.793784,9.608698 15.901763,9.566725 16,9.507 16.0443,9.470864 16.08514,9.430692 16.122,9.387 20.733876,7.1037879 25.820203,5.9432254 30.966,6 h 0.119 C 31.301,5.994 52.753,5.445 56.066,23.184 59.94,43.916 59.119,51.38 52.555,55.131 Z m -1.3,-44.426 c 0.904588,-1.4564219 2.115684,-2.69823 3.549,-3.639 0.25905,0.4051646 0.334952,0.9008863 0.209,1.365 -0.247783,1.4974011 -0.982371,2.871327 -2.09,3.909 -0.523491,-0.575846 -1.07904,-1.121713 -1.664,-1.635 z m 2.958,3.171 C 55.707405,12.511715 56.690734,10.677719 57,8.678 57.269,6.585 56.406,5.635 55.618,5.197 55.233232,4.9797009 54.772227,4.9431132 54.358,5.097 52.633,5.64 50.775,7.926 49.679,9.472 c -0.544,-0.392 -1.1,-0.763 -1.661,-1.1 2.04,-2.924 5.425,-6.652 8.57,-4.924 1.479261,0.825287 2.409602,2.3734448 2.444,4.067 0.01943,3.099667 -1.335498,6.048643 -3.7,8.053 -0.342416,-0.582741 -0.714574,-1.147487 -1.115,-1.692 z"
           style="fill:#784421" />
        <path
           inkscape:connector-curvature="0"
           id="path3165"
           d="m 43.049,18 c -0.325154,0.0017 -0.649363,0.0352 -0.968,0.1 h -0.005 c -2.606834,0.530063 -4.339247,3.012237 -3.937748,5.641942 0.401499,2.629705 2.795667,4.481839 5.441906,4.209872 2.64624,-0.271967 4.613632,-2.57236 4.471852,-5.228758 C 47.91023,20.066658 45.709155,17.988749 43.049,18 Z m -0.894,2.151 c 0.611452,0.265306 0.971447,0.905294 0.880662,1.56561 -0.09079,0.660317 -0.610139,1.179405 -1.270503,1.269853 C 41.104796,23.07691 40.464993,22.716587 40.2,22.105 c 0.293428,-0.931535 1.023315,-1.661048 1.955,-1.954 z M 43.049,26 c -0.896604,-0.0034 -1.744131,-0.40989 -2.308,-1.107 0.264145,0.06754 0.535379,0.10346 0.808,0.107 1.932997,0 3.5,-1.567003 3.5,-3.5 -0.0035,-0.27262 -0.03946,-0.543855 -0.107,-0.808 0.984946,0.79786 1.359063,2.130485 0.933279,3.324388 C 45.449495,25.210292 44.316544,26.005449 43.049,26 Z"
           style="fill:#784421" />
        <path
           inkscape:connector-curvature="0"
           id="path3167"
           d="m 29.447,30.105 -2,-1 c -0.494295,-0.246871 -1.095129,-0.0463 -1.342,0.448 -0.246871,0.494295 -0.0463,1.095129 0.448,1.342 l 2,1 c 0.319753,0.159698 0.700414,0.136678 0.998593,-0.06039 0.298178,-0.197065 0.468574,-0.538237 0.447,-0.895 C 29.977019,30.58285 29.766753,30.264698 29.447,30.105 Z"
           style="fill:#784421" />
        <path
           inkscape:connector-curvature="0"
           id="path3169"
           d="m 34.553,29.105 -2,1 c -0.494295,0.246871 -0.694871,0.847705 -0.448,1.342 0.246871,0.494295 0.847705,0.694871 1.342,0.448 l 2,-1 c 0.494295,-0.246871 0.694871,-0.847705 0.448,-1.342 -0.246871,-0.494295 -0.847705,-0.694871 -1.342,-0.448 z"
           style="fill:#784421" />
        <circle
           id="Oval"
           cx="22"
           cy="44"
           r="1"
           style="fill:#784421" />
        <circle
           id="circle3172"
           cx="24"
           cy="48"
           r="1"
           style="fill:#784421" />
        <circle
           id="circle3174"
           cx="27"
           cy="45"
           r="1"
           style="fill:#784421" />
        <circle
           id="circle3176"
           cx="40"
           cy="44"
           r="1"
           style="fill:#784421" />
        <circle
           id="circle3178"
           cx="38"
           cy="48"
           r="1"
           style="fill:#784421" />
        <circle
           id="circle3180"
           cx="35"
           cy="45"
           r="1"
           style="fill:#784421" />
      </g>
    </g>
  </g>
</svg>
