<?xml version="1.0" encoding="UTF-8" standalone="no"?>
<!-- Created with Inkscape (http://www.inkscape.org/) -->

<svg
   xmlns:dc="http://purl.org/dc/elements/1.1/"
   xmlns:cc="http://creativecommons.org/ns#"
   xmlns:rdf="http://www.w3.org/1999/02/22-rdf-syntax-ns#"
   xmlns:svg="http://www.w3.org/2000/svg"
   xmlns="http://www.w3.org/2000/svg"
   xmlns:sodipodi="http://sodipodi.sourceforge.net/DTD/sodipodi-0.dtd"
   xmlns:inkscape="http://www.inkscape.org/namespaces/inkscape"
   width="49.151089mm"
   height="53.913357mm"
   viewBox="0 0 49.151089 53.913357"
   version="1.1"
   id="svg1467"
   inkscape:version="0.92.2 (5c3e80d, 2017-08-06)"
   sodipodi:docname="discoverflag.svg">
  <defs
     id="defs1461" />
  <sodipodi:namedview
     id="base"
     pagecolor="#ffffff"
     bordercolor="#666666"
     borderopacity="1.0"
     inkscape:pageopacity="0.0"
     inkscape:pageshadow="2"
     inkscape:zoom="0.35"
     inkscape:cx="-188.54463"
     inkscape:cy="-0.97361557"
     inkscape:document-units="mm"
     inkscape:current-layer="layer1"
     showgrid="false"
     fit-margin-top="0"
     fit-margin-left="0"
     fit-margin-right="0"
     fit-margin-bottom="0"
     inkscape:window-width="1920"
     inkscape:window-height="1017"
     inkscape:window-x="-8"
     inkscape:window-y="-8"
     inkscape:window-maximized="1" />
  <metadata
     id="metadata1464">
    <rdf:RDF>
      <cc:Work
         rdf:about="">
        <dc:format>image/svg+xml</dc:format>
        <dc:type
           rdf:resource="http://purl.org/dc/dcmitype/StillImage" />
        <dc:title></dc:title>
      </cc:Work>
    </rdf:RDF>
  </metadata>
  <g
     inkscape:label="Layer 1"
     inkscape:groupmode="layer"
     id="layer1"
     transform="translate(-29.853028,-94.662373)">
    <g
       transform="matrix(0.81907082,0,0,0.89815653,29.854122,94.686305)"
       style="fill:#ff5555;fill-rule:evenodd"
       id="Page-1-02">
      <g
         style="fill:#ff5555;fill-rule:nonzero"
         id="001---Canada-Flag"
         transform="translate(-1,-1)">
        <path
           inkscape:connector-curvature="0"
           id="Shape-9"
           d="m 59.628,7.511 c -3.748094,-1.1779385 -7.676418,-1.6771066 -11.6,-1.474 -0.011,0 -0.019,-0.006 -0.03,-0.006 -0.011,0 -0.032,0.009 -0.049,0.01 -4.76109,0.3105903 -9.490355,0.9953708 -14.144,2.048 -4.538171,1.0296054 -9.14931,1.7059637 -13.792,2.023 H 20 c -0.008,0 -0.014,0 -0.021,0 C 16.566131,10.290359 13.147055,9.9096735 9.857,8.985 10.539341,8.1231741 10.912614,7.0572336 10.917,5.958 10.928853,3.6201627 9.3062901,1.5915799 7.0229626,1.0895448 4.7396351,0.58750963 2.4158026,1.7483985 1.4459291,3.875596 0.47605558,6.0027934 1.1236042,8.5184526 3,9.913 V 58 C 2.99426,58.791951 3.3095678,59.552451 3.874,60.108 4.4319289,60.681998 5.1995361,61.004061 6,61 7.6568542,61 9,59.656854 9,58 V 44.687 c 3.560878,1.031073 7.268534,1.462298 10.971,1.276 0.011,0 0.019,0.006 0.029,0.006 0.01,0 0.023,-0.007 0.036,-0.007 4.767947,-0.309893 9.503992,-0.99569 14.164,-2.051 4.531491,-1.029994 9.13591,-1.707685 13.772,-2.027 0.012,0 0.021,0.007 0.033,0.007 0.012,0 0.027,-0.008 0.041,-0.008 3.500127,-0.183298 7.006191,0.22234 10.372,1.2 0.611772,0.183611 1.274262,0.06918 1.789,-0.309 0.504991,-0.371178 0.802269,-0.961275 0.8,-1.588 V 9.411 C 61.0097,8.5450964 60.452084,7.77686 59.628,7.511 Z M 5.958,3 C 7.1549857,2.9995955 8.2343146,3.7203845 8.692568,4.8261777 9.1508215,5.9319709 8.8977255,7.204932 8.0513288,8.0513288 7.204932,8.8977255 5.9319709,9.1508215 4.8261777,8.692568 3.7203845,8.2343146 2.9995955,7.1549857 3,5.958 3.0022034,4.3252553 4.3252553,3.0022034 5.958,3 Z M 7,43.33 V 58 C 7,58.552285 6.5522847,59 6,59 5.7305578,59.000873 5.4727916,58.890092 5.288,58.694 5.1014015,58.511604 4.9973724,58.260922 5,58 V 10.82 c 0.6606148,0.134476 1.3422066,0.12766 2,-0.02 z M 9,42.591 V 10.826 c 3.246096,0.947633 6.619508,1.386176 10,1.3 V 44 C 15.611317,44.09304 12.231044,43.616759 9,42.591 Z M 33.805,41.949 C 29.585104,42.890126 25.307354,43.549912 21,43.924 V 12.049 c 4.440526,-0.364306 8.850861,-1.032539 13.2,-2 C 38.418282,9.1088987 42.694367,8.4501144 47,8.077 V 39.95 c -4.43885,0.363988 -8.847521,1.031888 -13.195,1.999 z M 58.99,41.17 C 55.747166,40.223124 52.377166,39.784585 49,39.87 V 8 c 3.388815,-0.092735 6.769147,0.3842301 10,1.411 z"
           style="fill:#ff5555" />
        <path
           inkscape:connector-curvature="0"
           id="path4756"
           d="m 45.977,25.245 c -0.08291,-0.398788 -0.383506,-0.716796 -0.777,-0.822 -0.158,-0.054 -0.314333,-0.109 -0.469,-0.165 0.288,-0.911 0.574,-1.819 0.852,-2.712 0.026,-0.082 0.052,-0.163 0.079,-0.271 0.0861,-0.350892 -0.02376,-0.720943 -0.287399,-0.967997 C 45.110966,20.059949 44.734567,19.974316 44.39,20.083 l -0.14,0.044 c -0.388,0.123 -0.762,0.24 -1.139,0.37 l -0.1,0.036 c -0.438,0.153 -0.877,0.3 -1.317,0.464 -0.091,-0.2 -0.184,-0.408 -0.284,-0.631 -0.14218,-0.362611 -0.467658,-0.621314 -0.853,-0.678 -0.40651,-0.04767 -0.806913,0.128794 -1.046,0.461 -0.266667,0.333333 -0.533333,0.666667 -0.8,1 l 0.683,-3.614 c 0.02954,-0.120809 0.04498,-0.244636 0.046,-0.369 -0.0063,-0.244042 -0.08423,-0.480845 -0.224,-0.681 -0.173985,-0.229516 -0.438479,-0.372873 -0.725756,-0.393366 -0.287278,-0.02049 -0.569442,0.08387 -0.774244,0.286366 -0.11975,0.109715 -0.247797,0.210013 -0.383,0.3 l -0.366,0.276 -0.51,0.394 -1.516,-2.678 c -0.012,-0.021 -0.029,-0.048 -0.047,-0.075 -0.018,-0.027 -0.037,-0.066 -0.058,-0.1 -0.2407,-0.341534 -0.660424,-0.508639 -1.07,-0.426 -0.325932,0.06417 -0.598724,0.285999 -0.728,0.592 -0.02549,0.05991 -0.04492,0.122219 -0.058,0.186 l -0.026,0.057 c -0.537,1.166 -1.073,2.331 -1.629,3.524 -0.287,-0.111 -0.573,-0.224 -0.86,-0.337 l -0.32,-0.123 c -0.322857,-0.203215 -0.730902,-0.213954 -1.064,-0.028 -0.202969,0.117854 -0.358016,0.303345 -0.438,0.524 -0.104862,0.260926 -0.112668,0.550808 -0.022,0.817 l 0.814,4.069 -0.728,-0.651 -0.319,-0.286 c -0.265555,-0.275026 -0.653952,-0.394039 -1.028,-0.315 -0.377924,0.101197 -0.676707,0.390525 -0.79,0.765 l -0.4,1 c -0.948,-0.061 -1.847,-0.136 -2.736,-0.229 -0.496867,-0.0519 -0.955808,0.270858 -1.075,0.756 -0.06263,0.250745 -0.04048,0.515172 0.063,0.752 l 0.884,2.6 -0.068,0.04 c -0.2,0.116 -0.4,0.231 -0.564,0.322 -0.382041,0.159564 -0.642127,0.520129 -0.673,0.933 -0.0241,0.396317 0.172428,0.773595 0.511,0.981 0.868,0.614 1.735,1.2 2.6,1.779 0.8,0.534 1.6,1.055 2.437,1.587 -0.154,0.461 -0.314,0.918 -0.473,1.375 -0.09755,0.242375 -0.109891,0.510694 -0.035,0.761 0.07894,0.261764 0.261611,0.479792 0.505508,0.603346 0.243896,0.123554 0.527746,0.141859 0.785492,0.05065 l 0.471,-0.163 c 0.23,-0.078 0.461,-0.158 0.671,-0.234 0.588,-0.2 2.056,-0.808 3.525,-1.427 v 3.6 c 0,0.552285 0.447715,1 1,1 0.552285,0 1,-0.447715 1,-1 v -4.107 c 1.131,0.025 2.258,0.054 3.177,0.078 0.749,0.02 1.36,0.037 1.725,0.043 0.05,-0.009 0.222,-0.021 0.283,-0.03 0.2931,-0.04916 0.549148,-0.226144 0.698715,-0.482959 0.149568,-0.256816 0.177156,-0.566851 0.07529,-0.846041 -0.1,-0.272 -0.2,-0.54 -0.3,-0.8 l -0.127,-0.327 c -0.035,-0.093 -0.069,-0.185 -0.106,-0.28 1.255333,-1.228 2.505667,-2.425 3.751,-3.591 l 0.218,-0.2 c 0.392,-0.365 0.785,-0.732 1.174,-1.079 0.330631,-0.254263 0.489016,-0.673654 0.409,-1.083 z m -2.951,0.694 -0.22,0.2 c -1.315,1.234 -2.641,2.5 -3.962,3.8 -0.50511,0.409595 -0.667431,1.109966 -0.394,1.7 0.037,0.093 0.074,0.189 0.112,0.287 l -0.333,-0.009 c -1.188,-0.031 -2.725,-0.072 -4.171,-0.1 -0.140598,-5.55e-4 -0.279924,0.02663 -0.41,0.08 -1.786,0.761 -3.192,1.346 -4.061,1.692 0.260642,-0.630946 -0.0036,-1.356487 -0.609,-1.672 -0.914,-0.583 -1.838,-1.176 -2.752,-1.789 -0.475,-0.317 -0.95,-0.636 -1.429,-0.964 0.555574,-0.383907 0.771439,-1.101242 0.52,-1.728 l -0.571,-1.68 c 0.526,0.043 1.062,0.081 1.612,0.114 0.693485,0.08709 1.350203,-0.333614 1.561,-1 l 0.058,-0.145 c 0.464,0.415 0.929,0.83 1.4,1.248 0.485037,0.448714 1.220081,0.490644 1.753,0.1 0.49209,-0.350838 0.721642,-0.965482 0.58,-1.553 l -0.824,-4.118 0.169,0.065 c 0.366003,0.152461 0.778473,0.148398 1.141401,-0.01124 0.362928,-0.159643 0.644653,-0.460939 0.779599,-0.833755 0.374,-0.8 0.745,-1.6 1.113,-2.4 l 0.994,1.756 c 0.191454,0.344109 0.523995,0.587119 0.91,0.665 0.349381,0.06137 0.709051,-0.01149 1.007,-0.204 l -0.732,3.869 c -0.147227,0.669949 0.236422,1.342631 0.888,1.557 0.568242,0.168462 1.181557,-0.03028 1.543,-0.5 l 0.782,-0.979 0.712,-0.886 c 0.33697,0.602126 1.080353,0.843824 1.707,0.555 0.42,-0.156 0.839,-0.3 1.258,-0.452 -0.114,0.362 -0.228333,0.725 -0.343,1.089 l -0.146,0.462 c -0.247204,0.599979 -0.02898,1.290869 0.518,1.64 -0.055,0.045 -0.108,0.095 -0.161,0.145 z"
           style="fill:#ff5555" />
      </g>
    </g>
  </g>
</svg>
