<?xml version="1.0" encoding="UTF-8" standalone="no"?>
<!-- Created with Inkscape (http://www.inkscape.org/) -->

<svg
   xmlns:dc="http://purl.org/dc/elements/1.1/"
   xmlns:cc="http://creativecommons.org/ns#"
   xmlns:rdf="http://www.w3.org/1999/02/22-rdf-syntax-ns#"
   xmlns:svg="http://www.w3.org/2000/svg"
   xmlns="http://www.w3.org/2000/svg"
   xmlns:sodipodi="http://sodipodi.sourceforge.net/DTD/sodipodi-0.dtd"
   xmlns:inkscape="http://www.inkscape.org/namespaces/inkscape"
   width="58.15736mm"
   height="50.592796mm"
   viewBox="0 0 58.15736 50.592796"
   version="1.1"
   id="svg1467"
   inkscape:version="0.92.2 (5c3e80d, 2017-08-06)"
   sodipodi:docname="discoverflag1.svg">
  <defs
     id="defs1461" />
  <sodipodi:namedview
     id="base"
     pagecolor="#ffffff"
     bordercolor="#666666"
     borderopacity="1.0"
     inkscape:pageopacity="0.0"
     inkscape:pageshadow="2"
     inkscape:zoom="3.222672"
     inkscape:cx="139.91604"
     inkscape:cy="127.11105"
     inkscape:document-units="mm"
     inkscape:current-layer="layer1"
     showgrid="false"
     fit-margin-top="0"
     fit-margin-left="0"
     fit-margin-right="0"
     fit-margin-bottom="0"
     inkscape:window-width="1920"
     inkscape:window-height="1017"
     inkscape:window-x="-8"
     inkscape:window-y="-8"
     inkscape:window-maximized="1" />
  <metadata
     id="metadata1464">
    <rdf:RDF>
      <cc:Work
         rdf:about="">
        <dc:format>image/svg+xml</dc:format>
        <dc:type
           rdf:resource="http://purl.org/dc/dcmitype/StillImage" />
        <dc:title></dc:title>
      </cc:Work>
    </rdf:RDF>
  </metadata>
  <g
     inkscape:label="Layer 1"
     inkscape:groupmode="layer"
     id="layer1"
     transform="translate(-28.831836,-96.785848)">
    <path
       inkscape:connector-curvature="0"
       id="path4756"
       d="m 72.28457,112.89951 c 0.02872,-0.22462 -0.08042,-0.43192 -0.282117,-0.53587 -0.07874,-0.0481 -0.156393,-0.0965 -0.232897,-0.14523 0.334438,-0.45571 0.667186,-0.91006 0.992588,-1.35728 0.03015,-0.041 0.06009,-0.0815 0.09573,-0.13637 0.114836,-0.17852 0.12291,-0.3909 0.02119,-0.55557 -0.101744,-0.16468 -0.297511,-0.25603 -0.512098,-0.23895 l -0.08715,0.007 c -0.241751,0.0196 -0.474485,0.0376 -0.711364,0.0622 l -0.0631,0.007 c -0.275588,0.0297 -0.550586,0.056 -0.829375,0.0914 -0.01343,-0.11859 -0.02647,-0.24173 -0.04061,-0.37378 -0.0115,-0.21227 -0.145868,-0.39065 -0.352145,-0.46749 -0.219894,-0.0746 -0.478755,-0.0277 -0.676199,0.12236 -0.213199,0.14737 -0.426395,0.29472 -0.639592,0.44207 l 1.067977,-1.8631 c 0.03949,-0.0615 0.07158,-0.12627 0.09568,-0.19309 0.04249,-0.13213 0.04348,-0.26894 0.0026,-0.39347 -0.05458,-0.14445 -0.176416,-0.25342 -0.334312,-0.29899 -0.1579,-0.0456 -0.336509,-0.0234 -0.490149,0.0611 -0.08818,0.0447 -0.17925,0.0832 -0.272401,0.11542 l -0.258293,0.10455 -0.361696,0.15075 -0.347325,-1.62369 c -0.0027,-0.0127 -0.0072,-0.0294 -0.01227,-0.0461 -0.0051,-0.0166 -0.0083,-0.04 -0.01375,-0.0608 -0.07097,-0.21276 -0.275726,-0.35317 -0.521995,-0.35794 -0.195671,-0.005 -0.391234,0.082 -0.521895,0.23111 -0.02568,0.0292 -0.04841,0.0604 -0.06783,0.0931 l -0.02543,0.0276 c -0.522875,0.56303 -1.044998,1.12564 -1.58368,1.70093 -0.140632,-0.0942 -0.280313,-0.18947 -0.420565,-0.2848 l -0.156943,-0.10467 c -0.143389,-0.14819 -0.371139,-0.20303 -0.593888,-0.14296 -0.136586,0.039 -0.258967,0.12023 -0.345731,0.22938 -0.108382,0.12783 -0.167592,0.28292 -0.166876,0.4371 l -0.31101,2.28799 -0.286861,-0.43793 -0.125558,-0.1923 c -0.09754,-0.17996 -0.29375,-0.29071 -0.519334,-0.29313 -0.231967,0.009 -0.454914,0.12883 -0.58952,0.31676 l -0.414341,0.49016 c -0.522316,-0.14679 -1.014366,-0.29531 -1.497413,-0.45222 -0.269976,-0.0877 -0.589458,0.0309 -0.748314,0.27768 -0.08268,0.12742 -0.120211,0.27241 -0.106707,0.41232 l 0.0062,1.50573 -0.04584,0.0133 c -0.134544,0.0384 -0.268932,0.0763 -0.37849,0.10551 -0.245312,0.04 -0.459947,0.20275 -0.555402,0.42127 -0.08851,0.21041 -0.04917,0.43711 0.102264,0.58945 0.372695,0.43485 0.75012,0.8545 1.127746,1.27014 0.349529,0.38361 0.701515,0.76023 1.072258,1.14721 -0.173893,0.22961 -0.350403,0.45635 -0.526353,0.68322 -0.100761,0.11872 -0.15845,0.26166 -0.163613,0.40539 -0.005,0.15038 0.0566,0.2897 0.170581,0.38552 0.113987,0.0958 0.270355,0.13984 0.432741,0.12174 l 0.296043,-0.0311 c 0.144289,-0.0144 0.289475,-0.0296 0.422104,-0.0453 0.368936,-0.037 1.310573,-0.18771 2.254852,-0.34426 l -0.680712,1.93769 c -0.104431,0.29726 0.06304,0.59207 0.374042,0.65847 0.311007,0.0664 0.647782,-0.12074 0.752213,-0.41801 l 0.776581,-2.21057 c 0.632185,0.14939 1.261317,0.30059 1.774319,0.42392 0.418007,0.1008 0.758869,0.1834 0.963274,0.23052 0.02983,0.001 0.128991,0.0154 0.165013,0.0179 0.174375,0.009 0.352001,-0.0557 0.484787,-0.17595 0.132781,-0.12025 0.206948,-0.28381 0.202364,-0.44632 -0.0049,-0.15843 -0.01052,-0.3147 -0.01767,-0.46668 l -0.0097,-0.19126 c -0.0021,-0.0543 -0.0039,-0.10788 -0.0067,-0.16347 0.939109,-0.51002 1.869548,-1.00398 2.791301,-1.48184 l 0.160577,-0.0814 c 0.289768,-0.14933 0.580471,-0.29962 0.865139,-0.43962 0.234265,-0.0971 0.402759,-0.30379 0.435099,-0.53374 z m -1.793017,0.0187 -0.161704,0.0812 c -0.973848,0.5061 -1.959934,1.02808 -2.949641,1.56898 -0.361891,0.15973 -0.585729,0.51718 -0.543317,0.86763 0.0033,0.0545 0.0059,0.11063 0.0088,0.16795 l -0.185851,-0.0448 c -0.663148,-0.15948 -1.520889,-0.36644 -2.329891,-0.55533 -0.07906,-0.0172 -0.16268,-0.0193 -0.246019,-0.006 -1.149642,0.19487 -2.052015,0.34069 -2.606796,0.42245 0.266079,-0.30827 0.254539,-0.73055 -0.02679,-0.97318 -0.40446,-0.42369 -0.812664,-0.85396 -1.211455,-1.29379 -0.207544,-0.22773 -0.41471,-0.45654 -0.622428,-0.69068 0.385451,-0.13984 0.64265,-0.49999 0.619571,-0.86757 l -0.0039,-0.97291 c 0.288084,0.0864 0.582736,0.17125 0.886207,0.25517 0.374047,0.13027 0.823419,-0.0172 1.068128,-0.35056 l 0.06006,-0.071 c 0.182821,0.27916 0.366206,0.55844 0.5524,0.84005 0.188292,0.29984 0.594286,0.41079 0.968249,0.26461 0.343446,-0.12967 0.588936,-0.4329 0.620264,-0.76616 l 0.314645,-2.31557 0.08288,0.0553 c 0.177269,0.1261 0.41031,0.1735 0.644758,0.13153 0.234549,-0.0423 0.450177,-0.17058 0.596662,-0.35502 0.361883,-0.38564 0.722073,-0.77163 1.080573,-1.15798 l 0.227711,1.06467 c 0.04274,0.20824 0.184059,0.37902 0.386702,0.46735 0.185152,0.075 0.401291,0.0795 0.605644,0.0113 l -1.143785,1.99445 c -0.20959,0.3429 -0.120741,0.7511 0.205648,0.94482 0.288148,0.15897 0.671082,0.1258 0.963446,-0.0836 l 0.625485,-0.43293 0.568476,-0.39128 c 0.0759,0.36461 0.448821,0.58408 0.856317,0.50396 0.266019,-0.0335 0.52919,-0.0606 0.793881,-0.092 -0.132647,0.18115 -0.265671,0.36279 -0.39907,0.54492 l -0.169571,0.23112 c -0.252654,0.2932 -0.260409,0.69131 -0.0184,0.94499 -0.0395,0.0177 -0.07876,0.0381 -0.118104,0.0587 z"
       style="fill:#ff5555;fill-rule:nonzero;stroke-width:0.57081968" />
    <path
       inkscape:connector-curvature="0"
       id="path4756-9"
       d="m 77.939092,135.17995 c 0.09655,-0.35747 0.01122,-0.75391 -0.220612,-1.02476 -0.08855,-0.11814 -0.175564,-0.23626 -0.261031,-0.3544 0.551121,-0.58981 1.099705,-1.17817 1.636949,-1.75836 0.04968,-0.0531 0.09895,-0.1053 0.159323,-0.17862 0.195064,-0.23898 0.261856,-0.58634 0.174737,-0.90862 -0.08715,-0.3223 -0.314697,-0.56941 -0.595234,-0.6464 l -0.113897,-0.0315 c -0.316145,-0.0862 -0.620251,-0.17055 -0.931475,-0.24592 l -0.0832,-0.0183 c -0.362328,-0.0861 -0.723046,-0.17732 -1.091012,-0.25552 0.01424,-0.20274 0.03012,-0.41285 0.04699,-0.63821 0.04155,-0.35676 -0.08393,-0.71773 -0.328839,-0.946 -0.263064,-0.23111 -0.608369,-0.28076 -0.902213,-0.1292 -0.31333,0.13919 -0.626655,0.27838 -0.939979,0.41756 l 1.868178,-2.55808 c 0.06711,-0.0824 0.125557,-0.17378 0.174329,-0.27245 0.09,-0.19754 0.127343,-0.42353 0.107807,-0.64958 -0.03185,-0.26571 -0.159634,-0.50571 -0.350626,-0.65853 -0.190992,-0.15283 -0.426607,-0.20375 -0.646638,-0.13936 -0.125242,0.0306 -0.252654,0.0498 -0.381,0.0573 l -0.359968,0.0463 -0.505229,0.072 -0.01572,-2.8562 c -2.09e-4,-0.0224 -0.0016,-0.052 -0.0036,-0.0822 -0.002,-0.0301 -9.9e-5,-0.0703 -0.0015,-0.10734 -0.03479,-0.38677 -0.260885,-0.71945 -0.576373,-0.8481 -0.250421,-0.10371 -0.52496,-0.0563 -0.732605,0.12633 -0.04079,0.0357 -0.07829,0.0762 -0.111972,0.1208 l -0.04001,0.0331 c -0.821973,0.6749 -1.642871,1.34949 -2.488423,2.03689 -0.155855,-0.22488 -0.310249,-0.45087 -0.465335,-0.67734 l -0.174071,-0.25013 c -0.145086,-0.31545 -0.423457,-0.51788 -0.725897,-0.52776 -0.186045,-0.002 -0.364998,0.0719 -0.505568,0.20987 -0.173342,0.15829 -0.290663,0.3858 -0.330654,0.64119 l -1.007352,3.63216 -0.252716,-0.86508 -0.110452,-0.37966 c -0.07768,-0.34552 -0.300648,-0.62496 -0.590148,-0.73961 -0.300734,-0.0988 -0.619309,-0.01 -0.842327,0.23488 l -0.66303,0.60758 c -0.632817,-0.49902 -1.22631,-0.98592 -1.805929,-1.48242 -0.323989,-0.27742 -0.766353,-0.23802 -1.036185,0.0923 -0.140172,0.17022 -0.226919,0.39166 -0.246709,0.62971 l -0.391745,2.49373 -0.06251,-4.7e-4 c -0.183256,-0.003 -0.366143,-0.006 -0.514812,-0.0111 -0.326181,-0.0539 -0.645405,0.10981 -0.826179,0.42445 -0.169699,0.30464 -0.179283,0.69893 -0.02494,1.02519 0.363929,0.90209 0.737979,1.78137 1.113348,2.6541 0.347734,0.80597 0.70049,1.60157 1.074616,2.42353 -0.284608,0.29453 -0.571821,0.58302 -0.858348,0.87199 -0.16112,0.14698 -0.273253,0.35513 -0.318043,0.59036 -0.04638,0.24628 -0.0041,0.50696 0.117066,0.72138 0.121168,0.2144 0.310631,0.36385 0.524296,0.41356 l 0.389032,0.0938 c 0.189388,0.047 0.380185,0.093 0.55492,0.13216 0.484321,0.11986 1.735488,0.33221 2.991568,0.53638 l -1.389874,2.87138 c -0.213196,0.44052 -0.07609,1.0103 0.306298,1.27267 0.382387,0.26237 0.865224,0.11799 1.078455,-0.32255 l 1.585618,-3.27575 c 0.773452,0.55718 1.542542,1.11575 2.169595,1.57142 0.510851,0.37181 0.927363,0.67556 1.177759,0.85375 0.03795,0.0169 0.161816,0.0887 0.207511,0.11055 0.221832,0.10033 0.467525,0.0805 0.670226,-0.0533 0.202716,-0.13379 0.34152,-0.36797 0.378796,-0.63903 0.0358,-0.26445 0.07001,-0.52571 0.101149,-0.78061 l 0.03831,-0.32113 c 0.01162,-0.0908 0.02371,-0.18033 0.03474,-0.27367 1.343267,-0.38311 2.671107,-0.74387 3.983515,-1.08226 l 0.228146,-0.056 c 0.412336,-0.10491 0.826126,-0.21093 1.229429,-0.3029 0.327088,-0.0457 0.59867,-0.305 0.701305,-0.66951 z m -2.311137,-0.84836 -0.229541,0.055 c -1.386899,0.35954 -2.793766,0.73938 -4.210297,1.14872 -0.507861,0.0867 -0.890645,0.56824 -0.929123,1.16875 -0.01024,0.0917 -0.02172,0.18591 -0.03326,0.28212 l -0.227108,-0.16535 c -0.810595,-0.58905 -1.858915,-1.352 -2.849305,-2.06122 -0.09714,-0.0672 -0.204077,-0.11179 -0.314792,-0.13087 -1.530392,-0.24145 -2.72973,-0.44279 -3.464981,-0.57969 0.424059,-0.37944 0.521218,-1.08365 0.223864,-1.62292 -0.407746,-0.89921 -0.818562,-1.81114 -1.21473,-2.73428 -0.20649,-0.4785 -0.412211,-0.95858 -0.61723,-1.44775 0.532887,-0.0423 0.959291,-0.51187 1.02718,-1.13123 l 0.253263,-1.61124 c 0.347597,0.28417 0.704054,0.56908 1.0721,0.85673 0.446538,0.39889 1.063652,0.37532 1.466879,-0.056 l 0.09615,-0.0881 c 0.161042,0.55144 0.322776,1.10334 0.487504,1.6605 0.162593,0.58831 0.655331,0.97095 1.175137,0.91252 0.47616,-0.0461 0.872397,-0.42724 1.001152,-0.96313 l 1.019348,-3.67599 0.09192,0.13212 c 0.194554,0.29547 0.481709,0.48817 0.794626,0.53325 0.312841,0.0455 0.624297,-0.0614 0.861667,-0.29465 0.567813,-0.46041 1.133546,-0.92225 1.697204,-1.38551 l 0.01027,1.87281 c -2.95e-4,0.36541 0.136133,0.7172 0.373321,0.96271 0.218221,0.2149 0.495361,0.32769 0.775975,0.3157 l -2.00055,2.73819 c -0.360589,0.46441 -0.354636,1.18322 0.01371,1.66372 0.328394,0.40433 0.829774,0.53715 1.261371,0.33423 l 0.919413,-0.40937 0.83504,-0.36843 c 8.37e-4,0.64035 0.422225,1.18626 0.967613,1.25358 0.351023,0.0751 0.696723,0.15932 1.045523,0.23707 -0.218713,0.23457 -0.437998,0.46979 -0.657925,0.70565 l -0.279451,0.29913 c -0.402798,0.36112 -0.518414,1.01586 -0.274543,1.55415 -0.0555,0.01 -0.111472,0.0244 -0.167453,0.0392 z"
       style="fill:#ff5555;fill-rule:nonzero;stroke-width:0.85770261" />
    <path
       inkscape:connector-curvature="0"
       id="path4756-2"
       d="m 49.771728,125.21714 c 0.24107,-0.1779 0.361378,-0.45743 0.310957,-0.72252 -0.01239,-0.11025 -0.02359,-0.21985 -0.03363,-0.32879 0.697184,-0.12616 1.391755,-0.25251 2.073839,-0.3787 0.06282,-0.0113 0.124887,-0.0223 0.205349,-0.0414 0.260921,-0.0631 0.47452,-0.24758 0.558737,-0.48241 0.08422,-0.23483 0.02597,-0.48354 -0.152384,-0.6506 l -0.07234,-0.068 c -0.201248,-0.18792 -0.394184,-0.36956 -0.59673,-0.54875 l -0.05472,-0.047 c -0.236628,-0.20754 -0.469559,-0.41762 -0.714159,-0.62278 0.105738,-0.11824 0.216217,-0.24024 0.334568,-0.37121 0.198711,-0.20097 0.271738,-0.47587 0.191401,-0.72046 -0.09288,-0.25408 -0.333645,-0.43195 -0.629011,-0.46466 -0.304587,-0.0486 -0.609174,-0.097 -0.913754,-0.14557 l 2.6248,-0.77022 c 0.08979,-0.0218 0.177289,-0.0529 0.260718,-0.0926 0.161141,-0.0828 0.295505,-0.20527 0.386386,-0.35218 0.100005,-0.17652 0.114664,-0.37825 0.04022,-0.55354 -0.07445,-0.17528 -0.23074,-0.30711 -0.428931,-0.36171 -0.110031,-0.0348 -0.216376,-0.0774 -0.317994,-0.12762 l -0.296744,-0.12542 -0.419788,-0.17171 1.324596,-1.75781 c 0.0104,-0.0138 0.02318,-0.0326 0.03573,-0.0519 0.01249,-0.0193 0.03277,-0.0431 0.04903,-0.0664 0.154398,-0.25199 0.137302,-0.55254 -0.04359,-0.7662 -0.142858,-0.17056 -0.374826,-0.2588 -0.618993,-0.23552 -0.04785,0.005 -0.09546,0.0132 -0.142103,0.0262 l -0.04608,0.003 c -0.943999,0.0626 -1.887028,0.12549 -2.854899,0.1857 -0.01387,-0.20446 -0.0261,-0.40897 -0.03864,-0.61407 l -0.01597,-0.22772 c 0.03675,-0.25539 -0.08126,-0.49841 -0.307769,-0.63367 -0.141034,-0.081 -0.312569,-0.11187 -0.484571,-0.0873 -0.206549,0.023 -0.402672,0.11236 -0.552751,0.25184 l -2.469582,1.79647 0.211708,-0.63833 0.09326,-0.27996 c 0.102329,-0.24502 0.0627,-0.51159 -0.104884,-0.70556 -0.183588,-0.18906 -0.468607,-0.2707 -0.753632,-0.21585 l -0.791029,0.0892 c -0.25008,-0.5763 -0.475788,-1.12835 -0.686388,-1.68037 -0.11777,-0.3085 -0.474266,-0.47333 -0.835062,-0.38608 -0.186783,0.0444 -0.356708,0.14317 -0.483232,0.28067 l -1.46637,1.36152 -0.04758,-0.027 c -0.138888,-0.0798 -0.277107,-0.15996 -0.388237,-0.22674 -0.223848,-0.17257 -0.544617,-0.20841 -0.83001,-0.0927 -0.27225,0.11428 -0.464093,0.35192 -0.498824,0.61789 -0.144028,0.70853 -0.26965,1.4074 -0.391205,2.10283 -0.111429,0.64269 -0.214167,1.28117 -0.312905,1.94492 -0.355336,0.059 -0.709834,0.11316 -1.064034,0.16792 -0.191908,0.0213 -0.375011,0.10098 -0.51932,0.22606 -0.150712,0.13117 -0.240382,0.30906 -0.248123,0.49229 -0.0077,0.18321 0.06711,0.35577 0.207141,0.47753 l 0.253442,0.22368 c 0.122726,0.10973 0.247032,0.21943 0.362252,0.31808 0.314065,0.28037 1.170791,0.94512 2.035175,1.6069 l -2.405888,1.16662 c -0.369095,0.17898 -0.530942,0.5869 -0.361496,0.91112 0.169447,0.32422 0.606021,0.44196 0.975116,0.26298 l 2.744714,-1.33093 c 0.330334,0.67204 0.656689,1.34306 0.922649,1.89031 0.216407,0.44619 0.392558,0.81036 0.500525,1.02658 0.02129,0.0265 0.08217,0.12351 0.106844,0.15643 0.122814,0.15612 0.319614,0.2491 0.537133,0.25367 0.217527,0.005 0.433188,-0.0797 0.588515,-0.22997 0.151096,-0.14685 0.299525,-0.2924 0.442602,-0.43536 l 0.179566,-0.18052 c 0.05139,-0.0507 0.102465,-0.10046 0.154607,-0.15298 1.20582,0.339 2.389399,0.6851 3.55072,1.03831 l 0.200545,0.0631 c 0.364202,0.11183 0.730043,0.22362 1.081293,0.33953 0.271367,0.1117 0.600243,0.0688 0.849254,-0.11086 z m -1.369198,-1.50748 -0.201158,-0.0644 c -1.228145,-0.37208 -2.481042,-0.74024 -3.755136,-1.09444 -0.428706,-0.16379 -0.946565,-0.0321 -1.256994,0.31961 -0.05077,0.0518 -0.103605,0.10469 -0.157438,0.15876 l -0.09622,-0.19837 c -0.343805,-0.70745 -0.787915,-1.62306 -1.212886,-2.48098 -0.04277,-0.0827 -0.103667,-0.15571 -0.179291,-0.21475 -1.056537,-0.80186 -1.878875,-1.43766 -2.376724,-1.83569 0.501632,-0.0514 0.905459,-0.44166 0.930557,-0.89934 0.1092,-0.72549 0.222006,-1.46009 0.351252,-2.19531 0.06612,-0.38157 0.133573,-0.76379 0.20581,-1.15128 0.427023,0.20173 0.97265,0.096 1.314373,-0.25472 l 0.947558,-0.87963 c 0.132661,0.32272 0.271738,0.64968 0.418391,0.98327 0.154581,0.43532 0.637213,0.68452 1.147236,0.59231 l 0.114698,-0.0129 c -0.134982,0.40688 -0.269665,0.81434 -0.404508,1.2263 -0.151059,0.43014 0.04644,0.87524 0.471019,1.0615 0.385438,0.17518 0.866639,0.11075 1.215819,-0.16279 l 2.499261,-1.81822 0.0084,0.12028 c 0.01041,0.26426 0.139672,0.50509 0.357708,0.66641 0.218037,0.16133 0.505829,0.22908 0.796388,0.18747 0.649393,-0.0397 1.297858,-0.0812 1.94541,-0.12436 l -0.868576,1.15258 c -0.171226,0.2239 -0.231603,0.49787 -0.165222,0.74971 0.0662,0.22499 0.225209,0.41253 0.445289,0.52506 l -2.810243,0.82407 c -0.492901,0.13068 -0.824753,0.57389 -0.768101,1.02587 0.06175,0.38818 0.382753,0.68381 0.807553,0.74379 l 0.894197,0.14181 0.810568,0.13085 c -0.299021,0.39295 -0.23247,0.90767 0.152814,1.18195 0.233114,0.196 0.457907,0.39531 0.688043,0.59202 -0.276906,0.0504 -0.55458,0.10091 -0.833023,0.15155 l -0.353552,0.064 c -0.476809,0.0494 -0.871582,0.40131 -0.937084,0.83556 -0.04693,-0.0177 -0.09661,-0.0327 -0.146299,-0.0475 z"
       style="fill:#ff5555;fill-rule:nonzero;stroke-width:0.7012499" />
    <path
       inkscape:connector-curvature="0"
       id="path4756-5"
       d="m 86.510353,110.53449 c 0.02067,-0.14846 -0.05787,-0.29851 -0.203001,-0.38791 -0.05665,-0.04 -0.112527,-0.0801 -0.167584,-0.12017 0.240649,-0.27458 0.480082,-0.54843 0.714229,-0.81818 0.0217,-0.0248 0.04324,-0.0491 0.06888,-0.0826 0.08262,-0.10914 0.08844,-0.25132 0.01524,-0.37195 -0.07321,-0.12072 -0.214078,-0.20101 -0.368487,-0.21015 l -0.06271,-0.003 c -0.173955,-0.0108 -0.34142,-0.0203 -0.51187,-0.0266 l -0.0454,-0.001 c -0.198302,-0.007 -0.396181,-0.0153 -0.596786,-0.0183 -0.0097,-0.0811 -0.01905,-0.16529 -0.02922,-0.25554 -0.0083,-0.14401 -0.104963,-0.27702 -0.25339,-0.3486 -0.158227,-0.0713 -0.344494,-0.0647 -0.486567,0.0174 -0.153409,0.0787 -0.306817,0.15736 -0.460226,0.23603 l 0.768475,-1.15144 c 0.02842,-0.0377 0.05151,-0.078 0.06885,-0.12071 0.03057,-0.0849 0.03128,-0.17685 0.0019,-0.26462 -0.03928,-0.10255 -0.126944,-0.18759 -0.240558,-0.23345 -0.113624,-0.0459 -0.242138,-0.0482 -0.352692,-0.007 -0.06345,0.0217 -0.128981,0.0388 -0.19601,0.0515 l -0.185857,0.0455 -0.260262,0.0666 -0.249922,-1.12648 c -0.002,-0.009 -0.0051,-0.0205 -0.0088,-0.0323 -0.0037,-0.0121 -0.006,-0.0277 -0.0098,-0.0423 -0.05107,-0.15007 -0.198402,-0.2643 -0.375607,-0.29121 -0.14079,-0.0222 -0.281517,0.0175 -0.375535,0.10537 -0.01848,0.0172 -0.03483,0.0359 -0.04881,0.0561 l -0.01829,0.0161 c -0.37624,0.3287 -0.75194,0.65719 -1.139556,0.99264 -0.101187,-0.077 -0.201702,-0.15454 -0.302621,-0.23221 l -0.112926,-0.0856 c -0.103182,-0.11359 -0.267057,-0.17241 -0.427339,-0.15341 -0.09828,0.0135 -0.186342,0.056 -0.248774,0.12112 -0.07798,0.0756 -0.12059,0.17433 -0.120077,0.2782 l -0.223792,1.51031 -0.206413,-0.32242 -0.09035,-0.14153 c -0.07019,-0.13054 -0.211373,-0.22398 -0.373694,-0.24733 -0.166914,-0.0163 -0.327338,0.0429 -0.424195,0.15652 l -0.298144,0.29008 c -0.375837,-0.14909 -0.729897,-0.29642 -1.07748,-0.44855 -0.194263,-0.085 -0.42415,-0.0359 -0.538457,0.11493 -0.05949,0.0778 -0.0865,0.1718 -0.07678,0.2673 l 0.0044,1.01424 -0.03298,0.005 c -0.09681,0.0135 -0.193513,0.0254 -0.272346,0.0346 -0.176518,0.003 -0.330961,0.0922 -0.399647,0.23016 -0.06369,0.13309 -0.03539,0.28951 0.07359,0.40665 0.268175,0.32861 0.539755,0.64743 0.811481,0.96358 0.251508,0.29189 0.504783,0.5793 0.771555,0.87549 -0.12512,0.13783 -0.252136,0.27349 -0.378744,0.40929 -0.0725,0.0703 -0.114008,0.1609 -0.117726,0.25715 -0.0036,0.1008 0.04073,0.20048 0.122741,0.27595 0.08203,0.0755 0.194536,0.12018 0.311384,0.12354 l 0.21302,0.008 c 0.103823,0.004 0.208296,0.008 0.30373,0.0108 0.265472,0.0108 0.943037,-2.3e-4 1.622503,-0.0148 l -0.489813,1.23892 c -0.07515,0.19007 0.04536,0.40465 0.269146,0.47929 0.223788,0.0747 0.466118,-0.019 0.541263,-0.20901 l 0.558798,-1.4134 c 0.454895,0.16141 0.907594,0.32375 1.27673,0.45615 0.300782,0.10807 0.546053,0.19651 0.693134,0.2479 0.02147,0.003 0.09281,0.0228 0.118738,0.028 0.125476,0.0229 0.253288,-0.003 0.348835,-0.0717 0.09555,-0.0682 0.148912,-0.17114 0.145613,-0.28099 -0.0036,-0.10712 -0.0076,-0.21286 -0.01268,-0.31586 l -0.007,-0.12973 c -0.0016,-0.0367 -0.0028,-0.0729 -0.0048,-0.11076 0.675747,-0.25295 1.345254,-0.49593 2.008512,-0.72891 l 0.115547,-0.0393 c 0.208504,-0.0727 0.417684,-0.14585 0.622519,-0.21269 0.168568,-0.0428 0.28981,-0.16574 0.313081,-0.31744 z m -1.290186,-0.15999 -0.116359,0.0392 c -0.700742,0.24698 -1.410291,0.50347 -2.122446,0.77234 -0.260403,0.0727 -0.421468,0.29179 -0.390949,0.53179 0.0024,0.037 0.0043,0.0751 0.0063,0.11386 l -0.133724,-0.048 c -0.477176,-0.17118 -1.094373,-0.39306 -1.676499,-0.59808 -0.05688,-0.0192 -0.117057,-0.0287 -0.177025,-0.0277 -0.827239,0.0206 -1.47655,0.0319 -1.875749,0.0335 0.191459,-0.18191 0.183156,-0.46729 -0.01927,-0.6577 -0.291034,-0.32416 -0.58476,-0.6531 -0.871716,-0.98757 -0.149339,-0.17329 -0.298408,-0.34726 -0.447874,-0.52487 0.277355,-0.0571 0.462426,-0.27473 0.445818,-0.52441 l -0.0028,-0.65533 c 0.207295,0.0859 0.419315,0.17137 0.637681,0.25708 0.26915,0.12367 0.5925,0.0677 0.768583,-0.13323 l 0.04322,-0.042 c 0.131545,0.20553 0.263507,0.41119 0.397485,0.61868 0.135491,0.21998 0.427625,0.33373 0.696714,0.27132 0.24713,-0.0542 0.423775,-0.23475 0.446318,-0.45607 l 0.226406,-1.52854 0.05963,0.0452 c 0.127556,0.10201 0.295244,0.1563 0.463943,0.15061 0.168773,-0.007 0.323931,-0.0715 0.429335,-0.18158 0.260397,-0.22478 0.519576,-0.44995 0.777538,-0.67553 l 0.163853,0.73864 c 0.03076,0.14429 0.132442,0.27287 0.278255,0.35183 0.133226,0.0682 0.288754,0.0922 0.435798,0.066 l -0.823023,1.23256 c -0.150812,0.21067 -0.08688,0.494 0.147976,0.65583 0.20734,0.13475 0.482884,0.14927 0.693259,0.0365 l 0.450073,-0.23124 0.409054,-0.20869 c 0.05462,0.25275 0.322954,0.43638 0.616172,0.42167 0.191417,0.003 0.380785,0.0108 0.571246,0.0145 -0.09545,0.10915 -0.191166,0.21867 -0.287155,0.32844 l -0.122015,0.13926 c -0.181801,0.17307 -0.187381,0.44032 -0.01325,0.63439 -0.02842,0.008 -0.05667,0.018 -0.08499,0.0281 z"
       style="fill:#ff5555;fill-rule:nonzero;stroke-width:0.39728472" />
    <path
       inkscape:connector-curvature="0"
       id="path4756-3"
       d="m 83.119082,100.38184 c 0.01466,-0.10796 -0.04106,-0.20754 -0.14405,-0.25749 -0.04021,-0.0231 -0.07985,-0.0464 -0.118923,-0.0697 0.170765,-0.218966 0.340667,-0.43729 0.506819,-0.652185 0.01539,-0.0197 0.03068,-0.03916 0.04888,-0.06553 0.05864,-0.08578 0.06276,-0.187831 0.01081,-0.266956 -0.05195,-0.07913 -0.151911,-0.123023 -0.261479,-0.114815 l -0.04451,0.0034 c -0.123437,0.0094 -0.242273,0.01806 -0.363224,0.02988 l -0.03222,0.0034 c -0.140717,0.01427 -0.281131,0.02692 -0.423482,0.04392 -0.0069,-0.05698 -0.01352,-0.116155 -0.02073,-0.179603 -0.0059,-0.101994 -0.07448,-0.187711 -0.179805,-0.224634 -0.112272,-0.03584 -0.244453,-0.01328 -0.345269,0.0588 -0.108865,0.07081 -0.217718,0.141616 -0.326578,0.212419 l 0.545312,-0.895236 c 0.02017,-0.02956 0.03655,-0.06067 0.04886,-0.09278 0.0217,-0.06349 0.0222,-0.129232 0.0013,-0.189065 -0.02787,-0.0694 -0.09008,-0.121775 -0.170701,-0.143668 -0.08063,-0.02191 -0.171822,-0.01127 -0.250271,0.02936 -0.04502,0.02147 -0.09153,0.03998 -0.139089,0.05546 l -0.131884,0.05024 -0.184683,0.07243 -0.177345,-0.780196 c -0.0014,-0.006 -0.0036,-0.01414 -0.0063,-0.02215 -0.0026,-0.0079 -0.0043,-0.01922 -0.007,-0.02921 -0.03623,-0.102235 -0.140788,-0.169704 -0.266533,-0.171993 -0.09991,-0.0023 -0.199765,0.03938 -0.266481,0.111046 -0.01311,0.01403 -0.02472,0.02902 -0.03464,0.04474 l -0.01299,0.01328 c -0.266981,0.270539 -0.533578,0.540879 -0.80863,0.81731 -0.07181,-0.04526 -0.143129,-0.09104 -0.214742,-0.136848 l -0.08014,-0.05029 c -0.07321,-0.0712 -0.189505,-0.09755 -0.303241,-0.06869 -0.06974,0.01874 -0.132228,0.05778 -0.17653,0.110215 -0.05534,0.06142 -0.08557,0.135946 -0.0852,0.21003 L 78.545592,98.93609 78.39912,98.72566 78.33501,98.63325 c -0.04981,-0.08648 -0.14999,-0.139687 -0.265173,-0.140851 -0.118445,0.0043 -0.23228,0.06191 -0.30101,0.152207 l -0.211564,0.235525 c -0.266696,-0.07053 -0.517938,-0.141899 -0.764583,-0.217295 -0.137849,-0.04214 -0.300978,0.01485 -0.382091,0.13343 -0.04222,0.06122 -0.06138,0.130895 -0.05448,0.198123 l 0.0031,0.723515 -0.02341,0.0067 c -0.0687,0.01851 -0.137318,0.03661 -0.19326,0.0507 -0.125259,0.01918 -0.23485,0.09737 -0.283588,0.202431 -0.0452,0.101125 -0.02511,0.210035 0.05221,0.283235 0.190299,0.20894 0.383013,0.41058 0.57583,0.6103 0.17847,0.18433 0.358195,0.3653 0.547498,0.55125 -0.08879,0.11038 -0.178917,0.21928 -0.268757,0.32829 -0.05145,0.057 -0.0809,0.12566 -0.08354,0.1948 -0.0025,0.0723 0.0289,0.13919 0.0871,0.18523 0.0582,0.046 0.138043,0.0672 0.220957,0.0585 l 0.15116,-0.0149 c 0.07368,-0.007 0.147808,-0.0142 0.215528,-0.0217 0.18838,-0.0177 0.669182,-0.0902 1.151334,-0.16541 l -0.347606,0.93104 c -0.05332,0.14285 0.03219,0.2845 0.190987,0.3164 0.1588,0.0319 0.330759,-0.0581 0.384081,-0.20085 l 0.396525,-1.0622 c 0.322795,0.0717 0.64403,0.14444 0.905972,0.2037 0.213435,0.0484 0.38748,0.0881 0.491849,0.11078 0.01524,4.8e-4 0.06585,0.007 0.08426,0.008 0.08904,0.004 0.179732,-0.0268 0.247533,-0.0845 0.0678,-0.0578 0.105672,-0.13638 0.103333,-0.21447 -0.0025,-0.0762 -0.0053,-0.15121 -0.0091,-0.22425 l -0.0049,-0.0919 c -0.001,-0.0262 -0.002,-0.0519 -0.0034,-0.0786 0.479512,-0.24506 0.954596,-0.48242 1.425246,-0.71202 l 0.082,-0.0392 c 0.147957,-0.0718 0.29639,-0.14397 0.441742,-0.21124 0.119615,-0.0467 0.205649,-0.14599 0.222163,-0.25646 z m -0.915519,0.009 -0.08256,0.039 c -0.49725,0.24319 -1.000749,0.49401 -1.506094,0.75391 -0.184783,0.0767 -0.299075,0.24851 -0.27742,0.4169 0.0016,0.0262 0.003,0.0531 0.0045,0.0807 l -0.0949,-0.0216 c -0.338604,-0.0766 -0.776569,-0.17608 -1.189647,-0.26684 -0.04037,-0.008 -0.08307,-0.009 -0.125611,-0.003 -0.587011,0.0936 -1.047765,0.1637 -1.331038,0.20298 0.135861,-0.14811 0.129968,-0.35103 -0.01368,-0.46761 -0.206516,-0.20359 -0.414947,-0.41034 -0.618571,-0.62169 -0.105973,-0.10943 -0.211752,-0.21936 -0.317813,-0.33187 0.196812,-0.0672 0.328139,-0.240241 0.316355,-0.416869 l -0.002,-0.467498 c 0.147097,0.04152 0.297547,0.08229 0.4525,0.122621 0.19099,0.06259 0.42044,-0.0083 0.545389,-0.16845 l 0.03066,-0.03412 c 0.09335,0.13414 0.186985,0.268342 0.282056,0.403649 0.09614,0.144079 0.303444,0.197389 0.494391,0.12714 0.175365,-0.06236 0.300711,-0.20801 0.316709,-0.368142 l 0.160657,-1.112652 0.04232,0.02657 c 0.09051,0.06059 0.209505,0.08337 0.329215,0.06321 0.119766,-0.02032 0.229862,-0.08197 0.304657,-0.17059 0.184779,-0.185304 0.368693,-0.370775 0.551743,-0.556419 l 0.11627,0.511582 c 0.02183,0.100062 0.09398,0.182123 0.197451,0.224567 0.09454,0.03604 0.2049,0.03821 0.309243,0.0054 l -0.584019,0.958352 c -0.107017,0.164768 -0.06164,0.360909 0.105005,0.453997 0.147129,0.07645 0.342657,0.06049 0.491939,-0.0401 l 0.319373,-0.208024 0.290266,-0.18802 c 0.03876,0.175199 0.229169,0.280653 0.437237,0.242162 0.135829,-0.01609 0.270205,-0.0291 0.405358,-0.04426 -0.06773,0.08704 -0.135652,0.174321 -0.203766,0.26183 l -0.08659,0.111046 c -0.129005,0.140888 -0.132966,0.332188 -0.0094,0.454078 -0.02017,0.008 -0.04022,0.0182 -0.06031,0.0282 z"
       style="fill:#ff5555;fill-rule:nonzero;stroke-width:0.28274232" />
    <path
       inkscape:connector-curvature="0"
       id="path4756-9-2"
       d="m 45.116704,147.10413 c 0.314127,-0.2703 0.479012,-0.68504 0.426173,-1.07212 -0.01104,-0.16132 -0.02067,-0.32171 -0.02878,-0.48119 0.891952,-0.2118 1.780583,-0.42377 2.653325,-0.63503 0.08036,-0.019 0.159773,-0.0374 0.262893,-0.0686 0.33447,-0.10272 0.613939,-0.3815 0.731052,-0.72928 0.117096,-0.34781 0.05359,-0.71054 -0.166112,-0.94885 l -0.08905,-0.097 c -0.247945,-0.26805 -0.485558,-0.5272 -0.735537,-0.78235 l -0.06798,-0.0666 c -0.292048,-0.29555 -0.579382,-0.59484 -0.881714,-0.88651 0.139524,-0.17752 0.285177,-0.36081 0.441254,-0.55751 0.261235,-0.30251 0.365799,-0.70871 0.274046,-1.06454 -0.107313,-0.36928 -0.405772,-0.6212 -0.78014,-0.65776 -0.385269,-0.0596 -0.770525,-0.11911 -1.155786,-0.17867 l 3.370603,-1.23061 c 0.115184,-0.0355 0.227692,-0.0844 0.335494,-0.14581 0.208537,-0.12746 0.384529,-0.3125 0.506316,-0.53158 0.13468,-0.26284 0.161901,-0.55942 0.07469,-0.8138 -0.0872,-0.25437 -0.280267,-0.44191 -0.530095,-0.51433 -0.138445,-0.0468 -0.271877,-0.10535 -0.398933,-0.17514 l -0.372042,-0.17266 -0.526533,-0.2359 1.759219,-2.6301 c 0.01371,-0.0207 0.03077,-0.0486 0.04763,-0.0775 0.01679,-0.0288 0.04358,-0.0646 0.06525,-0.0994 0.207076,-0.37567 0.198116,-0.81605 -0.02283,-1.12265 -0.174389,-0.24483 -0.465652,-0.3654 -0.777118,-0.32194 -0.06107,0.009 -0.121995,0.0231 -0.18182,0.0439 l -0.0587,0.007 c -1.203105,0.12799 -2.404991,0.25634 -3.638345,0.3817 -0.009,-0.29948 -0.0158,-0.59912 -0.02301,-0.89961 l -0.01058,-0.33354 c 0.05759,-0.37615 -0.08213,-0.72827 -0.364413,-0.91809 -0.176179,-0.11303 -0.392742,-0.15218 -0.6125,-0.10959 -0.263632,0.0416 -0.51684,0.18026 -0.71362,0.3907 l -3.216877,2.73062 0.296368,-0.94479 0.130504,-0.41437 c 0.140551,-0.36346 0.101497,-0.75312 -0.103363,-1.03134 -0.225422,-0.27039 -0.584389,-0.37932 -0.949183,-0.28791 l -1.009712,0.16121 c -0.293502,-0.83609 -0.557031,-1.63756 -0.801366,-2.43954 -0.136643,-0.44819 -0.582976,-0.67642 -1.045487,-0.53461 -0.239411,0.0724 -0.459691,0.22375 -0.626436,0.43035 l -1.922637,2.05398 -0.05932,-0.0378 c -0.172897,-0.11227 -0.345443,-0.22434 -0.484053,-0.31787 -0.277579,-0.2444 -0.683699,-0.28498 -1.05154,-0.10435 -0.351068,0.17809 -0.605133,0.53414 -0.66061,0.92575 -0.213301,1.04522 -0.40278,2.07556 -0.586932,3.10068 -0.169037,0.94733 -0.326843,1.88818 -0.480645,2.86597 -0.45437,0.10008 -0.907473,0.19318 -1.36022,0.28708 -0.244952,0.0385 -0.481185,0.16254 -0.670019,0.35159 -0.197214,0.19826 -0.318823,0.46272 -0.336467,0.73188 -0.01763,0.26914 0.07022,0.5195 0.243098,0.69281 l 0.312731,0.31858 c 0.151414,0.15631 0.304793,0.31255 0.447102,0.45292 0.387415,0.39944 1.448676,1.34206 2.519705,2.28012 l -3.109087,1.80395 c -0.476954,0.27677 -0.70014,0.88151 -0.498456,1.3508 0.201683,0.46928 0.751824,0.62537 1.228825,0.34859 l 3.546942,-2.05798 c 0.391492,0.9735 0.777957,1.94568 1.092891,2.73855 0.25621,0.64647 0.464732,1.17411 0.592833,1.48726 0.0257,0.0382 0.09922,0.1781 0.129221,0.22546 0.149225,0.22463 0.395848,0.35329 0.672266,0.35167 0.276426,-0.001 0.554263,-0.13352 0.758188,-0.35995 0.198412,-0.22125 0.393325,-0.44052 0.58136,-0.65579 l 0.236013,-0.27176 c 0.06749,-0.0763 0.134628,-0.15129 0.203127,-0.23035 1.51898,0.45131 3.009364,0.9139 4.471135,1.38779 l 0.252357,0.085 c 0.458391,0.15018 0.918856,0.3002 1.360593,0.45686 0.340315,0.15355 0.760378,0.078 1.084683,-0.19516 z m -1.677021,-2.1597 -0.253065,-0.0867 c -1.545949,-0.499 -3.123548,-0.99132 -4.728689,-1.46234 -0.538175,-0.22399 -1.202338,-0.011 -1.612057,0.51708 -0.06673,0.0781 -0.136195,0.15759 -0.206964,0.23898 L 36.525039,143.864 c -0.407114,-1.02495 -0.932911,-2.35154 -1.436839,-3.59421 -0.0509,-0.11972 -0.125175,-0.22454 -0.218906,-0.30822 -1.309467,-1.13621 -2.328142,-2.03775 -2.94427,-2.6028 0.640102,-0.0947 1.170197,-0.68279 1.221611,-1.35531 0.169724,-1.06877 0.344422,-2.15103 0.540055,-3.23483 0.100313,-0.56247 0.202347,-1.12592 0.310693,-1.69728 0.534462,0.27967 1.232786,0.1037 1.682261,-0.42406 l 1.242391,-1.32701 c 0.154964,0.46848 0.317918,0.94294 0.490221,1.42685 0.178056,0.63287 0.781205,0.98008 1.433667,0.82531 l 0.14642,-0.0233 c -0.188967,0.60223 -0.377558,1.20528 -0.566562,1.81495 -0.21039,0.63699 0.02182,1.28256 0.553825,1.53962 0.482724,0.24229 1.097349,0.12939 1.553019,-0.28536 l 3.255543,-2.76367 0.0056,0.17617 c 0.002,0.38739 0.156138,0.73582 0.426547,0.9642 0.270076,0.22873 0.633499,0.31678 1.004755,0.24464 0.827489,-0.0831 1.653883,-0.16874 2.479179,-0.25692 l -1.153555,1.72454 c -0.227263,0.3351 -0.315688,0.73942 -0.241999,1.10645 0.07461,0.32761 0.268844,0.59673 0.543897,0.75344 l -3.608719,1.31677 c -0.632356,0.2106 -1.073189,0.87371 -1.020394,1.53473 0.062,0.56727 0.457644,0.98879 0.995283,1.06056 l 1.131085,0.17388 1.025194,0.16102 c -0.396966,0.58806 -0.334227,1.34081 0.144061,1.72854 0.288101,0.27869 0.565461,0.56258 0.849795,0.8424 -0.354285,0.0845 -0.709518,0.16927 -1.065762,0.25424 l -0.45231,0.10742 c -0.608447,0.0906 -1.125413,0.62227 -1.227221,1.26193 -0.05914,-0.024 -0.121462,-0.0442 -0.184042,-0.0641 z"
       style="fill:#ff5555;fill-rule:nonzero;stroke-width:0.95751011" />
  </g>
</svg>
