<?xml version="1.0" encoding="UTF-8" standalone="no"?>
<!-- Created with Inkscape (http://www.inkscape.org/) -->

<svg
   xmlns:dc="http://purl.org/dc/elements/1.1/"
   xmlns:cc="http://creativecommons.org/ns#"
   xmlns:rdf="http://www.w3.org/1999/02/22-rdf-syntax-ns#"
   xmlns:svg="http://www.w3.org/2000/svg"
   xmlns="http://www.w3.org/2000/svg"
   xmlns:sodipodi="http://sodipodi.sourceforge.net/DTD/sodipodi-0.dtd"
   xmlns:inkscape="http://www.inkscape.org/namespaces/inkscape"
   width="131.34401mm"
   height="28.826227mm"
   viewBox="0 0 131.34401 28.826227"
   version="1.1"
   id="svg8"
   inkscape:version="0.92.2 (5c3e80d, 2017-08-06)"
   sodipodi:docname="freetop3.svg">
  <defs
     id="defs2" />
  <sodipodi:namedview
     id="base"
     pagecolor="#ffffff"
     bordercolor="#666666"
     borderopacity="1.0"
     inkscape:pageopacity="0.0"
     inkscape:pageshadow="2"
     inkscape:zoom="2.0501541"
     inkscape:cx="354.81583"
     inkscape:cy="-20.450733"
     inkscape:document-units="mm"
     inkscape:current-layer="layer1"
     showgrid="false"
     showguides="false"
     fit-margin-top="0"
     fit-margin-left="0"
     fit-margin-right="0"
     fit-margin-bottom="0"
     inkscape:window-width="1920"
     inkscape:window-height="1017"
     inkscape:window-x="-8"
     inkscape:window-y="-8"
     inkscape:window-maximized="1" />
  <metadata
     id="metadata5">
    <rdf:RDF>
      <cc:Work
         rdf:about="">
        <dc:format>image/svg+xml</dc:format>
        <dc:type
           rdf:resource="http://purl.org/dc/dcmitype/StillImage" />
        <dc:title></dc:title>
      </cc:Work>
    </rdf:RDF>
  </metadata>
  <g
     inkscape:label="Layer 1"
     inkscape:groupmode="layer"
     id="layer1"
     transform="translate(-69.279007,-62.653975)">
    <g
       transform="matrix(0.18012181,0.0661912,-0.08280956,0.20599753,169.36965,73.134189)"
       id="Page-1"
       style="fill:#ff5555"
       inkscape:transform-center-x="4.6459923"
       inkscape:transform-center-y="-2.4520515">
      <g
         id="g818"
         style="fill:#ff5555"
         transform="matrix(1.0828292,0.03918903,0.05607128,1.1867748,24.829381,-4.1886016)">
        <path
           inkscape:connector-curvature="0"
           id="Shape"
           d="m 1.813,34.131 5.768,1.659 c 1.325,0.387 2.713,-0.375 3.1,-1.7 l 2.31,-7.973 c 0.026,-0.086 0.065,-0.168 0.115,-0.242 L 17,20.161 V 40 c 0,1.657 1.343,3 3,3 h 20 c 1.657,0 3,-1.343 3,-3 V 20.161 l 3.881,5.693 c 0.063,0.091 0.111,0.193 0.14,0.3 l 2.3,7.927 c 0.186,0.637 0.617,1.173 1.198,1.492 0.581,0.319 1.266,0.394 1.902,0.208 l 5.771,-1.66 c 0.639,-0.183 1.178,-0.613 1.499,-1.195 0.321,-0.582 0.397,-1.267 0.212,-1.905 l -2.7,-9.3 C 57.116,21.415 56.979,21.125 56.798,20.864 L 43.432,1.308 C 42.873,0.489 41.945,0 40.954,0 H 19.046 C 18.055,0 17.128,0.489 16.569,1.307 L 7.142,15.1 3.214,20.853 c -0.186,0.264 -0.326,0.558 -0.415,0.869 l -2.7,9.3 c -0.185,0.638 -0.109,1.323 0.212,1.905 0.321,0.582 0.86,1.012 1.499,1.195 z m 6.711,-0.3 c -0.118,0.065 -0.258,0.08 -0.387,0.042 L 2.366,32.213 C 2.099,32.134 1.946,31.856 2.021,31.588 l 0.6,-2.057 6.718,2.017 -0.577,1.99 c -0.038,0.124 -0.124,0.228 -0.238,0.289 z m 1.662,-19.634 5.531,4.3 -0.9,1.323 -5.53,-4.31 z m 40.528,1.313 -5.529,4.307 -0.9,-1.323 5.531,-4.3 z m 7.221,16.457 c -0.064,0.117 -0.172,0.204 -0.3,0.242 L 51.86,33.87 c -0.129,0.038 -0.267,0.022 -0.384,-0.043 -0.116,-0.064 -0.2,-0.172 -0.235,-0.3 l -0.577,-1.988 6.718,-2.017 0.6,2.057 c 0.037,0.13 0.02,0.27 -0.047,0.388 z m -2.656,-9.689 1.546,5.328 -6.718,2.017 -1.155,-3.978 c -0.082,-0.321 -0.219,-0.626 -0.406,-0.9 l -2.232,-3.274 5.53,-4.309 3.309,4.843 c 0.058,0.083 0.1,0.175 0.126,0.273 z M 23.54,2 29.24,8.651 C 29.43,8.872 29.707,9 29.999,9 30.291,9 30.568,8.873 30.758,8.651 L 36.46,2 h 2.64 l -8.339,9.728 c -0.195,0.215 -0.472,0.337 -0.761,0.337 -0.289,0 -0.566,-0.122 -0.761,-0.337 L 20.9,2 Z m 2.634,0 h 7.652 L 30,6.463 Z m -7.953,0.435 c 0.062,-0.087 0.137,-0.163 0.223,-0.226 l 9.279,10.823 c 0.57,0.665 1.402,1.047 2.278,1.047 0.876,0 1.708,-0.383 2.278,-1.047 L 41.556,2.21 c 0.087,0.063 0.162,0.14 0.224,0.227 l 6.9,10.1 -5.554,4.323 C 42.774,16.496 42.237,16.384 41.768,16.575 41.3,16.767 40.996,17.224 41,17.73 V 40 c 0,0.552 -0.448,1 -1,1 H 20 c -0.552,0 -1,-0.448 -1,-1 V 17.73 c 0.004,-0.552 -0.356,-1.04 -0.884,-1.2 -0.12,-0.037 -0.245,-0.056 -0.37,-0.056 -0.332,0.002 -0.648,0.138 -0.879,0.376 l -5.55,-4.317 z M 4.721,22.277 C 4.749,22.175 4.795,22.08 4.856,21.994 l 3.3,-4.83 5.53,4.309 -2.245,3.293 c -0.173,0.255 -0.302,0.537 -0.381,0.835 L 9.893,29.623 3.175,27.606 Z"
           style="fill:#ff5555" />
        <path
           inkscape:connector-curvature="0"
           d="m 21.15,27.887 3.371,2.732 -0.041,0.112 c -0.079,0.227 -0.162,0.454 -0.25,0.692 -0.144,0.399 -0.06,0.845 0.219,1.164 0.279,0.32 0.708,0.464 1.123,0.377 L 29,32.235 V 36 c 0,0.552 0.448,1 1,1 0.552,0 1,-0.448 1,-1 v -3.765 l 3.437,0.731 c 0.416,0.084 0.844,-0.063 1.12,-0.385 0.276,-0.322 0.356,-0.768 0.21,-1.166 -0.085,-0.23 -0.168,-0.457 -0.249,-0.69 l -0.039,-0.106 3.371,-2.732 c 0.23,-0.187 0.461,-0.374 0.7,-0.559 0.324,-0.227 0.496,-0.615 0.446,-1.008 -0.05,-0.393 -0.315,-0.725 -0.686,-0.863 -0.108,-0.047 -0.214,-0.1 -0.32,-0.145 l 0.621,-1.924 c 0.13,-0.396 0.039,-0.831 -0.238,-1.141 -0.277,-0.311 -0.699,-0.451 -1.107,-0.368 l -1.8,0.383 c -0.075,-0.176 -0.15,-0.355 -0.226,-0.542 -0.131,-0.358 -0.442,-0.621 -0.817,-0.689 -0.378,-0.059 -0.759,0.083 -1.007,0.374 -0.1,0.115 -0.212,0.23 -0.318,0.345 l 0.473,-2.417 c 0.09,-0.451 -0.094,-0.914 -0.469,-1.18 C 33.727,17.887 33.23,17.866 32.833,18.1 l -0.654,0.379 C 31.855,17.842 31.431,17.004 31.043,16.235 30.845,15.841 30.441,15.591 30,15.591 c -0.441,0 -0.845,0.249 -1.043,0.644 -0.388,0.769 -0.812,1.608 -1.136,2.244 l -0.653,-0.378 c -0.396,-0.231 -0.891,-0.209 -1.265,0.056 -0.374,0.266 -0.558,0.726 -0.469,1.176 l 0.474,2.421 -0.324,-0.351 c -0.246,-0.296 -0.634,-0.436 -1.013,-0.366 -0.379,0.07 -0.69,0.34 -0.813,0.706 -0.071,0.176 -0.145,0.35 -0.218,0.523 l -1.794,-0.381 c -0.408,-0.087 -0.831,0.05 -1.11,0.359 -0.279,0.309 -0.372,0.744 -0.244,1.141 l 0.622,1.93 c -0.107,0.05 -0.214,0.1 -0.325,0.147 -0.37,0.139 -0.632,0.472 -0.681,0.864 -0.049,0.392 0.123,0.779 0.447,1.006 0.234,0.181 0.465,0.368 0.695,0.555 z m 2.468,-3.563 c 0.548,0.144 1.126,-0.084 1.429,-0.563 l 0.515,0.551 0.418,0.449 0.106,0.112 c 0.409,0.416 1.041,0.516 1.559,0.249 0.519,-0.272 0.795,-0.855 0.677,-1.429 -0.034,-0.192 -0.071,-0.383 -0.108,-0.575 L 27.738,20.69 c 0.24,0.074 0.496,0.077 0.737,0.007 0.363,-0.112 0.663,-0.372 0.824,-0.716 0.171,-0.335 0.423,-0.831 0.7,-1.38 0.278,0.55 0.53,1.046 0.7,1.383 0.162,0.343 0.46,0.602 0.823,0.713 0.241,0.07 0.496,0.067 0.736,-0.006 l -0.475,2.427 c -0.037,0.192 -0.074,0.383 -0.1,0.546 -0.131,0.576 0.137,1.169 0.656,1.45 0.519,0.282 1.163,0.183 1.574,-0.241 0.012,-0.011 0.094,-0.1 0.106,-0.112 l 0.418,-0.449 0.515,-0.551 c 0.304,0.482 0.886,0.709 1.436,0.562 l 0.876,-0.188 -0.342,1.065 c -0.189,0.494 -0.063,1.053 0.319,1.419 l -3.33,2.7 c -0.448,0.305 -0.655,0.86 -0.517,1.384 l -3.186,-0.677 c -0.144,-0.032 -0.293,-0.032 -0.437,0 l -3.165,0.673 c 0.139,-0.522 -0.066,-1.075 -0.512,-1.38 l -3.335,-2.7 c 0.382,-0.366 0.508,-0.925 0.319,-1.419 l -0.343,-1.062 z"
           id="path816"
           style="fill:#ff5555" />
      </g>
    </g>
    <g
       transform="matrix(0.17458082,-0.01318349,0.01241342,0.19106035,112.40382,62.546143)"
       style="fill:#ff5555;fill-rule:evenodd"
       id="Page-1-0">
      <g
         style="fill:#ff5555;fill-rule:nonzero"
         id="007---Pancakes"
         transform="matrix(0.99837357,-0.05616146,0.05787266,0.99837357,-5.689945,4.3191025)">
        <path
           inkscape:connector-curvature="0"
           id="Shape-0"
           d="M 51.986,32.2 C 51.986,32.135 52,32.07 52,32 51.95766,30.837594 51.429433,29.746313 50.544,28.992 51.423947,28.240271 51.951438,27.156307 52,26 51.95822,24.841916 51.433898,23.754111 50.554,23 51.433898,22.245889 51.95822,21.158084 52,20 51.956338,18.84107 51.429835,17.753254 50.548,17 51.42757,16.245 51.953564,15.158236 52,14 52,9.6 43.714,6.951 35.315,6.225 35.025542,5.6726715 34.652473,5.1683882 34.209,4.73 c 1.866783,-1.5016543 4.285945,-2.1347332 6.649,-1.74 0.353693,0.050732 0.707584,-0.091083 0.928365,-0.3720244 0.220782,-0.2809412 0.274912,-0.6583271 0.142,-0.99 C 41.795454,1.2963027 41.495693,1.0607317 41.142,1.01 38.032444,0.50381605 34.862042,1.4463183 32.534,3.569 29.629009,2.2016944 26.162781,3.3746211 24.685,6.225 16.286,6.951 8,9.6 8,14 8.0432878,15.158804 8.5694387,16.246641 9.451,17 8.5692404,17.753206 8.0430447,18.841136 8,20 8.0414156,21.158174 8.5658045,22.246118 9.446,23 8.5657052,23.753806 8.0412939,24.841796 8,26 8.0409517,27.158619 8.5631939,28.247681 9.441,29.005 8.5638216,29.758544 8.0414084,30.844337 8,32 8,32.065 8.011,32.13 8.014,32.2 2.841,34.326 0,37.176 0,40.271 0,46.848 13.178,52 30,52 46.822,52 60,46.848 60,40.271 60,37.176 57.159,34.326 51.986,32.2 Z M 11.072,36.223 C 14.923,38.563 22.055,40 30,40 c 0.886,0 1.788,-0.024 2.726,-0.064 0.751483,0.636117 1.716645,0.962843 2.7,0.914 h 0.189 c 1.11027,0.0015 2.218857,-0.08644 3.315,-0.263 1.472066,-0.08564 2.833987,-0.807667 3.731,-1.978 2.197078,-0.482613 4.310868,-1.286952 6.273,-2.387 0.589118,0.416795 0.975946,1.061992 1.066,1.778 0,2.833 -8.553,6 -20,6 -11.447,0 -20,-3.167 -20,-6 0.09201,-0.716564 0.48104,-1.361433 1.072,-1.777 z M 10,26 c 0.09156,-0.716201 0.480286,-1.360809 1.071,-1.776 3.585,2.174 10.133,3.591 17.45,3.755 0.102253,0.155686 0.138242,0.345705 0.1,0.528 -0.09655,0.427385 -0.253457,0.838848 -0.466,1.222 -0.37809,0.681095 -0.605549,1.435426 -0.667,2.212 C 17.112,31.517 10,28.561 10,26 Z m 1.08,-7.784 c 3.069,1.854 8.046,3.034 13.154,3.513 l -0.02,0.053 c -0.436,1.115 -0.977,2.5 -0.11,3.825 0.027,0.043 0.061,0.077 0.09,0.117 -5.508,-0.529 -10.126,-1.8 -12.6,-3.543 C 10.866,21.672 10,20.88 10,20 c 0.09327,-0.720024 0.485272,-1.367547 1.08,-1.784 z m 18.671,14.17 c -0.378,-0.3 -0.407,-0.514 0.2,-1.794 0.31851,-0.580197 0.537862,-1.209524 0.649,-1.862 0.153757,-0.922727 -0.214806,-1.854907 -0.958,-2.423 -0.008,-0.009 -0.017,-0.016 -0.025,-0.024 -0.008,-0.008 -0.028,-0.019 -0.042,-0.029 -0.08399,-0.07839 -0.181141,-0.141357 -0.287,-0.186 -0.571931,-0.326192 -1.182762,-0.578857 -1.818,-0.752 -0.628021,-0.109814 -1.215088,-0.38608 -1.7,-0.8 -0.288,-0.439 -0.073,-1.047 0.3,-2 0.482161,-0.936259 0.651446,-2.00244 0.483,-3.042 -0.104266,-0.402262 -0.260586,-0.789197 -0.465,-1.151 -0.97072,-1.655052 -2.580947,-2.836584 -4.451,-3.266 -0.92424,-0.1624 -1.802358,-0.522994 -2.574,-1.057 0.424,-0.412 2.219,-1.187 5.963,-1.644 1.140345,1.696097 3.066893,2.693572 5.110137,2.645787 2.043245,-0.04779 3.921056,-1.134234 4.980863,-2.881787 0.762,0.05 1.426,0.113 2.049,0.195 0.999911,0.123104 1.99117,0.308464 2.968,0.555 1.595,0.422 2.5,0.99 2.932,1.841 0.07989,0.156889 0.142911,0.321813 0.188,0.492 0.200779,1.343766 -0.106949,2.714103 -0.863,3.843 -0.214786,0.382083 -0.33513,0.809972 -0.351,1.248 0.104509,1.220081 0.730321,2.335753 1.717,3.061 l 0.225,0.215 c 0.552746,0.473181 0.934962,1.114658 1.088,1.826 0.383644,1.200305 0.282799,2.503037 -0.281,3.63 -0.31256,0.400881 -0.686505,0.749851 -1.108,1.034 -0.187,0.142 -0.38,0.291 -0.571,0.451 -0.0075,0.0062 -0.01449,0.01283 -0.021,0.02 -0.59947,0.464883 -1.061839,1.083448 -1.338,1.79 -0.283236,0.901823 -0.402787,1.847057 -0.353,2.791 0.0065,0.412461 -0.0079,0.824986 -0.043,1.236 -0.151,1.431 -0.792,1.961 -2.747,2.268 -1.047092,0.168184 -2.106538,0.247467 -3.167,0.237 -1.267,-0.015 -1.753,-0.44 -1.855,-1.63 -0.017,-0.184 -0.024,-0.38 -0.032,-0.579 0.09278,-1.131344 -0.289033,-2.250327 -1.054,-3.089 -0.530049,-0.428924 -1.161083,-0.715006 -1.833,-0.831 -0.324829,-0.05041 -0.636281,-0.165336 -0.916,-0.338 z m 19.176,-8.165 c 0.591538,0.416085 0.98092,1.061669 1.073,1.779 0,1 -1.1,2.057 -3.007,3 0.36776,-1.245817 0.394008,-2.567565 0.076,-3.827 0.640049,-0.275164 1.260794,-0.59322 1.858,-0.952 z M 50,32 c 0,0.88 -0.866,1.672 -1.594,2.181 -1.555504,0.991469 -3.26024,1.726508 -5.049,2.177 0.033,-0.423 0.04,-0.839 0.041,-1.242 -0.04189,-0.711641 0.0362,-1.425259 0.231,-2.111 0.134455,-0.320897 0.344814,-0.604349 0.613,-0.826 1.636311,-0.453645 3.208511,-1.1129 4.679,-1.962 0.594389,0.416162 0.98606,1.063381 1.079,1.783 z m 0,-12 c 0,0.88 -0.866,1.672 -1.59,2.179 -0.648316,0.437307 -1.33635,0.812628 -2.055,1.121 -0.277274,-0.42797 -0.605697,-0.820533 -0.978,-1.169 l -0.242,-0.232 c -0.543,-0.516 -1.1,-1.049 -1.1,-1.557 0.0078,-0.03691 0.01882,-0.07305 0.033,-0.108 1.698365,-0.458828 3.329994,-1.136153 4.854,-2.015 0.59409,0.415385 0.985486,1.062023 1.078,1.781 z m 0,-6 c 0,1.283 -1.872,2.7 -4.907,3.8 0.31714,-1.009599 0.349666,-2.08711 0.094,-3.114 -0.08061,-0.304877 -0.192885,-0.600485 -0.335,-0.882 -0.927093,-1.5192 -2.462337,-2.566735 -4.215,-2.876 -1.058832,-0.266616 -2.133247,-0.467004 -3.217,-0.6 -0.481,-0.063 -0.988,-0.115 -1.536,-0.16 C 35.960791,9.7834002 35.999644,9.3921911 36,9 35.998849,8.7632921 35.983488,8.5268667 35.954,8.292 44.772,9.174 50,11.819 50,14 Z M 30,5 c 0.35237,0.00488 0.702493,0.057011 1.041,0.155 -0.350875,0.4394705 -0.663989,0.9078031 -0.936,1.4 -0.248528,0.4937426 -0.04974,1.0954718 0.444,1.344 0.493743,0.2485281 1.095472,0.049743 1.344,-0.444 0.252584,-0.4662159 0.551063,-0.906062 0.891,-1.313 1.363541,1.3371011 1.58942,3.4525183 0.538947,5.047382 -1.050472,1.594863 -3.083182,2.222639 -4.850042,1.497871 C 26.706045,11.962485 25.699726,10.088096 26.071829,8.2149647 26.443932,6.3418332 28.090275,4.9944036 30,5 Z M 24.046,8.292 C 23.95403,9.0097919 24.00019,9.7385504 24.182,10.439 20.657,10.918 17,11.917 17,14 c 0,1.31 1.359,2.288 4.156,2.99 1.332649,0.29427 2.485751,1.123389 3.189,2.293 0.08121,0.149134 0.150106,0.304651 0.206,0.465 C 18.359,19.192 13.868,17.778 11.625,16.223 11.58999,16.19216 11.5529,16.16376 11.514,16.138 10.70426,15.699613 10.144653,14.909361 10,14 10,11.819 15.228,9.174 24.046,8.292 Z m 4.5,25.689 c 0.489742,0.343498 1.047731,0.577472 1.636,0.686 0.348246,0.05085 0.6807,0.178984 0.973,0.375 0.342,0.309 0.368,0.974 0.4,1.678 0.008,0.235 0.018,0.464 0.038,0.676 0.01654,0.193989 0.04358,0.386939 0.081,0.578 C 31.108,37.99 30.551,38 30,38 22.117,38 14.893,36.5 11.593,34.181 10.866,33.672 10,32.88 10,32 c 0.09116,-0.714528 0.478328,-1.35788 1.067,-1.773 3.807,2.304 10.633,3.595 17.484,3.754 z M 30,50 C 13.251,50 2,44.969 2,40.271 2,38.085 4.419,35.854 8.67,34.084 8.8951704,34.416201 9.1553252,34.723291 9.446,35 8.5661023,35.754111 8.0417802,36.841916 8,38 c 0,5.2 11.335,8 22,8 10.665,0 22,-2.8 22,-8 -0.04178,-1.158084 -0.566102,-2.245889 -1.446,-3 0.290441,-0.276929 0.550574,-0.583993 0.776,-0.916 4.251,1.77 6.67,4 6.67,6.187 C 58,44.969 46.749,50 30,50 Z"
           style="fill:#ff5555" />
      </g>
    </g>
    <g
       transform="matrix(0.19555434,0.04565925,-0.04619063,0.18796545,157.54034,78.316068)"
       style="fill:#ff5555;fill-rule:evenodd"
       id="Page-1-08">
      <g
         style="fill:#ff5555;fill-rule:nonzero"
         id="013---Totem"
         transform="matrix(0.88434957,-0.4732238,0.4699321,0.87930946,-9.7424003,19.378962)">
        <path
           inkscape:connector-curvature="0"
           id="Shape-27"
           d="M 58,10 H 38 V 2.62 C 37.999155,1.3198233 37.0446,0.21711081 35.757961,0.02997246 34.471322,-0.15716589 33.242189,0.6279347 32.871,1.874 32.487605,3.1388186 31.32165,4.0037362 30,4.0037362 28.67835,4.0037362 27.512395,3.1388186 27.129,1.874 26.757811,0.6279347 25.528678,-0.15716589 24.242039,0.02997246 22.9554,0.21711081 22.000845,1.3198233 22,2.62 V 10 H 2 c -1.1045695,0 -2,0.895431 -2,2 v 3 c 0,0.27 0.017,0.536 0.041,0.8 C 0.01985813,15.864913 0.00610454,15.932004 0,16 c 0.00349507,0.163788 0.04820475,0.324055 0.13,0.466 0.63423792,3.793352 3.6066479,6.765762 7.4,7.4 C 7.6727496,23.949844 7.8344977,23.99596 8,24 8.067996,23.993895 8.1350867,23.980142 8.2,23.959 8.463,23.983 8.729,24 9,24 h 13 v 32 c 0,2.209139 1.790861,4 4,4 h 8 c 2.209139,0 4,-1.790861 4,-4 V 24 h 13 c 0.27,0 0.536,-0.017 0.8,-0.041 0.06491,0.02114 0.132004,0.03489 0.2,0.041 0.163788,-0.0035 0.324055,-0.0482 0.466,-0.13 3.793352,-0.634238 6.765762,-3.606648 7.4,-7.4 C 59.94985,16.32725 59.99596,16.165502 60,16 59.9939,15.932 59.98014,15.864913 59.959,15.8 59.983,15.537 60,15.271 60,15 v -3 c 0,-1.10457 -0.89543,-2 -2,-2 z m 0,2 v 3 H 38 v -3 z m -12,5 v 5 H 43 V 17 Z M 36,43 H 24 v -3 h 12 z m 0,-20 v 2 H 24 V 22 H 36 Z M 24,38 V 27 H 36 V 38 Z M 24,2.62 C 23.997305,2.3088015 24.226435,2.0441472 24.534814,2.0022685 24.843194,1.9603898 25.134605,2.1543532 25.215,2.455 25.853991,4.563031 27.797251,6.0045604 30,6.0045604 32.202749,6.0045604 34.146009,4.563031 34.785,2.455 34.8684,2.1576196 35.158255,1.9672226 35.464301,2.0087843 35.770346,2.0503461 35.998925,2.3111473 36,2.62 V 20 H 23.999977 Z M 2,12 h 20 v 3 H 2 Z m 15,5 v 5 H 14 V 17 Z M 2.3,17 H 7 v 4.7 C 4.7442924,21.020634 2.9793662,19.255708 2.3,17 Z M 9,17 h 3 v 5 H 9 Z m 10,5 v -5 h 3 v 5 z m 5,34 V 45 h 5 v 13 h -3 c -1.10457,0 -2,-0.895431 -2,-2 z m 10,2 H 31 V 45 h 5 v 11 c 0,1.104569 -0.895431,2 -2,2 z m 4,-37 v -4 h 3 v 5 h -3 z m 10,1 v -5 h 3 v 5 z m 5,-0.3 V 17 h 4.7 c -0.677931,2.257625 -2.443097,4.024668 -4.7,4.705 z"
           style="fill:#ff5555" />
        <path
           inkscape:connector-curvature="0"
           id="path2058"
           d="m 27,11 c 0.552285,0 1,-0.447715 1,-1 V 8 C 28,7.4477152 27.552285,7 27,7 26.447715,7 26,7.4477152 26,8 v 2 c 0,0.552285 0.447715,1 1,1 z"
           style="fill:#ff5555" />
        <path
           inkscape:connector-curvature="0"
           id="path2060"
           d="m 33,11 c 0.552285,0 1,-0.447715 1,-1 V 8 C 34,7.4477152 33.552285,7 33,7 32.447715,7 32,7.4477152 32,8 v 2 c 0,0.552285 0.447715,1 1,1 z"
           style="fill:#ff5555" />
        <path
           inkscape:connector-curvature="0"
           id="path2062"
           d="m 27,29 c -0.552285,0 -1,0.447715 -1,1 v 2 c 0,0.552285 0.447715,1 1,1 0.552285,0 1,-0.447715 1,-1 v -2 c 0,-0.552285 -0.447715,-1 -1,-1 z"
           style="fill:#ff5555" />
        <path
           inkscape:connector-curvature="0"
           id="path2064"
           d="m 33,29 c -0.552285,0 -1,0.447715 -1,1 v 2 c 0,0.552285 0.447715,1 1,1 0.552285,0 1,-0.447715 1,-1 v -2 c 0,-0.552285 -0.447715,-1 -1,-1 z"
           style="fill:#ff5555" />
        <path
           inkscape:connector-curvature="0"
           id="path2066"
           d="m 30,33 c -0.552285,0 -1,0.447715 -1,1 v 1 c 0,0.552285 0.447715,1 1,1 0.552285,0 1,-0.447715 1,-1 v -1 c 0,-0.552285 -0.447715,-1 -1,-1 z"
           style="fill:#ff5555" />
        <path
           inkscape:connector-curvature="0"
           id="path2068"
           d="m 27.024,13.015 c -0.359366,0.624644 -0.349783,1.395483 0.025,2.011 l 1.238,2.064 c 0.358471,0.604472 1.010234,0.973918 1.713,0.971 0.70225,0.002 1.35327,-0.367285 1.712,-0.971 l 1.238,-2.063 c 0.374414,-0.615891 0.384374,-1.38664 0.026,-2.012 C 32.619706,12.387936 31.954217,12.000403 31.233,12 h -2.467 c -0.721199,-4.96e-4 -1.386809,0.387331 -1.742,1.015 z M 28.766,14 h 2.469 L 30,16.061 28.765,14 Z"
           style="fill:#ff5555" />
      </g>
    </g>
    <g
       transform="matrix(0.17990139,0.00821624,-0.01458148,0.20262294,95.724682,71.786802)"
       style="fill:#ff5555;fill-rule:evenodd"
       id="Page-1-1">
      <g
         style="fill:#ff5555;fill-rule:nonzero"
         id="004---Maple-Syrup"
         transform="matrix(0.88186009,-0.39801369,0.50645934,0.90538426,-93.56081,-10.808581)">
        <path
           inkscape:connector-curvature="0"
           id="Shape-2"
           d="M 3.911,54.208 C 3.5274753,54.354302 3.179937,54.581446 2.892,54.874 2.3180015,55.431929 1.9959387,56.199536 2,57 c 0,1.656854 1.3431458,3 3,3 h 26 c 1.653443,-0.0082 2.991794,-1.346557 3,-3 -0.003,-1.233899 -0.761262,-2.340097 -1.911,-2.788 l 0.988,-9.373 C 38.062943,37.192397 36.535503,27.024225 29.523,21.18 32.86135,19.5396 34.628674,15.814723 33.78777,12.191413 32.946866,8.5681028 29.719609,6.002377 26,6 V 3 C 26,1.3431457 24.656854,0 23,0 H 13 c -1.656854,0 -3,1.3431457 -3,3 v 5 c 0.0028,1.0449439 0.550567,2.012718 1.445,2.553 L 10.167,18.8 C 3.9658882,21.819216 0.02224805,28.102975 0,35 c -0.00771294,3.494785 1.0084592,6.915284 2.923,9.839 z M 32,14 c 0.0097,2.705388 -1.804526,5.077735 -4.418,5.777 -0.563334,-0.362257 -1.149563,-0.687606 -1.755,-0.974 l -1.272,-8.25 C 25.449725,10.013002 25.997588,9.0450479 26,8 c 3.312338,0.00331 5.996693,2.687662 6,6 z M 13,2 h 10 c 0.552285,0 1,0.4477153 1,1 v 2 h -5 c -0.552285,0 -1,0.4477152 -1,1 0,0.5522847 0.447715,1 1,1 h 5 v 1 c 0,0.5522848 -0.447715,1 -1,1 H 13 C 12.447715,9 12,8.5522848 12,8 V 7 h 3 C 15.552285,7 16,6.5522847 16,6 16,5.4477152 15.552285,5 15,5 H 12 V 3 c 0,-0.5522847 0.447715,-1 1,-1 z m -1.964,18.6 c 0.593366,-0.284548 1.009327,-0.842152 1.113,-1.492 L 13.4,11 h 9.2 l 1.251,8.108 c 0.102464,0.655275 0.523108,1.217133 1.123,1.5 0.658599,0.316267 1.293573,0.67954 1.9,1.087 0.02701,0.01911 0.05543,0.03616 0.085,0.051 4.253577,2.875639 6.86871,7.617913 7.030875,12.749767 C 34.15204,39.62762 31.841534,44.525543 27.778,47.664 27.386661,48.013957 27.332572,48.606953 27.654138,49.021937 27.975704,49.43692 28.563427,49.532583 29,49.241 c 0.620911,-0.482272 1.21013,-1.004018 1.764,-1.562 L 30.1,54 H 15 c -0.552285,0 -1,0.447715 -1,1 0,0.552285 0.447715,1 1,1 h 16 c 0.552285,0 1,0.447715 1,1 8.73e-4,0.269442 -0.109908,0.527208 -0.306,0.712 C 31.511604,57.898599 31.260922,58.002628 31,58 H 5 C 4.4477152,58 4,57.552285 4,57 3.9991267,56.730558 4.1099083,56.472792 4.306,56.288 4.4883963,56.101402 4.7390776,55.997372 5,56 h 5 c 0.552285,0 1,-0.447715 1,-1 0,-0.552285 -0.447715,-1 -1,-1 H 5.9 L 5.234,47.679 C 5.7885142,48.237049 6.3784024,48.758796 7,49.241 7.4368572,49.578998 8.0650017,49.498857 8.403,49.062 8.7409983,48.625143 8.6608572,47.996998 8.224,47.659 3.8348107,44.274508 1.5116338,38.858221 2.0845354,33.345367 2.657437,27.832514 6.0446763,23.009659 11.036,20.6 Z"
           style="fill:#ff5555" />
        <path
           inkscape:connector-curvature="0"
           id="path1429"
           d="M 7.663,42.1 C 8.0219913,42.099725 8.3532898,41.907042 8.5310431,41.595147 8.7087965,41.283252 8.7057267,40.900008 8.523,40.591 5.9696229,36.26972 6.6652493,30.768025 10.213829,27.218267 13.762409,23.668509 19.263873,22.971057 23.586,25.523 c 0.474105,0.261594 1.070297,0.0983 1.344936,-0.368368 C 25.205575,24.687962 25.058876,24.087473 24.6,23.8 19.493711,20.790937 12.998593,21.61663 8.8076118,25.807612 4.6166304,29.998593 3.7909367,36.493711 6.8,41.6 c 0.1780913,0.308467 0.5068157,0.498922 0.863,0.5 z"
           style="fill:#ff5555" />
        <path
           inkscape:connector-curvature="0"
           id="path1431"
           d="M 12.414,44.477 C 11.939895,44.215405 11.343703,44.3787 11.069064,44.845368 10.794425,45.312038 10.941124,45.912527 11.4,46.2 16.506289,49.209063 23.001407,48.38337 27.192388,44.192388 31.38337,40.001407 32.209063,33.506289 29.2,28.4 c -0.181848,-0.307606 -0.513989,-0.49483 -0.871307,-0.491148 -0.357318,0.0037 -0.68553,0.197712 -0.861,0.509 -0.17547,0.311288 -0.171541,0.692542 0.01031,1.000148 2.54535,4.321119 1.845754,9.816817 -1.701021,13.362415 C 22.230203,46.326013 16.734274,47.023785 12.414,44.477 Z"
           style="fill:#ff5555" />
      </g>
    </g>
    <g
       transform="matrix(0.22564886,0,0,0.27319944,87.026326,63.333523)"
       style="fill:#ff5555;fill-rule:evenodd"
       id="Page-1-14">
      <g
         style="fill:#ff5555;fill-rule:nonzero"
         id="012---Beaver"
         transform="matrix(0.65180453,-0.0801253,0.08277329,0.65713697,19.141007,10.498823)">
        <path
           inkscape:connector-curvature="0"
           id="Shape-5"
           d="M 55,4 H 50.473 C 49.286763,1.1407855 46.244876,-0.48116345 43.209719,0.12718214 40.174561,0.73552772 37.992713,3.4044849 38,6.5 c 0.0042,0.8024127 0.159195,1.5968853 0.457,2.342 -4.704371,1.276415 -9.131917,3.412378 -13.059,6.3 C 24.878651,14.094689 24.297976,13.078925 23.659,12.1 21.767,9.186 16.809,3.5 11.588,2.861 9.4255779,2.56538 7.2478854,3.2854949 5.688,4.812 1.722,8.5 0.648,15.181 0.185,19.881 -0.352,25.262 0.1,37.062 5.666,43.208 7.8010633,45.660765 10.908501,47.048027 14.16,47 h 34.85 c 1.649537,-0.01366 2.98185,-1.350427 2.99,-3 2.2e-5,-2.753632 -2.22639,-4.988985 -4.98,-5 h -2.837 c 0.533933,-1.26626 0.811616,-2.625784 0.817,-4 0,-0.128 -0.018,-0.253 -0.022,-0.381 l 1.789,-0.894 c 1.625507,-0.810392 3.416684,-1.233114 5.233,-1.235 0.583565,-0.003 1.159275,-0.134766 1.686,-0.386 l 1.593,0.361 c 0.351853,0.08835 0.723959,-0.02079 0.972355,-0.285184 0.248395,-0.264397 0.334117,-0.642584 0.224002,-0.988244 C 56.365241,30.845912 56.07656,30.586998 55.721,30.515 l -0.258,-0.059 c 0.170616,-0.303611 0.300404,-0.628417 0.386,-0.966 H 57 c 0.552285,0 1,-0.447715 1,-1 0,-0.552285 -0.447715,-1 -1,-1 h -1.134 c -0.0944,-0.33869 -0.235057,-0.662743 -0.418,-0.963 l 0.273,-0.062 c 0.526924,-0.132309 0.851821,-0.66111 0.731724,-1.190951 C 56.332627,24.744209 55.811474,24.407179 55.279,24.515 l -1.663,0.377 c -0.559558,-0.260463 -1.1688,-0.396911 -1.786,-0.4 -1.053811,0.04149 -2.102726,-0.163982 -3.063,-0.6 1.66434,-0.341049 3.083865,-1.419211 3.859,-2.931 2.855338,-0.199373 5.378765,-1.929493 6.594,-4.521 0.006,-0.012 0.01,-0.026 0.016,-0.038 l 0.007,-0.017 C 59.745709,15.327617 60.004414,14.170793 60,13 V 9 C 59.996694,6.2399468 57.760053,4.0033061 55,4 Z M 14.16,45 C 11.475183,45.03793 8.9100211,43.89107 7.148,41.865 2.056,36.24 1.668,25.155 2.175,20.078 2.606,15.7 3.581,9.5 7.051,6.272 8.1781619,5.1484933 9.7672287,4.6190512 11.343,4.842 c 4.164,0.513 8.643,5.271 10.64,8.346 0.680467,1.049543 1.290798,2.142928 1.827,3.273 -5.776,5.183 -7.539,11.436 -6.827,16.788 0.565482,4.798368 3.22529,9.100557 7.265,11.751 z m 32.86,-4 c 1.650414,0.0077 2.983325,1.349571 2.98,3 8.73e-4,0.269442 -0.109908,0.527208 -0.306,0.712 -0.178711,0.185952 -0.426102,0.290117 -0.684,0.288 l -10.288,3.2e-5 C 40.470294,44.01988 41.97017,42.65138 43.106,41 Z m 6.212,-22.139 c 0.04914,-0.57448 0.0083,-1.153111 -0.121,-1.715 -0.07618,-0.353369 -0.337149,-0.638112 -0.682551,-0.744747 -0.345402,-0.106635 -0.721465,-0.01856 -0.983593,0.230364 -0.262128,0.248922 -0.36951,0.619935 -0.280856,0.970383 0.127012,0.542569 0.124957,1.107369 -0.006,1.649 -0.375557,1.576984 -1.7611,2.706812 -3.3814,2.757329 -1.620299,0.05052 -3.073534,-0.990803 -3.5466,-2.541329 -0.380652,-1.336432 -0.0084,-2.774219 0.973,-3.758 0.250427,-0.261993 0.339497,-0.638977 0.232808,-0.985345 -0.10669,-0.346369 -0.392437,-0.607901 -0.746876,-0.683581 -0.354438,-0.07568 -0.722082,0.04634 -0.960932,0.318926 -1.468785,1.501316 -2.008481,3.680769 -1.41,5.694 0.509757,1.648307 1.748014,2.971351 3.359,3.589 0.8,1.383 2.5,2.848 6.153,2.848 1.090848,-0.02917 2.02615,0.773377 2.163,1.856 0.04709,0.579326 -0.165367,1.149673 -0.58,1.557 -0.373697,0.376532 -0.882505,0.587905 -1.413,0.587 -2.126612,0.0022 -4.223786,0.497178 -6.127,1.446 l -1.176,0.587 C 43.361,27.091 37.729,23 31,23 c -0.552285,0 -1,0.447715 -1,1 0,0.552285 0.447715,1 1,1 6.24,0 11.378,3.991 11.943,9.07 v 0.027 C 42.97814,34.396764 42.99717,34.698197 43,35 43,40.514 37.617,45 31,45 25.052,45 19.878,39.834 18.966,32.985 c -1.03,-7.739 3.851,-17.615 20.52,-22.358 0.176215,0.216418 0.366635,0.420869 0.57,0.612 0.402892,0.377763 1.035737,0.357392 1.4135,-0.0455 C 41.847263,10.790608 41.826892,10.157763 41.424,9.78 41.151652,9.5263023 40.916045,9.2358335 40.724,8.917 40.249182,8.2005527 39.997249,7.3595005 40,6.5 39.9956,4.2556973 41.647987,2.3523621 43.87066,2.0415004 46.093334,1.7306386 48.204502,3.1076057 48.816,5.267 c 0.09073,0.2650683 0.27776,0.4863617 0.524,0.62 0.05793,0.026002 0.1182,0.046427 0.18,0.061 0.06527,0.019339 0.132244,0.032398 0.2,0.039 0.023,0 0.042,0.013 0.065,0.013 H 55 c 1.656854,0 3,1.3431458 3,3 h -0.32 c -0.552285,0 -1,0.4477153 -1,1 0,0.552285 0.447715,1 1,1 H 58 v 2 c 0.0015,0.681686 -0.115566,1.35844 -0.346,2 H 55 c -0.552285,0 -1,0.447715 -1,1 0,0.552285 0.447715,1 1,1 h 1.478 c -0.851433,0.956079 -1.990747,1.609272 -3.246,1.861 z"
           style="fill:#ff5555" />
        <circle
           id="Oval"
           cx="49.5"
           cy="9.5"
           r="1.5"
           style="fill:#ff5555" />
        <path
           inkscape:connector-curvature="0"
           id="path2678"
           d="M 44.5,4 C 43.119288,4 42,5.1192881 42,6.5 c -0.0035,0.4612191 0.128607,0.9132998 0.38,1.3 l 0.077,0.12 c 0.09326,0.1477236 0.205937,0.2822584 0.335,0.4 0.402306,0.3755577 1.03246,0.3554464 1.41,-0.045 C 44.383502,8.0814381 44.480633,7.8236752 44.472006,7.558468 44.463378,7.2932608 44.349699,7.0423559 44.156,6.861 l -0.1,-0.154 C 44.016621,6.6453428 43.997077,6.5731011 44,6.5 44,6.2238576 44.223858,6 44.5,6 c 0.210333,-0.00196 0.397336,0.1335239 0.461,0.334 0.147184,0.5324025 0.698098,0.8446839 1.2305,0.6975 C 46.723902,6.8843161 47.036184,6.3334025 46.889,5.801 46.58551,4.7336374 45.609669,3.9979784 44.5,4 Z"
           style="fill:#ff5555" />
      </g>
    </g>
    <g
       transform="matrix(0.24107364,0.04276771,-0.04043934,0.24763644,80.53318,117.3073)"
       style="fill:#ff5555;fill-rule:evenodd"
       id="Page-1-8">
      <g
         style="fill:#ff5555;fill-rule:nonzero"
         id="019---Curling-Stone">
        <path
           inkscape:connector-curvature="0"
           id="Shape-04"
           d="m 153.82073,-155.64416 h -1.14526 v -0.47388 c 1.1e-4,-2.1039 -0.25882,-4.19875 -0.77019,-6.23112 -1.17651,-4.66454 -5.14919,-7.90904 -9.68952,-7.91346 h -7.00559 c -0.56737,-8e-5 -1.10819,0.25564 -1.48828,0.70371 -0.38008,0.44806 -0.56382,1.04649 -0.50563,1.64682 0.13659,1.10536 1.02891,1.92733 2.07694,1.91319 h 6.93287 c 2.72499,0.001 5.10901,1.95031 5.81107,4.751 0.08,0.32082 0.0151,0.66298 -0.17574,0.92563 -0.1908,0.26264 -0.48569,0.41582 -0.79773,0.41439 h -11.56718 c -1.89676,0.002 -3.43391,1.63706 -3.4358,3.65462 v 0.6091 h -1.14526 c -3.16113,0.004 -5.72286,2.72858 -5.72633,6.09103 v 4.87282 c 0.003,3.36245 2.5652,6.08733 5.72633,6.09102 h 22.9053 c 3.16113,-0.004 5.72286,-2.72857 5.72633,-6.09102 v -4.87282 c -0.003,-3.36245 -2.5652,-6.08734 -5.72633,-6.09103 z m -20.61477,-0.6091 c 0,-1.34559 1.0255,-2.43641 2.29053,-2.43641 h 11.56718 c 0.66722,-9e-5 1.29652,-0.32999 1.70302,-0.89279 0.40649,-0.5628 0.54403,-1.29457 0.3722,-1.98035 -0.83583,-3.33158 -3.67111,-5.65069 -6.91282,-5.6543 h -6.93287 c -0.46129,0.0178 -0.86298,-0.33223 -0.9374,-0.8168 -0.0258,-0.25776 0.0525,-0.51506 0.21545,-0.7078 0.16296,-0.19274 0.39522,-0.30278 0.63892,-0.3027 h 7.00559 c 4.02197,0.004 7.54118,2.87782 8.58434,7.00955 0.48423,1.93011 0.72967,3.91916 0.7301,5.91682 v 0.47388 h -18.32424 z m 25.19584,11.57295 c -0.003,2.68993 -2.05219,4.86979 -4.58107,4.87282 h -22.9053 c -2.52888,-0.003 -4.57823,-2.18289 -4.58107,-4.87282 v -4.87282 c 0.003,-2.68994 2.05219,-4.8698 4.58107,-4.87282 h 22.9053 c 2.52888,0.003 4.57823,2.18288 4.58107,4.87282 z"
           style="fill:#ff5555;stroke-width:0.59058619" />
        <path
           inkscape:connector-curvature="0"
           id="path850"
           d="m 130.91543,-153.20775 c -1.89676,0.002 -3.43391,1.63706 -3.4358,3.65462 0,0.33639 0.25638,0.6091 0.57263,0.6091 0.31626,0 0.57263,-0.27271 0.57263,-0.6091 0,-1.3456 1.02551,-2.43641 2.29054,-2.43641 0.31625,0 0.57263,-0.27271 0.57263,-0.60911 0,-0.33639 -0.25638,-0.6091 -0.57263,-0.6091 z"
           style="fill:#ff5555;stroke-width:0.59058619" />
        <path
           inkscape:connector-curvature="0"
           id="path852"
           d="m 156.6839,-150.16224 c -0.31626,0 -0.57263,0.27271 -0.57263,0.60911 v 4.87282 c 0,1.34559 -1.02551,2.43641 -2.29054,2.43641 h -4.58106 c -0.31625,0 -0.57263,0.2727 -0.57263,0.6091 0,0.3364 0.25638,0.6091 0.57263,0.6091 h 4.58106 c 1.89676,-0.002 3.43391,-1.63706 3.4358,-3.65461 v -4.87282 c 0,-0.3364 -0.25638,-0.60911 -0.57263,-0.60911 z"
           style="fill:#ff5555;stroke-width:0.59058619" />
      </g>
    </g>
    <g
       style="fill:#ff5555;fill-opacity:1;fill-rule:nonzero"
       id="005---Moose-7"
       transform="matrix(0.16408051,-0.0773146,0.07042784,0.18110202,189.69479,76.184281)">
      <path
         inkscape:connector-curvature="0"
         id="Shape-0-7"
         d="M 57.3,0.012 C 56.19027,-0.07146484 55.095934,0.31115418 54.279975,1.0679088 53.464016,1.8246635 53.000204,2.8871357 53,4 v 7 c -0.0016,1.270989 -0.802298,2.403646 -2,2.829 V 11.66 C 50.997135,10.635726 50.57464,9.6573751 49.831,8.953 49.151802,8.296365 48.230451,7.9512208 47.287,8 46.433281,8.0536835 45.628391,8.4166662 45.023,9.021 44.364226,9.6772914 43.995787,10.570116 44,11.5 c -0.0093,1.184748 -0.8411,2.203695 -2,2.45 V 11.66 C 41.997135,10.635726 41.57464,9.6573751 40.831,8.953 40.152728,8.2949012 39.230715,7.949509 38.287,8 37.433281,8.0536835 36.628391,8.4166662 36.023,9.021 35.364226,9.6772914 34.995787,10.570116 35,11.5 34.9913,12.87708 33.87708,13.99127 32.5,14 h -3 C 28.12292,13.99127 27.00873,12.87708 27,11.5 27.003677,10.570809 26.63528,9.6788034 25.977,9.023 25.369459,8.4167803 24.561618,8.0530385 23.705,8 22.764612,7.9544077 21.847081,8.2988437 21.169,8.952 20.425109,9.6566144 20.002592,10.635379 20,11.66 v 2.29 C 18.8411,13.703695 18.009307,12.684748 18,11.5 18.003677,10.570809 17.63528,9.6788034 16.977,9.023 16.369459,8.4167803 15.561618,8.0530385 14.705,8 13.764612,7.9544077 12.847081,8.2988437 12.169,8.952 11.425109,9.6566144 11.002592,10.635379 11,11.66 v 2.169 C 9.8022984,13.403646 9.0015506,12.270989 9,11 V 4 C 8.9998483,2.8890213 8.5376513,1.8281519 7.7241348,1.0715379 6.9106183,0.31492396 5.8190752,-0.06926822 4.711,0.011 2.5773396,0.2139791 0.96004709,2.0260789 1,4.169 V 11 c 0.00606,5.520334 4.4796656,9.993938 10,10 h 1.014 c 0.05576,1.304788 0.53571,2.555757 1.367,3.563 1.467915,1.543318 3.508101,2.411791 5.638,2.4 -0.01671,0.758043 0.01669,1.516363 0.1,2.27 0.529,4.559 1.594,5.835 2.535,6.962 0.856257,0.939459 1.380731,2.133842 1.493,3.4 -0.61291,0.798095 -0.902491,1.797881 -0.811,2.8 l 0.4,4 c 0.199616,2.046894 1.923404,3.6061 3.98,3.6 h 8.57 c 2.056596,0.0061 3.780384,-1.553106 3.98,-3.6 l 0.4,-4 c 0.09287,-1.002095 -0.196459,-2.002261 -0.81,-2.8 0.112269,-1.266158 0.636743,-2.460541 1.493,-3.4 0.941,-1.127 2.006,-2.4 2.536,-6.967 0.08293,-0.751993 0.116332,-1.508624 0.1,-2.265 2.129899,0.01179 4.170085,-0.856682 5.638,-2.4 0.829275,-1.008096 1.307728,-2.258815 1.363,-3.563 H 51 c 5.520334,-0.0061 9.993938,-4.479666 10,-10 V 4.169 C 61.039906,2.0303036 59.428901,0.22031736 57.3,0.012 Z M 39.6,21.334 c 0.194,0.393 0.352,0.8 0.507,1.212 -1.692121,-0.323379 -3.443691,0.02335 -4.885,0.967 C 33.749,24.608 33,26.454 33,29 v 9 h -4 v -9 c 0,-2.546 -0.749,-4.392 -2.226,-5.487 -1.44143,-0.943354 -3.19288,-1.290058 -4.885,-0.967 0.155,-0.408 0.311,-0.817 0.5,-1.208 1.62191,-3.268841 4.955902,-5.336432 8.605,-5.336432 3.649097,0 6.98309,2.067591 8.605,5.336432 z M 3,11 V 4.169 C 2.9707688,3.07849 3.7727756,2.1433199 4.855,2.006 5.4090341,1.9657265 5.9548598,2.1576908 6.3617141,2.5359041 6.7685684,2.9141173 6.9997953,3.4445041 7,4 v 7 c 0.00331,2.760053 2.2399468,4.996694 5,5 0.552285,0 1,-0.447715 1,-1 v -3.34 c 0.0018,-0.47498 0.198023,-0.928504 0.543,-1.255 0.277653,-0.271952 0.654578,-0.4183133 1.043,-0.405 0.368369,0.02203 0.715918,0.178199 0.977,0.439 0.281374,0.281209 0.438706,0.663198 0.437,1.061 0.0082,2.481864 2.018136,4.491768 4.5,4.5 H 21 c 0.552285,0 1,-0.447715 1,-1 v -3.34 c 0.0018,-0.47498 0.198023,-0.928504 0.543,-1.255 0.277911,-0.271552 0.654657,-0.4178433 1.043,-0.405 0.368369,0.02203 0.715918,0.178199 0.977,0.439 0.281374,0.281209 0.438706,0.663198 0.437,1.061 -0.0055,1.191437 0.469219,2.334851 1.317,3.172 0.078,0.079 0.169,0.137 0.251,0.209 -2.063816,0.851514 -3.837135,2.282047 -5.106,4.119 H 11 C 6.5837781,18.99504 3.0049599,15.416222 3,11 Z m 11.022,10 h 6.329 c -0.453541,1.009482 -0.798156,2.064445 -1.028,3.147 -0.057,0.262 -0.1,0.545 -0.141,0.827 -1.590139,0.03766 -3.127595,-0.571045 -4.261,-1.687 C 14.387063,22.638894 14.072321,21.838211 14.022,21 Z m 7.078,8.01 c -0.09264,-0.796427 -0.121067,-1.599015 -0.085,-2.4 0.03126,-0.644385 0.110818,-1.285517 0.238,-1.918 1.067,-0.254 3.031,-0.534 4.326,0.426 0.94,0.7 1.417,2 1.417,3.88 v 9 h -0.685 c -0.479219,0.0058 -0.953468,0.09795 -1.4,0.272 C 24.641011,37.018233 24.044867,35.8601 23.183,34.913 22.389,33.959 21.563,32.97 21.1,29.01 Z M 37.275,46.2 c -0.100033,1.023334 -0.961792,1.802815 -1.99,1.8 h -8.57 c -1.028208,0.0028 -1.889967,-0.776666 -1.99,-1.8 l -0.4,-4 C 24.26848,41.637597 24.452569,41.077538 24.831744,40.65835 25.210918,40.239162 25.749764,39.999993 26.315,40 h 9.37 c 0.565236,-7e-6 1.104082,0.239162 1.483256,0.65835 0.379175,0.419188 0.563268,0.979247 0.506744,1.54165 z M 40.9,29.005 c -0.46,3.965 -1.286,4.954 -2.084,5.91 -0.861868,0.9471 -1.458011,2.105233 -1.728,3.357 C 36.641468,38.097948 36.167219,38.005808 35.688,38 H 35 v -9 c 0,-1.878 0.477,-3.184 1.417,-3.88 1.3,-0.961 3.26,-0.681 4.327,-0.427 0.126531,0.632222 0.205751,1.272998 0.237,1.917 0.03692,0.799216 0.0098,1.600104 -0.081,2.395 z m 6.182,-5.718 c -1.133724,1.115465 -2.670963,1.724084 -4.261,1.687 -0.042,-0.28 -0.083,-0.561 -0.139,-0.819 C 42.451273,23.069475 42.104966,22.011778 41.649,21 h 6.329 c -0.04984,0.838316 -0.364642,1.639142 -0.899,2.287 z M 59,11 c -0.005,4.416222 -3.583778,7.99504 -8,8 H 40.539 c -1.269202,-1.836639 -3.042419,-3.267089 -5.106,-4.119 0.078,-0.069 0.166,-0.124 0.239,-0.2 0.8531,-0.838148 1.331914,-1.985067 1.328,-3.181 -0.0016,-0.792702 0.613887,-1.449797 1.405,-1.5 0.392196,-0.018866 0.774162,0.128547 1.052,0.406 0.344726,0.326257 0.54093,0.779368 0.543,1.254 V 15 c 0,0.552285 0.447715,1 1,1 h 0.5 c 2.481864,-0.0082 4.491768,-2.018136 4.5,-4.5 -0.0016,-0.792702 0.613887,-1.449797 1.405,-1.5 0.391733,-0.017831 0.772987,0.129447 1.051,0.406 0.345291,0.325948 0.541904,0.77917 0.544,1.254 V 15 c 0,0.552285 0.447715,1 1,1 2.760053,-0.0033 4.996694,-2.239947 5,-5 V 4 C 54.9988,3.4694382 55.210184,2.9605065 55.587,2.587 55.9961,2.1706411 56.569345,1.9580567 57.151,2.007 58.230443,2.1470965 59.029049,3.0808914 59,4.169 Z"
         style="fill:#ff5555;fill-opacity:1" />
      <path
         inkscape:connector-curvature="0"
         id="path816-1"
         d="m 24,30 h 1 c 0.552285,0 1,-0.447715 1,-1 0,-0.552285 -0.447715,-1 -1,-1 h -1 c -0.552285,0 -1,0.447715 -1,1 0,0.552285 0.447715,1 1,1 z"
         style="fill:#ff5555;fill-opacity:1" />
      <path
         inkscape:connector-curvature="0"
         id="path818-6"
         d="m 38,28 h -1 c -0.552285,0 -1,0.447715 -1,1 0,0.552285 0.447715,1 1,1 h 1 c 0.552285,0 1,-0.447715 1,-1 0,-0.552285 -0.447715,-1 -1,-1 z"
         style="fill:#ff5555;fill-opacity:1" />
      <path
         inkscape:connector-curvature="0"
         id="path820-7"
         d="m 28,42 c -0.552285,0 -1,0.447715 -1,1 v 2 c 0,0.552285 0.447715,1 1,1 0.552285,0 1,-0.447715 1,-1 v -2 c 0,-0.552285 -0.447715,-1 -1,-1 z"
         style="fill:#ff5555;fill-opacity:1" />
      <path
         inkscape:connector-curvature="0"
         id="path822-7"
         d="m 34,42 c -0.552285,0 -1,0.447715 -1,1 v 2 c 0,0.552285 0.447715,1 1,1 0.552285,0 1,-0.447715 1,-1 v -2 c 0,-0.552285 -0.447715,-1 -1,-1 z"
         style="fill:#ff5555;fill-opacity:1" />
    </g>
    <g
       transform="matrix(0.18016057,0,0,0.19198247,177.78509,63.187075)"
       style="fill:#ff5555;fill-rule:evenodd"
       id="Page-1-6">
      <g
         style="fill:#ff5555;fill-rule:nonzero"
         id="025---Mitts-9"
         transform="translate(-1,-1)">
        <path
           inkscape:connector-curvature="0"
           id="Shape-5-6"
           d="m 40.411,39.639 c -0.420961,-0.721607 -1.136863,-1.222628 -1.959,-1.371 -0.197729,-0.03841 -0.39858,-0.05849 -0.6,-0.06 2.195976,-5.583037 2.105447,-11.806203 -0.252,-17.323 -0.875048,-2.349022 -3.13699,-3.890302 -5.6433,-3.845325 -2.50631,0.04498 -4.711496,1.66642 -5.5017,4.045325 -3.207692,-3.543832 -7.36762,-6.089501 -11.983,-7.333 -4.9,-1.17 -9.684,2.048 -11.884,5.834 -2.961,5.1 -1.221,10.665 0.625,14.947 3.215,7.452 7.251,12.417 12.341,15.18 0.647519,0.365893 1.350431,0.623616 2.081,0.763 -0.20434,0.726455 -0.111149,1.504367 0.259,2.162 l 4,6.928 c 0.420859,0.7217 1.136809,1.222756 1.959,1.371 0.209427,0.04166 0.422471,0.06243 0.636,0.062 0.615358,-0.003 1.21915,-0.167469 1.751,-0.477 l 16.825,-9.714 c 1.538048,-0.803942 2.139153,-2.698361 1.346,-4.242 z M 5.05,33.742 C 3.389,29.891 1.805,24.917 4.318,20.592 c 1.784,-3.07 5.788,-5.827 9.688,-4.894 6.077,1.454 11.988,6.419 15.427,12.957 0.1644,0.319662 0.487717,0.526494 0.846853,0.541747 0.359135,0.01525 0.698826,-0.16342 0.889737,-0.467992 0.190912,-0.304571 0.203667,-0.688174 0.03341,-1.004755 -0.886359,-1.680224 -1.92896,-3.273255 -3.114,-4.758 l 0.073,-0.49 c 0.319501,-2.182158 2.342319,-3.69592 4.526,-3.387 1.405529,0.257031 2.571705,1.235494 3.069,2.575 2.434,5.763 2.16,12.788 -0.659,17.579 l -4.338,2.5 -1.536,0.887 -9.752,5.63 c -0.806,0.463 -1.72,0.368 -2.964,-0.307 C 11.828,45.416 8.08,40.766 5.05,33.742 Z M 42.065,49.076 25.24,58.791 c -0.299971,0.18063 -0.655143,0.246692 -1,0.186 -0.25401,-0.04291 -0.477697,-0.192032 -0.615,-0.41 l -4,-6.928 c -0.227292,-0.586231 0.04198,-1.248004 0.614,-1.509 L 20.473,50 26.954,46.258 37.063,40.422 c 0.227442,-0.134984 0.486531,-0.207433 0.751,-0.21 0.08322,-4.2e-4 0.166278,0.0073 0.248,0.023 0.254076,0.04206 0.477959,0.190955 0.615,0.409 l 4,6.928 c 0.224964,0.584284 -0.04299,1.242795 -0.612,1.504 z"
           style="fill:#ff5555" />
        <path
           inkscape:connector-curvature="0"
           id="path2363-6"
           d="M 37.947,43.372 C 37.814555,43.142157 37.596213,42.974357 37.340026,42.905528 37.083838,42.836698 36.8108,42.872481 36.581,43.005 l -13.857,8 c -0.478268,0.27615 -0.642129,0.88772 -0.366,1.366 l 2,3.464 c 0.132448,0.230114 0.350972,0.398109 0.607401,0.466953 0.256429,0.06884 0.529709,0.03288 0.759599,-0.09995 l 13.856,-8 c 0.229944,-0.132616 0.397728,-0.351214 0.46638,-0.607628 0.06865,-0.256414 0.03254,-0.529603 -0.10038,-0.759372 z m -12.357,10.597 -1,-1.732 12.125,-7 1,1.731 z"
           style="fill:#ff5555" />
        <path
           inkscape:connector-curvature="0"
           id="path2365-6"
           d="M 56.628,27.133 C 56.209454,26.408884 55.493196,25.905894 54.67,25.758 54.472316,25.71928 54.271436,25.69919 54.07,25.698 56.267708,20.114048 56.177894,13.889223 53.82,8.371 52.945866,6.020978 50.683592,4.4786755 48.176664,4.523663 45.669736,4.5686505 43.464254,6.1911281 42.675,8.571 39.466076,5.0279548 35.306182,2.482172 30.691,1.237 25.792,0.072 21,3.292 18.805,7.079 c -0.826442,1.4211084 -1.341164,3.001748 -1.51,4.637 -0.03698,0.355479 0.118501,0.703683 0.407866,0.913445 0.289366,0.209763 0.668658,0.249217 0.995,0.1035 0.326343,-0.145716 0.550157,-0.454466 0.587134,-0.809945 0.135154,-1.355421 0.561548,-2.6656426 1.25,-3.841 1.781,-3.07 5.781,-5.829 9.691,-4.9 6.074,1.461 11.986,6.428 15.419,12.963 0.172901,0.329185 0.51417,0.535256 0.886,0.535 0.163449,0.0011 0.324615,-0.03838 0.469,-0.115 0.488646,-0.256918 0.676649,-0.861213 0.42,-1.35 -0.884989,-1.679808 -1.926255,-3.272511 -3.11,-4.757 l 0.073,-0.5 c 0.321552,-2.176415 2.3381,-3.6862596 4.517,-3.382 1.407037,0.2560387 2.57533,1.2339855 3.075,2.574 2.434,5.766 2.159,12.793 -0.663,17.584 l -9.572,5.53 c -0.474214,0.278006 -0.635129,0.886647 -0.360274,1.362694 C 41.65458,34.102742 42.26214,34.26769 42.74,33.996 l 10.536,-6.088 c 0.302213,-0.180553 0.658978,-0.247225 1.006,-0.188 0.253075,0.04263 0.475624,0.191969 0.611,0.41 l 4,6.917 c 0.239829,0.587963 -0.03131,1.260056 -0.612,1.517 l -12.131,7.01 c -0.474214,0.278006 -0.635129,0.886647 -0.360274,1.362694 C 46.06458,45.412742 46.67214,45.57769 47.15,45.306 L 59.277,38.3 c 1.541878,-0.80415 2.144648,-2.702717 1.349,-4.249 z"
           style="fill:#ff5555" />
        <path
           inkscape:connector-curvature="0"
           id="path2367-1"
           d="m 21.894,41.567 c 0.177362,0.311951 0.508273,0.504953 0.867118,0.505742 0.358845,7.89e-4 0.690602,-0.190757 0.869334,-0.501925 C 23.809183,41.259649 23.807484,40.87657 23.626,40.567 l -1.882,-3.26 3.34,-1.086 c 0.402937,-0.133789 0.701541,-0.475691 0.779885,-0.892968 C 25.942228,34.910755 25.78797,34.483828 25.461,34.213 25.272,34.057 25.087,33.901 24.902,33.741 l -0.088,-0.074 1.561,-4.07 c 0.1,-0.271 0.208,-0.542 0.315,-0.811 0.167817,-0.358539 0.122709,-0.780602 -0.117092,-1.095576 C 26.333109,27.37545 25.938269,27.219649 25.548,27.286 25.432,27.299 25.315,27.31 25.198,27.32 L 24.775,25.349 C 24.691218,24.939832 24.395504,24.606447 23.999259,24.474434 23.603014,24.342421 23.16644,24.431838 22.854,24.709 l -1.368,1.232 C 21.333,25.827 21.179,25.71 21.022,25.588 20.729435,25.343317 20.329203,25.271793 19.97,25.4 c -0.359228,0.134907 -0.620713,0.44922 -0.688,0.827 -0.034,0.153 -0.069,0.3 -0.1,0.458 l -0.8,-2.333 c -0.148557,-0.434067 -0.537663,-0.740819 -0.994416,-0.783949 -0.456752,-0.04313 -0.8964,0.185363 -1.123584,0.583949 -0.137,0.237 -0.266,0.462 -0.377,0.655 -0.6,-0.39 -1.386,-0.9 -2.106,-1.375 -0.368543,-0.242196 -0.842136,-0.255956 -1.224119,-0.03556 -0.381982,0.220391 -0.607103,0.637285 -0.581881,1.077565 0.048,0.86 0.1,1.8 0.138,2.512 -0.223,0 -0.478,-0.006 -0.759,0 -0.457988,-4.43e-4 -0.873974,0.266823 -1.063928,0.683561 -0.189955,0.416737 -0.118823,0.906038 0.181928,1.251439 l 1.621,1.858 -0.454,-0.141 c -0.361596,-0.134276 -0.767556,-0.06214 -1.060755,0.188492 -0.293199,0.250631 -0.427624,0.640424 -0.351245,1.018508 0.025,0.185 0.048,0.37 0.071,0.562 L 8.551,32.974 C 8.1556052,33.10417 7.85926,33.434778 7.7729538,33.842004 7.6866475,34.249229 7.8234024,34.671628 8.132,34.951 l 1.5,1.36 c -0.067,0.1 -0.135,0.192 -0.2,0.286 -0.2523155,0.305339 -0.3145256,0.725403 -0.161539,1.090766 0.1529865,0.365363 0.4959411,0.615774 0.890539,0.650234 0.287,0.04 0.574,0.086 0.86,0.132 l 4.306,0.683 0.021,0.119 c 0.045,0.235 0.087,0.473 0.129,0.72 0.07374,0.418132 0.368404,0.763406 0.769744,0.901964 0.401341,0.138559 0.846255,0.04861 1.162256,-0.234964 l 2.605,-2.345 z m -1.947,-5.779 c -0.137251,0.0456 -0.262857,0.120692 -0.368,0.22 l -2.4,2.165 c -0.140617,-0.521573 -0.594433,-0.898084 -1.133,-0.94 l -4.24,-0.673 c 0.148391,-0.507648 -0.02229,-1.05477 -0.433,-1.388 l -0.828,-0.749 0.86,-0.278 c 0.543132,-0.151815 0.926438,-0.636501 0.949,-1.2 l 0.776,0.237 0.584,0.178 0.1,0.032 c 0.56313,0.159917 1.164225,-0.07107 1.475358,-0.566933 C 15.60049,32.3292 15.546972,31.68748 15.158,31.25 l -2.007,-2.308 c 0.244472,-0.05555 0.467523,-0.180972 0.642,-0.361 0.259153,-0.27865 0.388458,-0.653853 0.356,-1.033 -0.019,-0.376 -0.05,-0.931 -0.083,-1.545 l 1.3,0.846 c 0.311168,0.215853 0.698872,0.290635 1.068,0.206 0.24434,-0.05898 0.465682,-0.189142 0.636,-0.374 l 0.987,2.867 c 0.175576,0.563591 0.704719,0.941511 1.294788,0.924752 0.590069,-0.01676 1.096908,-0.424104 1.240212,-0.996752 0.005,-0.015 0.032,-0.133 0.035,-0.148 l 0.111,-0.479 c 0.066,-0.285 0.133,-0.571 0.2,-0.855 0.504039,0.265447 1.122186,0.171813 1.525,-0.231 l 0.664,-0.6 0.234,1.09 c 0.08355,0.52231 0.472129,0.943603 0.986,1.069 L 22.8,33.326 c -0.234603,0.48746 -0.136874,1.069825 0.244,1.454 l -3.1,1.006 z"
           style="fill:#ff5555" />
      </g>
    </g>
    <g
       transform="matrix(0.13631428,0.02624353,-0.02772246,0.14399618,48.968447,130.94031)"
       style="fill:#ff5555;fill-rule:evenodd"
       id="Page-1-07">
      <g
         style="fill:#ff5555;fill-rule:nonzero"
         id="015---Teepee"
         transform="translate(78.02732,-409.07219)">
        <path
           inkscape:connector-curvature="0"
           id="Shape-6"
           d="M 8.605,21.8 H 17 c 1.905557,-0.0019 3.644356,-1.086793 4.483747,-2.797516 0.839391,-1.710723 0.633421,-3.749831 -0.531125,-5.258136 C 19.788077,12.236043 17.867447,11.520804 16,11.9 15.108276,10.714085 13.663513,10.077887 12.186644,10.220797 10.709774,10.363706 9.4137983,11.265113 8.766,12.6 7.0764381,12.497326 5.466743,13.32984 4.574084,14.768006 3.6814251,16.206172 3.6497158,18.01813 4.4915078,19.486649 5.3332998,20.955168 6.9128802,21.843494 8.605,21.8 Z m 0,-7.211 c 0.200279,-1.23e-4 0.3999132,0.02269 0.595,0.068 0.5351108,0.125263 1.071026,-0.204771 1.2,-0.739 0.244399,-1.010507 1.150363,-1.721213 2.19,-1.718 0.875689,-0.0089 1.674908,0.497459 2.041,1.293 0.22355,0.47674 0.778489,0.698453 1.269,0.507 1.121224,-0.431177 2.391549,-0.151942 3.228596,0.70969 0.837047,0.861631 1.079402,2.139505 0.615959,3.247781 C 19.281111,19.065747 18.201237,19.79071 17,19.8 H 8.605 C 7.1859143,19.7722 6.0500465,18.613858 6.0500465,17.1945 c 0,-1.419358 1.1358678,-2.577697 2.5549535,-2.6055 z"
           style="fill:#ff5555" />
        <path
           inkscape:connector-curvature="0"
           id="path2983"
           d="m 53.4,16.606 c 1.671227,0.01043 3.216922,-0.885423 4.038651,-2.340713 0.821729,-1.45529 0.79049,-3.241556 -0.08162,-4.6672232 C 56.484915,8.1723966 54.90884,7.3311412 53.239,7.4 52.591202,6.0651128 51.295226,5.1637064 49.818356,5.0207967 48.341487,4.877887 46.896724,5.5140851 46.005,6.7 44.143387,6.3361837 42.236207,7.0571032 41.08074,8.5613844 39.925273,10.065666 39.72051,12.094245 40.552052,13.799092 41.383594,15.50394 43.108233,16.59145 45.005,16.607 Z M 42,11.6 C 41.997,10.605645 42.486959,9.6744293 43.308102,9.1136489 44.129244,8.5528686 45.174897,8.4353973 46.1,8.8 46.592399,8.9920206 47.149201,8.7677228 47.371,8.288 47.738469,7.4952517 48.536268,6.9912963 49.41,7 c 1.041404,-0.00255 1.947966,0.7111085 2.19,1.724 0.128974,0.5342287 0.664889,0.8642633 1.2,0.739 0.976632,-0.2293196 1.998187,0.122321 2.626749,0.904182 0.628562,0.781861 0.752518,1.855108 0.318732,2.759667 C 55.311695,14.031407 54.397193,14.606656 53.394,14.606 H 45 C 43.342404,14.6021 42.000547,13.2576 42,11.6 Z"
           style="fill:#ff5555" />
        <path
           inkscape:connector-curvature="0"
           id="path2985"
           d="m 59,59 h -3 v -5 c 0,-0.552285 -0.447715,-1 -1,-1 -0.552285,0 -1,0.447715 -1,1 v 3.764 L 33.358,16.48 38.927,5.342 c 0.47945,-0.9599726 0.410342,-2.1028077 -0.181294,-2.9980103 -0.591635,-0.8952025 -1.615914,-1.40677003 -2.687,-1.342 C 34.98762,1.0667598 34.03245,1.6980274 33.553,2.658 L 30,9.764 26.447,2.658 C 25.705834,1.1740109 23.901989,0.57183387 22.418,1.313 20.934011,2.0541661 20.331834,3.8580109 21.073,5.342 L 26.642,16.48 6,57.764 V 54 C 6,53.447715 5.5522848,53 5,53 4.4477153,53 4,53.447715 4,54 v 5 H 1 c -0.55228475,0 -1,0.447715 -1,1 0,0.552285 0.44771525,1 1,1 h 58 c 0.552285,0 1,-0.447715 1,-1 0,-0.552285 -0.447715,-1 -1,-1 z M 38.65,59 31.015,41.821 C 31.02,41.708777 31.015012,41.596328 31,41.485 V 31.309 C 31.150984,31.224648 31.290185,31.120753 31.414,31 L 33,29.414 34.586,31 c 0.781,0.780764 2.047,0.780764 2.828,0 L 38.059,30.355 52.382,59 Z M 21.941,30.355 22.586,31 c 0.781,0.780764 2.047,0.780764 2.828,0 L 27,29.414 28.586,31 c 0.123815,0.120753 0.263016,0.224648 0.414,0.309 v 8.439 c -0.484035,0.004 -0.950188,0.183444 -1.312,0.505 l -10.806,9.622 c -0.532992,0.470725 -0.774302,1.190081 -0.633,1.887 0.130806,0.687198 0.618992,1.252045 1.28,1.481 2.517,0.884 3.208,4.1 3.4,5.757 H 7.618 Z M 30,14.236 37.117,28.469 36,29.586 34.414,28 c -0.781,-0.780764 -2.047,-0.780764 -2.828,0 l -1.581,1.581 H 30 L 28.414,28 c -0.781,-0.780764 -2.047,-0.780764 -2.828,0 L 24,29.586 22.883,28.469 Z m -1,27.552 -6.532,14.7 C 21.976631,54.186472 20.385493,52.273442 18.212,51.371 L 29,41.751 Z M 30,44.462 36.461,59 H 23.539 Z M 35.342,3.553 c 0.159698,-0.3215391 0.478803,-0.5334557 0.837113,-0.5559229 0.35831,-0.022467 0.701388,0.1479282 0.9,0.447 C 37.277725,3.7431489 37.301698,4.125461 37.142,4.447 l -4.9,9.8 L 31.118,12 Z M 22.862,4.447 C 22.615129,3.9499437 22.817944,3.3468713 23.315,3.1 23.812056,2.8531287 24.415129,3.0559437 24.662,3.553 L 28.882,12 27.76,14.244 Z"
           style="fill:#ff5555" />
        <circle
           id="Oval-4"
           cx="27"
           cy="33"
           r="1"
           style="fill:#ff5555" />
        <circle
           id="circle2988"
           cx="33"
           cy="33"
           r="1"
           style="fill:#ff5555" />
      </g>
    </g>
    <g
       transform="matrix(0.16260616,0.03141834,-0.03227805,0.20024472,147.44557,70.842954)"
       style="fill:#ff5555;fill-rule:evenodd"
       id="Page-1-83">
      <g
         style="fill:#ff5555;fill-rule:nonzero"
         id="024---Canadain-Landscape"
         transform="translate(37.54432,-30.23951)">
        <path
           inkscape:connector-curvature="0"
           id="Shape-21"
           d="m 11.611,38.48 c -1.05166,0.266277 -2.067583,0.65774 -3.026,1.166 -0.837044,0.437069 -1.6124631,0.983158 -2.306,1.624 -0.4031679,0.377487 -0.4239866,1.010332 -0.0465,1.4135 0.3774866,0.403168 1.0103321,0.423987 1.4135,0.0465 0.5654894,-0.520526 1.197293,-0.964033 1.879,-1.319 0.817936,-0.432896 1.684776,-0.76627 2.582,-0.993 0.34619,-0.08932 0.618434,-0.356539 0.714179,-0.701006 0.09574,-0.344468 4.45e-4,-0.713849 -0.25,-0.969 C 12.320733,38.492842 11.95319,38.390684 11.607,38.48 Z"
           style="fill:#ff5555" />
        <path
           inkscape:connector-curvature="0"
           id="path3577"
           d="m 56.05,38 h 1.47 c 0.663544,4.43e-4 1.284108,-0.328239 1.656557,-0.877395 C 59.549006,36.573448 59.624843,35.875322 59.379,35.259 L 50.254,12.438 C 50.594566,11.794378 50.774994,11.078155 50.78,10.35 50.77765,9.1014188 50.269816,7.9069981 49.372269,7.0390298 48.474721,6.1710614 47.263959,5.7035233 46.016,5.743 45.365645,4.4098604 44.068935,3.5107429 42.592396,3.369129 41.115857,3.2275151 39.671889,3.863776 38.78,5.049 38.450728,4.983119 38.115798,4.949626 37.78,4.949 36.236126,4.9469 34.777865,5.6581297 33.829,6.876 L 31.857,1.944 C 31.553964,1.1832987 30.817839,0.68415944 29.999,0.68415944 c -0.818839,0 -1.554964,0.49913926 -1.858,1.25984056 L 20.1,22.058 16.339,12.65 h 0.431 c 2.764185,0 5.005,-2.240815 5.005,-5.005 C 21.775,4.8808148 19.534185,2.64 16.77,2.64 16.436103,2.63892 16.102992,2.672434 15.776,2.74 14.882868,1.5571656 13.439359,0.92327204 11.964099,1.0660655 10.488839,1.2088589 9.1936997,2.1078318 8.544,3.44 6.8987919,3.4107042 5.3629279,4.2613418 4.5149529,5.6714859 3.666978,7.08163 3.6357198,8.8370461 4.4329529,10.276486 5.2301861,11.715926 6.7347919,12.620704 8.38,12.65 H 9.661 L 0.619,35.264 C 0.37516498,35.880098 0.45228968,36.576967 0.82494456,37.124835 1.1975994,37.672704 1.8174054,38.000447 2.48,38 H 3.95 C 1.8803925,39.691551 0.50511306,42.085121 0.086,44.725 0.00934161,45.298874 0.18399222,45.877921 0.56517989,46.313701 0.94636756,46.749481 1.4970285,46.999622 2.076,47 h 12.041 c -0.559859,1.195368 -0.91545,2.476102 -1.052,3.789 -0.0581,0.565506 0.126475,1.129108 0.507833,1.550699 C 13.954191,52.76129 14.496519,53.001276 15.065,53 H 23 c 0.552285,0 1,-0.447715 1,-1 0,-0.552285 -0.447715,-1 -1,-1 l -7.945,-0.007 c 0.172128,-1.589714 0.72061,-3.115525 1.6,-4.451 0.198866,-0.308336 0.212909,-0.700816 0.03659,-1.022575 C 16.515267,45.197665 16.1769,44.998302 15.81,45 L 2.067,44.993 C 2.453,42.149 4.484,39.558 7.641,37.882 10.067476,36.621774 12.765889,35.975583 15.5,36 c 0.156,0 0.292,0 0.475,0.009 3.099138,0.03914 6.120708,0.974442 8.7,2.693 -1.943413,0.516696 -3.787975,1.351294 -5.459,2.47 -0.295816,0.200605 -0.46214,0.543787 -0.436319,0.900273 0.02582,0.356487 0.239863,0.672119 0.5615,0.828 0.321637,0.155882 0.702003,0.128332 0.997819,-0.07227 2.03136,-1.350496 4.33468,-2.238095 6.747,-2.6 1.930556,-0.302497 3.896444,-0.302497 5.827,0 2.295884,0.349199 4.495046,1.168268 6.46,2.406 0.300571,0.207514 0.690369,0.23465 1.016793,0.07078 0.326425,-0.163866 0.537543,-0.492664 0.550706,-0.857673 0.01316,-0.365009 -0.173725,-0.708159 -0.487499,-0.895111 -1.587588,-1.005933 -3.319581,-1.763342 -5.136,-2.246 2.590716,-1.725928 5.626232,-2.663781 8.739,-2.7 C 44.208,36 44.35,36 44.5,36 c 2.734856,-0.02431 5.43397,0.622224 7.861,1.883 3.155,1.675 5.186,4.266 5.563,7.117 H 44.2 c -0.361295,0.0089 -0.690553,0.209395 -0.864262,0.526316 -0.173709,0.31692 -0.165609,0.702342 0.02126,1.011684 0.873532,1.341007 1.416087,2.870303 1.583,4.462 H 27 c -0.552285,0 -1,0.447715 -1,1 0,0.552285 0.447715,1 1,1 h 17.94 c 0.568675,0.0013 1.11118,-0.238816 1.492573,-0.660636 C 46.813965,51.917544 46.9984,51.353669 46.94,50.788 46.796715,49.474808 46.43578,48.194637 45.872,47 h 12.052 c 0.578972,-3.78e-4 1.129632,-0.250519 1.51082,-0.686299 C 59.816008,45.877921 59.990658,45.298874 59.914,44.725 59.495156,42.085026 58.119825,39.691366 56.05,38 Z m -2.988,-2 c -2.602941,-1.306918 -5.474388,-1.989943 -8.387,-1.995 l -3.7,-9.252 0.776,-1.939 1.732,1.043 c 0.33212,0.198251 0.748492,0.188532 1.071,-0.025 L 47,22.2 l 2.445,1.63 c 0.322051,0.214984 0.739269,0.224723 1.071,0.025 L 52.248,22.812 57.52,36 Z M 46.17,14.95 c 0.932165,8e-6 1.842219,-0.283926 2.609,-0.814 l 2.717,6.8 -1.469,0.884 -2.472,-1.648 c -0.336037,-0.2242 -0.773963,-0.2242 -1.11,0 L 43.973,21.82 42.5,20.932 44.9,14.95 Z m -6.27,7.109 -2.87,-7.175 c 0.247963,0.041 0.498688,0.06306 0.75,0.066 h 4.963 z M 37.78,6.95 c 0.375856,-0.00166 0.748783,0.066147 1.1,0.2 0.493496,0.1930063 1.051871,-0.032449 1.273,-0.514 0.409505,-0.8623174 1.317619,-1.3733523 2.267242,-1.2758744 0.949623,0.097478 1.734979,0.7823457 1.960758,1.7098744 0.126361,0.5318499 0.656381,0.8636693 1.19,0.745 0.196581,-0.047404 0.397808,-0.072893 0.6,-0.076 1.438702,0 2.605,1.1662982 2.605,2.605 0,1.438702 -1.166298,2.605 -2.605,2.605 H 37.78 C 37.148805,12.9426 36.535317,12.739516 36.025,12.368 L 34.839,9.4 C 35.098891,7.9801773 36.336588,6.9491144 37.78,6.95 Z M 30,2.691 l 2.84,7.1 V 9.799 L 36.9,19.937 34.045,21.782 30.6,19.2 c -0.355556,-0.266667 -0.844444,-0.266667 -1.2,0 l -3.442,2.582 -2.853,-1.844 z m -17,7 0.936,2.338 0.006,0.017 3.558,8.886 -1.469,0.884 -2.472,-1.648 c -0.336037,-0.2242 -0.773963,-0.2242 -1.11,0 L 9.973,21.816 8.505,20.933 Z M 8.38,10.65 C 6.9412982,10.65 5.775,9.4837017 5.775,8.045 5.775,6.6062982 6.9412982,5.44 8.38,5.44 8.5750869,5.4383161 8.7696117,5.4611618 8.959,5.508 9.2191924,5.5754798 9.4955956,5.5353686 9.7258739,5.3967125 9.9561522,5.2580564 10.120913,5.0325318 10.183,4.771 10.409259,3.8423005 11.196455,3.1571484 12.147488,3.0611685 13.09852,2.9651886 14.006742,3.4792361 14.414,4.344 c 0.223222,0.4776512 0.778942,0.6999394 1.27,0.508 0.345443,-0.138347 0.713888,-0.2102718 1.086,-0.212 1.659616,0 3.005,1.3453843 3.005,3.005 0,1.6596157 -1.345384,3.005 -3.005,3.005 H 15.539 L 14.857,8.944 C 14.553964,8.1832987 13.817839,7.6841594 12.999,7.6841594 c -0.818839,0 -1.554964,0.4991393 -1.858,1.2598406 l -0.68,1.7 z M 2.479,36 7.753,22.814 9.484,23.857 c 0.3321203,0.198251 0.748492,0.188532 1.071,-0.025 L 13,22.2 l 2.445,1.63 c 0.322051,0.214984 0.739269,0.224723 1.071,0.025 l 1.733,-1.043 0.775,1.939 -3.7,9.252 C 12.411527,34.008503 9.5403573,34.692229 6.938,36 Z m 24.773,2.2 c -2.75206,-2.374957 -6.189357,-3.811104 -9.813,-4.1 l 4.909,-12.27 3.109,2.01 c 0.351778,0.227358 0.807976,0.211393 1.143,-0.04 l 3.4,-2.55 3.4,2.55 c 0.335024,0.251393 0.791222,0.267358 1.143,0.04 l 3.11,-2.011 4.908,12.271 c -3.623511,0.289443 -7.060644,1.725522 -9.813,4.1 -1.823975,-0.242501 -3.672025,-0.242501 -5.496,0 z"
           style="fill:#ff5555" />
      </g>
    </g>
    <g
       transform="matrix(0.1468018,0,0,0.14243212,166.66142,63.300715)"
       style="fill:#ff5555;fill-rule:evenodd"
       id="Page-1-4">
      <g
         style="fill:#ff5555;fill-rule:nonzero"
         id="018---Inuksuk">
        <path
           inkscape:connector-curvature="0"
           id="Shape-59"
           d="M 9.8346955,3.7405585 C 9.2227767,3.5416592 8.5531378,3.6491908 8.0351765,4.0295573 7.517216,4.4099219 7.214161,5.0166813 7.2207827,5.66009 l 0.044718,4.3362973 c 0.00634,0.7411867 0.4231032,1.4184207 1.0820321,1.7582767 l 9.5345042,4.939785 c -0.01559,0.04855 -0.04589,0.09022 -0.06145,0.138774 l -1.224492,3.806729 c -0.263141,0.823939 -0.253806,1.711275 0.02665,2.530477 l 0.659833,1.894816 -0.04379,-0.01413 c -1.016515,-0.330294 -2.111502,0.196755 -2.48653,1.196853 L 8.0736832,44.050835 c -0.00977,0.03046 -0.014507,0.0615 -0.023079,0.0913 L 6.0958491,43.509401 C 4.5190506,42.999009 2.8296348,43.863499 2.3224326,45.440297 l -0.6122469,1.903364 -2.8550469,-0.924147 c -1.5767991,-0.510392 -3.2662147,0.354098 -3.7734167,1.930896 l -0.6122469,1.903364 c -0.1690687,0.525599 0.1199593,1.089601 0.645559,1.259732 L 38.89242,65.683818 c 0.525601,0.170131 1.088738,-0.118032 1.257806,-0.643632 l 0.611939,-1.902412 c 0.507206,-1.576797 -0.359877,-3.268803 -1.936675,-3.779198 l -2.855047,-0.924147 0.612246,-1.903365 c 0.507222,-1.576843 -0.359861,-3.268849 -1.93666,-3.779243 l -1.826275,-0.591152 2.625623,-5.640726 c 0.225107,-0.484827 0.401305,-0.990989 0.525965,-1.510984 L 38.619854,33.91689 c 0.155063,-0.660149 -0.03494,-1.354561 -0.504711,-1.844604 0.0399,-0.07421 0.07476,-0.151058 0.104437,-0.229938 l 2.448984,-7.613458 c 0.01465,-0.0457 0.01895,-0.09158 0.02953,-0.137548 l 11.433634,1.851598 c 0.852364,0.136649 1.695163,-0.28917 2.090299,-1.056112 l 1.915647,-3.711203 c 0.269356,-0.521689 0.295646,-1.13591 0.07189,-1.679632 C 55.985818,18.95227 55.534654,18.534036 54.975828,18.3523 L 38.109168,12.892728 41.264399,5.6970141 C 41.483919,5.1798268 41.475624,4.5936823 41.241546,4.0820887 41.007469,3.5704959 40.569218,3.1806846 40.034094,3.0080954 L 31.649776,0.29417408 C 31.113248,0.12073102 30.528898,0.18175711 30.04054,0.46223229 29.552183,0.74270782 29.20517,1.2165863 29.084905,1.7672409 L 27.45604,9.4444145 Z M 18.520395,22.523756 c -0.140406,-0.409571 -0.14508,-0.853299 -0.01333,-1.26524 l 1.224491,-3.806727 4.49194,1.453997 -0.537511,0.864176 c -0.0046,0.01427 -0.01682,0.02607 -0.02453,0.0404 l -0.937625,1.506979 c -0.291701,0.468492 -0.148191,1.085586 0.320546,1.378342 0.06908,0.04354 0.143378,0.0782 0.221124,0.103099 0.436323,0.140685 0.911834,-0.03314 1.153915,-0.421923 l 0.202385,-0.325376 1.00918,1.324894 c 0.216639,0.284667 0.568389,0.432346 0.922749,0.387404 0.354359,-0.04494 0.657493,-0.275673 0.795213,-0.605282 0.137719,-0.329603 0.0891,-0.708014 -0.127536,-0.992681 l -1.474558,-1.926313 0.435236,-0.699736 12.583138,4.073039 -1.341433,4.170269 -0.440533,-0.433659 c -0.255088,-0.251502 -0.624646,-0.347973 -0.969462,-0.253081 -0.344816,0.09489 -0.612508,0.366737 -0.702236,0.713131 -0.08972,0.346398 0.01214,0.714714 0.267223,0.966216 l 1.155757,1.133814 -0.42306,1.315225 -16.649677,-5.389337 z M 24.6034,39.728947 c -0.05074,0.193571 -0.112063,0.384191 -0.183651,0.571016 l -3.06092,8.045842 c -0.01071,0.03331 -0.01568,0.06849 -0.02488,0.09701 l -4.646112,-1.503901 3.835767,-6.727448 c 0.457553,-0.799937 0.788614,-1.666079 0.981464,-2.567728 l 1.827079,-8.518779 3.806729,1.2322 c -0.0098,0.03047 -0.02593,0.05781 -0.03482,0.08855 z m -13.388866,1.642941 2.697554,-0.761828 c 0.34926,-0.09201 0.621373,-0.365531 0.711737,-0.715416 0.09037,-0.349886 -0.01508,-0.721679 -0.275805,-0.972465 -0.260725,-0.250786 -0.63613,-0.341563 -0.981958,-0.237346 l -1.278173,0.360687 2.659959,-7.093335 0.556894,0.705647 c 0.219885,0.28729 0.577375,0.433785 0.93505,0.383171 0.357675,-0.05061 0.659867,-0.29046 0.790409,-0.62734 0.13054,-0.336877 0.06912,-0.718357 -0.160657,-0.997798 l -1.303711,-1.644046 1.057862,-2.8183 5.196183,1.681952 -0.420801,-0.03113 -1.850078,8.616412 c -0.149026,0.699516 -0.405577,1.371488 -0.760533,1.991965 l -3.993409,7.008465 c -0.01748,0.029 -0.0335,0.05889 -0.04774,0.08962 L 9.9451275,44.756381 Z m 27.644285,21.149739 -0.306118,0.951684 -41.8740086,-13.554206 0.3061228,-0.951682 c 0.1690691,-0.525599 0.7322064,-0.813763 1.2578056,-0.643632 L 38.213261,61.261894 c 0.5256,0.170131 0.814626,0.734133 0.645558,1.259733 z M 34.679345,55.914916 34.067099,57.818281 3.613276,47.960677 4.2255219,46.057312 C 4.3945527,45.531701 4.9577282,45.24355 5.4833282,45.413681 l 28.5504578,9.241503 c 0.5256,0.17013 0.814626,0.734132 0.645559,1.259732 z m -11.453496,-6.859698 1.432034,-3.762666 0.957998,-0.142788 0.748849,1.46129 c 0.257407,0.481533 0.852637,0.668507 1.337815,0.420235 0.485178,-0.248271 0.681267,-0.840171 0.440676,-1.33035 l -0.534184,-1.040847 c 0.0024,-0.0076 0.01448,-0.009 0.01944,-0.01472 l 1.563929,-1.595313 c 0.25311,-0.254301 0.350257,-0.625125 0.254506,-0.97152 -0.09575,-0.346394 -0.36968,-0.615157 -0.717673,-0.704127 -0.347995,-0.08897 -0.716604,0.01552 -0.965714,0.273741 l -1.328388,1.356326 -0.962418,0.143459 0.812469,-2.133821 c 0.09476,-0.248839 0.17654,-0.502921 0.244934,-0.761339 l 2.512059,-9.279528 7.638199,2.472412 -0.587112,2.458952 -1.671919,0.01678 c -0.357726,0.0034 -0.686118,0.197499 -0.861473,0.50919 -0.175392,0.311668 -0.171035,0.69361 0.01134,1.001903 0.182373,0.308291 0.515088,0.496113 0.872817,0.492712 l 1.168988,-0.01145 -1.583911,6.632548 c -0.094,0.389833 -0.225977,0.76944 -0.394,1.133391 l -2.733013,5.86025 z m 29.221134,-25.088659 -0.157795,0.987085 0.156843,-0.987393 -4.844026,-0.784089 -1.01961,-1.985002 c -0.251983,-0.492144 -0.854608,-0.687443 -1.345999,-0.436217 -0.491392,0.251231 -0.68547,0.853857 -0.433487,1.346001 L 45.151171,22.784988 40.253,21.992829 19.467313,15.264707 9.2671693,9.9802156 9.2224507,5.6439192 14.171196,7.2457841 15.273164,9.3961469 c 0.270556,0.454288 0.847192,0.6203061 1.316592,0.3790598 0.469401,-0.2412535 0.669637,-0.8065464 0.457185,-1.290698 L 16.861599,8.116639 30.375483,12.49095 29.326078,13.920767 c -0.211338,0.288226 -0.252748,0.667653 -0.108615,0.995359 0.144129,0.327705 0.451894,0.553901 0.807363,0.593379 0.355468,0.03948 0.704637,-0.113755 0.915977,-0.40198 l 1.438923,-1.967821 21.983853,7.115958 z m -23.074695,-13.913433 1.667145,-7.8549718 2.174593,0.7038941 0.245105,1.5998041 c 0.05167,0.3555836 0.289875,0.6564904 0.624078,0.7883408 0.3342,0.1318488 0.713068,0.074393 0.992589,-0.1505298 0.279521,-0.2249223 0.416766,-0.5827686 0.359568,-0.9375127 l -0.0944,-0.6179365 4.083669,1.3218431 -3.228348,7.3674897 z"
           style="fill:#ff5555" />
      </g>
    </g>
    <g
       transform="matrix(0.39075741,0,0,0.4195995,126.71633,65.223811)"
       style="fill:#ff5555;fill-rule:evenodd"
       id="Page-1-02">
      <g
         style="fill:#ff5555;fill-rule:nonzero"
         id="001---Canada-Flag"
         transform="translate(-1,-1)">
        <path
           inkscape:connector-curvature="0"
           id="Shape-9"
           d="m 59.628,7.511 c -3.748094,-1.1779385 -7.676418,-1.6771066 -11.6,-1.474 -0.011,0 -0.019,-0.006 -0.03,-0.006 -0.011,0 -0.032,0.009 -0.049,0.01 -4.76109,0.3105903 -9.490355,0.9953708 -14.144,2.048 -4.538171,1.0296054 -9.14931,1.7059637 -13.792,2.023 H 20 c -0.008,0 -0.014,0 -0.021,0 C 16.566131,10.290359 13.147055,9.9096735 9.857,8.985 10.539341,8.1231741 10.912614,7.0572336 10.917,5.958 10.928853,3.6201627 9.3062901,1.5915799 7.0229626,1.0895448 4.7396351,0.58750963 2.4158026,1.7483985 1.4459291,3.875596 0.47605558,6.0027934 1.1236042,8.5184526 3,9.913 V 58 C 2.99426,58.791951 3.3095678,59.552451 3.874,60.108 4.4319289,60.681998 5.1995361,61.004061 6,61 7.6568542,61 9,59.656854 9,58 V 44.687 c 3.560878,1.031073 7.268534,1.462298 10.971,1.276 0.011,0 0.019,0.006 0.029,0.006 0.01,0 0.023,-0.007 0.036,-0.007 4.767947,-0.309893 9.503992,-0.99569 14.164,-2.051 4.531491,-1.029994 9.13591,-1.707685 13.772,-2.027 0.012,0 0.021,0.007 0.033,0.007 0.012,0 0.027,-0.008 0.041,-0.008 3.500127,-0.183298 7.006191,0.22234 10.372,1.2 0.611772,0.183611 1.274262,0.06918 1.789,-0.309 0.504991,-0.371178 0.802269,-0.961275 0.8,-1.588 V 9.411 C 61.0097,8.5450964 60.452084,7.77686 59.628,7.511 Z M 5.958,3 C 7.1549857,2.9995955 8.2343146,3.7203845 8.692568,4.8261777 9.1508215,5.9319709 8.8977255,7.204932 8.0513288,8.0513288 7.204932,8.8977255 5.9319709,9.1508215 4.8261777,8.692568 3.7203845,8.2343146 2.9995955,7.1549857 3,5.958 3.0022034,4.3252553 4.3252553,3.0022034 5.958,3 Z M 7,43.33 V 58 C 7,58.552285 6.5522847,59 6,59 5.7305578,59.000873 5.4727916,58.890092 5.288,58.694 5.1014015,58.511604 4.9973724,58.260922 5,58 V 10.82 c 0.6606148,0.134476 1.3422066,0.12766 2,-0.02 z M 9,42.591 V 10.826 c 3.246096,0.947633 6.619508,1.386176 10,1.3 V 44 C 15.611317,44.09304 12.231044,43.616759 9,42.591 Z M 33.805,41.949 C 29.585104,42.890126 25.307354,43.549912 21,43.924 V 12.049 c 4.440526,-0.364306 8.850861,-1.032539 13.2,-2 C 38.418282,9.1088987 42.694367,8.4501144 47,8.077 V 39.95 c -4.43885,0.363988 -8.847521,1.031888 -13.195,1.999 z M 58.99,41.17 C 55.747166,40.223124 52.377166,39.784585 49,39.87 V 8 c 3.388815,-0.092735 6.769147,0.3842301 10,1.411 z"
           style="fill:#ff5555" />
        <path
           inkscape:connector-curvature="0"
           id="path4756"
           d="m 45.977,25.245 c -0.08291,-0.398788 -0.383506,-0.716796 -0.777,-0.822 -0.158,-0.054 -0.314333,-0.109 -0.469,-0.165 0.288,-0.911 0.574,-1.819 0.852,-2.712 0.026,-0.082 0.052,-0.163 0.079,-0.271 0.0861,-0.350892 -0.02376,-0.720943 -0.287399,-0.967997 C 45.110966,20.059949 44.734567,19.974316 44.39,20.083 l -0.14,0.044 c -0.388,0.123 -0.762,0.24 -1.139,0.37 l -0.1,0.036 c -0.438,0.153 -0.877,0.3 -1.317,0.464 -0.091,-0.2 -0.184,-0.408 -0.284,-0.631 -0.14218,-0.362611 -0.467658,-0.621314 -0.853,-0.678 -0.40651,-0.04767 -0.806913,0.128794 -1.046,0.461 -0.266667,0.333333 -0.533333,0.666667 -0.8,1 l 0.683,-3.614 c 0.02954,-0.120809 0.04498,-0.244636 0.046,-0.369 -0.0063,-0.244042 -0.08423,-0.480845 -0.224,-0.681 -0.173985,-0.229516 -0.438479,-0.372873 -0.725756,-0.393366 -0.287278,-0.02049 -0.569442,0.08387 -0.774244,0.286366 -0.11975,0.109715 -0.247797,0.210013 -0.383,0.3 l -0.366,0.276 -0.51,0.394 -1.516,-2.678 c -0.012,-0.021 -0.029,-0.048 -0.047,-0.075 -0.018,-0.027 -0.037,-0.066 -0.058,-0.1 -0.2407,-0.341534 -0.660424,-0.508639 -1.07,-0.426 -0.325932,0.06417 -0.598724,0.285999 -0.728,0.592 -0.02549,0.05991 -0.04492,0.122219 -0.058,0.186 l -0.026,0.057 c -0.537,1.166 -1.073,2.331 -1.629,3.524 -0.287,-0.111 -0.573,-0.224 -0.86,-0.337 l -0.32,-0.123 c -0.322857,-0.203215 -0.730902,-0.213954 -1.064,-0.028 -0.202969,0.117854 -0.358016,0.303345 -0.438,0.524 -0.104862,0.260926 -0.112668,0.550808 -0.022,0.817 l 0.814,4.069 -0.728,-0.651 -0.319,-0.286 c -0.265555,-0.275026 -0.653952,-0.394039 -1.028,-0.315 -0.377924,0.101197 -0.676707,0.390525 -0.79,0.765 l -0.4,1 c -0.948,-0.061 -1.847,-0.136 -2.736,-0.229 -0.496867,-0.0519 -0.955808,0.270858 -1.075,0.756 -0.06263,0.250745 -0.04048,0.515172 0.063,0.752 l 0.884,2.6 -0.068,0.04 c -0.2,0.116 -0.4,0.231 -0.564,0.322 -0.382041,0.159564 -0.642127,0.520129 -0.673,0.933 -0.0241,0.396317 0.172428,0.773595 0.511,0.981 0.868,0.614 1.735,1.2 2.6,1.779 0.8,0.534 1.6,1.055 2.437,1.587 -0.154,0.461 -0.314,0.918 -0.473,1.375 -0.09755,0.242375 -0.109891,0.510694 -0.035,0.761 0.07894,0.261764 0.261611,0.479792 0.505508,0.603346 0.243896,0.123554 0.527746,0.141859 0.785492,0.05065 l 0.471,-0.163 c 0.23,-0.078 0.461,-0.158 0.671,-0.234 0.588,-0.2 2.056,-0.808 3.525,-1.427 v 3.6 c 0,0.552285 0.447715,1 1,1 0.552285,0 1,-0.447715 1,-1 v -4.107 c 1.131,0.025 2.258,0.054 3.177,0.078 0.749,0.02 1.36,0.037 1.725,0.043 0.05,-0.009 0.222,-0.021 0.283,-0.03 0.2931,-0.04916 0.549148,-0.226144 0.698715,-0.482959 0.149568,-0.256816 0.177156,-0.566851 0.07529,-0.846041 -0.1,-0.272 -0.2,-0.54 -0.3,-0.8 l -0.127,-0.327 c -0.035,-0.093 -0.069,-0.185 -0.106,-0.28 1.255333,-1.228 2.505667,-2.425 3.751,-3.591 l 0.218,-0.2 c 0.392,-0.365 0.785,-0.732 1.174,-1.079 0.330631,-0.254263 0.489016,-0.673654 0.409,-1.083 z m -2.951,0.694 -0.22,0.2 c -1.315,1.234 -2.641,2.5 -3.962,3.8 -0.50511,0.409595 -0.667431,1.109966 -0.394,1.7 0.037,0.093 0.074,0.189 0.112,0.287 l -0.333,-0.009 c -1.188,-0.031 -2.725,-0.072 -4.171,-0.1 -0.140598,-5.55e-4 -0.279924,0.02663 -0.41,0.08 -1.786,0.761 -3.192,1.346 -4.061,1.692 0.260642,-0.630946 -0.0036,-1.356487 -0.609,-1.672 -0.914,-0.583 -1.838,-1.176 -2.752,-1.789 -0.475,-0.317 -0.95,-0.636 -1.429,-0.964 0.555574,-0.383907 0.771439,-1.101242 0.52,-1.728 l -0.571,-1.68 c 0.526,0.043 1.062,0.081 1.612,0.114 0.693485,0.08709 1.350203,-0.333614 1.561,-1 l 0.058,-0.145 c 0.464,0.415 0.929,0.83 1.4,1.248 0.485037,0.448714 1.220081,0.490644 1.753,0.1 0.49209,-0.350838 0.721642,-0.965482 0.58,-1.553 l -0.824,-4.118 0.169,0.065 c 0.366003,0.152461 0.778473,0.148398 1.141401,-0.01124 0.362928,-0.159643 0.644653,-0.460939 0.779599,-0.833755 0.374,-0.8 0.745,-1.6 1.113,-2.4 l 0.994,1.756 c 0.191454,0.344109 0.523995,0.587119 0.91,0.665 0.349381,0.06137 0.709051,-0.01149 1.007,-0.204 l -0.732,3.869 c -0.147227,0.669949 0.236422,1.342631 0.888,1.557 0.568242,0.168462 1.181557,-0.03028 1.543,-0.5 l 0.782,-0.979 0.712,-0.886 c 0.33697,0.602126 1.080353,0.843824 1.707,0.555 0.42,-0.156 0.839,-0.3 1.258,-0.452 -0.114,0.362 -0.228333,0.725 -0.343,1.089 l -0.146,0.462 c -0.247204,0.599979 -0.02898,1.290869 0.518,1.64 -0.055,0.045 -0.108,0.095 -0.161,0.145 z"
           style="fill:#ff5555" />
      </g>
    </g>
    <g
       transform="matrix(0.19186649,0.03635073,-0.03394506,0.19708525,105.40366,72.206705)"
       style="fill:#ff5555;fill-rule:evenodd"
       id="Page-1-9">
      <g
         style="fill:#ff5555;fill-rule:nonzero"
         id="003---Mounty-Hat">
        <path
           inkscape:connector-curvature="0"
           id="Shape-1"
           d="M 47,19.063 V 15 C 47,6.729 39.374,0 30,0 20.626,0 13,6.729 13,15 v 4.063 C 4.732,21.272 0,24.87 0,29 0,32.939 4.377,36.435 12.034,38.667 12.024,38.779 12,38.886 12,39 c 0.0029,1.127695 0.484544,2.20111 1.325,2.953 C 14.923,52.431 21.883,60 30,60 38.117,60 45.077,52.431 46.675,41.953 47.515456,41.20111 47.997093,40.127695 48,39 48,38.886 47.976,38.779 47.966,38.667 55.623,36.435 60,32.939 60,29 60,24.87 55.268,21.272 47,19.063 Z M 42.606,37.57 c 0.792753,-0.775698 2.063203,-0.765337 2.843199,0.02319 0.779997,0.788524 0.776543,2.059011 -0.0077,2.843283 -0.784272,0.784272 -2.054759,0.787726 -2.843283,0.0077 C 41.809663,39.664203 41.799302,38.393753 42.575,37.601 Z M 14,39 c 9.54e-4,-0.806131 0.485782,-1.532885 1.229729,-1.843354 0.743946,-0.31047 1.601561,-0.143954 2.175271,0.422354 l 0.014,0.014 c 0.637525,0.641864 0.7648,1.631758 0.310381,2.414017 -0.454419,0.78226 -1.377366,1.162074 -2.250755,0.92624 C 14.605237,40.697422 13.99891,39.904669 14,39 Z m 5.767,1.294 C 23.15731,40.768178 26.576693,41.00409 30,41 c 3.423307,0.0041 6.84269,-0.231822 10.233,-0.706 0.150643,0.43767 0.376347,0.845765 0.667,1.206 C 39.66,48.189 35.134,53 30,53 24.866,53 20.347,48.19 19.094,41.5 c 0.293088,-0.359581 0.520869,-0.767759 0.673,-1.206 z m 20.3,-2 C 36.73227,38.767283 33.368146,39.003209 30,39 c -3.369339,0.0054 -6.734806,-0.228536 -10.071,-0.7 -0.08445,-0.4613 -0.250374,-0.903876 -0.49,-1.307 6.035238,-5.321236 15.086762,-5.321236 21.122,0 -0.239626,0.403124 -0.405549,0.8457 -0.49,1.307 z M 15,23.416 C 18.054,25.759 24.15,27 30,27 35.85,27 41.946,25.759 45,23.416 V 26 c 0,2.36 -6.415,5 -15,5 -8.585,0 -15,-2.64 -15,-5 z M 15,15 C 15,7.832 21.729,2 30,2 38.271,2 45,7.832 45,15 v 5 c 0,2.36 -6.415,5 -15,5 -8.585,0 -15,-2.64 -15,-5 z M 2,29 C 2,26.011 6.182,23.045 13,21.132 V 26 c 0,3.248 4.474,5.42 10.031,6.4 -1.832744,0.769042 -3.52301,1.841009 -5,3.171 C 17.418251,35.200139 16.716234,35.002773 16,35 14.666501,35.000797 13.421092,35.666065 12.679,36.774 6.074,34.859 2,31.914 2,29 Z M 30,58 C 23.211,58 17.314,51.764 15.527,42.952 15.683539,42.97764 15.841501,42.99367 16,43 16.446326,42.9953 16.888609,42.91478 17.308,42.762 18.974,49.931 24.144,55 30,55 35.856,55 41.033,49.932 42.692,42.762 43.111412,42.914702 43.553681,42.995176 44,43 44.158831,42.9937 44.317126,42.97765 44.474,42.952 42.688,51.764 36.789,58 30,58 Z M 47.321,36.774 C 46.578908,35.666065 45.333499,35.000797 44,35 c -0.715642,0.0035 -1.416913,0.201184 -2.029,0.572 -1.476139,-1.331369 -3.166592,-2.403792 -5,-3.172 C 42.527,31.42 47,29.247 47,26 v -4.868 c 6.818,1.913 11,4.879 11,7.868 0,2.914 -4.074,5.859 -10.679,7.774 z"
           style="fill:#ff5555" />
        <path
           inkscape:connector-curvature="0"
           id="path5336"
           d="M 17.753,15.707 C 18.486214,15.90124 19.241493,15.999725 20,16 24.96805,15.9939 28.993939,11.96805 29,7 29.0041,6.2984839 28.91939,5.5992704 28.748,4.919 28.66504,4.566154 28.397641,4.2858236 28.049102,4.1863052 27.700564,4.0867868 27.325461,4.1836627 27.068701,4.4395081 26.81194,4.6953536 26.713726,5.070109 26.812,5.419 26.941211,5.9359407 27.004381,6.4671737 27,7 c -0.0044,3.864166 -3.135834,6.995591 -7,7 -0.585404,9.38e-4 -1.168393,-0.07505 -1.734,-0.226 -0.531598,-0.135832 -1.073362,0.182042 -1.214104,0.712361 -0.140742,0.530319 0.172109,1.075 0.701104,1.220639 z"
           style="fill:#ff5555" />
        <path
           inkscape:connector-curvature="0"
           id="path5338"
           d="m 40,16 c 0.758507,-2.75e-4 1.513785,-0.09876 2.247,-0.293 0.348279,-0.08899 0.621997,-0.358066 0.716933,-0.704772 0.09493,-0.346706 -0.0035,-0.71769 -0.257879,-0.971697 C 42.451694,13.776525 42.080574,13.678584 41.734,13.774 41.168393,13.924954 40.585404,14.000938 40,14 36.135834,13.9956 33.004409,10.864166 33,7 32.9958,6.4678424 33.05896,5.937292 33.188,5.421 33.28627,5.072109 33.18806,4.6973536 32.931299,4.4415081 32.674539,4.1856627 32.299436,4.0887868 31.950898,4.1883052 31.60236,4.2878236 31.33496,4.568154 31.252,4.921 31.080781,5.6006219 30.99611,6.2991528 31,7 c 0.0061,4.96805 4.03195,8.993939 9,9 z"
           style="fill:#ff5555" />
      </g>
    </g>
    <g
       transform="matrix(1.8711985,0.16254709,-0.19794949,2.2787414,26.674427,6.5968712)"
       style="fill:#ff5555;fill-rule:evenodd"
       id="Page-1-5">
      <g
         style="fill:#ff5555;fill-rule:nonzero"
         id="009---Bear"
         transform="matrix(0.18455532,0,0,0.16502398,24.860527,113.23713)">
        <path
           inkscape:connector-curvature="0"
           id="Shape-3"
           d="m 80.551832,-496.77801 c -7.96e-4,-0.15559 -0.01647,-0.31074 -0.04685,-0.46323 -0.2483,-1.24215 -1.410942,-2.06759 -2.642629,-1.8762 -1.231688,0.1914 -2.0991,1.3323 -1.971587,2.59321 0.127514,1.26092 1.205092,2.19825 2.449284,2.13051 1.244192,-0.0677 2.217278,-1.11673 2.211778,-2.38429 z m -1.007657,-0.42606 c -0.124353,0.29125 -0.424066,0.4627 -0.733289,0.41946 -0.309223,-0.0432 -0.552355,-0.29059 -0.594857,-0.60517 -0.0425,-0.31458 0.126019,-0.61949 0.412308,-0.746 0.436438,0.13992 0.778299,0.48771 0.915838,0.93171 z m -1.334641,1.8558 c -0.593793,0.002 -1.124535,-0.37635 -1.323998,-0.94534 -0.199462,-0.56899 -0.02421,-1.2041 0.437204,-1.58434 -0.03164,0.12589 -0.04847,0.25515 -0.05013,0.38507 0,0.92123 0.734077,1.66803 1.639608,1.66803 0.127712,-10e-4 0.254774,-0.0188 0.378516,-0.051 -0.26415,0.33223 -0.661182,0.52596 -1.081205,0.52757 z"
           style="fill:#ff5555;stroke-width:0.47250241" />
        <path
           inkscape:connector-curvature="0"
           id="path5941"
           d="m 89.405718,-493.3819 c -0.153186,-0.24305 -0.308714,-0.48992 -0.461432,-0.74537 -0.307595,-0.5828 -0.527262,-1.20937 -0.651628,-1.85866 -0.145463,-0.74993 -0.407161,-1.47158 -0.7753,-2.13794 -0.587789,-0.94081 -1.606775,-1.51151 -2.702544,-1.51362 h -0.05762 c -1.097534,9.6e-4 -2.118419,0.57265 -2.706291,1.51553 -0.368335,0.66627 -0.630045,1.38795 -0.775301,2.13794 -0.124739,0.64925 -0.344552,1.27579 -0.652096,1.85866 -0.152718,0.25545 -0.308246,0.50231 -0.461432,0.74537 -0.70269,1.11091 -1.362281,2.15986 -1.51453,3.62201 -0.19769,1.89441 0.401938,3.56958 1.603537,4.47985 0.21392,0.16148 0.445278,0.29755 0.689572,0.40557 0.738362,1.46658 2.221692,2.38914 3.841369,2.38914 1.619677,0 3.103008,-0.92256 3.841369,-2.38914 0.244966,-0.10813 0.476829,-0.24471 0.690978,-0.407 1.20113,-0.91169 1.801227,-2.58687 1.603537,-4.47985 -0.149439,-1.46262 -0.809498,-2.51158 -1.512188,-3.62249 z m -4.63775,9.94814 c -0.937616,0.005 -1.831124,-0.4046 -2.448169,-1.12282 0.07823,0.004 0.156933,0.007 0.234229,0.007 0.721085,-0.0245 1.438028,-0.12142 2.140392,-0.28929 l 0.08901,-0.0181 0.08948,0.0181 c 0.777258,0.19137 1.574466,0.28611 2.374154,0.28214 -0.627475,0.72199 -1.531821,1.13176 -2.479089,1.1233 z m 0,-2.3829 c -1.161311,0 -2.810757,-1.23244 -2.810757,-2.3829 0,-0.61956 1.632582,-0.95316 2.810757,-0.95316 h 0.03326 c 0.980018,0 2.810758,0.27927 2.810758,0.95316 4.68e-4,1.15046 -1.648978,2.3829 -2.844018,2.3829 z m 3.989402,-0.22495 c -0.57582,0.41455 -1.279844,0.60267 -1.981584,0.52948 0.983765,-0.62908 1.773588,-1.63848 1.773588,-2.68743 0,-1.85295 -3.364008,-1.90632 -3.747677,-1.90632 h -0.03373 c -0.3832,0 -3.747676,0.0534 -3.747676,1.90632 0,1.04847 0.787949,2.05835 1.780146,2.68696 -0.703849,0.0748 -1.410442,-0.11317 -1.988142,-0.52901 -0.934109,-0.7082 -1.394605,-2.06025 -1.232518,-3.61629 0.129295,-1.23911 0.705032,-2.15223 1.37165,-3.20929 0.157402,-0.24973 0.317147,-0.50327 0.473613,-0.76586 0.358358,-0.66275 0.614621,-1.37752 0.759841,-2.11936 0.124323,-0.65297 0.347799,-1.28228 0.662402,-1.86533 0.419618,-0.66541 1.143585,-1.06743 1.920684,-1.06659 h 0.02764 c 0.778971,-0.002 1.505191,0.4002 1.926774,1.06659 0.31469,0.58291 0.537873,1.21229 0.661465,1.86533 0.145509,0.74191 0.401755,1.45679 0.759841,2.11983 0.156466,0.26212 0.316211,0.51566 0.474081,0.76539 0.666618,1.05706 1.241887,1.97018 1.37165,3.20929 0.161619,1.55604 -0.298877,2.90809 -1.232048,3.61629 z"
           style="fill:#ff5555;stroke-width:0.47250241" />
        <path
           inkscape:connector-curvature="0"
           id="path5943"
           d="m 91.360132,-499.16091 c -0.152478,9.6e-4 -0.304514,0.0167 -0.453937,0.0477 -0.928965,0.18918 -1.655098,0.92789 -1.841047,1.87296 -0.03061,0.15246 -0.0463,0.30763 -0.04685,0.46324 0,1.31604 1.048683,2.3829 2.342298,2.3829 1.293616,0 2.342298,-1.06686 2.342298,-2.3829 0,-1.31604 -1.048682,-2.3829 -2.342298,-2.3829 z m -0.418803,1.02513 c 0.286504,0.12629 0.455301,0.43121 0.41293,0.74592 -0.04237,0.31472 -0.285543,0.56223 -0.594875,0.6055 -0.309331,0.0433 -0.60914,-0.1283 -0.733425,-0.41971 0.137236,-0.44402 0.478984,-0.79187 0.91537,-0.93171 z m 0.418803,2.78751 c -0.41992,-10e-4 -0.81686,-0.19525 -1.080736,-0.52757 0.123582,0.0322 0.250489,0.0493 0.378047,0.051 0.503247,0.006 0.980761,-0.22582 1.292221,-0.62801 0.311458,-0.40218 0.421479,-0.9288 0.29773,-1.42509 0.461476,0.3803 0.636713,1.01552 0.437128,1.58456 -0.199585,0.56905 -0.730511,0.94793 -1.32439,0.94512 z"
           style="fill:#ff5555;stroke-width:0.47250241" />
        <ellipse
           id="Oval-8"
           cx="83.831047"
           cy="-487.2464"
           rx="0.46845961"
           ry="0.47658014"
           style="fill:#ff5555;stroke-width:0.47250241" />
        <ellipse
           id="circle5946"
           cx="85.704887"
           cy="-487.2464"
           rx="0.46845961"
           ry="0.47658014"
           style="fill:#ff5555;stroke-width:0.47250241" />
        <path
           inkscape:connector-curvature="0"
           id="path5948"
           d="m 95.256779,-508.03912 c -1.405379,-0.47658 -2.582149,0.0281 -3.297019,1.38447 -0.274517,-0.19063 -0.554656,-0.3765 -0.843227,-0.54521 -1.950854,-1.15315 -4.347388,-1.20518 -6.344817,-0.13773 0,0 0,0 -0.0037,0 -1.985669,-1.06933 -4.373884,-1.01704 -6.312493,0.13821 -0.289508,0.16871 -0.569178,0.35314 -0.843227,0.54473 -0.714401,-1.35587 -1.892108,-1.86057 -3.298424,-1.38447 -1.760471,0.59811 -3.575284,2.24565 -3.565446,3.96944 0.0052,0.84021 0.445036,1.9697 2.408351,2.75416 -1.477985,3.00497 -1.874306,6.4418 -1.120087,9.71317 0.778529,2.9349 2.375039,5.57799 4.596994,7.61051 1.718778,1.63229 5.060769,4.37072 8.168061,4.37072 3.072627,0 6.417897,-2.73843 8.134802,-4.37072 2.221507,-2.03274 3.817664,-4.67578 4.596057,-7.61051 0.754913,-3.27197 0.358573,-6.70963 -1.120087,-9.71508 1.964251,-0.78445 2.404134,-1.91347 2.409288,-2.75225 0.0098,-1.72379 -1.804975,-3.37133 -3.564978,-3.96944 z m -23.571482,3.96229 c -0.007,-1.23196 1.506566,-2.57639 2.924593,-3.05774 0.382263,-0.1282 1.500945,-0.50946 2.241111,1.06039 -0.256247,0.21017 -0.502657,0.43131 -0.742508,0.66102 -0.09297,-0.33227 -0.286972,-0.62607 -0.554188,-0.83926 -0.08963,-0.0522 -0.193868,-0.0723 -0.296067,-0.0572 -0.121805,0.0107 -0.241851,0.0367 -0.357434,0.0772 -1.252193,0.42892 -2.272029,1.52505 -2.281399,2.14127 -0.0014,0.0994 0.02775,0.19666 0.08339,0.27833 0.387571,0.39601 0.873156,0.67809 1.405379,0.81638 -0.178015,0.27212 -0.347597,0.54902 -0.50781,0.83306 -0.937388,-0.35791 -1.909441,-0.95793 -1.915063,-1.91347 z m 2.998142,0.26545 c -0.354168,-0.0972 -0.695843,-0.23654 -1.017963,-0.4151 0.381644,-0.49153 0.890363,-0.86516 1.469089,-1.07897 0.102216,0.21237 0.179271,0.43634 0.229545,0.66721 -0.236728,0.26625 -0.463306,0.54187 -0.679735,0.82686 z m 21.939837,11.97837 c -0.734725,2.75616 -2.237327,5.23732 -4.326693,7.14441 -1.61806,1.5365 -4.743622,4.11432 -7.528615,4.11432 -2.7522,0 -5.877294,-2.57782 -7.495353,-4.11432 -2.089277,-1.90708 -3.591729,-4.38826 -4.326225,-7.14441 -1.351974,-5.51689 1.216121,-11.76962 5.973797,-14.53951 0.848801,-0.50736 1.814585,-0.77687 2.799046,-0.78111 0.906795,0.001 1.799847,0.22556 2.60323,0.65339 0.277751,0.15252 0.612322,0.15252 0.890074,0 1.712879,-0.91335 3.767083,-0.86637 5.437879,0.12439 4.756738,2.77322 7.324366,9.02595 5.97286,14.54284 z m -2.41772,-12.80523 c 0.05048,-0.23093 0.127853,-0.45492 0.230482,-0.66721 0.577291,0.21413 1.085094,0.58658 1.467215,1.07611 -0.321468,0.18079 -0.663278,0.3213 -1.017963,0.41844 -0.217677,-0.28499 -0.444255,-0.56077 -0.679734,-0.82734 z m 1.761876,2.47488 c -0.159589,-0.28404 -0.328702,-0.56157 -0.507342,-0.83259 0.531811,-0.13854 1.017217,-0.42002 1.405379,-0.81495 0.05587,-0.0826 0.08472,-0.18096 0.08245,-0.28118 -0.01031,-0.61955 -1.030611,-1.71092 -2.28702,-2.14175 -0.1132,-0.0396 -0.230707,-0.065 -0.349939,-0.0758 -0.102444,-0.0144 -0.206709,0.006 -0.296535,0.0581 -0.26685,0.21334 -0.460775,0.50685 -0.554188,0.83879 -0.239851,-0.22972 -0.486261,-0.45085 -0.74204,-0.66102 0.740635,-1.57033 1.857911,-1.18907 2.242048,-1.06087 1.418027,0.48135 2.932089,1.82578 2.924593,3.05774 -0.0056,0.95554 -0.977675,1.55603 -1.917405,1.91347 z"
           style="fill:#ff5555;stroke-width:0.47250241" />
      </g>
    </g>
  </g>
</svg>
