<?xml version="1.0" encoding="UTF-8" standalone="no"?>
<!-- Created with Inkscape (http://www.inkscape.org/) -->

<svg
   xmlns:dc="http://purl.org/dc/elements/1.1/"
   xmlns:cc="http://creativecommons.org/ns#"
   xmlns:rdf="http://www.w3.org/1999/02/22-rdf-syntax-ns#"
   xmlns:svg="http://www.w3.org/2000/svg"
   xmlns="http://www.w3.org/2000/svg"
   xmlns:sodipodi="http://sodipodi.sourceforge.net/DTD/sodipodi-0.dtd"
   xmlns:inkscape="http://www.inkscape.org/namespaces/inkscape"
   width="25.048441mm"
   height="25.75489mm"
   viewBox="0 0 25.04844 25.754891"
   version="1.1"
   id="svg4520"
   inkscape:version="0.92.2 (5c3e80d, 2017-08-06)"
   sodipodi:docname="gold2.svg">
  <defs
     id="defs4514" />
  <sodipodi:namedview
     id="base"
     pagecolor="#ffffff"
     bordercolor="#666666"
     borderopacity="1.0"
     inkscape:pageopacity="0.0"
     inkscape:pageshadow="2"
     inkscape:zoom="1.656326"
     inkscape:cx="19.963801"
     inkscape:cy="71.685716"
     inkscape:document-units="mm"
     inkscape:current-layer="layer1"
     showgrid="false"
     fit-margin-top="0"
     fit-margin-left="0"
     fit-margin-right="0"
     fit-margin-bottom="0"
     inkscape:window-width="1920"
     inkscape:window-height="1017"
     inkscape:window-x="-8"
     inkscape:window-y="-8"
     inkscape:window-maximized="1" />
  <metadata
     id="metadata4517">
    <rdf:RDF>
      <cc:Work
         rdf:about="">
        <dc:format>image/svg+xml</dc:format>
        <dc:type
           rdf:resource="http://purl.org/dc/dcmitype/StillImage" />
        <dc:title></dc:title>
      </cc:Work>
    </rdf:RDF>
  </metadata>
  <g
     inkscape:label="Layer 1"
     inkscape:groupmode="layer"
     id="layer1"
     transform="translate(-77.099967,-136.71053)">
    <path
       style="fill:#ffcc00;stroke-width:0.23291481"
       inkscape:connector-curvature="0"
       id="path1446-3"
       d="m 89.885159,136.71053 c -5.211416,0 -9.456199,5.21485 -9.456199,11.61723 0,6.40238 4.244783,11.61722 9.456199,11.61722 5.211417,0 9.456211,-5.21484 9.456211,-11.61722 0,-6.40238 -4.244794,-11.61723 -9.456211,-11.61723 z" />
    <path
       style="fill:#d4aa00;stroke-width:0.23796931"
       inkscape:connector-curvature="0"
       id="path1448-7"
       d="m 97.001037,140.38665 c 1.580351,2.17688 2.570698,5.0794 2.570698,8.27756 0,6.66504 -4.256395,12.09382 -9.482068,12.09382 -2.507479,0 -4.783179,-1.23625 -6.489959,-3.27876 1.727855,2.36501 4.193185,3.84314 6.932454,3.84314 5.225672,0 9.482068,-5.42877 9.482068,-12.09382 0,-3.49378 -1.158912,-6.63817 -3.013193,-8.84194 z" />
    <path
       style="fill:#ffdd55;stroke-width:0.21585561"
       inkscape:connector-curvature="0"
       id="path1500-3"
       d="m 93.034218,137.63073 c -3.113205,0 -5.657328,4.20347 -5.657328,9.40912 0,2.5889 0.636035,4.92725 1.64029,6.62535 0.987523,1.33621 2.242843,2.14349 3.598593,2.14349 3.129943,0 5.674062,-4.23132 5.674062,-9.43695 0,-2.28269 -0.485394,-4.3705 -1.288798,-5.98509 -1.020999,-1.6981 -2.426962,-2.75592 -3.966819,-2.75592 z" />
    <g
       transform="matrix(0.41747402,0,0,0.48838587,30.451875,138.43736)"
       style="fill:#806600;fill-rule:evenodd"
       id="Page-1">
      <g
         style="fill:#806600;fill-rule:nonzero"
         id="007---Pancakes"
         transform="translate(111.73891,-2.8010741)">
        <path
           inkscape:connector-curvature="0"
           id="Shape"
           d="M 51.986,32.2 C 51.986,32.135 52,32.07 52,32 51.95766,30.837594 51.429433,29.746313 50.544,28.992 51.423947,28.240271 51.951438,27.156307 52,26 51.95822,24.841916 51.433898,23.754111 50.554,23 51.433898,22.245889 51.95822,21.158084 52,20 51.956338,18.84107 51.429835,17.753254 50.548,17 51.42757,16.245 51.953564,15.158236 52,14 52,9.6 43.714,6.951 35.315,6.225 35.025542,5.6726715 34.652473,5.1683882 34.209,4.73 c 1.866783,-1.5016543 4.285945,-2.1347332 6.649,-1.74 0.353693,0.050732 0.707584,-0.091083 0.928365,-0.3720244 0.220782,-0.2809412 0.274912,-0.6583271 0.142,-0.99 C 41.795454,1.2963027 41.495693,1.0607317 41.142,1.01 38.032444,0.50381605 34.862042,1.4463183 32.534,3.569 29.629009,2.2016944 26.162781,3.3746211 24.685,6.225 16.286,6.951 8,9.6 8,14 8.0432878,15.158804 8.5694387,16.246641 9.451,17 8.5692404,17.753206 8.0430447,18.841136 8,20 8.0414156,21.158174 8.5658045,22.246118 9.446,23 8.5657052,23.753806 8.0412939,24.841796 8,26 8.0409517,27.158619 8.5631939,28.247681 9.441,29.005 8.5638216,29.758544 8.0414084,30.844337 8,32 8,32.065 8.011,32.13 8.014,32.2 2.841,34.326 0,37.176 0,40.271 0,46.848 13.178,52 30,52 46.822,52 60,46.848 60,40.271 60,37.176 57.159,34.326 51.986,32.2 Z M 11.072,36.223 C 14.923,38.563 22.055,40 30,40 c 0.886,0 1.788,-0.024 2.726,-0.064 0.751483,0.636117 1.716645,0.962843 2.7,0.914 h 0.189 c 1.11027,0.0015 2.218857,-0.08644 3.315,-0.263 1.472066,-0.08564 2.833987,-0.807667 3.731,-1.978 2.197078,-0.482613 4.310868,-1.286952 6.273,-2.387 0.589118,0.416795 0.975946,1.061992 1.066,1.778 0,2.833 -8.553,6 -20,6 -11.447,0 -20,-3.167 -20,-6 0.09201,-0.716564 0.48104,-1.361433 1.072,-1.777 z M 10,26 c 0.09156,-0.716201 0.480286,-1.360809 1.071,-1.776 3.585,2.174 10.133,3.591 17.45,3.755 0.102253,0.155686 0.138242,0.345705 0.1,0.528 -0.09655,0.427385 -0.253457,0.838848 -0.466,1.222 -0.37809,0.681095 -0.605549,1.435426 -0.667,2.212 C 17.112,31.517 10,28.561 10,26 Z m 1.08,-7.784 c 3.069,1.854 8.046,3.034 13.154,3.513 l -0.02,0.053 c -0.436,1.115 -0.977,2.5 -0.11,3.825 0.027,0.043 0.061,0.077 0.09,0.117 -5.508,-0.529 -10.126,-1.8 -12.6,-3.543 C 10.866,21.672 10,20.88 10,20 c 0.09327,-0.720024 0.485272,-1.367547 1.08,-1.784 z m 18.671,14.17 c -0.378,-0.3 -0.407,-0.514 0.2,-1.794 0.31851,-0.580197 0.537862,-1.209524 0.649,-1.862 0.153757,-0.922727 -0.214806,-1.854907 -0.958,-2.423 -0.008,-0.009 -0.017,-0.016 -0.025,-0.024 -0.008,-0.008 -0.028,-0.019 -0.042,-0.029 -0.08399,-0.07839 -0.181141,-0.141357 -0.287,-0.186 -0.571931,-0.326192 -1.182762,-0.578857 -1.818,-0.752 -0.628021,-0.109814 -1.215088,-0.38608 -1.7,-0.8 -0.288,-0.439 -0.073,-1.047 0.3,-2 0.482161,-0.936259 0.651446,-2.00244 0.483,-3.042 -0.104266,-0.402262 -0.260586,-0.789197 -0.465,-1.151 -0.97072,-1.655052 -2.580947,-2.836584 -4.451,-3.266 -0.92424,-0.1624 -1.802358,-0.522994 -2.574,-1.057 0.424,-0.412 2.219,-1.187 5.963,-1.644 1.140345,1.696097 3.066893,2.693572 5.110137,2.645787 2.043245,-0.04779 3.921056,-1.134234 4.980863,-2.881787 0.762,0.05 1.426,0.113 2.049,0.195 0.999911,0.123104 1.99117,0.308464 2.968,0.555 1.595,0.422 2.5,0.99 2.932,1.841 0.07989,0.156889 0.142911,0.321813 0.188,0.492 0.200779,1.343766 -0.106949,2.714103 -0.863,3.843 -0.214786,0.382083 -0.33513,0.809972 -0.351,1.248 0.104509,1.220081 0.730321,2.335753 1.717,3.061 l 0.225,0.215 c 0.552746,0.473181 0.934962,1.114658 1.088,1.826 0.383644,1.200305 0.282799,2.503037 -0.281,3.63 -0.31256,0.400881 -0.686505,0.749851 -1.108,1.034 -0.187,0.142 -0.38,0.291 -0.571,0.451 -0.0075,0.0062 -0.01449,0.01283 -0.021,0.02 -0.59947,0.464883 -1.061839,1.083448 -1.338,1.79 -0.283236,0.901823 -0.402787,1.847057 -0.353,2.791 0.0065,0.412461 -0.0079,0.824986 -0.043,1.236 -0.151,1.431 -0.792,1.961 -2.747,2.268 -1.047092,0.168184 -2.106538,0.247467 -3.167,0.237 -1.267,-0.015 -1.753,-0.44 -1.855,-1.63 -0.017,-0.184 -0.024,-0.38 -0.032,-0.579 0.09278,-1.131344 -0.289033,-2.250327 -1.054,-3.089 -0.530049,-0.428924 -1.161083,-0.715006 -1.833,-0.831 -0.324829,-0.05041 -0.636281,-0.165336 -0.916,-0.338 z m 19.176,-8.165 c 0.591538,0.416085 0.98092,1.061669 1.073,1.779 0,1 -1.1,2.057 -3.007,3 0.36776,-1.245817 0.394008,-2.567565 0.076,-3.827 0.640049,-0.275164 1.260794,-0.59322 1.858,-0.952 z M 50,32 c 0,0.88 -0.866,1.672 -1.594,2.181 -1.555504,0.991469 -3.26024,1.726508 -5.049,2.177 0.033,-0.423 0.04,-0.839 0.041,-1.242 -0.04189,-0.711641 0.0362,-1.425259 0.231,-2.111 0.134455,-0.320897 0.344814,-0.604349 0.613,-0.826 1.636311,-0.453645 3.208511,-1.1129 4.679,-1.962 0.594389,0.416162 0.98606,1.063381 1.079,1.783 z m 0,-12 c 0,0.88 -0.866,1.672 -1.59,2.179 -0.648316,0.437307 -1.33635,0.812628 -2.055,1.121 -0.277274,-0.42797 -0.605697,-0.820533 -0.978,-1.169 l -0.242,-0.232 c -0.543,-0.516 -1.1,-1.049 -1.1,-1.557 0.0078,-0.03691 0.01882,-0.07305 0.033,-0.108 1.698365,-0.458828 3.329994,-1.136153 4.854,-2.015 0.59409,0.415385 0.985486,1.062023 1.078,1.781 z m 0,-6 c 0,1.283 -1.872,2.7 -4.907,3.8 0.31714,-1.009599 0.349666,-2.08711 0.094,-3.114 -0.08061,-0.304877 -0.192885,-0.600485 -0.335,-0.882 -0.927093,-1.5192 -2.462337,-2.566735 -4.215,-2.876 -1.058832,-0.266616 -2.133247,-0.467004 -3.217,-0.6 -0.481,-0.063 -0.988,-0.115 -1.536,-0.16 C 35.960791,9.7834002 35.999644,9.3921911 36,9 35.998849,8.7632921 35.983488,8.5268667 35.954,8.292 44.772,9.174 50,11.819 50,14 Z M 30,5 c 0.35237,0.00488 0.702493,0.057011 1.041,0.155 -0.350875,0.4394705 -0.663989,0.9078031 -0.936,1.4 -0.248528,0.4937426 -0.04974,1.0954718 0.444,1.344 0.493743,0.2485281 1.095472,0.049743 1.344,-0.444 0.252584,-0.4662159 0.551063,-0.906062 0.891,-1.313 1.363541,1.3371011 1.58942,3.4525183 0.538947,5.047382 -1.050472,1.594863 -3.083182,2.222639 -4.850042,1.497871 C 26.706045,11.962485 25.699726,10.088096 26.071829,8.2149647 26.443932,6.3418332 28.090275,4.9944036 30,5 Z M 24.046,8.292 C 23.95403,9.0097919 24.00019,9.7385504 24.182,10.439 20.657,10.918 17,11.917 17,14 c 0,1.31 1.359,2.288 4.156,2.99 1.332649,0.29427 2.485751,1.123389 3.189,2.293 0.08121,0.149134 0.150106,0.304651 0.206,0.465 C 18.359,19.192 13.868,17.778 11.625,16.223 11.58999,16.19216 11.5529,16.16376 11.514,16.138 10.70426,15.699613 10.144653,14.909361 10,14 10,11.819 15.228,9.174 24.046,8.292 Z m 4.5,25.689 c 0.489742,0.343498 1.047731,0.577472 1.636,0.686 0.348246,0.05085 0.6807,0.178984 0.973,0.375 0.342,0.309 0.368,0.974 0.4,1.678 0.008,0.235 0.018,0.464 0.038,0.676 0.01654,0.193989 0.04358,0.386939 0.081,0.578 C 31.108,37.99 30.551,38 30,38 22.117,38 14.893,36.5 11.593,34.181 10.866,33.672 10,32.88 10,32 c 0.09116,-0.714528 0.478328,-1.35788 1.067,-1.773 3.807,2.304 10.633,3.595 17.484,3.754 z M 30,50 C 13.251,50 2,44.969 2,40.271 2,38.085 4.419,35.854 8.67,34.084 8.8951704,34.416201 9.1553252,34.723291 9.446,35 8.5661023,35.754111 8.0417802,36.841916 8,38 c 0,5.2 11.335,8 22,8 10.665,0 22,-2.8 22,-8 -0.04178,-1.158084 -0.566102,-2.245889 -1.446,-3 0.290441,-0.276929 0.550574,-0.583993 0.776,-0.916 4.251,1.77 6.67,4 6.67,6.187 C 58,44.969 46.749,50 30,50 Z"
           style="fill:#806600" />
      </g>
    </g>
  </g>
</svg>
