<?xml version="1.0" encoding="UTF-8" standalone="no"?>
<!-- Created with Inkscape (http://www.inkscape.org/) -->

<svg
   xmlns:dc="http://purl.org/dc/elements/1.1/"
   xmlns:cc="http://creativecommons.org/ns#"
   xmlns:rdf="http://www.w3.org/1999/02/22-rdf-syntax-ns#"
   xmlns:svg="http://www.w3.org/2000/svg"
   xmlns="http://www.w3.org/2000/svg"
   xmlns:sodipodi="http://sodipodi.sourceforge.net/DTD/sodipodi-0.dtd"
   xmlns:inkscape="http://www.inkscape.org/namespaces/inkscape"
   width="34.294445mm"
   height="13.101011mm"
   viewBox="0 0 34.294444 13.101011"
   version="1.1"
   id="svg7222"
   inkscape:version="0.92.2 (5c3e80d, 2017-08-06)"
   sodipodi:docname="moosearrow.svg">
  <defs
     id="defs7216" />
  <sodipodi:namedview
     id="base"
     pagecolor="#ffffff"
     bordercolor="#666666"
     borderopacity="1.0"
     inkscape:pageopacity="0.0"
     inkscape:pageshadow="2"
     inkscape:zoom="12.351793"
     inkscape:cx="72.897246"
     inkscape:cy="25.637973"
     inkscape:document-units="mm"
     inkscape:current-layer="layer1"
     showgrid="false"
     fit-margin-top="0"
     fit-margin-left="0"
     fit-margin-right="0"
     fit-margin-bottom="0"
     inkscape:window-width="1920"
     inkscape:window-height="1017"
     inkscape:window-x="-8"
     inkscape:window-y="-8"
     inkscape:window-maximized="1" />
  <metadata
     id="metadata7219">
    <rdf:RDF>
      <cc:Work
         rdf:about="">
        <dc:format>image/svg+xml</dc:format>
        <dc:type
           rdf:resource="http://purl.org/dc/dcmitype/StillImage" />
        <dc:title></dc:title>
      </cc:Work>
    </rdf:RDF>
  </metadata>
  <g
     inkscape:label="Layer 1"
     inkscape:groupmode="layer"
     id="layer1"
     transform="translate(-40.53071,-138.49843)">
    <g
       style="fill:#ff5555;fill-opacity:1;fill-rule:nonzero"
       id="005---Moose-7"
       transform="matrix(0.2497511,-0.01630107,0.02854421,0.25208724,59.260161,139.42951)">
      <path
         inkscape:connector-curvature="0"
         id="Shape-0-7"
         d="M 57.3,0.012 C 56.19027,-0.07146484 55.095934,0.31115418 54.279975,1.0679088 53.464016,1.8246635 53.000204,2.8871357 53,4 v 7 c -0.0016,1.270989 -0.802298,2.403646 -2,2.829 V 11.66 C 50.997135,10.635726 50.57464,9.6573751 49.831,8.953 49.151802,8.296365 48.230451,7.9512208 47.287,8 46.433281,8.0536835 45.628391,8.4166662 45.023,9.021 44.364226,9.6772914 43.995787,10.570116 44,11.5 c -0.0093,1.184748 -0.8411,2.203695 -2,2.45 V 11.66 C 41.997135,10.635726 41.57464,9.6573751 40.831,8.953 40.152728,8.2949012 39.230715,7.949509 38.287,8 37.433281,8.0536835 36.628391,8.4166662 36.023,9.021 35.364226,9.6772914 34.995787,10.570116 35,11.5 34.9913,12.87708 33.87708,13.99127 32.5,14 h -3 C 28.12292,13.99127 27.00873,12.87708 27,11.5 27.003677,10.570809 26.63528,9.6788034 25.977,9.023 25.369459,8.4167803 24.561618,8.0530385 23.705,8 22.764612,7.9544077 21.847081,8.2988437 21.169,8.952 20.425109,9.6566144 20.002592,10.635379 20,11.66 v 2.29 C 18.8411,13.703695 18.009307,12.684748 18,11.5 18.003677,10.570809 17.63528,9.6788034 16.977,9.023 16.369459,8.4167803 15.561618,8.0530385 14.705,8 13.764612,7.9544077 12.847081,8.2988437 12.169,8.952 11.425109,9.6566144 11.002592,10.635379 11,11.66 v 2.169 C 9.8022984,13.403646 9.0015506,12.270989 9,11 V 4 C 8.9998483,2.8890213 8.5376513,1.8281519 7.7241348,1.0715379 6.9106183,0.31492396 5.8190752,-0.06926822 4.711,0.011 2.5773396,0.2139791 0.96004709,2.0260789 1,4.169 V 11 c 0.00606,5.520334 4.4796656,9.993938 10,10 h 1.014 c 0.05576,1.304788 0.53571,2.555757 1.367,3.563 1.467915,1.543318 3.508101,2.411791 5.638,2.4 -0.01671,0.758043 0.01669,1.516363 0.1,2.27 0.529,4.559 1.594,5.835 2.535,6.962 0.856257,0.939459 1.380731,2.133842 1.493,3.4 -0.61291,0.798095 -0.902491,1.797881 -0.811,2.8 l 0.4,4 c 0.199616,2.046894 1.923404,3.6061 3.98,3.6 h 8.57 c 2.056596,0.0061 3.780384,-1.553106 3.98,-3.6 l 0.4,-4 c 0.09287,-1.002095 -0.196459,-2.002261 -0.81,-2.8 0.112269,-1.266158 0.636743,-2.460541 1.493,-3.4 0.941,-1.127 2.006,-2.4 2.536,-6.967 0.08293,-0.751993 0.116332,-1.508624 0.1,-2.265 2.129899,0.01179 4.170085,-0.856682 5.638,-2.4 0.829275,-1.008096 1.307728,-2.258815 1.363,-3.563 H 51 c 5.520334,-0.0061 9.993938,-4.479666 10,-10 V 4.169 C 61.039906,2.0303036 59.428901,0.22031736 57.3,0.012 Z M 39.6,21.334 c 0.194,0.393 0.352,0.8 0.507,1.212 -1.692121,-0.323379 -3.443691,0.02335 -4.885,0.967 C 33.749,24.608 33,26.454 33,29 v 9 h -4 v -9 c 0,-2.546 -0.749,-4.392 -2.226,-5.487 -1.44143,-0.943354 -3.19288,-1.290058 -4.885,-0.967 0.155,-0.408 0.311,-0.817 0.5,-1.208 1.62191,-3.268841 4.955902,-5.336432 8.605,-5.336432 3.649097,0 6.98309,2.067591 8.605,5.336432 z M 3,11 V 4.169 C 2.9707688,3.07849 3.7727756,2.1433199 4.855,2.006 5.4090341,1.9657265 5.9548598,2.1576908 6.3617141,2.5359041 6.7685684,2.9141173 6.9997953,3.4445041 7,4 v 7 c 0.00331,2.760053 2.2399468,4.996694 5,5 0.552285,0 1,-0.447715 1,-1 v -3.34 c 0.0018,-0.47498 0.198023,-0.928504 0.543,-1.255 0.277653,-0.271952 0.654578,-0.4183133 1.043,-0.405 0.368369,0.02203 0.715918,0.178199 0.977,0.439 0.281374,0.281209 0.438706,0.663198 0.437,1.061 0.0082,2.481864 2.018136,4.491768 4.5,4.5 H 21 c 0.552285,0 1,-0.447715 1,-1 v -3.34 c 0.0018,-0.47498 0.198023,-0.928504 0.543,-1.255 0.277911,-0.271552 0.654657,-0.4178433 1.043,-0.405 0.368369,0.02203 0.715918,0.178199 0.977,0.439 0.281374,0.281209 0.438706,0.663198 0.437,1.061 -0.0055,1.191437 0.469219,2.334851 1.317,3.172 0.078,0.079 0.169,0.137 0.251,0.209 -2.063816,0.851514 -3.837135,2.282047 -5.106,4.119 H 11 C 6.5837781,18.99504 3.0049599,15.416222 3,11 Z m 11.022,10 h 6.329 c -0.453541,1.009482 -0.798156,2.064445 -1.028,3.147 -0.057,0.262 -0.1,0.545 -0.141,0.827 -1.590139,0.03766 -3.127595,-0.571045 -4.261,-1.687 C 14.387063,22.638894 14.072321,21.838211 14.022,21 Z m 7.078,8.01 c -0.09264,-0.796427 -0.121067,-1.599015 -0.085,-2.4 0.03126,-0.644385 0.110818,-1.285517 0.238,-1.918 1.067,-0.254 3.031,-0.534 4.326,0.426 0.94,0.7 1.417,2 1.417,3.88 v 9 h -0.685 c -0.479219,0.0058 -0.953468,0.09795 -1.4,0.272 C 24.641011,37.018233 24.044867,35.8601 23.183,34.913 22.389,33.959 21.563,32.97 21.1,29.01 Z M 37.275,46.2 c -0.100033,1.023334 -0.961792,1.802815 -1.99,1.8 h -8.57 c -1.028208,0.0028 -1.889967,-0.776666 -1.99,-1.8 l -0.4,-4 C 24.26848,41.637597 24.452569,41.077538 24.831744,40.65835 25.210918,40.239162 25.749764,39.999993 26.315,40 h 9.37 c 0.565236,-7e-6 1.104082,0.239162 1.483256,0.65835 0.379175,0.419188 0.563268,0.979247 0.506744,1.54165 z M 40.9,29.005 c -0.46,3.965 -1.286,4.954 -2.084,5.91 -0.861868,0.9471 -1.458011,2.105233 -1.728,3.357 C 36.641468,38.097948 36.167219,38.005808 35.688,38 H 35 v -9 c 0,-1.878 0.477,-3.184 1.417,-3.88 1.3,-0.961 3.26,-0.681 4.327,-0.427 0.126531,0.632222 0.205751,1.272998 0.237,1.917 0.03692,0.799216 0.0098,1.600104 -0.081,2.395 z m 6.182,-5.718 c -1.133724,1.115465 -2.670963,1.724084 -4.261,1.687 -0.042,-0.28 -0.083,-0.561 -0.139,-0.819 C 42.451273,23.069475 42.104966,22.011778 41.649,21 h 6.329 c -0.04984,0.838316 -0.364642,1.639142 -0.899,2.287 z M 59,11 c -0.005,4.416222 -3.583778,7.99504 -8,8 H 40.539 c -1.269202,-1.836639 -3.042419,-3.267089 -5.106,-4.119 0.078,-0.069 0.166,-0.124 0.239,-0.2 0.8531,-0.838148 1.331914,-1.985067 1.328,-3.181 -0.0016,-0.792702 0.613887,-1.449797 1.405,-1.5 0.392196,-0.018866 0.774162,0.128547 1.052,0.406 0.344726,0.326257 0.54093,0.779368 0.543,1.254 V 15 c 0,0.552285 0.447715,1 1,1 h 0.5 c 2.481864,-0.0082 4.491768,-2.018136 4.5,-4.5 -0.0016,-0.792702 0.613887,-1.449797 1.405,-1.5 0.391733,-0.017831 0.772987,0.129447 1.051,0.406 0.345291,0.325948 0.541904,0.77917 0.544,1.254 V 15 c 0,0.552285 0.447715,1 1,1 2.760053,-0.0033 4.996694,-2.239947 5,-5 V 4 C 54.9988,3.4694382 55.210184,2.9605065 55.587,2.587 55.9961,2.1706411 56.569345,1.9580567 57.151,2.007 58.230443,2.1470965 59.029049,3.0808914 59,4.169 Z"
         style="fill:#ff5555;fill-opacity:1" />
      <path
         inkscape:connector-curvature="0"
         id="path816-1"
         d="m 24,30 h 1 c 0.552285,0 1,-0.447715 1,-1 0,-0.552285 -0.447715,-1 -1,-1 h -1 c -0.552285,0 -1,0.447715 -1,1 0,0.552285 0.447715,1 1,1 z"
         style="fill:#ff5555;fill-opacity:1" />
      <path
         inkscape:connector-curvature="0"
         id="path818-6"
         d="m 38,28 h -1 c -0.552285,0 -1,0.447715 -1,1 0,0.552285 0.447715,1 1,1 h 1 c 0.552285,0 1,-0.447715 1,-1 0,-0.552285 -0.447715,-1 -1,-1 z"
         style="fill:#ff5555;fill-opacity:1" />
      <path
         inkscape:connector-curvature="0"
         id="path820-7"
         d="m 28,42 c -0.552285,0 -1,0.447715 -1,1 v 2 c 0,0.552285 0.447715,1 1,1 0.552285,0 1,-0.447715 1,-1 v -2 c 0,-0.552285 -0.447715,-1 -1,-1 z"
         style="fill:#ff5555;fill-opacity:1" />
      <path
         inkscape:connector-curvature="0"
         id="path822-7"
         d="m 34,42 c -0.552285,0 -1,0.447715 -1,1 v 2 c 0,0.552285 0.447715,1 1,1 0.552285,0 1,-0.447715 1,-1 v -2 c 0,-0.552285 -0.447715,-1 -1,-1 z"
         style="fill:#ff5555;fill-opacity:1" />
    </g>
    <path
       style="fill:#ff5555;fill-opacity:1;stroke:none;stroke-width:0.03375466px;stroke-linecap:butt;stroke-linejoin:miter;stroke-opacity:1"
       d="m 58.770401,150.70493 c 0.125826,-2e-5 0.254032,-0.009 0.382644,-0.027 0.823154,-0.11644 1.661919,-0.61547 2.081301,-1.51375 0.419402,-0.89827 0.419298,-2.19569 -0.15538,-3.12724 -0.574684,-0.93156 -1.72397,-1.49711 -2.857801,-1.68008 -1.085246,-0.17514 -2.156182,4.5e-4 -3.076757,0.48257 -0.03502,-0.18425 -0.07518,-0.3679 -0.122846,-0.54909 -0.326213,-1.2476 -0.94744,-2.37868 -1.801702,-2.94425 -0.854253,-0.56558 -1.941477,-0.5656 -2.826774,0.0499 -0.0045,0.003 -0.009,0.007 -0.01332,0.01 -0.229113,-0.48742 -0.548324,-0.92511 -0.902854,-1.25735 -0.745514,-0.69865 -1.64641,-0.93152 -2.733634,-0.69864 -1.008606,0.21603 -2.176737,0.8326 -2.836525,1.2527 -0.03233,-0.12269 -0.04427,-0.26234 -0.07044,-0.42908 -0.04728,-0.30115 -0.140975,-0.69033 -0.287311,-0.88456 -0.146326,-0.19421 -0.345232,-0.19335 -0.398222,-0.10482 -0.05304,0.0886 0.03985,0.26477 0.03603,0.52459 -0.0038,0.25982 -0.1044,0.60324 -0.333237,1.01474 -0.228835,0.41149 -0.585947,0.89105 -1.073727,1.46217 -0.487777,0.57111 -1.106254,1.23376 -1.226698,1.4447 -0.120452,0.21095 0.257037,-0.0298 0.820899,-0.3674 0.563862,-0.33764 1.314205,-0.77221 1.914715,-1.03466 0.60051,-0.26242 1.0514,-0.35282 1.37666,-0.29194 0.325255,0.0609 0.524969,0.27305 0.665782,0.30102 0.140818,0.0279 0.222708,-0.12831 0.129845,-0.30456 -0.09288,-0.17626 -0.360419,-0.37249 -0.652208,-0.54786 -0.26539,-0.15949 -0.550354,-0.30175 -0.71898,-0.46442 0.258932,-0.11887 0.547808,-0.26063 0.820703,-0.38958 0.528099,-0.24953 0.993973,-0.44912 1.413353,-0.59883 0.419383,-0.14972 0.79214,-0.24954 1.211542,-0.19964 0.419394,0.0499 0.885286,0.24951 1.289128,0.51566 0.403853,0.26616 0.745514,0.59888 1.009635,1.01474 0.06796,0.10731 0.130974,0.22027 0.187915,0.33724 -0.70134,0.6624 -1.222304,1.67744 -1.368387,2.4739 -0.170846,0.9315 0.170869,1.56364 0.714458,1.34741 0.543587,-0.21623 1.289119,-1.28084 1.36678,-2.39537 0.02987,-0.4252 -0.03809,-0.85754 -0.174436,-1.26861 0.14662,-0.097 0.294911,-0.18096 0.438555,-0.24507 0.372757,-0.16636 0.71452,-0.19964 1.118343,-0.0998 0.403856,0.0998 0.869802,0.33267 1.273583,0.682 0.403854,0.34934 0.745514,0.81506 0.96299,1.28082 0.217469,0.46577 0.310666,0.93156 0.372757,1.49711 0.0038,0.0348 0.0072,0.0711 0.01038,0.10654 -0.816668,0.53538 -1.471432,1.30741 -1.750351,2.0393 -0.310666,0.81506 -0.15529,1.58028 0.326111,1.76325 0.481493,0.18297 1.289101,-0.21625 1.677416,-1.0979 0.270712,-0.61457 0.337334,-1.46356 0.2426,-2.34407 0.187825,-0.12741 0.37842,-0.25142 0.549458,-0.35068 0.372757,-0.21625 0.652324,-0.31607 1.056229,-0.38261 0.403855,-0.0666 0.931893,-0.0998 1.366793,-0.0499 0.434848,0.0499 0.77661,0.18295 1.180445,0.43248 0.403853,0.24954 0.8698,0.61543 1.21147,1.01467 0.34166,0.39924 0.559136,0.83177 0.621227,1.29754 0.06177,0.46577 -0.03089,0.96476 -0.186379,1.34734 -0.15529,0.38257 -0.372757,0.64877 -0.683421,0.88162 -0.310665,0.23286 -0.714521,0.43253 -1.087246,0.54895 -0.372757,0.11644 -0.714519,0.14965 -0.978539,0.0998 -0.264018,-0.0499 -0.450397,-0.18294 -0.559134,-0.38255 -0.108735,-0.19958 -0.139847,-0.46575 -0.108735,-0.69864 0.03089,-0.23288 0.124178,-0.43249 0.341762,-0.54895 0.217469,-0.11645 0.559137,-0.14969 0.729967,-0.16633 0.170823,-0.0167 0.170823,-0.0167 -0.03089,-0.0998 -0.201935,-0.0832 -0.605779,-0.24954 -0.962989,0.0499 -0.357208,0.29942 -0.667873,1.06471 -0.419403,1.58034 0.209658,0.43507 0.817388,0.69247 1.496692,0.69237 z m -4.953939,-2.24746 c -0.126661,7.7e-4 -0.231582,-0.071 -0.301501,-0.20816 -0.09268,-0.18295 -0.124178,-0.48241 -0.04633,-0.81511 0.07722,-0.33271 0.26402,-0.69861 0.450397,-0.94815 0.18638,-0.24954 0.372757,-0.38256 0.698972,-0.61547 0.05148,-0.0369 0.111512,-0.0793 0.169288,-0.12034 0.01648,0.34064 0.01964,0.67841 0.0016,0.96868 -0.03089,0.51566 -0.12429,0.88165 -0.279567,1.16442 -0.15529,0.28277 -0.372756,0.48243 -0.559134,0.54895 -0.04635,0.0167 -0.09164,0.025 -0.133457,0.0251 z m -4.607646,-3.29979 c -0.05665,0.002 -0.107719,-0.01 -0.151475,-0.0356 -0.139734,-0.0831 -0.201823,-0.31606 -0.186379,-0.63212 0.01535,-0.31606 0.108644,-0.71528 0.279567,-1.08126 0.170823,-0.36597 0.419402,-0.69859 0.745513,-1.01467 0.09474,-0.0916 0.195953,-0.18123 0.30078,-0.26718 0.07105,0.21192 0.122326,0.43079 0.149622,0.64972 0.06177,0.49903 3.2e-5,0.99814 -0.139733,1.38071 -0.139847,0.38258 -0.357208,0.64871 -0.574684,0.81503 -0.14951,0.11436 -0.299031,0.18157 -0.423214,0.18537 z"
       id="path10535"
       inkscape:connector-curvature="0" />
  </g>
</svg>
