<?xml version="1.0" encoding="UTF-8" standalone="no"?>
<!-- Created with Inkscape (http://www.inkscape.org/) -->

<svg
   xmlns:dc="http://purl.org/dc/elements/1.1/"
   xmlns:cc="http://creativecommons.org/ns#"
   xmlns:rdf="http://www.w3.org/1999/02/22-rdf-syntax-ns#"
   xmlns:svg="http://www.w3.org/2000/svg"
   xmlns="http://www.w3.org/2000/svg"
   xmlns:sodipodi="http://sodipodi.sourceforge.net/DTD/sodipodi-0.dtd"
   xmlns:inkscape="http://www.inkscape.org/namespaces/inkscape"
   width="39.605354mm"
   height="15.788177mm"
   viewBox="0 0 39.605353 15.788176"
   version="1.1"
   id="svg7222"
   inkscape:version="0.92.2 (5c3e80d, 2017-08-06)"
   sodipodi:docname="moosearrow2.svg">
  <defs
     id="defs7216" />
  <sodipodi:namedview
     id="base"
     pagecolor="#ffffff"
     bordercolor="#666666"
     borderopacity="1.0"
     inkscape:pageopacity="0.0"
     inkscape:pageshadow="2"
     inkscape:zoom="12.351793"
     inkscape:cx="97.286506"
     inkscape:cy="51.924418"
     inkscape:document-units="mm"
     inkscape:current-layer="layer1"
     showgrid="false"
     fit-margin-top="0"
     fit-margin-left="0"
     fit-margin-right="0"
     fit-margin-bottom="0"
     inkscape:window-width="1920"
     inkscape:window-height="1017"
     inkscape:window-x="-8"
     inkscape:window-y="-8"
     inkscape:window-maximized="1"
     showguides="false" />
  <metadata
     id="metadata7219">
    <rdf:RDF>
      <cc:Work
         rdf:about="">
        <dc:format>image/svg+xml</dc:format>
        <dc:type
           rdf:resource="http://purl.org/dc/dcmitype/StillImage" />
        <dc:title></dc:title>
      </cc:Work>
    </rdf:RDF>
  </metadata>
  <g
     inkscape:label="Layer 1"
     inkscape:groupmode="layer"
     id="layer1"
     transform="translate(-40.53071,-135.81176)">
    <g
       style="fill:#ff5555;fill-opacity:1;fill-rule:nonzero"
       id="005---Moose-7"
       transform="matrix(0.2497511,-0.01630107,0.02854421,0.25208724,59.260161,139.42951)">
      <path
         inkscape:connector-curvature="0"
         id="Shape-0-7"
         d="m 78.996737,-8.9562345 c -1.467544,-0.2049717 -2.95349,0.1713547 -4.100745,1.038543 -1.147257,0.8671885 -1.852101,2.1468364 -1.945149,3.5314286 l -0.583571,8.7093056 c -0.10809,1.5812014 -1.266402,2.9174738 -2.893254,3.337551 L 69.654843,4.961953 C 69.736432,3.6873032 69.256618,2.4315521 68.327264,1.4874129 67.479553,0.60854348 66.284124,0.09516016 65.026491,0.06987713 63.887676,0.05886702 62.787954,0.43714438 61.933187,1.133881 61.00316,1.8903976 60.439181,2.9676638 60.367257,4.1249966 60.256136,5.598197 59.065968,6.7901584 57.5056,6.9910008 l 0.190911,-2.849187 C 57.7781,2.8671652 57.298287,1.6114129 56.368931,0.66727394 55.522573,-0.21333232 54.326286,-0.72708444 53.068159,-0.75026179 51.929344,-0.76127191 50.829623,-0.38299467 49.974856,0.31374217 49.044827,1.0702597 48.480848,2.1475246 48.408924,3.3048586 48.282561,5.0174092 46.709206,6.3021351 44.878747,6.1875085 L 40.892636,5.9141279 c -1.829003,-0.1363505 -3.216544,-1.6241423 -3.11334,-3.3382828 0.08235,-1.1557516 -0.332775,-2.29914334 -1.152762,-3.1750719 -0.756703,-0.8096135 -1.799761,-1.3357919 -2.933531,-1.4798423 -1.245694,-0.1424196 -2.493537,0.2025115 -3.448956,0.9533686 -1.047154,0.80888355 -1.69015,1.98814674 -1.779015,3.2627298 l -0.19091,2.849187 c -1.519301,-0.4120556 -2.53956,-1.7556136 -2.453157,-3.2305092 0.08235,-1.15575226 -0.332777,-2.29914427 -1.152763,-3.1750728 -0.756702,-0.8096135 -1.79976,-1.3357919 -2.93353,-1.4798423 -1.245696,-0.1424198 -2.493537,0.2025115 -3.448958,0.9533686 -1.047152,0.8088835 -1.690148,1.98814671 -1.779013,3.2627295 L 16.325878,4.0155308 C 14.769948,3.3771696 13.800418,1.8949637 13.904317,0.31347444 L 14.487888,-8.395831 c 0.09242,-1.3822787 -0.433263,-2.744316 -1.451108,-3.759818 -1.017846,-1.015502 -2.436154,-1.592977 -3.915149,-1.594084 -2.8519239,0.05811 -5.1518962,2.165323 -5.2774602,4.835157 L 3.2746883,-0.41553788 C 2.8225247,6.4533396 8.3936677,12.427002 15.72805,12.937593 l 1.347306,0.0924 c -0.03469,1.628481 0.498732,3.228656 1.5193,4.557607 1.821761,2.053942 4.46016,3.320399 7.291148,3.499819 -0.0854,0.941624 -0.104243,1.888159 -0.05637,2.833416 0.322812,5.720452 1.631505,7.405084 2.78786,8.893032 1.059391,1.24689 1.65669,2.780719 1.700305,4.366286 -0.88091,0.937127 -1.349028,2.154659 -1.311007,3.409819 l 0.198011,5.013196 c 0.09458,2.564909 2.255004,4.661934 4.988118,4.841756 l 11.38699,0.780954 c 2.732097,0.195 5.152487,-1.587859 5.588362,-4.116388 l 0.864951,-4.940295 c 0.206939,-1.23833 -0.09411,-2.509088 -0.842822,-3.557535 0.254729,-1.565106 1.051172,-3.003347 2.267204,-4.094182 1.344265,-1.316448 2.865461,-2.803248 3.950413,-8.437151 0.172881,-0.928062 0.280341,-1.866408 0.321696,-2.808969 2.829023,0.208759 5.612226,-0.685867 7.691313,-2.472276 1.185903,-1.17869 1.925894,-2.691218 2.10806,-4.308831 l 1.347306,0.0924 c 7.335397,0.495455 13.652439,-4.662831 14.12071,-11.5306034 l 0.569478,-8.4990305 c 0.231321,-2.6573007 -1.758333,-5.0560666 -4.569645,-5.5092516 z M 53.701127,15.959371 c 0.225004,0.506643 0.401009,1.027425 0.572611,1.554154 -2.221368,-0.55654 -4.577591,-0.284759 -6.571334,0.757975 -2.048467,1.228155 -3.197561,3.456669 -3.409815,6.624368 l -0.750307,11.19768 -5.314814,-0.364506 0.750306,-11.19768 c 0.212254,-3.167699 -0.629049,-5.532721 -2.500257,-7.029698 -1.836588,-1.305062 -4.134842,-1.896029 -6.4101,-1.648282 0.239963,-0.493504 0.481337,-0.98816 0.76506,-1.457414 2.427551,-3.919248 7.029808,-6.1879025 11.878377,-5.8553723 4.848568,0.332529 9.106087,3.2088133 10.98861,7.4236603 z M 5.9320954,-0.2332848 6.5015779,-8.7323228 c 0.052073,-1.3594612 1.1956651,-2.4499032 2.6450685,-2.5221362 0.7395045,3.8e-4 1.4487416,0.288959 1.9577996,0.796602 0.509058,0.5076426 0.772073,1.1886137 0.726035,1.8797728 L 11.246909,0.13122136 C 11.021209,3.5655433 13.806574,6.552159 17.47359,6.807787 18.207414,6.858111 18.839618,6.3418722 18.885662,5.6547265 l 0.278447,-4.1555827 c 0.04199,-0.59080023 0.34052,-1.13718699 0.826111,-1.51197242 0.391591,-0.31305741 0.904614,-0.46081031 1.419602,-0.40885052 0.487616,0.0609772 0.936387,0.286952 1.261545,0.6352286 0.350419,0.37551704 0.527622,0.86511954 0.49219,1.35990394 -0.19601,3.0886486 2.307038,5.7725031 5.604014,6.0089087 l 0.664351,0.04556 C 30.165745,7.6782464 30.79795,7.1620076 30.843993,6.474862 L 31.12244,2.3192793 c 0.04199,-0.5908003 0.34052,-1.1371872 0.826111,-1.5119726 0.3919,-0.31253626 0.904681,-0.46021838 1.419602,-0.40885064 0.487617,0.0609772 0.936387,0.28695199 1.261545,0.63522834 0.350419,0.3755179 0.527622,0.86512 0.492192,1.3599045 -0.10664,1.4818687 0.428802,2.9477489 1.48546,4.0665728 0.09706,0.1053956 0.21313,0.1858546 0.316081,0.2829082 -2.813187,0.8713743 -5.288663,2.4896276 -7.12775,4.6595121 L 15.894784,10.44922 C 10.027349,10.040614 5.5705169,5.2617704 5.9320954,-0.2332848 Z m 13.8112966,13.4462618 8.409364,0.57674 c -0.686779,1.214654 -1.23262,2.495822 -1.628264,3.821777 -0.09758,0.320783 -0.178306,0.668969 -0.256291,1.016093 -2.115963,-0.09805 -4.10804,-0.995493 -5.520965,-2.487233 -0.655413,-0.85502 -1.006861,-1.8799 -1.003844,-2.927377 z m 8.736791,10.610928 c -0.0567,-0.999346 -0.02761,-2.000506 0.08715,-2.993794 0.09525,-0.798886 0.254414,-1.589324 0.476129,-2.364661 1.438903,-0.218792 4.071818,-0.388191 5.712457,0.924237 1.190624,0.956589 1.716039,2.617499 1.559307,4.956569 l -0.750305,11.19768 -0.910162,-0.06242 c -0.637224,-0.03645 -1.275042,0.03498 -1.882861,0.210842 -0.254378,-1.582035 -0.949927,-3.077293 -2.016135,-4.334201 -0.975459,-1.259308 -1.990517,-2.565079 -2.275573,-7.534249 z m 20.058695,22.861538 c -0.218227,1.264102 -1.428232,2.155393 -2.794182,2.058193 L 34.357707,47.962682 c -1.366416,-0.09021 -2.446457,-1.138544 -2.494059,-2.420878 l -0.198012,-5.013196 c -0.02821,-0.704885 0.263078,-1.384928 0.801837,-1.871923 0.538756,-0.486995 1.274662,-0.735462 2.025692,-0.683945 l 12.449952,0.853855 c 0.751032,0.0515 1.447059,0.398174 1.915922,0.954274 0.468865,0.556101 0.666779,1.269694 0.544789,1.964278 z M 54.788929,25.62199 c -0.941754,4.891281 -2.121714,6.046511 -3.261718,7.163234 -1.224124,1.09983 -2.112773,2.486439 -2.575864,4.019268 -0.578799,-0.257245 -1.201254,-0.415101 -1.83751,-0.465996 l -0.914147,-0.0627 0.750305,-11.197679 c 0.156565,-2.336582 0.899234,-3.918021 2.20624,-4.698317 1.807429,-1.077199 4.388345,-0.550218 5.784897,-0.136963 0.115413,0.798132 0.167256,1.602597 0.155087,2.406703 -0.01757,0.997738 -0.120375,1.99172 -0.30729,2.972446 z m 8.690741,-6.550915 c -1.599376,1.284534 -3.692651,1.901687 -5.802247,1.710653 -0.03247,-0.352199 -0.06351,-0.705552 -0.116417,-1.031655 -0.21607,-1.371621 -0.588033,-2.719151 -1.109527,-4.019543 l 8.409365,0.57674 c -0.136111,1.03848 -0.621153,2.00617 -1.385166,2.763532 z M 80.339493,4.8698026 C 79.964681,10.36395 74.91119,14.490546 69.042926,14.094281 L 55.143358,13.141006 C 53.610081,10.740228 51.373254,8.7988936 48.702389,7.5509101 48.81178,7.472169 48.933291,7.4117585 49.036622,7.323852 c 1.203391,-0.965072 1.935209,-2.3484201 2.02971,-3.8367409 0.06396,-0.9864155 0.936539,-1.7478768 1.991879,-1.7382464 0.522685,0.012296 1.017915,0.2304829 1.36395,0.6010048 0.430838,0.4373379 0.65376,1.0189716 0.616942,1.6096906 l -0.278447,4.155584 c -0.04604,0.6871456 0.511514,1.2849852 1.245336,1.3353129 l 0.664352,0.04556 c 3.298346,0.215962 6.136475,-2.1016179 6.354319,-5.1887695 0.06396,-0.9864155 0.93654,-1.7478768 1.99188,-1.7382476 0.521983,0.013536 1.016279,0.2314963 1.362621,0.6009142 0.431616,0.4370057 0.655072,1.0188146 0.618271,1.6097824 l -0.278447,4.1555827 c -0.04604,0.6871456 0.511513,1.2849858 1.245336,1.3353148 3.667567,0.247407 6.825863,-2.331581 7.060355,-5.7653016 l 0.583572,-8.709305 c 0.04264,-0.6602271 0.365932,-1.2741704 0.897746,-1.7045442 0.578284,-0.4807483 1.357678,-0.693005 2.126446,-0.5791063 1.42258,0.2726721 2.405842,1.5072613 2.276533,2.8584243 z"
         style="fill:#ff5555;fill-opacity:1;stroke-width:1.28870165" />
      <path
         inkscape:connector-curvature="0"
         id="path816-1"
         d="m 32.763024,25.75158 1.335602,0.006 c 0.737632,0.0033 1.330853,-0.550732 1.324996,-1.237496 -0.0059,-0.686765 -0.608574,-1.246183 -1.346206,-1.249497 l -1.335602,-0.006 c -0.737632,-0.0033 -1.330853,0.550732 -1.324996,1.237496 0.0059,0.686765 0.608574,1.246183 1.346206,1.249497 z"
         style="fill:#ff5555;fill-opacity:1;stroke-width:1.28870165" />
      <path
         inkscape:connector-curvature="0"
         id="path818-6"
         d="m 51.440232,23.34859 -1.335601,-0.006 c -0.737633,-0.0033 -1.330853,0.550732 -1.324996,1.237496 0.0059,0.686765 0.608573,1.246183 1.346206,1.249497 l 1.335601,0.006 c 0.737633,0.0033 1.330853,-0.550731 1.324996,-1.237496 -0.0059,-0.686764 -0.608573,-1.246183 -1.346206,-1.249497 z"
         style="fill:#ff5555;fill-opacity:1;stroke-width:1.28870165" />
      <path
         inkscape:connector-curvature="0"
         id="path820-7"
         d="m 38.23269,40.69754 c -0.737632,-0.0033 -1.330853,0.550732 -1.324996,1.237496 l 0.02121,2.486994 c 0.0059,0.686764 0.608574,1.246182 1.346207,1.249496 0.737632,0.0033 1.330853,-0.550731 1.324996,-1.237496 l -0.02121,-2.486993 C 39.57304,41.260272 38.970323,40.700854 38.23269,40.69754 Z"
         style="fill:#ff5555;fill-opacity:1;stroke-width:1.28870165" />
      <path
         inkscape:connector-curvature="0"
         id="path822-7"
         d="m 46.246298,40.733541 c -0.737632,-0.0033 -1.330853,0.550732 -1.324996,1.237497 l 0.02121,2.486993 c 0.0059,0.686764 0.608574,1.246183 1.346206,1.249497 0.737633,0.0033 1.330854,-0.550732 1.324997,-1.237497 l -0.02121,-2.486993 c -0.0059,-0.686764 -0.608573,-1.246183 -1.346206,-1.249497 z"
         style="fill:#ff5555;fill-opacity:1;stroke-width:1.28870165" />
    </g>
    <path
       style="fill:#ff5555;fill-opacity:1;stroke:none;stroke-width:0.03375466px;stroke-linecap:butt;stroke-linejoin:miter;stroke-opacity:1"
       d="m 58.770401,150.70493 c 0.125826,-2e-5 0.254032,-0.009 0.382644,-0.027 0.823154,-0.11644 1.661919,-0.61547 2.081301,-1.51375 0.419402,-0.89827 0.419298,-2.19569 -0.15538,-3.12724 -0.574684,-0.93156 -1.72397,-1.49711 -2.857801,-1.68008 -1.085246,-0.17514 -2.156182,4.5e-4 -3.076757,0.48257 -0.03502,-0.18425 -0.07518,-0.3679 -0.122846,-0.54909 -0.326213,-1.2476 -0.94744,-2.37868 -1.801702,-2.94425 -0.854253,-0.56558 -1.941477,-0.5656 -2.826774,0.0499 -0.0045,0.003 -0.009,0.007 -0.01332,0.01 -0.229113,-0.48742 -0.548324,-0.92511 -0.902854,-1.25735 -0.745514,-0.69865 -1.64641,-0.93152 -2.733634,-0.69864 -1.008606,0.21603 -2.176737,0.8326 -2.836525,1.2527 -0.03233,-0.12269 -0.04427,-0.26234 -0.07044,-0.42908 -0.04728,-0.30115 -0.140975,-0.69033 -0.287311,-0.88456 -0.146326,-0.19421 -0.345232,-0.19335 -0.398222,-0.10482 -0.05304,0.0886 0.03985,0.26477 0.03603,0.52459 -0.0038,0.25982 -0.1044,0.60324 -0.333237,1.01474 -0.228835,0.41149 -0.585947,0.89105 -1.073727,1.46217 -0.487777,0.57111 -1.106254,1.23376 -1.226698,1.4447 -0.120452,0.21095 0.257037,-0.0298 0.820899,-0.3674 0.563862,-0.33764 1.314205,-0.77221 1.914715,-1.03466 0.60051,-0.26242 1.0514,-0.35282 1.37666,-0.29194 0.325255,0.0609 0.524969,0.27305 0.665782,0.30102 0.140818,0.0279 0.222708,-0.12831 0.129845,-0.30456 -0.09288,-0.17626 -0.360419,-0.37249 -0.652208,-0.54786 -0.26539,-0.15949 -0.550354,-0.30175 -0.71898,-0.46442 0.258932,-0.11887 0.547808,-0.26063 0.820703,-0.38958 0.528099,-0.24953 0.993973,-0.44912 1.413353,-0.59883 0.419383,-0.14972 0.79214,-0.24954 1.211542,-0.19964 0.419394,0.0499 0.885286,0.24951 1.289128,0.51566 0.403853,0.26616 0.745514,0.59888 1.009635,1.01474 0.06796,0.10731 0.130974,0.22027 0.187915,0.33724 -0.70134,0.6624 -1.222304,1.67744 -1.368387,2.4739 -0.170846,0.9315 0.170869,1.56364 0.714458,1.34741 0.543587,-0.21623 1.289119,-1.28084 1.36678,-2.39537 0.02987,-0.4252 -0.03809,-0.85754 -0.174436,-1.26861 0.14662,-0.097 0.294911,-0.18096 0.438555,-0.24507 0.372757,-0.16636 0.71452,-0.19964 1.118343,-0.0998 0.403856,0.0998 0.869802,0.33267 1.273583,0.682 0.403854,0.34934 0.745514,0.81506 0.96299,1.28082 0.217469,0.46577 0.310666,0.93156 0.372757,1.49711 0.0038,0.0348 0.0072,0.0711 0.01038,0.10654 -0.816668,0.53538 -1.471432,1.30741 -1.750351,2.0393 -0.310666,0.81506 -0.15529,1.58028 0.326111,1.76325 0.481493,0.18297 1.289101,-0.21625 1.677416,-1.0979 0.270712,-0.61457 0.337334,-1.46356 0.2426,-2.34407 0.187825,-0.12741 0.37842,-0.25142 0.549458,-0.35068 0.372757,-0.21625 0.652324,-0.31607 1.056229,-0.38261 0.403855,-0.0666 0.931893,-0.0998 1.366793,-0.0499 0.434848,0.0499 0.77661,0.18295 1.180445,0.43248 0.403853,0.24954 0.8698,0.61543 1.21147,1.01467 0.34166,0.39924 0.559136,0.83177 0.621227,1.29754 0.06177,0.46577 -0.03089,0.96476 -0.186379,1.34734 -0.15529,0.38257 -0.372757,0.64877 -0.683421,0.88162 -0.310665,0.23286 -0.714521,0.43253 -1.087246,0.54895 -0.372757,0.11644 -0.714519,0.14965 -0.978539,0.0998 -0.264018,-0.0499 -0.450397,-0.18294 -0.559134,-0.38255 -0.108735,-0.19958 -0.139847,-0.46575 -0.108735,-0.69864 0.03089,-0.23288 0.124178,-0.43249 0.341762,-0.54895 0.217469,-0.11645 0.559137,-0.14969 0.729967,-0.16633 0.170823,-0.0167 0.170823,-0.0167 -0.03089,-0.0998 -0.201935,-0.0832 -0.605779,-0.24954 -0.962989,0.0499 -0.357208,0.29942 -0.667873,1.06471 -0.419403,1.58034 0.209658,0.43507 0.817388,0.69247 1.496692,0.69237 z m -4.953939,-2.24746 c -0.126661,7.7e-4 -0.231582,-0.071 -0.301501,-0.20816 -0.09268,-0.18295 -0.124178,-0.48241 -0.04633,-0.81511 0.07722,-0.33271 0.26402,-0.69861 0.450397,-0.94815 0.18638,-0.24954 0.372757,-0.38256 0.698972,-0.61547 0.05148,-0.0369 0.111512,-0.0793 0.169288,-0.12034 0.01648,0.34064 0.01964,0.67841 0.0016,0.96868 -0.03089,0.51566 -0.12429,0.88165 -0.279567,1.16442 -0.15529,0.28277 -0.372756,0.48243 -0.559134,0.54895 -0.04635,0.0167 -0.09164,0.025 -0.133457,0.0251 z m -4.607646,-3.29979 c -0.05665,0.002 -0.107719,-0.01 -0.151475,-0.0356 -0.139734,-0.0831 -0.201823,-0.31606 -0.186379,-0.63212 0.01535,-0.31606 0.108644,-0.71528 0.279567,-1.08126 0.170823,-0.36597 0.419402,-0.69859 0.745513,-1.01467 0.09474,-0.0916 0.195953,-0.18123 0.30078,-0.26718 0.07105,0.21192 0.122326,0.43079 0.149622,0.64972 0.06177,0.49903 3.2e-5,0.99814 -0.139733,1.38071 -0.139847,0.38258 -0.357208,0.64871 -0.574684,0.81503 -0.14951,0.11436 -0.299031,0.18157 -0.423214,0.18537 z"
       id="path10535"
       inkscape:connector-curvature="0" />
  </g>
</svg>
