<?xml version="1.0" encoding="UTF-8" standalone="no"?>
<svg
   xmlns:dc="http://purl.org/dc/elements/1.1/"
   xmlns:cc="http://creativecommons.org/ns#"
   xmlns:rdf="http://www.w3.org/1999/02/22-rdf-syntax-ns#"
   xmlns:svg="http://www.w3.org/2000/svg"
   xmlns="http://www.w3.org/2000/svg"
   xmlns:xlink="http://www.w3.org/1999/xlink"
   xmlns:sodipodi="http://sodipodi.sourceforge.net/DTD/sodipodi-0.dtd"
   xmlns:inkscape="http://www.inkscape.org/namespaces/inkscape"
   height="229.11368"
   viewBox="0 0 25.473946 22.374383"
   width="217.37767"
   version="1.1"
   id="svg826"
   sodipodi:docname="moose.svg"
   inkscape:version="0.92.2 (5c3e80d, 2017-08-06)">
  <metadata
     id="metadata832">
    <rdf:RDF>
      <cc:Work
         rdf:about="">
        <dc:format>image/svg+xml</dc:format>
        <dc:type
           rdf:resource="http://purl.org/dc/dcmitype/StillImage" />
        <dc:title></dc:title>
      </cc:Work>
    </rdf:RDF>
  </metadata>
  <defs
     id="defs830">
    <linearGradient
       inkscape:collect="always"
       id="linearGradient881">
      <stop
         style="stop-color:#6c5d53;stop-opacity:1;"
         offset="0"
         id="stop877" />
      <stop
         style="stop-color:#483e37;stop-opacity:1"
         offset="1"
         id="stop879" />
    </linearGradient>
    <linearGradient
       inkscape:collect="always"
       xlink:href="#linearGradient881"
       id="linearGradient883"
       x1="30.445534"
       y1="0.38340822"
       x2="31.485107"
       y2="55.452843"
       gradientUnits="userSpaceOnUse" />
    <linearGradient
       inkscape:collect="always"
       xlink:href="#linearGradient881"
       id="linearGradient6972"
       gradientUnits="userSpaceOnUse"
       x1="30.445534"
       y1="0.38340822"
       x2="31.485107"
       y2="55.452843" />
    <linearGradient
       inkscape:collect="always"
       xlink:href="#linearGradient881"
       id="linearGradient6974"
       gradientUnits="userSpaceOnUse"
       x1="30.445534"
       y1="0.38340822"
       x2="31.485107"
       y2="55.452843" />
    <linearGradient
       inkscape:collect="always"
       xlink:href="#linearGradient881"
       id="linearGradient6976"
       gradientUnits="userSpaceOnUse"
       x1="30.445534"
       y1="0.38340822"
       x2="31.485107"
       y2="55.452843" />
    <linearGradient
       inkscape:collect="always"
       xlink:href="#linearGradient881"
       id="linearGradient6978"
       gradientUnits="userSpaceOnUse"
       x1="30.445534"
       y1="0.38340822"
       x2="31.485107"
       y2="55.452843" />
    <linearGradient
       inkscape:collect="always"
       xlink:href="#linearGradient881"
       id="linearGradient6980"
       gradientUnits="userSpaceOnUse"
       x1="30.445534"
       y1="0.38340822"
       x2="31.485107"
       y2="55.452843" />
    <linearGradient
       inkscape:collect="always"
       xlink:href="#linearGradient881"
       id="linearGradient6982"
       gradientUnits="userSpaceOnUse"
       x1="30.445534"
       y1="0.38340822"
       x2="31.485107"
       y2="55.452843" />
  </defs>
  <sodipodi:namedview
     pagecolor="#ffffff"
     bordercolor="#666666"
     borderopacity="1"
     objecttolerance="10"
     gridtolerance="10"
     guidetolerance="10"
     inkscape:pageopacity="0"
     inkscape:pageshadow="2"
     inkscape:window-width="1920"
     inkscape:window-height="1017"
     id="namedview828"
     showgrid="false"
     fit-margin-top="0"
     fit-margin-left="0"
     fit-margin-right="0"
     fit-margin-bottom="0"
     inkscape:zoom="1.65625"
     inkscape:cx="68.444325"
     inkscape:cy="93.365262"
     inkscape:window-x="-8"
     inkscape:window-y="-8"
     inkscape:window-maximized="1"
     inkscape:current-layer="svg826" />
  <g
     transform="matrix(0.28828882,0,0,0.30410835,-1.6780909,-3.7578386)"
     id="g5632"
     style="fill:#ffd42a">
    <g
       id="g5122"
       style="fill:#ffd42a">
      <path
         inkscape:connector-curvature="0"
         d="m 27.783,49.725 h -3.308 c -0.225,0 -0.385,-0.166 -0.385,-0.391 0,-0.207 0.16,-0.385 0.385,-0.385 h 3.308 c 0.207,0 0.391,0.178 0.391,0.385 0,0.225 -0.184,0.391 -0.391,0.391 z"
         id="path5120"
         style="fill:#ffd42a" />
    </g>
    <g
       id="g5126"
       style="fill:#ffd42a">
      <path
         inkscape:connector-curvature="0"
         d="M 22.362,49.547 H 22.35 L 16.226,49.5 c -0.219,0 -0.391,-0.171 -0.391,-0.391 0.006,-0.23 0.171,-0.402 0.391,-0.402 v 0 l 6.137,0.047 c 0.213,0 0.391,0.195 0.391,0.408 -0.001,0.208 -0.179,0.385 -0.392,0.385 z"
         id="path5124"
         style="fill:#ffd42a" />
    </g>
    <g
       id="g5130"
       style="fill:#ffd42a">
      <path
         inkscape:connector-curvature="0"
         d="m 15.113,49.464 h -3.03 c -0.207,0 -0.396,-0.183 -0.396,-0.402 0,-0.207 0.189,-0.396 0.396,-0.396 h 3.03 c 0.207,0 0.396,0.189 0.396,0.396 0,0.219 -0.189,0.402 -0.396,0.402 z"
         id="path5128"
         style="fill:#ffd42a" />
    </g>
    <g
       id="g5134"
       style="fill:#ffd42a">
      <path
         inkscape:connector-curvature="0"
         d="m 21.19,46.896 c -0.023,0 -0.047,0 -0.047,0 l -9.505,-1.243 c -0.225,-0.018 -0.378,-0.219 -0.343,-0.444 0.023,-0.207 0.225,-0.367 0.45,-0.337 l 9.48,1.243 c 0.225,0.035 0.379,0.219 0.349,0.438 -0.028,0.213 -0.2,0.343 -0.384,0.343 z"
         id="path5132"
         style="fill:#ffd42a" />
    </g>
    <g
       id="g5138"
       style="fill:#ffd42a">
      <path
         inkscape:connector-curvature="0"
         d="m 9.615,45.333 c -0.024,0 -0.048,0 -0.071,-0.012 L 6.153,44.771 C 5.934,44.736 5.786,44.541 5.828,44.315 5.863,44.108 6.065,43.966 6.278,43.996 l 3.397,0.556 c 0.201,0.036 0.355,0.231 0.319,0.45 -0.024,0.189 -0.202,0.331 -0.379,0.331 z"
         id="path5136"
         style="fill:#ffd42a" />
    </g>
    <g
       id="g5142"
       style="fill:#ffd42a">
      <path
         inkscape:connector-curvature="0"
         d="m 27.31,45.333 c -0.024,0 -0.053,-0.012 -0.095,-0.018 l -7.244,-1.923 c -0.213,-0.053 -0.337,-0.266 -0.284,-0.497 0.047,-0.201 0.272,-0.313 0.491,-0.266 l 7.238,1.923 c 0.213,0.053 0.337,0.278 0.29,0.491 -0.053,0.166 -0.219,0.29 -0.396,0.29 z"
         id="path5140"
         style="fill:#ffd42a" />
    </g>
    <g
       id="g5146"
       style="fill:#ffd42a">
      <path
         inkscape:connector-curvature="0"
         d="m 18.185,43.043 c -0.036,0 -0.06,0 -0.095,-0.012 L 7.579,40.261 C 7.366,40.214 7.248,39.989 7.307,39.782 7.36,39.575 7.567,39.445 7.78,39.516 l 10.499,2.764 c 0.213,0.053 0.343,0.26 0.296,0.473 -0.048,0.184 -0.213,0.29 -0.39,0.29 z"
         id="path5144"
         style="fill:#ffd42a" />
    </g>
    <g
       id="g5150"
       style="fill:#ffd42a">
      <path
         inkscape:connector-curvature="0"
         d="m 28.79,43.031 c -0.059,0 -0.095,-0.012 -0.148,-0.018 l -2.93,-1.196 c -0.213,-0.083 -0.308,-0.319 -0.23,-0.526 0.083,-0.189 0.313,-0.29 0.515,-0.208 l 2.936,1.196 c 0.201,0.071 0.296,0.308 0.219,0.509 -0.067,0.16 -0.209,0.243 -0.362,0.243 z"
         id="path5148"
         style="fill:#ffd42a" />
    </g>
    <g
       id="g5154"
       style="fill:#ffd42a">
      <path
         inkscape:connector-curvature="0"
         d="m 24.197,41.285 c -0.054,0 -0.095,0 -0.143,-0.023 l -4.592,-1.917 c -0.213,-0.095 -0.296,-0.326 -0.225,-0.533 0.095,-0.195 0.332,-0.284 0.527,-0.213 l 4.592,1.929 c 0.195,0.101 0.29,0.326 0.207,0.515 -0.058,0.171 -0.206,0.242 -0.366,0.242 z"
         id="path5152"
         style="fill:#ffd42a" />
    </g>
    <g
       id="g5158"
       style="fill:#ffd42a">
      <path
         inkscape:connector-curvature="0"
         d="m 17.131,38.723 c -0.059,0 -0.101,-0.006 -0.154,-0.035 L 13.858,37.41 c -0.195,-0.089 -0.29,-0.32 -0.207,-0.515 0.071,-0.207 0.308,-0.284 0.515,-0.213 l 3.113,1.29 c 0.207,0.071 0.302,0.302 0.213,0.503 -0.054,0.171 -0.213,0.248 -0.361,0.248 z"
         id="path5156"
         style="fill:#ffd42a" />
    </g>
    <g
       id="g5162"
       style="fill:#ffd42a">
      <path
         inkscape:connector-curvature="0"
         d="m 26.955,39.096 c -0.071,0 -0.125,-0.023 -0.178,-0.042 L 14.752,32.793 C 14.551,32.71 14.48,32.48 14.58,32.272 c 0.101,-0.189 0.337,-0.261 0.527,-0.166 l 12.025,6.238 c 0.189,0.106 0.266,0.337 0.166,0.533 -0.071,0.142 -0.201,0.219 -0.343,0.219 z"
         id="path5160"
         style="fill:#ffd42a" />
    </g>
    <g
       id="g5166"
       style="fill:#ffd42a">
      <path
         inkscape:connector-curvature="0"
         d="m 13.367,32.207 c -0.047,0 -0.106,-0.012 -0.166,-0.047 l -3.03,-1.456 C 9.976,30.603 9.887,30.367 9.993,30.177 10.076,29.976 10.313,29.893 10.514,30 l 3.018,1.461 c 0.207,0.089 0.284,0.32 0.184,0.527 -0.065,0.148 -0.207,0.219 -0.349,0.219 z"
         id="path5164"
         style="fill:#ffd42a" />
    </g>
    <g
       id="g5170"
       style="fill:#ffd42a">
      <path
         inkscape:connector-curvature="0"
         d="m 31.352,38.995 c -0.065,0 -0.142,-0.023 -0.213,-0.065 L 17.38,29.946 c -0.177,-0.124 -0.231,-0.367 -0.112,-0.55 0.112,-0.183 0.355,-0.237 0.533,-0.112 l 13.771,8.978 c 0.178,0.13 0.237,0.385 0.119,0.55 -0.085,0.124 -0.203,0.183 -0.339,0.183 z"
         id="path5168"
         style="fill:#ffd42a" />
    </g>
    <g
       id="g5174"
       style="fill:#ffd42a">
      <path
         inkscape:connector-curvature="0"
         d="m 15.486,28.343 c -0.083,0 -0.166,-0.023 -0.225,-0.065 L 13.61,27.189 c -0.183,-0.124 -0.23,-0.373 -0.106,-0.55 0.119,-0.183 0.361,-0.225 0.551,-0.112 l 1.645,1.107 c 0.177,0.106 0.225,0.355 0.106,0.544 -0.072,0.112 -0.202,0.165 -0.32,0.165 z"
         id="path5172"
         style="fill:#ffd42a" />
    </g>
    <g
       id="g5178"
       style="fill:#ffd42a">
      <path
         inkscape:connector-curvature="0"
         d="m 33.281,36.705 c -0.077,0 -0.172,-0.036 -0.254,-0.089 l -3.586,-3.03 c -0.154,-0.148 -0.178,-0.396 -0.047,-0.55 0.154,-0.171 0.402,-0.183 0.562,-0.053 l 3.581,3.03 c 0.171,0.142 0.189,0.384 0.047,0.544 -0.072,0.107 -0.179,0.148 -0.303,0.148 z"
         id="path5176"
         style="fill:#ffd42a" />
    </g>
    <g
       id="g5182"
       style="fill:#ffd42a">
      <path
         inkscape:connector-curvature="0"
         d="m 27.688,32.118 c -0.083,0 -0.177,-0.035 -0.249,-0.088 l -3.764,-3.036 c -0.166,-0.136 -0.201,-0.378 -0.059,-0.544 0.142,-0.172 0.379,-0.189 0.556,-0.065 l 3.764,3.03 c 0.166,0.136 0.189,0.391 0.053,0.55 -0.07,0.1 -0.188,0.153 -0.301,0.153 z"
         id="path5180"
         style="fill:#ffd42a" />
    </g>
    <g
       id="g5186"
       style="fill:#ffd42a">
      <path
         inkscape:connector-curvature="0"
         d="m 21.83,27.449 c -0.101,0 -0.189,-0.036 -0.272,-0.101 l -1.396,-1.314 c -0.148,-0.142 -0.16,-0.385 -0.012,-0.544 0.142,-0.148 0.403,-0.166 0.556,-0.018 l 1.385,1.284 c 0.166,0.154 0.166,0.391 0.023,0.562 -0.083,0.096 -0.177,0.131 -0.284,0.131 z"
         id="path5184"
         style="fill:#ffd42a" />
    </g>
    <g
       id="g5190"
       style="fill:#ffd42a">
      <path
         inkscape:connector-curvature="0"
         d="m 34.589,34.054 c -0.118,0 -0.207,-0.042 -0.284,-0.119 L 22.362,22.365 c -0.154,-0.147 -0.166,-0.402 -0.012,-0.562 0.148,-0.16 0.402,-0.16 0.568,0 L 34.86,33.379 c 0.154,0.148 0.154,0.402 0,0.556 -0.07,0.077 -0.165,0.119 -0.271,0.119 z"
         id="path5188"
         style="fill:#ffd42a" />
    </g>
    <g
       id="g5194"
       style="fill:#ffd42a">
      <path
         inkscape:connector-curvature="0"
         d="m 21.167,20.282 c -0.095,0 -0.189,-0.047 -0.278,-0.112 l -1.468,-1.474 c -0.142,-0.16 -0.142,-0.402 0,-0.562 0.154,-0.148 0.403,-0.148 0.557,0 l 1.474,1.473 c 0.154,0.154 0.154,0.391 0,0.562 -0.078,0.066 -0.179,0.113 -0.285,0.113 z"
         id="path5192"
         style="fill:#ffd42a" />
    </g>
    <g
       id="g5198"
       style="fill:#ffd42a">
      <path
         inkscape:connector-curvature="0"
         d="m 28.435,22.401 c -0.119,0 -0.237,-0.065 -0.308,-0.148 l -5.882,-7.445 c -0.13,-0.166 -0.101,-0.408 0.071,-0.544 0.178,-0.136 0.42,-0.095 0.556,0.071 l 5.871,7.427 c 0.142,0.172 0.106,0.408 -0.071,0.557 -0.06,0.046 -0.143,0.082 -0.237,0.082 z"
         id="path5196"
         style="fill:#ffd42a" />
    </g>
    <g
       id="g5202"
       style="fill:#ffd42a">
      <path
         inkscape:connector-curvature="0"
         d="m 34.95,30.846 c -0.112,0 -0.243,-0.053 -0.314,-0.154 l -4.888,-6.279 c -0.13,-0.166 -0.106,-0.408 0.071,-0.544 0.166,-0.148 0.414,-0.106 0.544,0.071 l 4.894,6.262 c 0.136,0.171 0.101,0.42 -0.065,0.556 -0.065,0.058 -0.153,0.088 -0.242,0.088 z"
         id="path5200"
         style="fill:#ffd42a" />
    </g>
    <g
       id="g5206"
       style="fill:#ffd42a">
      <path
         inkscape:connector-curvature="0"
         d="m 39.43,31.663 c -0.119,0 -0.249,-0.071 -0.32,-0.177 l -6.628,-9.724 c -0.119,-0.166 -0.077,-0.426 0.095,-0.539 0.177,-0.136 0.438,-0.077 0.556,0.095 l 6.628,9.724 c 0.118,0.183 0.071,0.42 -0.107,0.539 -0.07,0.046 -0.141,0.082 -0.224,0.082 z"
         id="path5204"
         style="fill:#ffd42a" />
    </g>
    <g
       id="g5210"
       style="fill:#ffd42a">
      <path
         inkscape:connector-curvature="0"
         d="m 31.719,20.454 c -0.112,0 -0.237,-0.047 -0.313,-0.166 l -2.651,-3.752 c -0.118,-0.177 -0.083,-0.42 0.095,-0.544 0.166,-0.118 0.426,-0.077 0.544,0.089 l 2.657,3.764 c 0.125,0.178 0.077,0.415 -0.106,0.544 -0.066,0.041 -0.137,0.065 -0.226,0.065 z"
         id="path5208"
         style="fill:#ffd42a" />
    </g>
    <g
       id="g5214"
       style="fill:#ffd42a">
      <path
         inkscape:connector-curvature="0"
         d="m 38.613,23.963 c -0.13,0 -0.272,-0.083 -0.332,-0.213 l -4.616,-8.534 c -0.101,-0.202 -0.024,-0.444 0.166,-0.551 0.189,-0.095 0.432,-0.023 0.533,0.166 l 4.604,8.534 c 0.107,0.213 0.036,0.438 -0.166,0.539 -0.058,0.048 -0.117,0.059 -0.189,0.059 z"
         id="path5212"
         style="fill:#ffd42a" />
    </g>
    <g
       id="g5218"
       style="fill:#ffd42a">
      <path
         inkscape:connector-curvature="0"
         d="m 32.92,12.571 c -0.153,0 -0.284,-0.077 -0.355,-0.225 L 31.553,10.334 C 31.452,10.133 31.535,9.902 31.736,9.802 31.925,9.719 32.162,9.79 32.257,9.979 l 1.012,2.018 c 0.089,0.189 0.012,0.438 -0.178,0.527 -0.058,0.03 -0.123,0.047 -0.171,0.047 z"
         id="path5216"
         style="fill:#ffd42a" />
    </g>
    <g
       id="g5222"
       style="fill:#ffd42a">
      <path
         inkscape:connector-curvature="0"
         d="m 42.661,26.893 c -0.166,0 -0.319,-0.095 -0.379,-0.254 L 37.418,13.602 c -0.071,-0.202 0.042,-0.42 0.236,-0.498 0.208,-0.077 0.438,0.018 0.509,0.231 l 4.859,13.026 c 0.083,0.201 -0.024,0.438 -0.231,0.515 -0.047,0.011 -0.094,0.017 -0.13,0.017 z"
         id="path5220"
         style="fill:#ffd42a" />
    </g>
    <g
       id="g5226"
       style="fill:#ffd42a">
      <path
         inkscape:connector-curvature="0"
         d="m 37.051,11.92 c -0.171,0 -0.313,-0.106 -0.378,-0.266 L 35.75,8.908 C 35.691,8.7 35.797,8.47 36.004,8.405 c 0.213,-0.065 0.42,0.042 0.503,0.243 l 0.912,2.758 c 0.071,0.201 -0.047,0.42 -0.249,0.503 -0.036,0.011 -0.084,0.011 -0.119,0.011 z"
         id="path5224"
         style="fill:#ffd42a" />
    </g>
    <g
       id="g5230"
       style="fill:#ffd42a">
      <path
         inkscape:connector-curvature="0"
         d="m 45.857,29.716 c -0.171,0 -0.332,-0.106 -0.378,-0.284 l -0.835,-3.308 c -0.047,-0.208 0.077,-0.409 0.29,-0.474 0.207,-0.065 0.426,0.077 0.474,0.284 l 0.829,3.308 c 0.059,0.207 -0.071,0.42 -0.284,0.474 -0.031,0 -0.072,0 -0.096,0 z"
         id="path5228"
         style="fill:#ffd42a" />
    </g>
    <g
       id="g5234"
       style="fill:#ffd42a">
      <path
         inkscape:connector-curvature="0"
         d="m 44.401,23.869 c -0.178,0 -0.344,-0.118 -0.379,-0.29 L 42.448,17.43 c -0.042,-0.225 0.083,-0.432 0.296,-0.485 0.213,-0.059 0.426,0.077 0.474,0.284 l 1.562,6.137 c 0.059,0.231 -0.071,0.438 -0.278,0.479 -0.042,0.012 -0.065,0.024 -0.101,0.024 z"
         id="path5232"
         style="fill:#ffd42a" />
    </g>
    <g
       id="g5238"
       style="fill:#ffd42a">
      <path
         inkscape:connector-curvature="0"
         d="m 42.365,15.513 c -0.177,0 -0.337,-0.13 -0.379,-0.296 l -1.184,-4.77 c -0.041,-0.208 0.083,-0.426 0.296,-0.485 0.201,-0.047 0.42,0.088 0.468,0.296 l 1.178,4.758 c 0.065,0.219 -0.065,0.432 -0.296,0.474 -0.017,0.005 -0.047,0.023 -0.083,0.023 z"
         id="path5236"
         style="fill:#ffd42a" />
    </g>
    <g
       id="g5242"
       style="fill:#ffd42a">
      <path
         inkscape:connector-curvature="0"
         d="m 46.863,19.087 c -0.201,0 -0.367,-0.154 -0.391,-0.361 l -0.734,-7.244 c -0.024,-0.213 0.136,-0.415 0.355,-0.438 0.213,-0.024 0.402,0.136 0.426,0.349 l 0.734,7.255 c 0.023,0.225 -0.13,0.415 -0.344,0.438 -0.022,0.001 -0.034,0.001 -0.046,0.001 z"
         id="path5240"
         style="fill:#ffd42a" />
    </g>
    <g
       id="g5246"
       style="fill:#ffd42a">
      <path
         inkscape:connector-curvature="0"
         d="m 45.94,9.547 c -0.189,0 -0.355,-0.16 -0.379,-0.343 l -0.45,-3.758 c -0.023,-0.231 0.13,-0.414 0.343,-0.444 0.213,-0.023 0.42,0.13 0.438,0.343 l 0.45,3.746 c 0.024,0.225 -0.13,0.415 -0.343,0.444 -0.029,0 -0.036,0.012 -0.059,0.012 z"
         id="path5244"
         style="fill:#ffd42a" />
    </g>
    <g
       id="g5250"
       style="fill:#ffd42a">
      <path
         inkscape:connector-curvature="0"
         d="m 75.521,49.725 h -3.309 c -0.201,0 -0.379,-0.166 -0.379,-0.391 0,-0.207 0.178,-0.385 0.379,-0.385 h 3.309 c 0.219,0 0.396,0.178 0.396,0.385 0.001,0.225 -0.177,0.391 -0.396,0.391 z"
         id="path5248"
         style="fill:#ffd42a" />
    </g>
    <g
       id="g5254"
       style="fill:#ffd42a">
      <path
         inkscape:connector-curvature="0"
         d="m 77.634,49.547 c -0.213,0 -0.391,-0.177 -0.391,-0.385 0,-0.213 0.166,-0.408 0.391,-0.408 l 6.131,-0.047 v 0 c 0.213,0 0.396,0.172 0.396,0.402 0,0.219 -0.171,0.391 -0.396,0.391 z"
         id="path5252"
         style="fill:#ffd42a" />
    </g>
    <g
       id="g5258"
       style="fill:#ffd42a">
      <path
         inkscape:connector-curvature="0"
         d="m 87.907,49.464 h -3.023 c -0.22,0 -0.403,-0.183 -0.403,-0.402 0,-0.207 0.184,-0.396 0.403,-0.396 h 3.023 c 0.226,0 0.391,0.189 0.391,0.396 0,0.219 -0.165,0.402 -0.391,0.402 z"
         id="path5256"
         style="fill:#ffd42a" />
    </g>
    <g
       id="g5262"
       style="fill:#ffd42a">
      <path
         inkscape:connector-curvature="0"
         d="m 78.817,46.896 c -0.201,0 -0.379,-0.13 -0.391,-0.343 -0.035,-0.219 0.118,-0.403 0.331,-0.438 l 9.505,-1.243 c 0.201,-0.029 0.408,0.13 0.426,0.337 0.042,0.225 -0.118,0.426 -0.331,0.444 l -9.492,1.243 c -0.024,0 -0.042,0 -0.048,0 z"
         id="path5260"
         style="fill:#ffd42a" />
    </g>
    <g
       id="g5266"
       style="fill:#ffd42a">
      <path
         inkscape:connector-curvature="0"
         d="m 90.381,45.333 c -0.189,0 -0.343,-0.142 -0.372,-0.332 -0.042,-0.219 0.095,-0.414 0.308,-0.45 l 3.402,-0.556 c 0.213,-0.03 0.414,0.112 0.462,0.319 0.023,0.225 -0.118,0.42 -0.331,0.456 l -3.397,0.55 c -0.024,0.013 -0.048,0.013 -0.072,0.013 z"
         id="path5264"
         style="fill:#ffd42a" />
    </g>
    <g
       id="g5270"
       style="fill:#ffd42a">
      <path
         inkscape:connector-curvature="0"
         d="m 72.681,45.333 c -0.178,0 -0.338,-0.125 -0.385,-0.29 -0.06,-0.213 0.071,-0.438 0.272,-0.491 l 7.255,-1.923 c 0.213,-0.047 0.427,0.065 0.485,0.266 0.06,0.231 -0.07,0.444 -0.278,0.497 l -7.255,1.923 c -0.03,0.006 -0.065,0.018 -0.094,0.018 z"
         id="path5268"
         style="fill:#ffd42a" />
    </g>
    <g
       id="g5274"
       style="fill:#ffd42a">
      <path
         inkscape:connector-curvature="0"
         d="m 81.812,43.043 c -0.183,0 -0.331,-0.106 -0.378,-0.29 -0.06,-0.213 0.07,-0.42 0.277,-0.473 l 10.505,-2.764 c 0.201,-0.071 0.426,0.059 0.485,0.266 0.047,0.207 -0.077,0.432 -0.284,0.479 l -10.511,2.77 c -0.029,0.012 -0.07,0.012 -0.094,0.012 z"
         id="path5272"
         style="fill:#ffd42a" />
    </g>
    <g
       id="g5278"
       style="fill:#ffd42a">
      <path
         inkscape:connector-curvature="0"
         d="m 71.207,43.031 c -0.154,0 -0.308,-0.083 -0.361,-0.243 -0.089,-0.201 0.006,-0.438 0.207,-0.509 l 2.953,-1.196 c 0.184,-0.083 0.42,0.018 0.503,0.208 0.089,0.207 -0.012,0.444 -0.219,0.526 l -2.93,1.196 c -0.047,0.007 -0.106,0.018 -0.153,0.018 z"
         id="path5276"
         style="fill:#ffd42a" />
    </g>
    <g
       id="g5282"
       style="fill:#ffd42a">
      <path
         inkscape:connector-curvature="0"
         d="m 75.799,41.285 c -0.153,0 -0.302,-0.071 -0.366,-0.242 -0.077,-0.189 0.012,-0.415 0.213,-0.515 l 4.586,-1.929 c 0.208,-0.071 0.433,0.018 0.51,0.213 0.089,0.207 0,0.438 -0.195,0.533 l -4.604,1.917 c -0.049,0.023 -0.096,0.023 -0.144,0.023 z"
         id="path5280"
         style="fill:#ffd42a" />
    </g>
    <g
       id="g5286"
       style="fill:#ffd42a">
      <path
         inkscape:connector-curvature="0"
         d="m 82.865,38.723 c -0.153,0 -0.296,-0.077 -0.367,-0.248 -0.082,-0.202 0.012,-0.432 0.214,-0.503 l 3.124,-1.29 c 0.195,-0.071 0.427,0.006 0.51,0.213 0.082,0.195 -0.013,0.426 -0.214,0.515 l -3.124,1.278 c -0.048,0.029 -0.102,0.035 -0.143,0.035 z"
         id="path5284"
         style="fill:#ffd42a" />
    </g>
    <g
       id="g5290"
       style="fill:#ffd42a">
      <path
         inkscape:connector-curvature="0"
         d="m 73.035,39.096 c -0.136,0 -0.271,-0.077 -0.337,-0.219 -0.106,-0.195 -0.035,-0.426 0.166,-0.533 l 12.02,-6.238 c 0.188,-0.095 0.432,-0.023 0.532,0.166 0.101,0.207 0.029,0.438 -0.172,0.521 l -12.025,6.261 c -0.053,0.018 -0.118,0.042 -0.184,0.042 z"
         id="path5288"
         style="fill:#ffd42a" />
    </g>
    <g
       id="g5294"
       style="fill:#ffd42a">
      <path
         inkscape:connector-curvature="0"
         d="m 86.629,32.207 c -0.153,0 -0.296,-0.071 -0.366,-0.219 -0.083,-0.207 -0.007,-0.438 0.195,-0.527 L 89.481,30 c 0.201,-0.107 0.427,-0.024 0.527,0.177 0.095,0.189 0.018,0.426 -0.184,0.527 l -3.03,1.456 c -0.046,0.035 -0.111,0.047 -0.165,0.047 z"
         id="path5292"
         style="fill:#ffd42a" />
    </g>
    <g
       id="g5298"
       style="fill:#ffd42a">
      <path
         inkscape:connector-curvature="0"
         d="m 68.639,38.995 c -0.125,0 -0.249,-0.059 -0.332,-0.184 -0.112,-0.166 -0.064,-0.42 0.119,-0.55 l 13.759,-8.978 c 0.184,-0.125 0.438,-0.071 0.545,0.112 0.124,0.184 0.077,0.426 -0.106,0.55 L 68.852,38.93 c -0.06,0.042 -0.143,0.065 -0.213,0.065 z"
         id="path5296"
         style="fill:#ffd42a" />
    </g>
    <g
       id="g5302"
       style="fill:#ffd42a">
      <path
         inkscape:connector-curvature="0"
         d="m 84.517,28.343 c -0.13,0 -0.255,-0.053 -0.325,-0.166 -0.119,-0.189 -0.083,-0.438 0.101,-0.544 l 1.663,-1.107 c 0.165,-0.112 0.414,-0.071 0.538,0.112 0.124,0.178 0.071,0.426 -0.101,0.55 l -1.663,1.089 c -0.066,0.042 -0.142,0.066 -0.213,0.066 z"
         id="path5300"
         style="fill:#ffd42a" />
    </g>
    <g
       id="g5306"
       style="fill:#ffd42a">
      <path
         inkscape:connector-curvature="0"
         d="m 66.709,36.705 c -0.106,0 -0.213,-0.042 -0.296,-0.148 -0.142,-0.16 -0.118,-0.403 0.042,-0.544 l 3.58,-3.03 c 0.166,-0.13 0.408,-0.118 0.557,0.053 0.142,0.154 0.118,0.402 -0.054,0.55 l -3.574,3.03 c -0.066,0.053 -0.16,0.089 -0.255,0.089 z"
         id="path5304"
         style="fill:#ffd42a" />
    </g>
    <g
       id="g5310"
       style="fill:#ffd42a">
      <path
         inkscape:connector-curvature="0"
         d="m 72.308,32.118 c -0.118,0 -0.236,-0.053 -0.296,-0.154 -0.154,-0.16 -0.118,-0.414 0.047,-0.55 l 3.765,-3.03 c 0.177,-0.125 0.414,-0.107 0.556,0.065 0.137,0.166 0.113,0.408 -0.059,0.544 l -3.764,3.036 c -0.072,0.054 -0.166,0.089 -0.249,0.089 z"
         id="path5308"
         style="fill:#ffd42a" />
    </g>
    <g
       id="g5314"
       style="fill:#ffd42a">
      <path
         inkscape:connector-curvature="0"
         d="m 78.166,27.449 c -0.106,0 -0.201,-0.036 -0.283,-0.13 -0.148,-0.171 -0.137,-0.408 0.012,-0.562 l 1.396,-1.284 c 0.166,-0.148 0.414,-0.13 0.557,0.018 0.153,0.16 0.142,0.402 -0.024,0.544 l -1.391,1.314 c -0.066,0.065 -0.172,0.1 -0.267,0.1 z"
         id="path5312"
         style="fill:#ffd42a" />
    </g>
    <g
       id="g5318"
       style="fill:#ffd42a">
      <path
         inkscape:connector-curvature="0"
         d="m 65.407,34.054 c -0.095,0 -0.201,-0.042 -0.278,-0.119 -0.153,-0.154 -0.142,-0.408 0.006,-0.556 L 77.077,21.803 c 0.166,-0.16 0.415,-0.16 0.562,0 0.148,0.16 0.148,0.415 -0.006,0.562 l -11.942,11.57 c -0.083,0.077 -0.177,0.119 -0.284,0.119 z"
         id="path5316"
         style="fill:#ffd42a" />
    </g>
    <g
       id="g5322"
       style="fill:#ffd42a">
      <path
         inkscape:connector-curvature="0"
         d="m 78.823,20.282 c -0.101,0 -0.195,-0.047 -0.278,-0.112 -0.153,-0.172 -0.153,-0.408 0,-0.562 l 1.468,-1.473 c 0.154,-0.148 0.402,-0.148 0.568,0 0.142,0.16 0.142,0.402 0,0.562 l -1.468,1.474 c -0.083,0.064 -0.189,0.111 -0.29,0.111 z"
         id="path5320"
         style="fill:#ffd42a" />
    </g>
    <g
       id="g5326"
       style="fill:#ffd42a">
      <path
         inkscape:connector-curvature="0"
         d="m 71.562,22.401 c -0.082,0 -0.177,-0.036 -0.242,-0.083 -0.172,-0.148 -0.207,-0.385 -0.065,-0.557 l 5.871,-7.427 c 0.13,-0.166 0.379,-0.208 0.557,-0.071 0.165,0.136 0.201,0.379 0.064,0.544 l -5.877,7.445 c -0.083,0.084 -0.202,0.149 -0.308,0.149 z"
         id="path5324"
         style="fill:#ffd42a" />
    </g>
    <g
       id="g5330"
       style="fill:#ffd42a">
      <path
         inkscape:connector-curvature="0"
         d="m 65.04,30.846 c -0.083,0 -0.159,-0.03 -0.236,-0.089 -0.178,-0.136 -0.201,-0.385 -0.065,-0.556 l 4.895,-6.262 c 0.13,-0.177 0.373,-0.219 0.557,-0.071 0.165,0.136 0.201,0.367 0.064,0.544 l -4.9,6.279 c -0.078,0.102 -0.191,0.155 -0.315,0.155 z"
         id="path5328"
         style="fill:#ffd42a" />
    </g>
    <g
       id="g5334"
       style="fill:#ffd42a">
      <path
         inkscape:connector-curvature="0"
         d="m 60.566,31.663 c -0.083,0 -0.154,-0.036 -0.225,-0.083 -0.178,-0.119 -0.226,-0.355 -0.095,-0.539 l 6.616,-9.724 c 0.118,-0.171 0.367,-0.231 0.544,-0.095 0.178,0.113 0.237,0.373 0.106,0.539 l -6.628,9.724 c -0.07,0.107 -0.199,0.178 -0.318,0.178 z"
         id="path5332"
         style="fill:#ffd42a" />
    </g>
    <g
       id="g5338"
       style="fill:#ffd42a">
      <path
         inkscape:connector-curvature="0"
         d="m 68.271,20.454 c -0.071,0 -0.166,-0.024 -0.236,-0.065 -0.178,-0.13 -0.213,-0.367 -0.083,-0.544 l 2.646,-3.764 c 0.124,-0.166 0.372,-0.207 0.55,-0.089 0.178,0.125 0.213,0.367 0.095,0.544 l -2.651,3.752 c -0.072,0.119 -0.202,0.166 -0.321,0.166 z"
         id="path5336"
         style="fill:#ffd42a" />
    </g>
    <g
       id="g5342"
       style="fill:#ffd42a">
      <path
         inkscape:connector-curvature="0"
         d="m 61.371,23.963 c -0.06,0 -0.13,-0.012 -0.184,-0.059 -0.195,-0.101 -0.254,-0.326 -0.16,-0.539 l 4.604,-8.534 c 0.095,-0.189 0.344,-0.261 0.527,-0.166 0.195,0.106 0.266,0.349 0.159,0.551 l -4.604,8.534 c -0.064,0.13 -0.2,0.213 -0.342,0.213 z"
         id="path5340"
         style="fill:#ffd42a" />
    </g>
    <g
       id="g5346"
       style="fill:#ffd42a">
      <path
         inkscape:connector-curvature="0"
         d="m 67.088,12.571 c -0.071,0 -0.142,-0.018 -0.184,-0.047 -0.195,-0.089 -0.278,-0.337 -0.178,-0.527 l 1.019,-2.018 c 0.089,-0.189 0.337,-0.26 0.526,-0.177 0.189,0.101 0.267,0.331 0.178,0.532 l -1.018,2.012 c -0.071,0.148 -0.213,0.225 -0.343,0.225 z"
         id="path5344"
         style="fill:#ffd42a" />
    </g>
    <g
       id="g5350"
       style="fill:#ffd42a">
      <path
         inkscape:connector-curvature="0"
         d="m 57.335,26.893 c -0.048,0 -0.095,-0.006 -0.13,-0.018 -0.207,-0.077 -0.308,-0.313 -0.237,-0.515 l 4.865,-13.026 c 0.07,-0.213 0.308,-0.308 0.497,-0.231 0.213,0.077 0.308,0.296 0.236,0.498 l -4.858,13.037 c -0.054,0.16 -0.213,0.255 -0.373,0.255 z"
         id="path5348"
         style="fill:#ffd42a" />
    </g>
    <g
       id="g5354"
       style="fill:#ffd42a">
      <path
         inkscape:connector-curvature="0"
         d="m 62.951,11.92 c -0.041,0 -0.089,0 -0.136,-0.012 -0.189,-0.083 -0.308,-0.302 -0.249,-0.503 l 0.936,-2.758 c 0.059,-0.201 0.283,-0.308 0.497,-0.243 0.195,0.065 0.319,0.296 0.236,0.503 l -0.911,2.746 c -0.053,0.16 -0.207,0.267 -0.373,0.267 z"
         id="path5352"
         style="fill:#ffd42a" />
    </g>
    <g
       id="g5358"
       style="fill:#ffd42a">
      <path
         inkscape:connector-curvature="0"
         d="m 54.14,29.716 c -0.036,0 -0.06,0 -0.095,0 -0.213,-0.053 -0.344,-0.267 -0.284,-0.474 l 0.822,-3.308 c 0.065,-0.207 0.267,-0.349 0.479,-0.284 0.201,0.065 0.337,0.266 0.284,0.474 l -0.829,3.308 c -0.046,0.177 -0.212,0.284 -0.377,0.284 z"
         id="path5356"
         style="fill:#ffd42a" />
    </g>
    <g
       id="g5362"
       style="fill:#ffd42a">
      <path
         inkscape:connector-curvature="0"
         d="m 55.602,23.869 c -0.036,0 -0.077,-0.012 -0.102,-0.024 -0.213,-0.041 -0.343,-0.248 -0.289,-0.479 l 1.556,-6.137 c 0.06,-0.207 0.272,-0.343 0.485,-0.284 0.213,0.054 0.332,0.261 0.296,0.485 l -1.574,6.149 c -0.053,0.171 -0.202,0.29 -0.372,0.29 z"
         id="path5360"
         style="fill:#ffd42a" />
    </g>
    <g
       id="g5366"
       style="fill:#ffd42a">
      <path
         inkscape:connector-curvature="0"
         d="m 57.619,15.513 c -0.023,0 -0.06,-0.018 -0.083,-0.024 -0.219,-0.042 -0.331,-0.254 -0.296,-0.474 l 1.184,-4.758 c 0.06,-0.208 0.261,-0.343 0.474,-0.296 0.213,0.059 0.343,0.278 0.284,0.485 l -1.172,4.77 c -0.048,0.166 -0.207,0.297 -0.391,0.297 z"
         id="path5364"
         style="fill:#ffd42a" />
    </g>
    <g
       id="g5370"
       style="fill:#ffd42a">
      <path
         inkscape:connector-curvature="0"
         d="m 53.121,19.087 c -0.012,0 -0.023,0 -0.035,0 -0.21,-0.023 -0.364,-0.213 -0.347,-0.438 l 0.726,-7.255 c 0.035,-0.213 0.225,-0.373 0.438,-0.349 0.213,0.023 0.379,0.225 0.355,0.438 l -0.734,7.244 c -0.024,0.206 -0.202,0.36 -0.403,0.36 z"
         id="path5368"
         style="fill:#ffd42a" />
    </g>
    <g
       id="g5374"
       style="fill:#ffd42a">
      <path
         inkscape:connector-curvature="0"
         d="M 54.045,9.547 C 54.027,9.547 54.009,9.535 53.997,9.535 53.784,9.506 53.637,9.316 53.66,9.091 l 0.443,-3.746 c 0.023,-0.213 0.237,-0.367 0.433,-0.343 0.219,0.03 0.372,0.213 0.349,0.444 L 54.442,9.204 C 54.411,9.387 54.24,9.547 54.045,9.547 Z"
         id="path5372"
         style="fill:#ffd42a" />
    </g>
    <g
       id="g5378"
       style="fill:#ffd42a">
      <path
         inkscape:connector-curvature="0"
         d="m 50.071,29.449 c -0.213,0 -0.379,-0.166 -0.379,-0.385 v -3.953 c 0,-0.213 0.166,-0.396 0.379,-0.396 0.225,0 0.402,0.184 0.402,0.396 v 3.953 c 0,0.22 -0.178,0.385 -0.402,0.385 z"
         id="path5376"
         style="fill:#ffd42a" />
    </g>
    <g
       id="g5382"
       style="fill:#ffd42a">
      <path
         inkscape:connector-curvature="0"
         d="m 49.988,23.845 c -0.219,0 -0.396,-0.166 -0.396,-0.39 v -3.941 c 0,-0.213 0.177,-0.379 0.396,-0.379 0.213,0 0.391,0.166 0.391,0.379 v 3.941 c -10e-4,0.224 -0.178,0.39 -0.391,0.39 z"
         id="path5380"
         style="fill:#ffd42a" />
    </g>
    <g
       id="g5386"
       style="fill:#ffd42a">
      <path
         inkscape:connector-curvature="0"
         d="m 49.887,18.158 c -0.207,0 -0.385,-0.166 -0.385,-0.378 V 7.872 c 0,-0.23 0.178,-0.414 0.385,-0.414 0.225,0 0.396,0.184 0.396,0.414 v 9.907 c 10e-4,0.213 -0.171,0.379 -0.396,0.379 z"
         id="path5384"
         style="fill:#ffd42a" />
    </g>
    <g
       id="g5390"
       style="fill:#ffd42a">
      <path
         inkscape:connector-curvature="0"
         d="m 11.687,53.423 c -0.201,0 -0.367,-0.142 -0.391,-0.343 -0.036,-0.207 0.118,-0.414 0.343,-0.456 l 9.505,-1.219 c 0.201,-0.035 0.402,0.106 0.432,0.331 0.03,0.213 -0.124,0.415 -0.349,0.438 l -9.48,1.248 c -0.031,0.001 -0.043,0.001 -0.06,0.001 z"
         id="path5388"
         style="fill:#ffd42a" />
    </g>
    <g
       id="g5394"
       style="fill:#ffd42a">
      <path
         inkscape:connector-curvature="0"
         d="m 6.206,54.305 c -0.177,0 -0.355,-0.136 -0.378,-0.331 -0.042,-0.219 0.106,-0.414 0.325,-0.456 l 3.391,-0.556 c 0.207,-0.023 0.414,0.118 0.45,0.331 0.036,0.219 -0.118,0.42 -0.319,0.45 L 6.278,54.287 C 6.253,54.305 6.23,54.305 6.206,54.305 Z"
         id="path5392"
         style="fill:#ffd42a" />
    </g>
    <g
       id="g5398"
       style="fill:#ffd42a">
      <path
         inkscape:connector-curvature="0"
         d="m 20.066,55.678 c -0.166,0 -0.332,-0.106 -0.379,-0.296 -0.053,-0.207 0.071,-0.414 0.284,-0.467 l 7.244,-1.936 c 0.201,-0.06 0.432,0.077 0.491,0.278 0.047,0.213 -0.077,0.42 -0.29,0.485 l -7.255,1.923 c -0.024,0.013 -0.059,0.013 -0.095,0.013 z"
         id="path5396"
         style="fill:#ffd42a" />
    </g>
    <g
       id="g5402"
       style="fill:#ffd42a">
      <path
         inkscape:connector-curvature="0"
         d="m 7.686,58.803 c -0.177,0 -0.343,-0.124 -0.378,-0.29 -0.059,-0.225 0.059,-0.438 0.272,-0.491 l 10.511,-2.758 c 0.207,-0.059 0.426,0.054 0.485,0.284 0.047,0.213 -0.083,0.42 -0.296,0.479 l -10.5,2.77 c -0.023,0.006 -0.065,0.006 -0.094,0.006 z"
         id="path5400"
         style="fill:#ffd42a" />
    </g>
    <g
       id="g5406"
       style="fill:#ffd42a">
      <path
         inkscape:connector-curvature="0"
         d="m 25.848,57.24 c -0.154,0 -0.302,-0.083 -0.367,-0.242 -0.077,-0.201 0.018,-0.427 0.23,-0.516 l 2.93,-1.195 c 0.195,-0.082 0.42,0.012 0.509,0.22 0.077,0.195 -0.018,0.426 -0.219,0.509 l -2.936,1.195 c -0.046,0.018 -0.105,0.029 -0.147,0.029 z"
         id="path5404"
         style="fill:#ffd42a" />
    </g>
    <g
       id="g5410"
       style="fill:#ffd42a">
      <path
         inkscape:connector-curvature="0"
         d="m 19.616,59.72 c -0.153,0 -0.308,-0.106 -0.378,-0.248 -0.071,-0.201 0.012,-0.438 0.225,-0.515 l 4.592,-1.93 c 0.195,-0.071 0.42,0.018 0.509,0.213 0.083,0.195 -0.012,0.444 -0.207,0.527 l -4.592,1.911 c -0.054,0.03 -0.101,0.042 -0.149,0.042 z"
         id="path5408"
         style="fill:#ffd42a" />
    </g>
    <g
       id="g5414"
       style="fill:#ffd42a">
      <path
         inkscape:connector-curvature="0"
         d="m 14.012,61.644 c -0.16,0 -0.308,-0.083 -0.361,-0.249 -0.083,-0.195 0.012,-0.426 0.207,-0.509 l 3.119,-1.278 c 0.201,-0.089 0.438,0.006 0.515,0.207 0.088,0.207 -0.006,0.433 -0.213,0.516 l -3.113,1.296 c -0.059,0.017 -0.101,0.017 -0.154,0.017 z"
         id="path5412"
         style="fill:#ffd42a" />
    </g>
    <g
       id="g5418"
       style="fill:#ffd42a">
      <path
         inkscape:connector-curvature="0"
         d="m 14.93,66.224 c -0.143,0 -0.284,-0.064 -0.35,-0.201 -0.101,-0.189 -0.029,-0.432 0.172,-0.538 l 12.025,-6.231 c 0.189,-0.106 0.426,-0.036 0.521,0.165 0.101,0.189 0.024,0.433 -0.166,0.533 l -12.025,6.237 c -0.047,0.029 -0.119,0.035 -0.177,0.035 z"
         id="path5416"
         style="fill:#ffd42a" />
    </g>
    <g
       id="g5422"
       style="fill:#ffd42a">
      <path
         inkscape:connector-curvature="0"
         d="m 10.337,68.349 c -0.142,0 -0.272,-0.071 -0.343,-0.23 -0.106,-0.189 -0.018,-0.427 0.178,-0.521 l 3.03,-1.474 c 0.189,-0.082 0.426,-0.006 0.515,0.189 0.101,0.201 0.023,0.427 -0.184,0.527 l -3.018,1.461 c -0.054,0.036 -0.119,0.048 -0.178,0.048 z"
         id="path5420"
         style="fill:#ffd42a" />
    </g>
    <g
       id="g5426"
       style="fill:#ffd42a">
      <path
         inkscape:connector-curvature="0"
         d="m 17.593,69.076 c -0.13,0 -0.261,-0.059 -0.326,-0.178 -0.119,-0.183 -0.065,-0.42 0.112,-0.544 l 13.759,-8.989 c 0.184,-0.131 0.432,-0.077 0.551,0.106 0.118,0.189 0.059,0.432 -0.119,0.55 L 17.8,69.018 c -0.054,0.029 -0.136,0.058 -0.207,0.058 z"
         id="path5424"
         style="fill:#ffd42a" />
    </g>
    <g
       id="g5430"
       style="fill:#ffd42a">
      <path
         inkscape:connector-curvature="0"
         d="m 13.829,71.822 c -0.13,0 -0.249,-0.047 -0.326,-0.166 -0.124,-0.171 -0.077,-0.42 0.106,-0.544 l 1.651,-1.101 c 0.178,-0.124 0.426,-0.071 0.544,0.106 0.119,0.172 0.071,0.426 -0.106,0.55 l -1.645,1.107 c -0.082,0.025 -0.154,0.048 -0.224,0.048 z"
         id="path5428"
         style="fill:#ffd42a" />
    </g>
    <g
       id="g5434"
       style="fill:#ffd42a">
      <path
         inkscape:connector-curvature="0"
         d="m 29.701,65.413 c -0.118,0 -0.219,-0.065 -0.308,-0.147 -0.13,-0.166 -0.106,-0.408 0.047,-0.545 l 3.586,-3.036 c 0.177,-0.136 0.414,-0.112 0.556,0.042 0.142,0.165 0.124,0.432 -0.047,0.562 l -3.581,3.03 c -0.064,0.053 -0.159,0.094 -0.253,0.094 z"
         id="path5432"
         style="fill:#ffd42a" />
    </g>
    <g
       id="g5438"
       style="fill:#ffd42a">
      <path
         inkscape:connector-curvature="0"
         d="m 23.925,70 c -0.118,0 -0.237,-0.06 -0.308,-0.148 -0.142,-0.172 -0.106,-0.426 0.059,-0.556 l 3.764,-3.03 c 0.166,-0.131 0.415,-0.106 0.55,0.053 0.136,0.178 0.113,0.433 -0.053,0.568 l -3.764,3.024 C 24.103,69.958 24.008,70 23.925,70 Z"
         id="path5436"
         style="fill:#ffd42a" />
    </g>
    <g
       id="g5442"
       style="fill:#ffd42a">
      <path
         inkscape:connector-curvature="0"
         d="m 20.433,72.935 c -0.106,0 -0.207,-0.041 -0.284,-0.124 -0.148,-0.166 -0.136,-0.408 0.012,-0.562 l 1.396,-1.29 c 0.166,-0.165 0.408,-0.153 0.556,0.024 0.142,0.142 0.142,0.396 -0.023,0.544 l -1.385,1.302 c -0.082,0.07 -0.165,0.106 -0.272,0.106 z"
         id="path5440"
         style="fill:#ffd42a" />
    </g>
    <g
       id="g5446"
       style="fill:#ffd42a">
      <path
         inkscape:connector-curvature="0"
         d="m 22.635,76.599 c -0.101,0 -0.201,-0.03 -0.284,-0.119 -0.154,-0.153 -0.142,-0.402 0.012,-0.556 l 11.943,-11.57 c 0.154,-0.147 0.402,-0.142 0.556,0.006 0.154,0.16 0.154,0.409 0,0.562 L 22.919,76.498 c -0.083,0.07 -0.184,0.101 -0.284,0.101 z"
         id="path5444"
         style="fill:#ffd42a" />
    </g>
    <g
       id="g5450"
       style="fill:#ffd42a">
      <path
         inkscape:connector-curvature="0"
         d="m 19.699,80.273 c -0.106,0 -0.201,-0.054 -0.278,-0.124 -0.142,-0.143 -0.142,-0.396 0,-0.545 l 1.468,-1.468 c 0.148,-0.165 0.408,-0.165 0.562,0 0.154,0.154 0.154,0.396 0,0.557 l -1.474,1.456 C 19.9,80.22 19.8,80.273 19.699,80.273 Z"
         id="path5448"
         style="fill:#ffd42a" />
    </g>
    <g
       id="g5454"
       style="fill:#ffd42a">
      <path
         inkscape:connector-curvature="0"
         d="m 22.558,84.108 c -0.077,0 -0.166,-0.018 -0.243,-0.071 -0.171,-0.142 -0.201,-0.385 -0.071,-0.562 l 5.882,-7.427 c 0.13,-0.172 0.379,-0.201 0.544,-0.054 0.178,0.125 0.213,0.361 0.071,0.545 l -5.871,7.427 c -0.081,0.106 -0.194,0.142 -0.312,0.142 z"
         id="path5452"
         style="fill:#ffd42a" />
    </g>
    <g
       id="g5458"
       style="fill:#ffd42a">
      <path
         inkscape:connector-curvature="0"
         d="m 30.05,74.503 c -0.077,0 -0.16,-0.018 -0.23,-0.076 -0.178,-0.131 -0.201,-0.385 -0.071,-0.545 l 4.888,-6.267 c 0.142,-0.184 0.391,-0.208 0.557,-0.077 0.166,0.136 0.201,0.385 0.065,0.562 l -4.894,6.262 c -0.073,0.1 -0.197,0.141 -0.315,0.141 z"
         id="path5456"
         style="fill:#ffd42a" />
    </g>
    <g
       id="g5462"
       style="fill:#ffd42a">
      <path
         inkscape:connector-curvature="0"
         d="m 32.808,77.148 c -0.083,0 -0.16,-0.029 -0.23,-0.077 -0.172,-0.112 -0.213,-0.366 -0.095,-0.544 l 6.628,-9.712 c 0.125,-0.183 0.367,-0.23 0.544,-0.112 0.178,0.125 0.225,0.373 0.107,0.551 l -6.628,9.723 c -0.084,0.101 -0.202,0.171 -0.326,0.171 z"
         id="path5460"
         style="fill:#ffd42a" />
    </g>
    <g
       id="g5466"
       style="fill:#ffd42a">
      <path
         inkscape:connector-curvature="0"
         d="m 29.073,82.374 c -0.083,0 -0.154,-0.023 -0.225,-0.077 -0.178,-0.118 -0.213,-0.366 -0.095,-0.556 l 2.651,-3.746 c 0.118,-0.166 0.373,-0.213 0.539,-0.089 0.183,0.124 0.231,0.373 0.106,0.544 l -2.657,3.753 c -0.07,0.107 -0.2,0.171 -0.319,0.171 z"
         id="path5464"
         style="fill:#ffd42a" />
    </g>
    <g
       id="g5470"
       style="fill:#ffd42a">
      <path
         inkscape:connector-curvature="0"
         d="m 34.021,83.67 c -0.071,0 -0.13,-0.018 -0.189,-0.041 -0.189,-0.106 -0.266,-0.355 -0.166,-0.539 l 4.616,-8.545 c 0.095,-0.195 0.332,-0.272 0.521,-0.16 0.201,0.106 0.272,0.344 0.166,0.539 l -4.604,8.533 C 34.293,83.6 34.151,83.67 34.021,83.67 Z"
         id="path5468"
         style="fill:#ffd42a" />
    </g>
    <g
       id="g5474"
       style="fill:#ffd42a">
      <path
         inkscape:connector-curvature="0"
         d="m 31.908,88.529 c -0.065,0 -0.112,-0.012 -0.172,-0.036 -0.201,-0.106 -0.284,-0.337 -0.183,-0.532 l 1.012,-2.012 c 0.095,-0.195 0.337,-0.272 0.527,-0.189 0.189,0.106 0.267,0.337 0.178,0.526 l -1.012,2.024 c -0.071,0.136 -0.208,0.219 -0.35,0.219 z"
         id="path5472"
         style="fill:#ffd42a" />
    </g>
    <g
       id="g5478"
       style="fill:#ffd42a">
      <path
         inkscape:connector-curvature="0"
         d="m 37.797,85.221 c -0.054,0 -0.095,-0.012 -0.143,-0.041 -0.195,-0.065 -0.308,-0.29 -0.236,-0.479 l 4.864,-13.044 c 0.083,-0.213 0.308,-0.308 0.509,-0.236 0.207,0.083 0.313,0.308 0.231,0.503 l -4.859,13.038 c -0.059,0.164 -0.206,0.259 -0.366,0.259 z"
         id="path5476"
         style="fill:#ffd42a" />
    </g>
    <g
       id="g5482"
       style="fill:#ffd42a">
      <path
         inkscape:connector-curvature="0"
         d="m 36.128,89.902 c -0.047,0 -0.083,0 -0.125,-0.018 -0.207,-0.065 -0.313,-0.297 -0.254,-0.504 l 0.923,-2.746 c 0.071,-0.195 0.296,-0.313 0.497,-0.242 0.201,0.071 0.319,0.284 0.249,0.479 l -0.912,2.77 c -0.059,0.161 -0.224,0.261 -0.378,0.261 z"
         id="path5480"
         style="fill:#ffd42a" />
    </g>
    <g
       id="g5486"
       style="fill:#ffd42a">
      <path
         inkscape:connector-curvature="0"
         d="m 45.034,72.651 c -0.035,0 -0.065,0 -0.101,-0.007 -0.213,-0.047 -0.337,-0.271 -0.29,-0.479 l 0.835,-3.291 c 0.047,-0.23 0.26,-0.354 0.473,-0.296 0.213,0.054 0.343,0.272 0.284,0.468 l -0.829,3.32 c -0.046,0.172 -0.212,0.285 -0.372,0.285 z"
         id="path5484"
         style="fill:#ffd42a" />
    </g>
    <g
       id="g5490"
       style="fill:#ffd42a">
      <path
         inkscape:connector-curvature="0"
         d="m 42.839,81.362 c -0.03,0 -0.059,-0.012 -0.095,-0.018 -0.213,-0.06 -0.337,-0.272 -0.296,-0.468 l 1.574,-6.148 c 0.047,-0.213 0.26,-0.344 0.479,-0.29 0.207,0.053 0.337,0.26 0.278,0.485 l -1.562,6.143 c -0.035,0.172 -0.195,0.296 -0.378,0.296 z"
         id="path5488"
         style="fill:#ffd42a" />
    </g>
    <g
       id="g5494"
       style="fill:#ffd42a">
      <path
         inkscape:connector-curvature="0"
         d="m 41.182,88.34 c -0.023,0 -0.047,-0.012 -0.083,-0.018 -0.213,-0.054 -0.337,-0.261 -0.296,-0.474 l 1.184,-4.759 c 0.06,-0.213 0.261,-0.349 0.462,-0.295 0.23,0.059 0.361,0.271 0.296,0.479 l -1.178,4.771 c -0.042,0.184 -0.208,0.296 -0.385,0.296 z"
         id="path5492"
         style="fill:#ffd42a" />
    </g>
    <g
       id="g5498"
       style="fill:#ffd42a">
      <path
         inkscape:connector-curvature="0"
         d="m 46.129,87.239 c -0.012,0 -0.024,0 -0.036,0 -0.219,-0.013 -0.379,-0.201 -0.355,-0.427 l 0.734,-7.249 c 0.023,-0.213 0.213,-0.373 0.438,-0.344 0.213,0.018 0.367,0.207 0.344,0.414 L 46.52,86.89 c -0.012,0.207 -0.189,0.349 -0.391,0.349 z"
         id="path5496"
         style="fill:#ffd42a" />
    </g>
    <g
       id="g5502"
       style="fill:#ffd42a">
      <path
         inkscape:connector-curvature="0"
         d="m 45.502,93.287 c -0.018,0 -0.036,0 -0.047,0 -0.213,-0.023 -0.367,-0.213 -0.343,-0.438 l 0.45,-3.752 c 0.024,-0.208 0.213,-0.373 0.438,-0.338 0.213,0.018 0.367,0.219 0.343,0.444 l -0.45,3.746 c -0.018,0.208 -0.196,0.338 -0.391,0.338 z"
         id="path5500"
         style="fill:#ffd42a" />
    </g>
    <g
       id="g5506"
       style="fill:#ffd42a">
      <path
         inkscape:connector-curvature="0"
         d="m 88.31,53.423 c -0.023,0 -0.035,0 -0.047,0 l -9.505,-1.248 c -0.213,-0.023 -0.366,-0.226 -0.331,-0.438 0.023,-0.225 0.225,-0.366 0.438,-0.331 l 9.492,1.219 c 0.213,0.042 0.373,0.249 0.331,0.456 -0.017,0.2 -0.189,0.342 -0.378,0.342 z"
         id="path5504"
         style="fill:#ffd42a" />
    </g>
    <g
       id="g5510"
       style="fill:#ffd42a">
      <path
         inkscape:connector-curvature="0"
         d="m 93.778,54.305 c -0.023,0 -0.042,0 -0.06,-0.018 l -3.402,-0.544 c -0.213,-0.03 -0.35,-0.231 -0.308,-0.45 0.029,-0.213 0.23,-0.354 0.443,-0.331 l 3.397,0.556 c 0.213,0.042 0.354,0.237 0.331,0.456 -0.04,0.195 -0.2,0.331 -0.401,0.331 z"
         id="path5508"
         style="fill:#ffd42a" />
    </g>
    <g
       id="g5514"
       style="fill:#ffd42a">
      <path
         inkscape:connector-curvature="0"
         d="m 79.93,55.678 c -0.041,0 -0.07,0 -0.106,-0.012 l -7.255,-1.923 c -0.201,-0.065 -0.332,-0.272 -0.272,-0.485 0.06,-0.201 0.272,-0.338 0.479,-0.278 l 7.255,1.936 c 0.208,0.053 0.338,0.26 0.278,0.467 -0.059,0.188 -0.202,0.295 -0.379,0.295 z"
         id="path5512"
         style="fill:#ffd42a" />
    </g>
    <g
       id="g5518"
       style="fill:#ffd42a">
      <path
         inkscape:connector-curvature="0"
         d="m 92.311,58.803 c -0.023,0 -0.06,0 -0.095,-0.006 l -10.505,-2.77 c -0.207,-0.06 -0.337,-0.267 -0.277,-0.479 0.047,-0.23 0.26,-0.343 0.473,-0.284 l 10.511,2.758 c 0.207,0.054 0.331,0.267 0.284,0.491 -0.048,0.166 -0.214,0.29 -0.391,0.29 z"
         id="path5516"
         style="fill:#ffd42a" />
    </g>
    <g
       id="g5522"
       style="fill:#ffd42a">
      <path
         inkscape:connector-curvature="0"
         d="m 74.143,57.24 c -0.042,0 -0.101,-0.012 -0.137,-0.029 l -2.953,-1.195 c -0.201,-0.083 -0.296,-0.313 -0.207,-0.509 0.077,-0.208 0.313,-0.302 0.515,-0.22 l 2.93,1.195 c 0.207,0.089 0.308,0.314 0.219,0.516 -0.06,0.159 -0.214,0.242 -0.367,0.242 z"
         id="path5520"
         style="fill:#ffd42a" />
    </g>
    <g
       id="g5526"
       style="fill:#ffd42a">
      <path
         inkscape:connector-curvature="0"
         d="m 80.392,59.72 c -0.06,0 -0.106,-0.012 -0.16,-0.041 l -4.586,-1.911 c -0.201,-0.083 -0.29,-0.332 -0.213,-0.527 0.077,-0.195 0.308,-0.284 0.509,-0.213 l 4.604,1.93 c 0.195,0.076 0.284,0.313 0.195,0.515 -0.053,0.14 -0.195,0.247 -0.349,0.247 z"
         id="path5524"
         style="fill:#ffd42a" />
    </g>
    <g
       id="g5530"
       style="fill:#ffd42a">
      <path
         inkscape:connector-curvature="0"
         d="m 85.979,61.644 c -0.048,0 -0.095,0 -0.143,-0.018 L 82.712,60.33 c -0.202,-0.083 -0.296,-0.309 -0.214,-0.516 0.083,-0.201 0.309,-0.296 0.51,-0.207 l 3.124,1.278 c 0.201,0.083 0.296,0.313 0.214,0.509 -0.072,0.167 -0.202,0.25 -0.367,0.25 z"
         id="path5528"
         style="fill:#ffd42a" />
    </g>
    <g
       id="g5534"
       style="fill:#ffd42a">
      <path
         inkscape:connector-curvature="0"
         d="m 85.066,66.224 c -0.059,0 -0.118,-0.006 -0.183,-0.035 l -12.02,-6.237 c -0.201,-0.101 -0.272,-0.344 -0.166,-0.533 0.095,-0.201 0.331,-0.271 0.521,-0.165 l 12.025,6.231 c 0.201,0.106 0.272,0.349 0.172,0.538 -0.076,0.136 -0.206,0.201 -0.349,0.201 z"
         id="path5532"
         style="fill:#ffd42a" />
    </g>
    <g
       id="g5538"
       style="fill:#ffd42a">
      <path
         inkscape:connector-curvature="0"
         d="m 89.659,68.349 c -0.06,0 -0.118,-0.012 -0.178,-0.048 L 86.458,66.84 c -0.202,-0.101 -0.278,-0.326 -0.195,-0.527 0.106,-0.195 0.331,-0.271 0.532,-0.189 l 3.03,1.474 c 0.201,0.095 0.278,0.332 0.184,0.521 -0.066,0.158 -0.22,0.23 -0.35,0.23 z"
         id="path5536"
         style="fill:#ffd42a" />
    </g>
    <g
       id="g5542"
       style="fill:#ffd42a">
      <path
         inkscape:connector-curvature="0"
         d="m 82.404,69.076 c -0.077,0 -0.154,-0.029 -0.22,-0.059 L 68.425,60.021 c -0.184,-0.118 -0.231,-0.36 -0.119,-0.55 0.119,-0.184 0.379,-0.237 0.545,-0.106 l 13.771,8.989 c 0.184,0.124 0.23,0.361 0.106,0.544 -0.076,0.12 -0.194,0.178 -0.324,0.178 z"
         id="path5540"
         style="fill:#ffd42a" />
    </g>
    <g
       id="g5546"
       style="fill:#ffd42a">
      <path
         inkscape:connector-curvature="0"
         d="m 86.168,71.822 c -0.083,0 -0.16,-0.023 -0.213,-0.047 l -1.663,-1.107 c -0.184,-0.124 -0.22,-0.378 -0.101,-0.55 0.106,-0.178 0.354,-0.23 0.538,-0.106 l 1.663,1.101 c 0.172,0.124 0.225,0.355 0.101,0.544 -0.083,0.118 -0.207,0.165 -0.325,0.165 z"
         id="path5544"
         style="fill:#ffd42a" />
    </g>
    <g
       id="g5550"
       style="fill:#ffd42a">
      <path
         inkscape:connector-curvature="0"
         d="m 70.283,65.413 c -0.082,0 -0.165,-0.041 -0.248,-0.095 l -3.58,-3.03 c -0.16,-0.13 -0.184,-0.396 -0.042,-0.562 0.143,-0.154 0.391,-0.178 0.551,-0.042 l 3.574,3.036 c 0.172,0.137 0.195,0.379 0.054,0.545 -0.077,0.083 -0.19,0.148 -0.309,0.148 z"
         id="path5548"
         style="fill:#ffd42a" />
    </g>
    <g
       id="g5554"
       style="fill:#ffd42a">
      <path
         inkscape:connector-curvature="0"
         d="m 76.065,70 c -0.077,0 -0.172,-0.042 -0.242,-0.089 l -3.765,-3.024 c -0.165,-0.136 -0.201,-0.391 -0.047,-0.568 0.13,-0.159 0.367,-0.184 0.545,-0.053 l 3.764,3.03 c 0.172,0.13 0.195,0.384 0.059,0.556 C 76.309,69.94 76.189,70 76.065,70 Z"
         id="path5552"
         style="fill:#ffd42a" />
    </g>
    <g
       id="g5558"
       style="fill:#ffd42a">
      <path
         inkscape:connector-curvature="0"
         d="m 79.563,72.935 c -0.095,0 -0.195,-0.035 -0.272,-0.106 l -1.396,-1.302 c -0.148,-0.147 -0.16,-0.402 -0.012,-0.544 0.142,-0.178 0.396,-0.189 0.55,-0.024 l 1.391,1.29 c 0.166,0.154 0.178,0.396 0.024,0.562 -0.083,0.083 -0.184,0.124 -0.285,0.124 z"
         id="path5556"
         style="fill:#ffd42a" />
    </g>
    <g
       id="g5562"
       style="fill:#ffd42a">
      <path
         inkscape:connector-curvature="0"
         d="m 77.35,76.599 c -0.095,0 -0.195,-0.03 -0.272,-0.101 L 65.135,64.922 c -0.147,-0.153 -0.159,-0.402 -0.006,-0.562 0.16,-0.147 0.396,-0.153 0.562,-0.006 l 11.942,11.57 c 0.154,0.153 0.154,0.402 0.006,0.556 -0.077,0.088 -0.183,0.119 -0.289,0.119 z"
         id="path5560"
         style="fill:#ffd42a" />
    </g>
    <g
       id="g5566"
       style="fill:#ffd42a">
      <path
         inkscape:connector-curvature="0"
         d="m 80.297,80.273 c -0.106,0 -0.201,-0.054 -0.284,-0.124 l -1.468,-1.456 c -0.153,-0.16 -0.153,-0.402 0,-0.557 0.154,-0.165 0.402,-0.165 0.568,0 l 1.468,1.468 c 0.142,0.148 0.142,0.402 0,0.545 -0.083,0.071 -0.189,0.124 -0.284,0.124 z"
         id="path5564"
         style="fill:#ffd42a" />
    </g>
    <g
       id="g5570"
       style="fill:#ffd42a">
      <path
         inkscape:connector-curvature="0"
         d="m 77.438,84.108 c -0.124,0 -0.242,-0.036 -0.313,-0.143 l -5.871,-7.427 c -0.142,-0.184 -0.106,-0.42 0.065,-0.545 0.166,-0.147 0.42,-0.118 0.55,0.054 l 5.877,7.427 c 0.137,0.178 0.101,0.421 -0.064,0.562 -0.072,0.055 -0.166,0.072 -0.244,0.072 z"
         id="path5568"
         style="fill:#ffd42a" />
    </g>
    <g
       id="g5574"
       style="fill:#ffd42a">
      <path
         inkscape:connector-curvature="0"
         d="m 69.94,74.503 c -0.106,0 -0.23,-0.041 -0.308,-0.142 L 64.738,68.1 c -0.136,-0.177 -0.112,-0.426 0.065,-0.562 0.172,-0.131 0.414,-0.106 0.55,0.077 l 4.9,6.267 c 0.137,0.16 0.101,0.414 -0.064,0.545 -0.071,0.058 -0.16,0.076 -0.249,0.076 z"
         id="path5572"
         style="fill:#ffd42a" />
    </g>
    <g
       id="g5578"
       style="fill:#ffd42a">
      <path
         inkscape:connector-curvature="0"
         d="m 67.188,77.148 c -0.124,0 -0.255,-0.07 -0.325,-0.172 l -6.616,-9.723 c -0.131,-0.178 -0.083,-0.426 0.095,-0.551 0.177,-0.118 0.426,-0.07 0.544,0.112 l 6.628,9.712 c 0.131,0.178 0.071,0.432 -0.106,0.544 -0.072,0.049 -0.142,0.078 -0.22,0.078 z"
         id="path5576"
         style="fill:#ffd42a" />
    </g>
    <g
       id="g5582"
       style="fill:#ffd42a">
      <path
         inkscape:connector-curvature="0"
         d="m 70.923,82.374 c -0.13,0 -0.261,-0.064 -0.325,-0.171 L 67.952,78.45 c -0.13,-0.171 -0.095,-0.42 0.083,-0.544 0.189,-0.124 0.438,-0.077 0.556,0.089 l 2.651,3.746 c 0.118,0.189 0.083,0.438 -0.095,0.556 -0.071,0.054 -0.147,0.077 -0.224,0.077 z"
         id="path5580"
         style="fill:#ffd42a" />
    </g>
    <g
       id="g5586"
       style="fill:#ffd42a">
      <path
         inkscape:connector-curvature="0"
         d="m 65.976,83.67 c -0.143,0 -0.272,-0.07 -0.344,-0.213 l -4.604,-8.533 c -0.094,-0.195 -0.035,-0.433 0.16,-0.539 0.195,-0.112 0.432,-0.035 0.527,0.16 l 4.604,8.545 c 0.106,0.184 0.036,0.433 -0.159,0.539 -0.055,0.023 -0.126,0.041 -0.184,0.041 z"
         id="path5584"
         style="fill:#ffd42a" />
    </g>
    <g
       id="g5590"
       style="fill:#ffd42a">
      <path
         inkscape:connector-curvature="0"
         d="m 68.088,88.529 c -0.142,0 -0.278,-0.083 -0.343,-0.219 l -1.019,-2.024 c -0.101,-0.189 -0.018,-0.42 0.178,-0.526 0.195,-0.083 0.42,-0.006 0.527,0.189 l 1.018,2.012 c 0.089,0.195 0.012,0.426 -0.178,0.532 -0.059,0.025 -0.129,0.036 -0.183,0.036 z"
         id="path5588"
         style="fill:#ffd42a" />
    </g>
    <g
       id="g5594"
       style="fill:#ffd42a">
      <path
         inkscape:connector-curvature="0"
         d="m 62.199,85.221 c -0.165,0 -0.308,-0.095 -0.366,-0.26 L 56.968,71.923 c -0.07,-0.195 0.03,-0.42 0.237,-0.503 0.189,-0.071 0.426,0.023 0.503,0.236 L 62.566,84.7 c 0.071,0.189 -0.023,0.414 -0.236,0.479 -0.036,0.03 -0.077,0.042 -0.131,0.042 z"
         id="path5592"
         style="fill:#ffd42a" />
    </g>
    <g
       id="g5598"
       style="fill:#ffd42a">
      <path
         inkscape:connector-curvature="0"
         d="m 63.868,89.902 c -0.165,0 -0.319,-0.101 -0.366,-0.261 l -0.936,-2.77 c -0.059,-0.195 0.06,-0.408 0.249,-0.479 0.213,-0.071 0.438,0.047 0.509,0.242 l 0.911,2.746 c 0.083,0.207 -0.041,0.438 -0.236,0.504 -0.054,0.018 -0.095,0.018 -0.131,0.018 z"
         id="path5596"
         style="fill:#ffd42a" />
    </g>
    <g
       id="g5602"
       style="fill:#ffd42a">
      <path
         inkscape:connector-curvature="0"
         d="m 54.968,72.651 c -0.184,0 -0.331,-0.113 -0.385,-0.284 l -0.822,-3.32 c -0.06,-0.195 0.071,-0.414 0.284,-0.468 0.213,-0.059 0.426,0.065 0.473,0.296 l 0.829,3.291 c 0.053,0.207 -0.083,0.432 -0.284,0.479 -0.03,0.006 -0.066,0.006 -0.095,0.006 z"
         id="path5600"
         style="fill:#ffd42a" />
    </g>
    <g
       id="g5606"
       style="fill:#ffd42a">
      <path
         inkscape:connector-curvature="0"
         d="m 57.151,81.362 c -0.172,0 -0.337,-0.124 -0.385,-0.296 L 55.21,74.923 c -0.054,-0.226 0.076,-0.433 0.289,-0.485 0.201,-0.054 0.421,0.077 0.474,0.29 l 1.574,6.148 c 0.036,0.195 -0.083,0.408 -0.296,0.468 -0.034,0.007 -0.063,0.018 -0.1,0.018 z"
         id="path5604"
         style="fill:#ffd42a" />
    </g>
    <g
       id="g5610"
       style="fill:#ffd42a">
      <path
         inkscape:connector-curvature="0"
         d="m 58.803,88.34 c -0.178,0 -0.338,-0.112 -0.379,-0.296 L 57.24,83.273 c -0.035,-0.207 0.077,-0.42 0.296,-0.479 0.207,-0.054 0.414,0.082 0.474,0.295 l 1.172,4.759 c 0.059,0.213 -0.071,0.42 -0.284,0.474 -0.037,0.006 -0.06,0.018 -0.095,0.018 z"
         id="path5608"
         style="fill:#ffd42a" />
    </g>
    <g
       id="g5614"
       style="fill:#ffd42a">
      <path
         inkscape:connector-curvature="0"
         d="m 53.867,87.239 c -0.201,0 -0.379,-0.143 -0.402,-0.35 l -0.726,-7.256 c -0.018,-0.207 0.137,-0.396 0.347,-0.414 0.213,-0.029 0.414,0.131 0.438,0.344 l 0.734,7.249 c 0.023,0.226 -0.143,0.414 -0.355,0.427 -0.012,0 -0.024,0 -0.036,0 z"
         id="path5612"
         style="fill:#ffd42a" />
    </g>
    <g
       id="g5618"
       style="fill:#ffd42a">
      <path
         inkscape:connector-curvature="0"
         d="m 54.494,93.287 c -0.201,0 -0.367,-0.13 -0.391,-0.337 L 53.66,89.204 c -0.023,-0.226 0.124,-0.427 0.337,-0.444 0.207,-0.023 0.414,0.13 0.444,0.338 l 0.443,3.752 c 0.023,0.225 -0.13,0.414 -0.349,0.438 -0.017,-10e-4 -0.029,-10e-4 -0.041,-10e-4 z"
         id="path5616"
         style="fill:#ffd42a" />
    </g>
    <g
       id="g5622"
       style="fill:#ffd42a">
      <path
         inkscape:connector-curvature="0"
         d="m 50.071,73.568 c -0.213,0 -0.379,-0.166 -0.379,-0.379 V 69.23 c 0,-0.213 0.166,-0.396 0.379,-0.396 0.225,0 0.402,0.184 0.402,0.396 v 3.959 c 0,0.213 -0.178,0.379 -0.402,0.379 z"
         id="path5620"
         style="fill:#ffd42a" />
    </g>
    <g
       id="g5626"
       style="fill:#ffd42a">
      <path
         inkscape:connector-curvature="0"
         d="m 49.988,79.167 c -0.219,0 -0.396,-0.178 -0.396,-0.391 v -3.947 c 0,-0.214 0.177,-0.391 0.396,-0.391 0.213,0 0.391,0.177 0.391,0.391 v 3.947 c -10e-4,0.213 -0.178,0.391 -0.391,0.391 z"
         id="path5624"
         style="fill:#ffd42a" />
    </g>
    <g
       id="g5630"
       style="fill:#ffd42a">
      <path
         inkscape:connector-curvature="0"
         d="m 49.887,90.831 c -0.207,0 -0.385,-0.178 -0.385,-0.402 v -9.913 c 0,-0.219 0.178,-0.385 0.385,-0.385 0.225,0 0.396,0.166 0.396,0.385 v 9.913 c 10e-4,0.224 -0.171,0.402 -0.396,0.402 z"
         id="path5628"
         style="fill:#ffd42a" />
    </g>
  </g>
  <g
     transform="matrix(0.28468059,0,0,0.24738105,3.8757361,4.6798334)"
     style="fill:url(#linearGradient883);fill-opacity:1;fill-rule:evenodd"
     id="Page-1-6">
    <g
       style="fill:url(#linearGradient6982);fill-opacity:1;fill-rule:nonzero"
       id="005---Moose-7"
       transform="translate(-1)">
      <path
         inkscape:connector-curvature="0"
         id="Shape-0"
         d="M 57.3,0.012 C 56.19027,-0.07146484 55.095934,0.31115418 54.279975,1.0679088 53.464016,1.8246635 53.000204,2.8871357 53,4 v 7 c -0.0016,1.270989 -0.802298,2.403646 -2,2.829 V 11.66 C 50.997135,10.635726 50.57464,9.6573751 49.831,8.953 49.151802,8.296365 48.230451,7.9512208 47.287,8 46.433281,8.0536835 45.628391,8.4166662 45.023,9.021 44.364226,9.6772914 43.995787,10.570116 44,11.5 c -0.0093,1.184748 -0.8411,2.203695 -2,2.45 V 11.66 C 41.997135,10.635726 41.57464,9.6573751 40.831,8.953 40.152728,8.2949012 39.230715,7.949509 38.287,8 37.433281,8.0536835 36.628391,8.4166662 36.023,9.021 35.364226,9.6772914 34.995787,10.570116 35,11.5 34.9913,12.87708 33.87708,13.99127 32.5,14 h -3 C 28.12292,13.99127 27.00873,12.87708 27,11.5 27.003677,10.570809 26.63528,9.6788034 25.977,9.023 25.369459,8.4167803 24.561618,8.0530385 23.705,8 22.764612,7.9544077 21.847081,8.2988437 21.169,8.952 20.425109,9.6566144 20.002592,10.635379 20,11.66 v 2.29 C 18.8411,13.703695 18.009307,12.684748 18,11.5 18.003677,10.570809 17.63528,9.6788034 16.977,9.023 16.369459,8.4167803 15.561618,8.0530385 14.705,8 13.764612,7.9544077 12.847081,8.2988437 12.169,8.952 11.425109,9.6566144 11.002592,10.635379 11,11.66 v 2.169 C 9.8022984,13.403646 9.0015506,12.270989 9,11 V 4 C 8.9998483,2.8890213 8.5376513,1.8281519 7.7241348,1.0715379 6.9106183,0.31492396 5.8190752,-0.06926822 4.711,0.011 2.5773396,0.2139791 0.96004709,2.0260789 1,4.169 V 11 c 0.00606,5.520334 4.4796656,9.993938 10,10 h 1.014 c 0.05576,1.304788 0.53571,2.555757 1.367,3.563 1.467915,1.543318 3.508101,2.411791 5.638,2.4 -0.01671,0.758043 0.01669,1.516363 0.1,2.27 0.529,4.559 1.594,5.835 2.535,6.962 0.856257,0.939459 1.380731,2.133842 1.493,3.4 -0.61291,0.798095 -0.902491,1.797881 -0.811,2.8 l 0.4,4 c 0.199616,2.046894 1.923404,3.6061 3.98,3.6 h 8.57 c 2.056596,0.0061 3.780384,-1.553106 3.98,-3.6 l 0.4,-4 c 0.09287,-1.002095 -0.196459,-2.002261 -0.81,-2.8 0.112269,-1.266158 0.636743,-2.460541 1.493,-3.4 0.941,-1.127 2.006,-2.4 2.536,-6.967 0.08293,-0.751993 0.116332,-1.508624 0.1,-2.265 2.129899,0.01179 4.170085,-0.856682 5.638,-2.4 0.829275,-1.008096 1.307728,-2.258815 1.363,-3.563 H 51 c 5.520334,-0.0061 9.993938,-4.479666 10,-10 V 4.169 C 61.039906,2.0303036 59.428901,0.22031736 57.3,0.012 Z M 39.6,21.334 c 0.194,0.393 0.352,0.8 0.507,1.212 -1.692121,-0.323379 -3.443691,0.02335 -4.885,0.967 C 33.749,24.608 33,26.454 33,29 v 9 h -4 v -9 c 0,-2.546 -0.749,-4.392 -2.226,-5.487 -1.44143,-0.943354 -3.19288,-1.290058 -4.885,-0.967 0.155,-0.408 0.311,-0.817 0.5,-1.208 1.62191,-3.268841 4.955902,-5.336432 8.605,-5.336432 3.649097,0 6.98309,2.067591 8.605,5.336432 z M 3,11 V 4.169 C 2.9707688,3.07849 3.7727756,2.1433199 4.855,2.006 5.4090341,1.9657265 5.9548598,2.1576908 6.3617141,2.5359041 6.7685684,2.9141173 6.9997953,3.4445041 7,4 v 7 c 0.00331,2.760053 2.2399468,4.996694 5,5 0.552285,0 1,-0.447715 1,-1 v -3.34 c 0.0018,-0.47498 0.198023,-0.928504 0.543,-1.255 0.277653,-0.271952 0.654578,-0.4183133 1.043,-0.405 0.368369,0.02203 0.715918,0.178199 0.977,0.439 0.281374,0.281209 0.438706,0.663198 0.437,1.061 0.0082,2.481864 2.018136,4.491768 4.5,4.5 H 21 c 0.552285,0 1,-0.447715 1,-1 v -3.34 c 0.0018,-0.47498 0.198023,-0.928504 0.543,-1.255 0.277911,-0.271552 0.654657,-0.4178433 1.043,-0.405 0.368369,0.02203 0.715918,0.178199 0.977,0.439 0.281374,0.281209 0.438706,0.663198 0.437,1.061 -0.0055,1.191437 0.469219,2.334851 1.317,3.172 0.078,0.079 0.169,0.137 0.251,0.209 -2.063816,0.851514 -3.837135,2.282047 -5.106,4.119 H 11 C 6.5837781,18.99504 3.0049599,15.416222 3,11 Z m 11.022,10 h 6.329 c -0.453541,1.009482 -0.798156,2.064445 -1.028,3.147 -0.057,0.262 -0.1,0.545 -0.141,0.827 -1.590139,0.03766 -3.127595,-0.571045 -4.261,-1.687 C 14.387063,22.638894 14.072321,21.838211 14.022,21 Z m 7.078,8.01 c -0.09264,-0.796427 -0.121067,-1.599015 -0.085,-2.4 0.03126,-0.644385 0.110818,-1.285517 0.238,-1.918 1.067,-0.254 3.031,-0.534 4.326,0.426 0.94,0.7 1.417,2 1.417,3.88 v 9 h -0.685 c -0.479219,0.0058 -0.953468,0.09795 -1.4,0.272 C 24.641011,37.018233 24.044867,35.8601 23.183,34.913 22.389,33.959 21.563,32.97 21.1,29.01 Z M 37.275,46.2 c -0.100033,1.023334 -0.961792,1.802815 -1.99,1.8 h -8.57 c -1.028208,0.0028 -1.889967,-0.776666 -1.99,-1.8 l -0.4,-4 C 24.26848,41.637597 24.452569,41.077538 24.831744,40.65835 25.210918,40.239162 25.749764,39.999993 26.315,40 h 9.37 c 0.565236,-7e-6 1.104082,0.239162 1.483256,0.65835 0.379175,0.419188 0.563268,0.979247 0.506744,1.54165 z M 40.9,29.005 c -0.46,3.965 -1.286,4.954 -2.084,5.91 -0.861868,0.9471 -1.458011,2.105233 -1.728,3.357 C 36.641468,38.097948 36.167219,38.005808 35.688,38 H 35 v -9 c 0,-1.878 0.477,-3.184 1.417,-3.88 1.3,-0.961 3.26,-0.681 4.327,-0.427 0.126531,0.632222 0.205751,1.272998 0.237,1.917 0.03692,0.799216 0.0098,1.600104 -0.081,2.395 z m 6.182,-5.718 c -1.133724,1.115465 -2.670963,1.724084 -4.261,1.687 -0.042,-0.28 -0.083,-0.561 -0.139,-0.819 C 42.451273,23.069475 42.104966,22.011778 41.649,21 h 6.329 c -0.04984,0.838316 -0.364642,1.639142 -0.899,2.287 z M 59,11 c -0.005,4.416222 -3.583778,7.99504 -8,8 H 40.539 c -1.269202,-1.836639 -3.042419,-3.267089 -5.106,-4.119 0.078,-0.069 0.166,-0.124 0.239,-0.2 0.8531,-0.838148 1.331914,-1.985067 1.328,-3.181 -0.0016,-0.792702 0.613887,-1.449797 1.405,-1.5 0.392196,-0.018866 0.774162,0.128547 1.052,0.406 0.344726,0.326257 0.54093,0.779368 0.543,1.254 V 15 c 0,0.552285 0.447715,1 1,1 h 0.5 c 2.481864,-0.0082 4.491768,-2.018136 4.5,-4.5 -0.0016,-0.792702 0.613887,-1.449797 1.405,-1.5 0.391733,-0.017831 0.772987,0.129447 1.051,0.406 0.345291,0.325948 0.541904,0.77917 0.544,1.254 V 15 c 0,0.552285 0.447715,1 1,1 2.760053,-0.0033 4.996694,-2.239947 5,-5 V 4 C 54.9988,3.4694382 55.210184,2.9605065 55.587,2.587 55.9961,2.1706411 56.569345,1.9580567 57.151,2.007 58.230443,2.1470965 59.029049,3.0808914 59,4.169 Z"
         style="fill:url(#linearGradient6972);fill-opacity:1" />
      <path
         inkscape:connector-curvature="0"
         id="path816-1"
         d="m 24,30 h 1 c 0.552285,0 1,-0.447715 1,-1 0,-0.552285 -0.447715,-1 -1,-1 h -1 c -0.552285,0 -1,0.447715 -1,1 0,0.552285 0.447715,1 1,1 z"
         style="fill:url(#linearGradient6974);fill-opacity:1" />
      <path
         inkscape:connector-curvature="0"
         id="path818-6"
         d="m 38,28 h -1 c -0.552285,0 -1,0.447715 -1,1 0,0.552285 0.447715,1 1,1 h 1 c 0.552285,0 1,-0.447715 1,-1 0,-0.552285 -0.447715,-1 -1,-1 z"
         style="fill:url(#linearGradient6976);fill-opacity:1" />
      <path
         inkscape:connector-curvature="0"
         id="path820-7"
         d="m 28,42 c -0.552285,0 -1,0.447715 -1,1 v 2 c 0,0.552285 0.447715,1 1,1 0.552285,0 1,-0.447715 1,-1 v -2 c 0,-0.552285 -0.447715,-1 -1,-1 z"
         style="fill:url(#linearGradient6978);fill-opacity:1" />
      <path
         inkscape:connector-curvature="0"
         id="path822-7"
         d="m 34,42 c -0.552285,0 -1,0.447715 -1,1 v 2 c 0,0.552285 0.447715,1 1,1 0.552285,0 1,-0.447715 1,-1 v -2 c 0,-0.552285 -0.447715,-1 -1,-1 z"
         style="fill:url(#linearGradient6980);fill-opacity:1" />
    </g>
  </g>
</svg>
