<?xml version="1.0" encoding="UTF-8" standalone="no"?>
<!-- Created with Inkscape (http://www.inkscape.org/) -->

<svg
   xmlns:dc="http://purl.org/dc/elements/1.1/"
   xmlns:cc="http://creativecommons.org/ns#"
   xmlns:rdf="http://www.w3.org/1999/02/22-rdf-syntax-ns#"
   xmlns:svg="http://www.w3.org/2000/svg"
   xmlns="http://www.w3.org/2000/svg"
   xmlns:sodipodi="http://sodipodi.sourceforge.net/DTD/sodipodi-0.dtd"
   xmlns:inkscape="http://www.inkscape.org/namespaces/inkscape"
   width="39.605354mm"
   height="15.788177mm"
   viewBox="0 0 39.605353 15.788176"
   version="1.1"
   id="svg7222"
   inkscape:version="0.92.2 (5c3e80d, 2017-08-06)"
   sodipodi:docname="moosearrow3.svg">
  <defs
     id="defs7216" />
  <sodipodi:namedview
     id="base"
     pagecolor="#ffffff"
     bordercolor="#666666"
     borderopacity="1.0"
     inkscape:pageopacity="0.0"
     inkscape:pageshadow="2"
     inkscape:zoom="11.050192"
     inkscape:cx="64.795255"
     inkscape:cy="27.075051"
     inkscape:document-units="mm"
     inkscape:current-layer="layer1"
     showgrid="false"
     fit-margin-top="0"
     fit-margin-left="0"
     fit-margin-right="0"
     fit-margin-bottom="0"
     inkscape:window-width="1920"
     inkscape:window-height="1017"
     inkscape:window-x="-8"
     inkscape:window-y="-8"
     inkscape:window-maximized="1"
     showguides="false" />
  <metadata
     id="metadata7219">
    <rdf:RDF>
      <cc:Work
         rdf:about="">
        <dc:format>image/svg+xml</dc:format>
        <dc:type
           rdf:resource="http://purl.org/dc/dcmitype/StillImage" />
        <dc:title></dc:title>
      </cc:Work>
    </rdf:RDF>
  </metadata>
  <g
     inkscape:label="Layer 1"
     inkscape:groupmode="layer"
     id="layer1"
     transform="translate(-40.53071,-135.81176)">
    <path
       style="fill:#ff5555;fill-opacity:1;stroke:none;stroke-width:0.03375466px;stroke-linecap:butt;stroke-linejoin:miter;stroke-opacity:1"
       d="m 58.770401,150.70493 c 0.125826,-2e-5 0.254032,-0.009 0.382644,-0.027 0.823154,-0.11644 1.661919,-0.61547 2.081301,-1.51375 0.419402,-0.89827 0.419298,-2.19569 -0.15538,-3.12724 -0.574684,-0.93156 -1.72397,-1.49711 -2.857801,-1.68008 -1.085246,-0.17514 -2.156182,4.5e-4 -3.076757,0.48257 -0.03502,-0.18425 -0.07518,-0.3679 -0.122846,-0.54909 -0.326213,-1.2476 -0.94744,-2.37868 -1.801702,-2.94425 -0.854253,-0.56558 -1.941477,-0.5656 -2.826774,0.0499 -0.0045,0.003 -0.009,0.007 -0.01332,0.01 -0.229113,-0.48742 -0.548324,-0.92511 -0.902854,-1.25735 -0.745514,-0.69865 -1.64641,-0.93152 -2.733634,-0.69864 -1.008606,0.21603 -2.176737,0.8326 -2.836525,1.2527 -0.03233,-0.12269 -0.04427,-0.26234 -0.07044,-0.42908 -0.04728,-0.30115 -0.140975,-0.69033 -0.287311,-0.88456 -0.146326,-0.19421 -0.345232,-0.19335 -0.398222,-0.10482 -0.05304,0.0886 0.03985,0.26477 0.03603,0.52459 -0.0038,0.25982 -0.1044,0.60324 -0.333237,1.01474 -0.228835,0.41149 -0.585947,0.89105 -1.073727,1.46217 -0.487777,0.57111 -1.106254,1.23376 -1.226698,1.4447 -0.120452,0.21095 0.257037,-0.0298 0.820899,-0.3674 0.563862,-0.33764 1.314205,-0.77221 1.914715,-1.03466 0.60051,-0.26242 1.0514,-0.35282 1.37666,-0.29194 0.325255,0.0609 0.524969,0.27305 0.665782,0.30102 0.140818,0.0279 0.222708,-0.12831 0.129845,-0.30456 -0.09288,-0.17626 -0.360419,-0.37249 -0.652208,-0.54786 -0.26539,-0.15949 -0.550354,-0.30175 -0.71898,-0.46442 0.258932,-0.11887 0.547808,-0.26063 0.820703,-0.38958 0.528099,-0.24953 0.993973,-0.44912 1.413353,-0.59883 0.419383,-0.14972 0.79214,-0.24954 1.211542,-0.19964 0.419394,0.0499 0.885286,0.24951 1.289128,0.51566 0.403853,0.26616 0.745514,0.59888 1.009635,1.01474 0.06796,0.10731 0.130974,0.22027 0.187915,0.33724 -0.70134,0.6624 -1.222304,1.67744 -1.368387,2.4739 -0.170846,0.9315 0.170869,1.56364 0.714458,1.34741 0.543587,-0.21623 1.289119,-1.28084 1.36678,-2.39537 0.02987,-0.4252 -0.03809,-0.85754 -0.174436,-1.26861 0.14662,-0.097 0.294911,-0.18096 0.438555,-0.24507 0.372757,-0.16636 0.71452,-0.19964 1.118343,-0.0998 0.403856,0.0998 0.869802,0.33267 1.273583,0.682 0.403854,0.34934 0.745514,0.81506 0.96299,1.28082 0.217469,0.46577 0.310666,0.93156 0.372757,1.49711 0.0038,0.0348 0.0072,0.0711 0.01038,0.10654 -0.816668,0.53538 -1.471432,1.30741 -1.750351,2.0393 -0.310666,0.81506 -0.15529,1.58028 0.326111,1.76325 0.481493,0.18297 1.289101,-0.21625 1.677416,-1.0979 0.270712,-0.61457 0.337334,-1.46356 0.2426,-2.34407 0.187825,-0.12741 0.37842,-0.25142 0.549458,-0.35068 0.372757,-0.21625 0.652324,-0.31607 1.056229,-0.38261 0.403855,-0.0666 0.931893,-0.0998 1.366793,-0.0499 0.434848,0.0499 0.77661,0.18295 1.180445,0.43248 0.403853,0.24954 0.8698,0.61543 1.21147,1.01467 0.34166,0.39924 0.559136,0.83177 0.621227,1.29754 0.06177,0.46577 -0.03089,0.96476 -0.186379,1.34734 -0.15529,0.38257 -0.372757,0.64877 -0.683421,0.88162 -0.310665,0.23286 -0.714521,0.43253 -1.087246,0.54895 -0.372757,0.11644 -0.714519,0.14965 -0.978539,0.0998 -0.264018,-0.0499 -0.450397,-0.18294 -0.559134,-0.38255 -0.108735,-0.19958 -0.139847,-0.46575 -0.108735,-0.69864 0.03089,-0.23288 0.124178,-0.43249 0.341762,-0.54895 0.217469,-0.11645 0.559137,-0.14969 0.729967,-0.16633 0.170823,-0.0167 0.170823,-0.0167 -0.03089,-0.0998 -0.201935,-0.0832 -0.605779,-0.24954 -0.962989,0.0499 -0.357208,0.29942 -0.667873,1.06471 -0.419403,1.58034 0.209658,0.43507 0.817388,0.69247 1.496692,0.69237 z m -4.953939,-2.24746 c -0.126661,7.7e-4 -0.231582,-0.071 -0.301501,-0.20816 -0.09268,-0.18295 -0.124178,-0.48241 -0.04633,-0.81511 0.07722,-0.33271 0.26402,-0.69861 0.450397,-0.94815 0.18638,-0.24954 0.372757,-0.38256 0.698972,-0.61547 0.05148,-0.0369 0.111512,-0.0793 0.169288,-0.12034 0.01648,0.34064 0.01964,0.67841 0.0016,0.96868 -0.03089,0.51566 -0.12429,0.88165 -0.279567,1.16442 -0.15529,0.28277 -0.372756,0.48243 -0.559134,0.54895 -0.04635,0.0167 -0.09164,0.025 -0.133457,0.0251 z m -4.607646,-3.29979 c -0.05665,0.002 -0.107719,-0.01 -0.151475,-0.0356 -0.139734,-0.0831 -0.201823,-0.31606 -0.186379,-0.63212 0.01535,-0.31606 0.108644,-0.71528 0.279567,-1.08126 0.170823,-0.36597 0.419402,-0.69859 0.745513,-1.01467 0.09474,-0.0916 0.195953,-0.18123 0.30078,-0.26718 0.07105,0.21192 0.122326,0.43079 0.149622,0.64972 0.06177,0.49903 3.2e-5,0.99814 -0.139733,1.38071 -0.139847,0.38258 -0.357208,0.64871 -0.574684,0.81503 -0.14951,0.11436 -0.299031,0.18157 -0.423214,0.18537 z"
       id="path10535"
       inkscape:connector-curvature="0" />
    <g
       transform="matrix(-0.2242641,0.02496038,0.03022023,0.27152287,73.566945,139.29413)"
       style="fill:#ff5555;fill-rule:evenodd"
       id="Page-1-14">
      <g
         style="fill:#ff5555;fill-rule:nonzero"
         id="012---Beaver"
         transform="matrix(0.65180453,-0.0801253,0.08277329,0.65713697,19.141007,10.498823)">
        <path
           inkscape:connector-curvature="0"
           id="Shape-5"
           d="M 55,4 H 50.473 C 49.286763,1.1407855 46.244876,-0.48116345 43.209719,0.12718214 40.174561,0.73552772 37.992713,3.4044849 38,6.5 c 0.0042,0.8024127 0.159195,1.5968853 0.457,2.342 -4.704371,1.276415 -9.131917,3.412378 -13.059,6.3 C 24.878651,14.094689 24.297976,13.078925 23.659,12.1 21.767,9.186 16.809,3.5 11.588,2.861 9.4255779,2.56538 7.2478854,3.2854949 5.688,4.812 1.722,8.5 0.648,15.181 0.185,19.881 -0.352,25.262 0.1,37.062 5.666,43.208 7.8010633,45.660765 10.908501,47.048027 14.16,47 h 34.85 c 1.649537,-0.01366 2.98185,-1.350427 2.99,-3 2.2e-5,-2.753632 -2.22639,-4.988985 -4.98,-5 h -2.837 c 0.533933,-1.26626 0.811616,-2.625784 0.817,-4 0,-0.128 -0.018,-0.253 -0.022,-0.381 l 1.789,-0.894 c 1.625507,-0.810392 3.416684,-1.233114 5.233,-1.235 0.583565,-0.003 1.159275,-0.134766 1.686,-0.386 l 1.593,0.361 c 0.351853,0.08835 0.723959,-0.02079 0.972355,-0.285184 0.248395,-0.264397 0.334117,-0.642584 0.224002,-0.988244 C 56.365241,30.845912 56.07656,30.586998 55.721,30.515 l -0.258,-0.059 c 0.170616,-0.303611 0.300404,-0.628417 0.386,-0.966 H 57 c 0.552285,0 1,-0.447715 1,-1 0,-0.552285 -0.447715,-1 -1,-1 h -1.134 c -0.0944,-0.33869 -0.235057,-0.662743 -0.418,-0.963 l 0.273,-0.062 c 0.526924,-0.132309 0.851821,-0.66111 0.731724,-1.190951 C 56.332627,24.744209 55.811474,24.407179 55.279,24.515 l -1.663,0.377 c -0.559558,-0.260463 -1.1688,-0.396911 -1.786,-0.4 -1.053811,0.04149 -2.102726,-0.163982 -3.063,-0.6 1.66434,-0.341049 3.083865,-1.419211 3.859,-2.931 2.855338,-0.199373 5.378765,-1.929493 6.594,-4.521 0.006,-0.012 0.01,-0.026 0.016,-0.038 l 0.007,-0.017 C 59.745709,15.327617 60.004414,14.170793 60,13 V 9 C 59.996694,6.2399468 57.760053,4.0033061 55,4 Z M 14.16,45 C 11.475183,45.03793 8.9100211,43.89107 7.148,41.865 2.056,36.24 1.668,25.155 2.175,20.078 2.606,15.7 3.581,9.5 7.051,6.272 8.1781619,5.1484933 9.7672287,4.6190512 11.343,4.842 c 4.164,0.513 8.643,5.271 10.64,8.346 0.680467,1.049543 1.290798,2.142928 1.827,3.273 -5.776,5.183 -7.539,11.436 -6.827,16.788 0.565482,4.798368 3.22529,9.100557 7.265,11.751 z m 32.86,-4 c 1.650414,0.0077 2.983325,1.349571 2.98,3 8.73e-4,0.269442 -0.109908,0.527208 -0.306,0.712 -0.178711,0.185952 -0.426102,0.290117 -0.684,0.288 l -10.288,3.2e-5 C 40.470294,44.01988 41.97017,42.65138 43.106,41 Z m 6.212,-22.139 c 0.04914,-0.57448 0.0083,-1.153111 -0.121,-1.715 -0.07618,-0.353369 -0.337149,-0.638112 -0.682551,-0.744747 -0.345402,-0.106635 -0.721465,-0.01856 -0.983593,0.230364 -0.262128,0.248922 -0.36951,0.619935 -0.280856,0.970383 0.127012,0.542569 0.124957,1.107369 -0.006,1.649 -0.375557,1.576984 -1.7611,2.706812 -3.3814,2.757329 -1.620299,0.05052 -3.073534,-0.990803 -3.5466,-2.541329 -0.380652,-1.336432 -0.0084,-2.774219 0.973,-3.758 0.250427,-0.261993 0.339497,-0.638977 0.232808,-0.985345 -0.10669,-0.346369 -0.392437,-0.607901 -0.746876,-0.683581 -0.354438,-0.07568 -0.722082,0.04634 -0.960932,0.318926 -1.468785,1.501316 -2.008481,3.680769 -1.41,5.694 0.509757,1.648307 1.748014,2.971351 3.359,3.589 0.8,1.383 2.5,2.848 6.153,2.848 1.090848,-0.02917 2.02615,0.773377 2.163,1.856 0.04709,0.579326 -0.165367,1.149673 -0.58,1.557 -0.373697,0.376532 -0.882505,0.587905 -1.413,0.587 -2.126612,0.0022 -4.223786,0.497178 -6.127,1.446 l -1.176,0.587 C 43.361,27.091 37.729,23 31,23 c -0.552285,0 -1,0.447715 -1,1 0,0.552285 0.447715,1 1,1 6.24,0 11.378,3.991 11.943,9.07 v 0.027 C 42.97814,34.396764 42.99717,34.698197 43,35 43,40.514 37.617,45 31,45 25.052,45 19.878,39.834 18.966,32.985 c -1.03,-7.739 3.851,-17.615 20.52,-22.358 0.176215,0.216418 0.366635,0.420869 0.57,0.612 0.402892,0.377763 1.035737,0.357392 1.4135,-0.0455 C 41.847263,10.790608 41.826892,10.157763 41.424,9.78 41.151652,9.5263023 40.916045,9.2358335 40.724,8.917 40.249182,8.2005527 39.997249,7.3595005 40,6.5 39.9956,4.2556973 41.647987,2.3523621 43.87066,2.0415004 46.093334,1.7306386 48.204502,3.1076057 48.816,5.267 c 0.09073,0.2650683 0.27776,0.4863617 0.524,0.62 0.05793,0.026002 0.1182,0.046427 0.18,0.061 0.06527,0.019339 0.132244,0.032398 0.2,0.039 0.023,0 0.042,0.013 0.065,0.013 H 55 c 1.656854,0 3,1.3431458 3,3 h -0.32 c -0.552285,0 -1,0.4477153 -1,1 0,0.552285 0.447715,1 1,1 H 58 v 2 c 0.0015,0.681686 -0.115566,1.35844 -0.346,2 H 55 c -0.552285,0 -1,0.447715 -1,1 0,0.552285 0.447715,1 1,1 h 1.478 c -0.851433,0.956079 -1.990747,1.609272 -3.246,1.861 z"
           style="fill:#ff5555" />
        <circle
           id="Oval"
           cx="49.5"
           cy="9.5"
           r="1.5"
           style="fill:#ff5555" />
        <path
           inkscape:connector-curvature="0"
           id="path2678"
           d="M 44.5,4 C 43.119288,4 42,5.1192881 42,6.5 c -0.0035,0.4612191 0.128607,0.9132998 0.38,1.3 l 0.077,0.12 c 0.09326,0.1477236 0.205937,0.2822584 0.335,0.4 0.402306,0.3755577 1.03246,0.3554464 1.41,-0.045 C 44.383502,8.0814381 44.480633,7.8236752 44.472006,7.558468 44.463378,7.2932608 44.349699,7.0423559 44.156,6.861 l -0.1,-0.154 C 44.016621,6.6453428 43.997077,6.5731011 44,6.5 44,6.2238576 44.223858,6 44.5,6 c 0.210333,-0.00196 0.397336,0.1335239 0.461,0.334 0.147184,0.5324025 0.698098,0.8446839 1.2305,0.6975 C 46.723902,6.8843161 47.036184,6.3334025 46.889,5.801 46.58551,4.7336374 45.609669,3.9979784 44.5,4 Z"
           style="fill:#ff5555" />
      </g>
    </g>
  </g>
</svg>
