<?xml version="1.0" encoding="UTF-8" standalone="no"?>
<!-- Created with Inkscape (http://www.inkscape.org/) -->

<svg
   xmlns:dc="http://purl.org/dc/elements/1.1/"
   xmlns:cc="http://creativecommons.org/ns#"
   xmlns:rdf="http://www.w3.org/1999/02/22-rdf-syntax-ns#"
   xmlns:svg="http://www.w3.org/2000/svg"
   xmlns="http://www.w3.org/2000/svg"
   xmlns:sodipodi="http://sodipodi.sourceforge.net/DTD/sodipodi-0.dtd"
   xmlns:inkscape="http://www.inkscape.org/namespaces/inkscape"
   width="29.089643mm"
   height="11.80317mm"
   viewBox="0 0 29.089642 11.80317"
   version="1.1"
   id="svg7222"
   inkscape:version="0.92.2 (5c3e80d, 2017-08-06)"
   sodipodi:docname="moosearrow5.svg">
  <defs
     id="defs7216" />
  <sodipodi:namedview
     id="base"
     pagecolor="#ffffff"
     bordercolor="#666666"
     borderopacity="1.0"
     inkscape:pageopacity="0.0"
     inkscape:pageshadow="2"
     inkscape:zoom="6.443066"
     inkscape:cx="-1.1821104"
     inkscape:cy="22.919092"
     inkscape:document-units="mm"
     inkscape:current-layer="layer1"
     showgrid="false"
     fit-margin-top="0"
     fit-margin-left="0"
     fit-margin-right="0"
     fit-margin-bottom="0"
     inkscape:window-width="1920"
     inkscape:window-height="1017"
     inkscape:window-x="-8"
     inkscape:window-y="-8"
     inkscape:window-maximized="1"
     showguides="false" />
  <metadata
     id="metadata7219">
    <rdf:RDF>
      <cc:Work
         rdf:about="">
        <dc:format>image/svg+xml</dc:format>
        <dc:type
           rdf:resource="http://purl.org/dc/dcmitype/StillImage" />
        <dc:title></dc:title>
      </cc:Work>
    </rdf:RDF>
  </metadata>
  <g
     inkscape:label="Layer 1"
     inkscape:groupmode="layer"
     id="layer1"
     transform="translate(-40.53071,-139.22695)">
    <path
       style="fill:#ff5555;fill-opacity:1;stroke:none;stroke-width:0.03375466px;stroke-linecap:butt;stroke-linejoin:miter;stroke-opacity:1"
       d="m 51.380662,150.70493 c -0.125826,-2e-5 -0.254032,-0.009 -0.382644,-0.027 -0.823154,-0.11644 -1.661919,-0.61547 -2.081301,-1.51375 -0.419402,-0.89827 -0.419298,-2.19569 0.15538,-3.12724 0.574684,-0.93156 1.72397,-1.49711 2.857801,-1.68008 1.085246,-0.17514 2.156182,4.5e-4 3.076757,0.48257 0.03502,-0.18425 0.07518,-0.3679 0.122846,-0.54909 0.326213,-1.2476 0.94744,-2.37868 1.801702,-2.94425 0.854253,-0.56558 1.941477,-0.5656 2.826774,0.0499 0.0045,0.003 0.009,0.007 0.01332,0.01 0.229113,-0.48742 0.548324,-0.92511 0.902854,-1.25735 0.745514,-0.69865 1.64641,-0.93152 2.733634,-0.69864 1.008606,0.21603 2.176737,0.8326 2.836525,1.2527 0.03233,-0.12269 0.04427,-0.26234 0.07044,-0.42908 0.04728,-0.30115 0.140975,-0.69033 0.287311,-0.88456 0.146326,-0.19421 0.345232,-0.19335 0.398222,-0.10482 0.05304,0.0886 -0.03985,0.26477 -0.03603,0.52459 0.0038,0.25982 0.1044,0.60324 0.333237,1.01474 0.228835,0.41149 0.585947,0.89105 1.073727,1.46217 0.487777,0.57111 1.106254,1.23376 1.226698,1.4447 0.120452,0.21095 -0.257037,-0.0298 -0.820899,-0.3674 -0.563862,-0.33764 -1.314205,-0.77221 -1.914715,-1.03466 -0.60051,-0.26242 -1.0514,-0.35282 -1.37666,-0.29194 -0.325255,0.0609 -0.524969,0.27305 -0.665782,0.30102 -0.140818,0.0279 -0.222708,-0.12831 -0.129845,-0.30456 0.09288,-0.17626 0.360419,-0.37249 0.652208,-0.54786 0.26539,-0.15949 0.550354,-0.30175 0.71898,-0.46442 -0.258932,-0.11887 -0.547808,-0.26063 -0.820703,-0.38958 -0.528099,-0.24953 -0.993973,-0.44912 -1.413353,-0.59883 -0.419383,-0.14972 -0.79214,-0.24954 -1.211542,-0.19964 -0.419394,0.0499 -0.885286,0.24951 -1.289128,0.51566 -0.403853,0.26616 -0.745514,0.59888 -1.009635,1.01474 -0.06796,0.10731 -0.130974,0.22027 -0.187915,0.33724 0.70134,0.6624 1.222304,1.67744 1.368387,2.4739 0.170846,0.9315 -0.170869,1.56364 -0.714458,1.34741 -0.543587,-0.21623 -1.289119,-1.28084 -1.36678,-2.39537 -0.02987,-0.4252 0.03809,-0.85754 0.174436,-1.26861 -0.14662,-0.097 -0.294911,-0.18096 -0.438555,-0.24507 -0.372757,-0.16636 -0.71452,-0.19964 -1.118343,-0.0998 -0.403856,0.0998 -0.869802,0.33267 -1.273583,0.682 -0.403854,0.34934 -0.745514,0.81506 -0.96299,1.28082 -0.217469,0.46577 -0.310666,0.93156 -0.372757,1.49711 -0.0038,0.0348 -0.0072,0.0711 -0.01038,0.10654 0.816668,0.53538 1.471432,1.30741 1.750351,2.0393 0.310666,0.81506 0.15529,1.58028 -0.326111,1.76325 -0.481493,0.18297 -1.289101,-0.21625 -1.677416,-1.0979 -0.270712,-0.61457 -0.337334,-1.46356 -0.2426,-2.34407 -0.187825,-0.12741 -0.37842,-0.25142 -0.549458,-0.35068 -0.372757,-0.21625 -0.652324,-0.31607 -1.056229,-0.38261 -0.403855,-0.0666 -0.931893,-0.0998 -1.366793,-0.0499 -0.434848,0.0499 -0.77661,0.18295 -1.180445,0.43248 -0.403853,0.24954 -0.8698,0.61543 -1.21147,1.01467 -0.34166,0.39924 -0.559136,0.83177 -0.621227,1.29754 -0.06177,0.46577 0.03089,0.96476 0.186379,1.34734 0.15529,0.38257 0.372757,0.64877 0.683421,0.88162 0.310665,0.23286 0.714521,0.43253 1.087246,0.54895 0.372757,0.11644 0.714519,0.14965 0.978539,0.0998 0.264018,-0.0499 0.450397,-0.18294 0.559134,-0.38255 0.108735,-0.19958 0.139847,-0.46575 0.108735,-0.69864 -0.03089,-0.23288 -0.124178,-0.43249 -0.341762,-0.54895 -0.217469,-0.11645 -0.559137,-0.14969 -0.729967,-0.16633 -0.170823,-0.0167 -0.170823,-0.0167 0.03089,-0.0998 0.201935,-0.0832 0.605779,-0.24954 0.962989,0.0499 0.357208,0.29942 0.667873,1.06471 0.419403,1.58034 -0.209658,0.43507 -0.817388,0.69247 -1.496692,0.69237 z m 4.953939,-2.24746 c 0.126661,7.7e-4 0.231582,-0.071 0.301501,-0.20816 0.09268,-0.18295 0.124178,-0.48241 0.04633,-0.81511 -0.07722,-0.33271 -0.26402,-0.69861 -0.450397,-0.94815 -0.18638,-0.24954 -0.372757,-0.38256 -0.698972,-0.61547 -0.05148,-0.0369 -0.111512,-0.0793 -0.169288,-0.12034 -0.01648,0.34064 -0.01964,0.67841 -0.0016,0.96868 0.03089,0.51566 0.12429,0.88165 0.279567,1.16442 0.15529,0.28277 0.372756,0.48243 0.559134,0.54895 0.04635,0.0167 0.09164,0.025 0.133457,0.0251 z m 4.607646,-3.29979 c 0.05665,0.002 0.107719,-0.01 0.151475,-0.0356 0.139734,-0.0831 0.201823,-0.31606 0.186379,-0.63212 -0.01535,-0.31606 -0.108644,-0.71528 -0.279567,-1.08126 -0.170823,-0.36597 -0.419402,-0.69859 -0.745513,-1.01467 -0.09474,-0.0916 -0.195953,-0.18123 -0.30078,-0.26718 -0.07105,0.21192 -0.122326,0.43079 -0.149622,0.64972 -0.06177,0.49903 -3.2e-5,0.99814 0.139733,1.38071 0.139847,0.38258 0.357208,0.64871 0.574684,0.81503 0.14951,0.11436 0.299031,0.18157 0.423214,0.18537 z"
       id="path10535"
       inkscape:connector-curvature="0" />
    <g
       transform="matrix(-0.02498899,-0.14625623,-0.16521155,0.03688767,51.282103,149.27529)"
       style="fill:#ff5555;fill-rule:evenodd"
       id="Page-1-6">
      <g
         style="fill:#ff5555;fill-rule:nonzero"
         id="025---Mitts-9"
         transform="translate(-1,-1)">
        <path
           inkscape:connector-curvature="0"
           id="Shape-5-8"
           d="m 40.411,39.639 c -0.420961,-0.721607 -1.136863,-1.222628 -1.959,-1.371 -0.197729,-0.03841 -0.39858,-0.05849 -0.6,-0.06 2.195976,-5.583037 2.105447,-11.806203 -0.252,-17.323 -0.875048,-2.349022 -3.13699,-3.890302 -5.6433,-3.845325 -2.50631,0.04498 -4.711496,1.66642 -5.5017,4.045325 -3.207692,-3.543832 -7.36762,-6.089501 -11.983,-7.333 -4.9,-1.17 -9.684,2.048 -11.884,5.834 -2.961,5.1 -1.221,10.665 0.625,14.947 3.215,7.452 7.251,12.417 12.341,15.18 0.647519,0.365893 1.350431,0.623616 2.081,0.763 -0.20434,0.726455 -0.111149,1.504367 0.259,2.162 l 4,6.928 c 0.420859,0.7217 1.136809,1.222756 1.959,1.371 0.209427,0.04166 0.422471,0.06243 0.636,0.062 0.615358,-0.003 1.21915,-0.167469 1.751,-0.477 l 16.825,-9.714 c 1.538048,-0.803942 2.139153,-2.698361 1.346,-4.242 z M 5.05,33.742 C 3.389,29.891 1.805,24.917 4.318,20.592 c 1.784,-3.07 5.788,-5.827 9.688,-4.894 6.077,1.454 11.988,6.419 15.427,12.957 0.1644,0.319662 0.487717,0.526494 0.846853,0.541747 0.359135,0.01525 0.698826,-0.16342 0.889737,-0.467992 0.190912,-0.304571 0.203667,-0.688174 0.03341,-1.004755 -0.886359,-1.680224 -1.92896,-3.273255 -3.114,-4.758 l 0.073,-0.49 c 0.319501,-2.182158 2.342319,-3.69592 4.526,-3.387 1.405529,0.257031 2.571705,1.235494 3.069,2.575 2.434,5.763 2.16,12.788 -0.659,17.579 l -4.338,2.5 -1.536,0.887 -9.752,5.63 c -0.806,0.463 -1.72,0.368 -2.964,-0.307 C 11.828,45.416 8.08,40.766 5.05,33.742 Z M 42.065,49.076 25.24,58.791 c -0.299971,0.18063 -0.655143,0.246692 -1,0.186 -0.25401,-0.04291 -0.477697,-0.192032 -0.615,-0.41 l -4,-6.928 c -0.227292,-0.586231 0.04198,-1.248004 0.614,-1.509 L 20.473,50 26.954,46.258 37.063,40.422 c 0.227442,-0.134984 0.486531,-0.207433 0.751,-0.21 0.08322,-4.2e-4 0.166278,0.0073 0.248,0.023 0.254076,0.04206 0.477959,0.190955 0.615,0.409 l 4,6.928 c 0.224964,0.584284 -0.04299,1.242795 -0.612,1.504 z"
           style="fill:#ff5555" />
        <path
           inkscape:connector-curvature="0"
           id="path2363-6"
           d="M 37.947,43.372 C 37.814555,43.142157 37.596213,42.974357 37.340026,42.905528 37.083838,42.836698 36.8108,42.872481 36.581,43.005 l -13.857,8 c -0.478268,0.27615 -0.642129,0.88772 -0.366,1.366 l 2,3.464 c 0.132448,0.230114 0.350972,0.398109 0.607401,0.466953 0.256429,0.06884 0.529709,0.03288 0.759599,-0.09995 l 13.856,-8 c 0.229944,-0.132616 0.397728,-0.351214 0.46638,-0.607628 0.06865,-0.256414 0.03254,-0.529603 -0.10038,-0.759372 z m -12.357,10.597 -1,-1.732 12.125,-7 1,1.731 z"
           style="fill:#ff5555" />
        <path
           inkscape:connector-curvature="0"
           id="path2365-6"
           d="M 56.628,27.133 C 56.209454,26.408884 55.493196,25.905894 54.67,25.758 54.472316,25.71928 54.271436,25.69919 54.07,25.698 56.267708,20.114048 56.177894,13.889223 53.82,8.371 52.945866,6.020978 50.683592,4.4786755 48.176664,4.523663 45.669736,4.5686505 43.464254,6.1911281 42.675,8.571 39.466076,5.0279548 35.306182,2.482172 30.691,1.237 25.792,0.072 21,3.292 18.805,7.079 c -0.826442,1.4211084 -1.341164,3.001748 -1.51,4.637 -0.03698,0.355479 0.118501,0.703683 0.407866,0.913445 0.289366,0.209763 0.668658,0.249217 0.995,0.1035 0.326343,-0.145716 0.550157,-0.454466 0.587134,-0.809945 0.135154,-1.355421 0.561548,-2.6656426 1.25,-3.841 1.781,-3.07 5.781,-5.829 9.691,-4.9 6.074,1.461 11.986,6.428 15.419,12.963 0.172901,0.329185 0.51417,0.535256 0.886,0.535 0.163449,0.0011 0.324615,-0.03838 0.469,-0.115 0.488646,-0.256918 0.676649,-0.861213 0.42,-1.35 -0.884989,-1.679808 -1.926255,-3.272511 -3.11,-4.757 l 0.073,-0.5 c 0.321552,-2.176415 2.3381,-3.6862596 4.517,-3.382 1.407037,0.2560387 2.57533,1.2339855 3.075,2.574 2.434,5.766 2.159,12.793 -0.663,17.584 l -9.572,5.53 c -0.474214,0.278006 -0.635129,0.886647 -0.360274,1.362694 C 41.65458,34.102742 42.26214,34.26769 42.74,33.996 l 10.536,-6.088 c 0.302213,-0.180553 0.658978,-0.247225 1.006,-0.188 0.253075,0.04263 0.475624,0.191969 0.611,0.41 l 4,6.917 c 0.239829,0.587963 -0.03131,1.260056 -0.612,1.517 l -12.131,7.01 c -0.474214,0.278006 -0.635129,0.886647 -0.360274,1.362694 C 46.06458,45.412742 46.67214,45.57769 47.15,45.306 L 59.277,38.3 c 1.541878,-0.80415 2.144648,-2.702717 1.349,-4.249 z"
           style="fill:#ff5555" />
        <path
           inkscape:connector-curvature="0"
           id="path2367-1"
           d="m 21.894,41.567 c 0.177362,0.311951 0.508273,0.504953 0.867118,0.505742 0.358845,7.89e-4 0.690602,-0.190757 0.869334,-0.501925 C 23.809183,41.259649 23.807484,40.87657 23.626,40.567 l -1.882,-3.26 3.34,-1.086 c 0.402937,-0.133789 0.701541,-0.475691 0.779885,-0.892968 C 25.942228,34.910755 25.78797,34.483828 25.461,34.213 25.272,34.057 25.087,33.901 24.902,33.741 l -0.088,-0.074 1.561,-4.07 c 0.1,-0.271 0.208,-0.542 0.315,-0.811 0.167817,-0.358539 0.122709,-0.780602 -0.117092,-1.095576 C 26.333109,27.37545 25.938269,27.219649 25.548,27.286 25.432,27.299 25.315,27.31 25.198,27.32 L 24.775,25.349 C 24.691218,24.939832 24.395504,24.606447 23.999259,24.474434 23.603014,24.342421 23.16644,24.431838 22.854,24.709 l -1.368,1.232 C 21.333,25.827 21.179,25.71 21.022,25.588 20.729435,25.343317 20.329203,25.271793 19.97,25.4 c -0.359228,0.134907 -0.620713,0.44922 -0.688,0.827 -0.034,0.153 -0.069,0.3 -0.1,0.458 l -0.8,-2.333 c -0.148557,-0.434067 -0.537663,-0.740819 -0.994416,-0.783949 -0.456752,-0.04313 -0.8964,0.185363 -1.123584,0.583949 -0.137,0.237 -0.266,0.462 -0.377,0.655 -0.6,-0.39 -1.386,-0.9 -2.106,-1.375 -0.368543,-0.242196 -0.842136,-0.255956 -1.224119,-0.03556 -0.381982,0.220391 -0.607103,0.637285 -0.581881,1.077565 0.048,0.86 0.1,1.8 0.138,2.512 -0.223,0 -0.478,-0.006 -0.759,0 -0.457988,-4.43e-4 -0.873974,0.266823 -1.063928,0.683561 -0.189955,0.416737 -0.118823,0.906038 0.181928,1.251439 l 1.621,1.858 -0.454,-0.141 c -0.361596,-0.134276 -0.767556,-0.06214 -1.060755,0.188492 -0.293199,0.250631 -0.427624,0.640424 -0.351245,1.018508 0.025,0.185 0.048,0.37 0.071,0.562 L 8.551,32.974 C 8.1556052,33.10417 7.85926,33.434778 7.7729538,33.842004 7.6866475,34.249229 7.8234024,34.671628 8.132,34.951 l 1.5,1.36 c -0.067,0.1 -0.135,0.192 -0.2,0.286 -0.2523155,0.305339 -0.3145256,0.725403 -0.161539,1.090766 0.1529865,0.365363 0.4959411,0.615774 0.890539,0.650234 0.287,0.04 0.574,0.086 0.86,0.132 l 4.306,0.683 0.021,0.119 c 0.045,0.235 0.087,0.473 0.129,0.72 0.07374,0.418132 0.368404,0.763406 0.769744,0.901964 0.401341,0.138559 0.846255,0.04861 1.162256,-0.234964 l 2.605,-2.345 z m -1.947,-5.779 c -0.137251,0.0456 -0.262857,0.120692 -0.368,0.22 l -2.4,2.165 c -0.140617,-0.521573 -0.594433,-0.898084 -1.133,-0.94 l -4.24,-0.673 c 0.148391,-0.507648 -0.02229,-1.05477 -0.433,-1.388 l -0.828,-0.749 0.86,-0.278 c 0.543132,-0.151815 0.926438,-0.636501 0.949,-1.2 l 0.776,0.237 0.584,0.178 0.1,0.032 c 0.56313,0.159917 1.164225,-0.07107 1.475358,-0.566933 C 15.60049,32.3292 15.546972,31.68748 15.158,31.25 l -2.007,-2.308 c 0.244472,-0.05555 0.467523,-0.180972 0.642,-0.361 0.259153,-0.27865 0.388458,-0.653853 0.356,-1.033 -0.019,-0.376 -0.05,-0.931 -0.083,-1.545 l 1.3,0.846 c 0.311168,0.215853 0.698872,0.290635 1.068,0.206 0.24434,-0.05898 0.465682,-0.189142 0.636,-0.374 l 0.987,2.867 c 0.175576,0.563591 0.704719,0.941511 1.294788,0.924752 0.590069,-0.01676 1.096908,-0.424104 1.240212,-0.996752 0.005,-0.015 0.032,-0.133 0.035,-0.148 l 0.111,-0.479 c 0.066,-0.285 0.133,-0.571 0.2,-0.855 0.504039,0.265447 1.122186,0.171813 1.525,-0.231 l 0.664,-0.6 0.234,1.09 c 0.08355,0.52231 0.472129,0.943603 0.986,1.069 L 22.8,33.326 c -0.234603,0.48746 -0.136874,1.069825 0.244,1.454 l -3.1,1.006 z"
           style="fill:#ff5555" />
      </g>
    </g>
  </g>
</svg>
