<?xml version="1.0" encoding="UTF-8" standalone="no"?>
<svg
   xmlns:dc="http://purl.org/dc/elements/1.1/"
   xmlns:cc="http://creativecommons.org/ns#"
   xmlns:rdf="http://www.w3.org/1999/02/22-rdf-syntax-ns#"
   xmlns:svg="http://www.w3.org/2000/svg"
   xmlns="http://www.w3.org/2000/svg"
   xmlns:sodipodi="http://sodipodi.sourceforge.net/DTD/sodipodi-0.dtd"
   xmlns:inkscape="http://www.inkscape.org/namespaces/inkscape"
   height="512"
   viewBox="0 0 60 53"
   width="512"
   version="1.1"
   id="svg6768"
   sodipodi:docname="mountaingrey2.svg"
   inkscape:version="0.92.2 (5c3e80d, 2017-08-06)">
  <metadata
     id="metadata6774">
    <rdf:RDF>
      <cc:Work
         rdf:about="">
        <dc:format>image/svg+xml</dc:format>
        <dc:type
           rdf:resource="http://purl.org/dc/dcmitype/StillImage" />
        <dc:title></dc:title>
      </cc:Work>
    </rdf:RDF>
  </metadata>
  <defs
     id="defs6772" />
  <sodipodi:namedview
     pagecolor="#ffffff"
     bordercolor="#666666"
     borderopacity="1"
     objecttolerance="10"
     gridtolerance="10"
     guidetolerance="10"
     inkscape:pageopacity="0"
     inkscape:pageshadow="2"
     inkscape:window-width="1920"
     inkscape:window-height="1017"
     id="namedview6770"
     showgrid="false"
     inkscape:zoom="0.4609375"
     inkscape:cx="256"
     inkscape:cy="-351.45763"
     inkscape:window-x="-8"
     inkscape:window-y="-8"
     inkscape:window-maximized="1"
     inkscape:current-layer="svg6768"
     showguides="true"
     inkscape:guide-bbox="true">
    <sodipodi:guide
       position="67.118644,-75.682203"
       orientation="1,0"
       id="guide7319"
       inkscape:locked="false" />
  </sodipodi:namedview>
  <path
     sodipodi:type="star"
     style="opacity:1;fill:#ececec;stroke-width:0.1171875"
     id="path9197"
     sodipodi:sides="3"
     sodipodi:cx="29.271187"
     sodipodi:cy="31.352543"
     sodipodi:r1="36.430027"
     sodipodi:r2="18.215014"
     sodipodi:arg1="0.61705309"
     sodipodi:arg2="1.6642506"
     inkscape:flatsided="false"
     inkscape:rounded="0"
     inkscape:randomized="0"
     d="M 58.98305,52.432203 27.571393,49.488072 -3.8402658,46.543941 14.415255,20.812713 32.670776,-4.9185153 45.826913,23.756843 Z"
     inkscape:transform-center-x="3.1133233"
     inkscape:transform-center-y="0.12119615"
     transform="matrix(0.92715648,0,0,0.95566973,3.2795836,1.8158592)" />
  <g
     id="Page-1"
     style="fill:#808080"
     fill-rule="evenodd"
     fill="none">
    <g
       id="024---Canadain-Landscape"
       style="fill:#808080"
       fill-rule="nonzero"
       fill="rgb(0,0,0)">
      <path
         id="Shape"
         d="m11.611 38.48c-1.0516597.2662769-2.067583.6577398-3.026 1.166-.83704397.4370691-1.61246314.9831579-2.306 1.624-.40316787.3774866-.42398663 1.0103321-.0465 1.4135s1.01033213.4239866 1.4135.0465c.56548937-.5205264 1.19729302-.964033 1.879-1.319.817936-.4328956 1.6847758-.7662697 2.582-.993.3461904-.0893164.6184337-.3565385.7141786-.7010063.0957449-.3444679.0004455-.7138486-.25-.9690001-.2504454-.2551514-.6179882-.35731-.9641786-.2679936z"
         style="fill:#808080" />
      <path
         id="path6764"
         d="m56.05 38h1.47c.6635444.000443 1.2841084-.3282387 1.6565573-.8773955.3724489-.5491567.4482861-1.2472828.2024427-1.8636045l-9.125-22.821c.3405663-.6436221.520994-1.359845.526-2.088-.0023499-1.24858115-.510184-2.44300192-1.4077314-3.31097024-.8975475-.86796831-2.1083095-1.33550646-3.3562686-1.29602976-.6503549-1.3331396-1.9470649-2.23225708-3.4236041-2.37387099-1.4765393-.14161391-2.9205064.49464702-3.8123959 1.67987099-.3292722-.06588061-.6642024-.09937362-1-.1-1.5438742-.00210023-3.0021354.70912968-3.951 1.927l-1.972-4.932c-.3030356-.76070127-1.0391612-1.25984056-1.858-1.25984056s-1.5549644.49913929-1.858 1.25984056l-8.041 20.114-3.761-9.408h.431c2.7641852 0 5.005-2.2408148 5.005-5.005 0-2.76418517-2.2408148-5.005-5.005-5.005-.3338974-.0010783-.6670084.03243388-.994.1-.8931319-1.18283439-2.3366408-1.81672796-3.8119007-1.67393455-1.47526.14279342-2.77039958 1.04176634-3.4200993 2.37393455-1.64520806-.02929581-3.18107213.8213418-4.02904706 2.23148589-.84797494 1.41014408-.87923316 3.16556019-.08200001 4.60500001.79723316 1.4394399 2.301839 2.3442184 3.94704707 2.3735141h1.281l-9.042 22.614c-.24383502.6160976-.16671032 1.3129667.20594456 1.8608354.37265487.5478688.99246083.8756114 1.65505544.8751646h1.47c-2.0696075 1.6915507-3.44488694 4.0851206-3.864 6.725-.07665839.5738742.09799222 1.152921.47917989 1.5887009s.93184861.6859209 1.51082011.6862991h12.041c-.5598595 1.1953676-.9154501 2.4761023-1.052 3.789-.0580966.5655065.1264751 1.1291076.5078329 1.5506986s.9236857.6615775 1.4921671.6603014h7.935c.5522847 0 1-.4477153 1-1s-.4477153-1-1-1l-7.945-.007c.1721277-1.5897144.7206105-3.1155249 1.6-4.451.1988658-.3083356.2129088-.7008156.0365877-1.0225753-.176321-.3217598-.5146878-.5211229-.8815877-.5194247l-13.743-.007c.386-2.844 2.417-5.435 5.574-7.111 2.4264764-1.2602264 5.1248892-1.9064172 7.859-1.882.156 0 .292 0 .475.009 3.0991378.0391449 6.120708.9744424 8.7 2.693-1.9434126.5166962-3.7879751 1.3512939-5.459 2.47-.2958159.2006046-.4621398.5437869-.436319.9002733.0258207.3564864.2398633.6721182.5615.828.3216366.1558817.7020031.1283313.997819-.0722733 2.0313603-1.3504962 4.3346796-2.2380951 6.747-2.6 1.9305557-.3024973 3.8964443-.3024973 5.827 0 2.2958837.3491993 4.4950465 1.1682683 6.46 2.406.3005708.2075142.690369.23465 1.0167934.070784s.537543-.4926636.5507055-.8576728-.1737252-.7081592-.4874989-.8951112c-1.5875882-1.005933-3.3195807-1.7633425-5.136-2.246 2.5907157-1.7259284 5.6262319-2.663781 8.739-2.7.152-.006.294-.006.444-.006 2.7348562-.0243137 5.4339703.6222238 7.861 1.883 3.155 1.675 5.186 4.266 5.563 7.117h-13.724c-.3612954.0088847-.6905535.2093952-.8642621.5263157-.1737087.3169204-.1656085.702342.0212621 1.0116843.8735324 1.3410066 1.4160867 2.8703035 1.583 4.462h-17.94c-.5522847 0-1 .4477153-1 1s.4477153 1 1 1h17.94c.5686745.0013057 1.1111803-.2388158 1.4925728-.6606358.3813924-.4218201.5658271-.9856949.5074272-1.5513642-.1432847-1.3131924-.5042199-2.5933633-1.068-3.788h12.052c.5789715-.0003782 1.1296324-.2505192 1.5108201-.6862991s.5558383-1.0148267.4791799-1.5887009c-.418844-2.6399744-1.7941749-5.0336339-3.864-6.725zm-2.988-2c-2.6029411-1.3069176-5.4743877-1.9899432-8.387-1.995l-3.7-9.252.776-1.939 1.732 1.043c.3321203.1982509.7484918.1885317 1.071-.025l2.446-1.632 2.445 1.63c.322051.2149837.7392686.2247227 1.071.025l1.732-1.043 5.272 13.188zm-6.892-21.05c.9321651.0000083 1.842219-.2839257 2.609-.814l2.717 6.8-1.469.884-2.472-1.648c-.3360369-.2241995-.7739631-.2241995-1.11 0l-2.472 1.648-1.473-.888 2.4-5.982zm-6.27 7.109-2.87-7.175c.2479634.0409967.4986876.0630605.75.066h4.963zm-2.12-15.109c.3758558-.00165816.7487827.06614673 1.1.2.4934956.19300627 1.0518707-.0324492 1.273-.514.4095049-.86231741 1.3176192-1.37335227 2.2672421-1.27587442s1.7349789.78234574 1.9607579 1.70987442c.126361.5318499.6563812.86366926 1.19.745.1965813-.0474042.3978077-.07289288.6-.076 1.4387018 0 2.605 1.16629823 2.605 2.605 0 1.4387018-1.1662982 2.605-2.605 2.605h-8.391c-.6311953-.0063863-1.2446825-.2094837-1.755-.581l-1.186-2.968c.2598913-1.41982272 1.4975876-2.45088564 2.941-2.45zm-7.78-4.259 2.84 7.1v.008l4.06 10.138-2.855 1.845-3.445-2.582c-.3555556-.2666667-.8444444-.2666667-1.2 0l-3.442 2.582-2.853-1.844zm-17 7 .936 2.338.006.017 3.558 8.886-1.469.884-2.472-1.648c-.3360369-.2241995-.7739631-.2241995-1.11 0l-2.476 1.648-1.468-.883zm-4.62.959c-1.43870175 0-2.60499995-1.16629825-2.60499995-2.605s1.1662982-2.60499997 2.60499995-2.605c.19508688-.00168394.38961175.02116181.579.068.26019242.06747982.53659557.02736864.76687387-.11128749.2302783-.13865614.39503953-.36418072.45712613-.62571251.2262586-.92869951 1.0134547-1.61385159 1.9644876-1.70983151s1.8592544.41806762 2.2665124 1.28283151c.2232216.47765117.7789422.69993941 1.27.508.3454427-.13834698.7138877-.21027179 1.086-.212 1.6596157 0 3.005 1.34538433 3.005 3.005s-1.3453843 3.005-3.005 3.005h-1.231l-.682-1.706c-.3030356-.76070127-1.0391612-1.25984056-1.858-1.25984056s-1.5549644.49913929-1.858 1.25984056l-.68 1.7zm-5.901 25.35 5.274-13.186 1.731 1.043c.33212033.1982509.7484918.1885317 1.071-.025l2.445-1.632 2.445 1.63c.322051.2149837.7392686.2247227 1.071.025l1.733-1.043.775 1.939-3.7 9.252c-2.912473.0055029-5.78364266.6892288-8.386 1.997zm24.773 2.2c-2.7520599-2.3749567-6.1893565-3.8111043-9.813-4.1l4.909-12.27 3.109 2.01c.3517782.2273582.807976.2113933 1.143-.04l3.4-2.55 3.4 2.55c.335024.2513933.7912218.2673582 1.143.04l3.11-2.011 4.908 12.271c-3.6235109.2894431-7.0606439 1.7255223-9.813 4.1-1.8239751-.242501-3.6720249-.242501-5.496 0z"
         style="fill:#808080" />
    </g>
  </g>
</svg>
