<?xml version="1.0" encoding="UTF-8" standalone="no"?>
<!-- Created with Inkscape (http://www.inkscape.org/) -->

<svg
   xmlns:dc="http://purl.org/dc/elements/1.1/"
   xmlns:cc="http://creativecommons.org/ns#"
   xmlns:rdf="http://www.w3.org/1999/02/22-rdf-syntax-ns#"
   xmlns:svg="http://www.w3.org/2000/svg"
   xmlns="http://www.w3.org/2000/svg"
   xmlns:sodipodi="http://sodipodi.sourceforge.net/DTD/sodipodi-0.dtd"
   xmlns:inkscape="http://www.inkscape.org/namespaces/inkscape"
   width="14.856605mm"
   height="15.176101mm"
   viewBox="0 0 14.856604 15.176101"
   version="1.1"
   id="svg4520"
   inkscape:version="0.92.2 (5c3e80d, 2017-08-06)"
   sodipodi:docname="mountie.svg">
  <defs
     id="defs4514" />
  <sodipodi:namedview
     id="base"
     pagecolor="#ffffff"
     bordercolor="#666666"
     borderopacity="1.0"
     inkscape:pageopacity="0.0"
     inkscape:pageshadow="2"
     inkscape:zoom="1.65625"
     inkscape:cx="17.191022"
     inkscape:cy="35.133156"
     inkscape:document-units="mm"
     inkscape:current-layer="layer1"
     showgrid="false"
     fit-margin-top="0"
     fit-margin-left="0"
     fit-margin-right="0"
     fit-margin-bottom="0"
     inkscape:window-width="1920"
     inkscape:window-height="1017"
     inkscape:window-x="-8"
     inkscape:window-y="-8"
     inkscape:window-maximized="1"
     inkscape:lockguides="true" />
  <metadata
     id="metadata4517">
    <rdf:RDF>
      <cc:Work
         rdf:about="">
        <dc:format>image/svg+xml</dc:format>
        <dc:type
           rdf:resource="http://purl.org/dc/dcmitype/StillImage" />
        <dc:title></dc:title>
      </cc:Work>
    </rdf:RDF>
  </metadata>
  <g
     inkscape:label="Layer 1"
     inkscape:groupmode="layer"
     id="layer1"
     transform="translate(-80.854053,-146.25095)">
    <path
       style="fill:#ffd5d5;stroke-width:0.14434929"
       inkscape:connector-curvature="0"
       id="path1446-3"
       d="m 90.56036,147.02376 c -2.940541,-1.14801 -6.538239,0.99725 -8.014667,4.77901 -1.476431,3.78177 -0.28389,7.79716 2.656651,8.94517 2.940541,1.148 6.538243,-0.99724 8.014674,-4.77901 1.476427,-3.78176 0.283883,-7.79716 -2.656658,-8.94517 z" />
    <g
       transform="matrix(0.41747402,0,0,0.48838587,30.451875,138.43736)"
       style="fill:#806600;fill-rule:evenodd"
       id="Page-1" />
    <g
       transform="matrix(0.24761007,0,0,0.25293501,80.854053,146.25095)"
       style="fill:#ff5555;fill-rule:evenodd"
       id="Page-1-6-3">
      <g
         style="fill:#ff5555;fill-rule:nonzero"
         id="003---Mounty-Hat-5">
        <path
           inkscape:connector-curvature="0"
           id="Shape-2"
           d="M 47,19.063 V 15 C 47,6.729 39.374,0 30,0 20.626,0 13,6.729 13,15 v 4.063 C 4.732,21.272 0,24.87 0,29 0,32.939 4.377,36.435 12.034,38.667 12.024,38.779 12,38.886 12,39 c 0.0029,1.127695 0.484544,2.20111 1.325,2.953 C 14.923,52.431 21.883,60 30,60 38.117,60 45.077,52.431 46.675,41.953 47.515456,41.20111 47.997093,40.127695 48,39 48,38.886 47.976,38.779 47.966,38.667 55.623,36.435 60,32.939 60,29 60,24.87 55.268,21.272 47,19.063 Z M 42.606,37.57 c 0.792753,-0.775698 2.063203,-0.765337 2.843199,0.02319 0.779997,0.788524 0.776543,2.059011 -0.0077,2.843283 -0.784272,0.784272 -2.054759,0.787726 -2.843283,0.0077 C 41.809663,39.664203 41.799302,38.393753 42.575,37.601 Z M 14,39 c 9.54e-4,-0.806131 0.485782,-1.532885 1.229729,-1.843354 0.743946,-0.31047 1.601561,-0.143954 2.175271,0.422354 l 0.014,0.014 c 0.637525,0.641864 0.7648,1.631758 0.310381,2.414017 -0.454419,0.78226 -1.377366,1.162074 -2.250755,0.92624 C 14.605237,40.697422 13.99891,39.904669 14,39 Z m 5.767,1.294 C 23.15731,40.768178 26.576693,41.00409 30,41 c 3.423307,0.0041 6.84269,-0.231822 10.233,-0.706 0.150643,0.43767 0.376347,0.845765 0.667,1.206 C 39.66,48.189 35.134,53 30,53 24.866,53 20.347,48.19 19.094,41.5 c 0.293088,-0.359581 0.520869,-0.767759 0.673,-1.206 z m 20.3,-2 C 36.73227,38.767283 33.368146,39.003209 30,39 c -3.369339,0.0054 -6.734806,-0.228536 -10.071,-0.7 -0.08445,-0.4613 -0.250374,-0.903876 -0.49,-1.307 6.035238,-5.321236 15.086762,-5.321236 21.122,0 -0.239626,0.403124 -0.405549,0.8457 -0.49,1.307 z M 15,23.416 C 18.054,25.759 24.15,27 30,27 35.85,27 41.946,25.759 45,23.416 V 26 c 0,2.36 -6.415,5 -15,5 -8.585,0 -15,-2.64 -15,-5 z M 15,15 C 15,7.832 21.729,2 30,2 38.271,2 45,7.832 45,15 v 5 c 0,2.36 -6.415,5 -15,5 -8.585,0 -15,-2.64 -15,-5 z M 2,29 C 2,26.011 6.182,23.045 13,21.132 V 26 c 0,3.248 4.474,5.42 10.031,6.4 -1.832744,0.769042 -3.52301,1.841009 -5,3.171 C 17.418251,35.200139 16.716234,35.002773 16,35 14.666501,35.000797 13.421092,35.666065 12.679,36.774 6.074,34.859 2,31.914 2,29 Z M 30,58 C 23.211,58 17.314,51.764 15.527,42.952 15.683539,42.97764 15.841501,42.99367 16,43 16.446326,42.9953 16.888609,42.91478 17.308,42.762 18.974,49.931 24.144,55 30,55 35.856,55 41.033,49.932 42.692,42.762 43.111412,42.914702 43.553681,42.995176 44,43 44.158831,42.9937 44.317126,42.97765 44.474,42.952 42.688,51.764 36.789,58 30,58 Z M 47.321,36.774 C 46.578908,35.666065 45.333499,35.000797 44,35 c -0.715642,0.0035 -1.416913,0.201184 -2.029,0.572 -1.476139,-1.331369 -3.166592,-2.403792 -5,-3.172 C 42.527,31.42 47,29.247 47,26 v -4.868 c 6.818,1.913 11,4.879 11,7.868 0,2.914 -4.074,5.859 -10.679,7.774 z"
           style="fill:#ff5555" />
        <path
           inkscape:connector-curvature="0"
           id="path7322-6"
           d="M 17.753,15.707 C 18.486214,15.90124 19.241493,15.999725 20,16 24.96805,15.9939 28.993939,11.96805 29,7 29.0041,6.2984839 28.91939,5.5992704 28.748,4.919 28.66504,4.566154 28.397641,4.2858236 28.049102,4.1863052 27.700564,4.0867868 27.325461,4.1836627 27.068701,4.4395081 26.81194,4.6953536 26.713726,5.070109 26.812,5.419 26.941211,5.9359407 27.004381,6.4671737 27,7 c -0.0044,3.864166 -3.135834,6.995591 -7,7 -0.585404,9.38e-4 -1.168393,-0.07505 -1.734,-0.226 -0.531598,-0.135832 -1.073362,0.182042 -1.214104,0.712361 -0.140742,0.530319 0.172109,1.075 0.701104,1.220639 z"
           style="fill:#ff5555" />
        <path
           inkscape:connector-curvature="0"
           id="path7324-1"
           d="m 40,16 c 0.758507,-2.75e-4 1.513785,-0.09876 2.247,-0.293 0.348279,-0.08899 0.621997,-0.358066 0.716933,-0.704772 0.09493,-0.346706 -0.0035,-0.71769 -0.257879,-0.971697 C 42.451694,13.776525 42.080574,13.678584 41.734,13.774 41.168393,13.924954 40.585404,14.000938 40,14 36.135834,13.9956 33.004409,10.864166 33,7 32.9958,6.4678424 33.05896,5.937292 33.188,5.421 33.28627,5.072109 33.18806,4.6973536 32.931299,4.4415081 32.674539,4.1856627 32.299436,4.0887868 31.950898,4.1883052 31.60236,4.2878236 31.33496,4.568154 31.252,4.921 31.080781,5.6006219 30.99611,6.2991528 31,7 c 0.0061,4.96805 4.03195,8.993939 9,9 z"
           style="fill:#ff5555" />
      </g>
    </g>
  </g>
</svg>
