<?xml version="1.0" encoding="UTF-8" standalone="no"?>
<!-- Created with Inkscape (http://www.inkscape.org/) -->

<svg
   xmlns:dc="http://purl.org/dc/elements/1.1/"
   xmlns:cc="http://creativecommons.org/ns#"
   xmlns:rdf="http://www.w3.org/1999/02/22-rdf-syntax-ns#"
   xmlns:svg="http://www.w3.org/2000/svg"
   xmlns="http://www.w3.org/2000/svg"
   xmlns:sodipodi="http://sodipodi.sourceforge.net/DTD/sodipodi-0.dtd"
   xmlns:inkscape="http://www.inkscape.org/namespaces/inkscape"
   width="25.048441mm"
   height="25.75489mm"
   viewBox="0 0 25.04844 25.754891"
   version="1.1"
   id="svg4520"
   inkscape:version="0.92.2 (5c3e80d, 2017-08-06)"
   sodipodi:docname="platinum2.svg">
  <defs
     id="defs4514" />
  <sodipodi:namedview
     id="base"
     pagecolor="#ffffff"
     bordercolor="#666666"
     borderopacity="1.0"
     inkscape:pageopacity="0.0"
     inkscape:pageshadow="2"
     inkscape:zoom="8.9292882"
     inkscape:cx="40.724733"
     inkscape:cy="60.246237"
     inkscape:document-units="mm"
     inkscape:current-layer="layer1"
     showgrid="false"
     fit-margin-top="0"
     fit-margin-left="0"
     fit-margin-right="0"
     fit-margin-bottom="0"
     inkscape:window-width="1920"
     inkscape:window-height="1017"
     inkscape:window-x="-8"
     inkscape:window-y="-8"
     inkscape:window-maximized="1"
     inkscape:lockguides="true" />
  <metadata
     id="metadata4517">
    <rdf:RDF>
      <cc:Work
         rdf:about="">
        <dc:format>image/svg+xml</dc:format>
        <dc:type
           rdf:resource="http://purl.org/dc/dcmitype/StillImage" />
        <dc:title></dc:title>
      </cc:Work>
    </rdf:RDF>
  </metadata>
  <g
     inkscape:label="Layer 1"
     inkscape:groupmode="layer"
     id="layer1"
     transform="translate(-77.099967,-136.71053)">
    <path
       style="fill:#decd87;stroke-width:0.22902077"
       inkscape:connector-curvature="0"
       id="path1446-3"
       d="m 89.725418,138.75886 c -5.211416,0 -9.456199,5.04194 -9.456199,11.23203 0,6.19009 4.244783,11.23202 9.456199,11.23202 5.211417,0 9.456211,-5.04193 9.456211,-11.23202 0,-6.19009 -4.244794,-11.23203 -9.456211,-11.23203 z" />
    <path
       style="fill:#c8ab37;stroke-width:0.23661825"
       inkscape:connector-curvature="0"
       id="path1448-7"
       d="m 96.841296,141.66458 c 1.580351,2.15223 2.570698,5.02189 2.570698,8.18384 0,6.58957 -4.256395,11.95688 -9.482068,11.95688 -2.507479,0 -4.783179,-1.22225 -6.489959,-3.24163 1.727855,2.33823 4.193185,3.79962 6.932454,3.79962 5.225672,0 9.482068,-5.3673 9.482068,-11.95688 0,-3.45423 -1.158912,-6.56301 -3.013193,-8.74183 z" />
    <path
       style="fill:#e9ddaf;stroke-width:0.21585561"
       inkscape:connector-curvature="0"
       id="path1500-3"
       d="m 86.091514,140.55341 c -3.113205,0 -5.657328,4.20347 -5.657328,9.40912 0,2.5889 0.636035,4.92725 1.64029,6.62535 0.987523,1.33621 2.242843,2.14349 3.598593,2.14349 3.129943,0 5.674062,-4.23132 5.674062,-9.43695 0,-2.28269 -0.485394,-4.3705 -1.288798,-5.98509 -1.020999,-1.6981 -2.426962,-2.75592 -3.966819,-2.75592 z" />
    <g
       transform="matrix(0.41747402,0,0,0.48838587,30.451875,138.43736)"
       style="fill:#806600;fill-rule:evenodd"
       id="Page-1" />
    <g
       transform="matrix(0.32002711,0,0,0.4271796,84.07022,136.77668)"
       style="fill:#786721;fill-rule:evenodd"
       id="Page-1-6">
      <g
         style="fill:#786721;fill-rule:nonzero"
         id="004---Maple-Syrup">
        <path
           inkscape:connector-curvature="0"
           id="Shape-1"
           d="M 3.911,54.208 C 3.5274753,54.354302 3.179937,54.581446 2.892,54.874 2.3180015,55.431929 1.9959387,56.199536 2,57 c 0,1.656854 1.3431458,3 3,3 h 26 c 1.653443,-0.0082 2.991794,-1.346557 3,-3 -0.003,-1.233899 -0.761262,-2.340097 -1.911,-2.788 l 0.988,-9.373 C 38.062943,37.192397 36.535503,27.024225 29.523,21.18 32.86135,19.5396 34.628674,15.814723 33.78777,12.191413 32.946866,8.5681028 29.719609,6.002377 26,6 V 3 C 26,1.3431457 24.656854,0 23,0 H 13 c -1.656854,0 -3,1.3431457 -3,3 v 5 c 0.0028,1.0449439 0.550567,2.012718 1.445,2.553 L 10.167,18.8 C 3.9658882,21.819216 0.02224805,28.102975 0,35 c -0.00771294,3.494785 1.0084592,6.915284 2.923,9.839 z M 32,14 c 0.0097,2.705388 -1.804526,5.077735 -4.418,5.777 -0.563334,-0.362257 -1.149563,-0.687606 -1.755,-0.974 l -1.272,-8.25 C 25.449725,10.013002 25.997588,9.0450479 26,8 c 3.312338,0.00331 5.996693,2.687662 6,6 z M 13,2 h 10 c 0.552285,0 1,0.4477153 1,1 v 2 h -5 c -0.552285,0 -1,0.4477152 -1,1 0,0.5522847 0.447715,1 1,1 h 5 v 1 c 0,0.5522848 -0.447715,1 -1,1 H 13 C 12.447715,9 12,8.5522848 12,8 V 7 h 3 C 15.552285,7 16,6.5522847 16,6 16,5.4477152 15.552285,5 15,5 H 12 V 3 c 0,-0.5522847 0.447715,-1 1,-1 z m -1.964,18.6 c 0.593366,-0.284548 1.009327,-0.842152 1.113,-1.492 L 13.4,11 h 9.2 l 1.251,8.108 c 0.102464,0.655275 0.523108,1.217133 1.123,1.5 0.658599,0.316267 1.293573,0.67954 1.9,1.087 0.02701,0.01911 0.05543,0.03616 0.085,0.051 4.253577,2.875639 6.86871,7.617913 7.030875,12.749767 C 34.15204,39.62762 31.841534,44.525543 27.778,47.664 27.386661,48.013957 27.332572,48.606953 27.654138,49.021937 27.975704,49.43692 28.563427,49.532583 29,49.241 c 0.620911,-0.482272 1.21013,-1.004018 1.764,-1.562 L 30.1,54 H 15 c -0.552285,0 -1,0.447715 -1,1 0,0.552285 0.447715,1 1,1 h 16 c 0.552285,0 1,0.447715 1,1 8.73e-4,0.269442 -0.109908,0.527208 -0.306,0.712 C 31.511604,57.898599 31.260922,58.002628 31,58 H 5 C 4.4477152,58 4,57.552285 4,57 3.9991267,56.730558 4.1099083,56.472792 4.306,56.288 4.4883963,56.101402 4.7390776,55.997372 5,56 h 5 c 0.552285,0 1,-0.447715 1,-1 0,-0.552285 -0.447715,-1 -1,-1 H 5.9 L 5.234,47.679 C 5.7885142,48.237049 6.3784024,48.758796 7,49.241 7.4368572,49.578998 8.0650017,49.498857 8.403,49.062 8.7409983,48.625143 8.6608572,47.996998 8.224,47.659 3.8348107,44.274508 1.5116338,38.858221 2.0845354,33.345367 2.657437,27.832514 6.0446763,23.009659 11.036,20.6 Z"
           style="fill:#786721" />
        <path
           inkscape:connector-curvature="0"
           id="path4432"
           d="M 7.663,42.1 C 8.0219913,42.099725 8.3532898,41.907042 8.5310431,41.595147 8.7087965,41.283252 8.7057267,40.900008 8.523,40.591 5.9696229,36.26972 6.6652493,30.768025 10.213829,27.218267 13.762409,23.668509 19.263873,22.971057 23.586,25.523 c 0.474105,0.261594 1.070297,0.0983 1.344936,-0.368368 C 25.205575,24.687962 25.058876,24.087473 24.6,23.8 19.493711,20.790937 12.998593,21.61663 8.8076118,25.807612 4.6166304,29.998593 3.7909367,36.493711 6.8,41.6 c 0.1780913,0.308467 0.5068157,0.498922 0.863,0.5 z"
           style="fill:#786721" />
        <path
           inkscape:connector-curvature="0"
           id="path4434"
           d="M 12.414,44.477 C 11.939895,44.215405 11.343703,44.3787 11.069064,44.845368 10.794425,45.312038 10.941124,45.912527 11.4,46.2 16.506289,49.209063 23.001407,48.38337 27.192388,44.192388 31.38337,40.001407 32.209063,33.506289 29.2,28.4 c -0.181848,-0.307606 -0.513989,-0.49483 -0.871307,-0.491148 -0.357318,0.0037 -0.68553,0.197712 -0.861,0.509 -0.17547,0.311288 -0.171541,0.692542 0.01031,1.000148 2.54535,4.321119 1.845754,9.816817 -1.701021,13.362415 C 22.230203,46.326013 16.734274,47.023785 12.414,44.477 Z"
           style="fill:#786721" />
      </g>
    </g>
  </g>
</svg>
