<?xml version="1.0" encoding="UTF-8" standalone="no"?>
<!-- Created with Inkscape (http://www.inkscape.org/) -->

<svg
   xmlns:dc="http://purl.org/dc/elements/1.1/"
   xmlns:cc="http://creativecommons.org/ns#"
   xmlns:rdf="http://www.w3.org/1999/02/22-rdf-syntax-ns#"
   xmlns:svg="http://www.w3.org/2000/svg"
   xmlns="http://www.w3.org/2000/svg"
   xmlns:sodipodi="http://sodipodi.sourceforge.net/DTD/sodipodi-0.dtd"
   xmlns:inkscape="http://www.inkscape.org/namespaces/inkscape"
   width="23.812504mm"
   height="23.838961mm"
   viewBox="0 0 23.812504 23.838961"
   version="1.1"
   id="svg6924"
   inkscape:version="0.92.2 (5c3e80d, 2017-08-06)"
   sodipodi:docname="red.svg">
  <defs
     id="defs6918" />
  <sodipodi:namedview
     id="base"
     pagecolor="#ffffff"
     bordercolor="#666666"
     borderopacity="1.0"
     inkscape:pageopacity="0.0"
     inkscape:pageshadow="2"
     inkscape:zoom="0.35"
     inkscape:cx="-373.57143"
     inkscape:cy="-26.378583"
     inkscape:document-units="mm"
     inkscape:current-layer="layer1"
     showgrid="false"
     fit-margin-top="0"
     fit-margin-left="0"
     fit-margin-right="0"
     fit-margin-bottom="0"
     inkscape:window-width="1920"
     inkscape:window-height="1017"
     inkscape:window-x="-8"
     inkscape:window-y="-8"
     inkscape:window-maximized="1" />
  <metadata
     id="metadata6921">
    <rdf:RDF>
      <cc:Work
         rdf:about="">
        <dc:format>image/svg+xml</dc:format>
        <dc:type
           rdf:resource="http://purl.org/dc/dcmitype/StillImage" />
        <dc:title></dc:title>
      </cc:Work>
    </rdf:RDF>
  </metadata>
  <g
     inkscape:label="Layer 1"
     inkscape:groupmode="layer"
     id="layer1"
     transform="translate(-78.808036,-118.01504)">
    <path
       style="fill:#ff5555;stroke-width:0.26458332"
       inkscape:connector-curvature="0"
       id="path1446-9-6"
       d="m 90.714286,118.01504 c -6.561667,0 -11.90625,5.34459 -11.90625,11.90625 0,6.56167 5.344583,11.90625 11.90625,11.90625 6.561666,0 11.906254,-5.34458 11.906254,-11.90625 0,-6.56166 -5.344588,-11.90625 -11.906254,-11.90625 z" />
    <path
       style="fill:#ff2a2a;stroke-width:0.26458332"
       inkscape:connector-curvature="0"
       id="path1448-4-4"
       d="m 98.836994,121.24296 c 1.984376,2.14313 3.227916,5.00063 3.227916,8.14917 0,6.56166 -5.344583,11.90625 -11.906249,11.90625 -3.148542,0 -6.006042,-1.21709 -8.149167,-3.22792 2.169584,2.32833 5.265208,3.78354 8.704792,3.78354 6.561666,0 11.906254,-5.34458 11.906254,-11.90625 0,-3.43958 -1.45521,-6.53521 -3.783546,-8.70479 z" />
    <g
       id="g1496-9-1"
       transform="matrix(0.26458333,0,0,0.26458333,-85.021964,92.641503)"
       style="fill:#ffaaaa">
      <path
         style="fill:#ffaaaa"
         inkscape:connector-curvature="0"
         id="path1492-0-5"
         d="m 635.6,175.8 c 1.7,1.4 3.5,2.7 5.5,3.8 l 45,-78 c -1.9,-1.1 -3.9,-2 -6,-2.8 z" />
      <path
         style="fill:#ffaaaa"
         inkscape:connector-curvature="0"
         id="path1494-9-7"
         d="m 691.7,105.3 c -1.1,-0.8 -2.2,-1.6 -3.3,-2.3 l -45,77.9 c 1.2,0.6 2.4,1.2 3.7,1.7 z" />
    </g>
    <path
       style="fill:#ff2a2a;stroke-width:0.26458332"
       inkscape:connector-curvature="0"
       id="path1498-8-3"
       d="m 90.714286,120.95192 c -4.947708,0 -8.969375,4.02167 -8.969375,8.96937 0,4.94771 4.021667,8.96938 8.969375,8.96938 4.947708,0 8.969375,-4.02167 8.969375,-8.96938 0,-4.92125 -4.021667,-8.96937 -8.969375,-8.96937 z" />
    <path
       style="fill:#ff5555;stroke-width:0.26458332"
       inkscape:connector-curvature="0"
       id="path1500-78-0"
       d="m 91.349286,121.63984 c -4.92125,0 -8.942917,3.9952 -8.942917,8.94291 0,2.46063 1.005417,4.68313 2.592917,6.29709 1.561042,1.27 3.545416,2.03729 5.688541,2.03729 4.947709,0 8.969375,-4.02167 8.969375,-8.96938 0,-2.16958 -0.767291,-4.15396 -2.037291,-5.68854 -1.613959,-1.61396 -3.836459,-2.61937 -6.270625,-2.61937 z" />
    <g
       style="fill:#aa0000"
       id="g3837"
       transform="matrix(0.20671859,0,0,0.22463406,84.670928,124.98129)">
      <path
         style="fill:#aa0000"
         d="m 1.813,34.131 5.768,1.659 c 1.325,0.387 2.713,-0.375 3.1,-1.7 l 2.31,-7.973 c 0.026,-0.086 0.065,-0.168 0.115,-0.242 L 17,20.161 V 40 c 0,1.657 1.343,3 3,3 h 20 c 1.657,0 3,-1.343 3,-3 V 20.161 l 3.881,5.693 c 0.063,0.091 0.111,0.193 0.14,0.3 l 2.3,7.927 c 0.186,0.637 0.617,1.173 1.198,1.492 0.581,0.319 1.266,0.394 1.902,0.208 l 5.771,-1.66 c 0.639,-0.183 1.178,-0.613 1.499,-1.195 0.321,-0.582 0.397,-1.267 0.212,-1.905 l -2.7,-9.3 C 57.116,21.415 56.979,21.125 56.798,20.864 L 43.432,1.308 C 42.873,0.489 41.945,0 40.954,0 H 19.046 C 18.055,0 17.128,0.489 16.569,1.307 L 7.142,15.1 3.214,20.853 c -0.186,0.264 -0.326,0.558 -0.415,0.869 l -2.7,9.3 c -0.185,0.638 -0.109,1.323 0.212,1.905 0.321,0.582 0.86,1.012 1.499,1.195 z m 6.711,-0.3 c -0.118,0.065 -0.258,0.08 -0.387,0.042 L 2.366,32.213 C 2.099,32.134 1.946,31.856 2.021,31.588 l 0.6,-2.057 6.718,2.017 -0.577,1.99 c -0.038,0.124 -0.124,0.228 -0.238,0.289 z m 1.662,-19.634 5.531,4.3 -0.9,1.323 -5.53,-4.31 z m 40.528,1.313 -5.529,4.307 -0.9,-1.323 5.531,-4.3 z m 7.221,16.457 c -0.064,0.117 -0.172,0.204 -0.3,0.242 L 51.86,33.87 c -0.129,0.038 -0.267,0.022 -0.384,-0.043 -0.116,-0.064 -0.2,-0.172 -0.235,-0.3 l -0.577,-1.988 6.718,-2.017 0.6,2.057 c 0.037,0.13 0.02,0.27 -0.047,0.388 z m -2.656,-9.689 1.546,5.328 -6.718,2.017 -1.155,-3.978 c -0.082,-0.321 -0.219,-0.626 -0.406,-0.9 l -2.232,-3.274 5.53,-4.309 3.309,4.843 c 0.058,0.083 0.1,0.175 0.126,0.273 z M 23.54,2 29.24,8.651 C 29.43,8.872 29.707,9 29.999,9 30.291,9 30.568,8.873 30.758,8.651 L 36.46,2 h 2.64 l -8.339,9.728 c -0.195,0.215 -0.472,0.337 -0.761,0.337 -0.289,0 -0.566,-0.122 -0.761,-0.337 L 20.9,2 Z m 2.634,0 h 7.652 L 30,6.463 Z m -7.953,0.435 c 0.062,-0.087 0.137,-0.163 0.223,-0.226 l 9.279,10.823 c 0.57,0.665 1.402,1.047 2.278,1.047 0.876,0 1.708,-0.383 2.278,-1.047 L 41.556,2.21 c 0.087,0.063 0.162,0.14 0.224,0.227 l 6.9,10.1 -5.554,4.323 C 42.774,16.496 42.237,16.384 41.768,16.575 41.3,16.767 40.996,17.224 41,17.73 V 40 c 0,0.552 -0.448,1 -1,1 H 20 c -0.552,0 -1,-0.448 -1,-1 V 17.73 c 0.004,-0.552 -0.356,-1.04 -0.884,-1.2 -0.12,-0.037 -0.245,-0.056 -0.37,-0.056 -0.332,0.002 -0.648,0.138 -0.879,0.376 l -5.55,-4.317 z M 4.721,22.277 C 4.749,22.175 4.795,22.08 4.856,21.994 l 3.3,-4.83 5.53,4.309 -2.245,3.293 c -0.173,0.255 -0.302,0.537 -0.381,0.835 L 9.893,29.623 3.175,27.606 Z"
         id="Shape-3"
         inkscape:connector-curvature="0" />
      <path
         style="fill:#aa0000"
         id="path3835"
         d="m 21.15,27.887 3.371,2.732 -0.041,0.112 c -0.079,0.227 -0.162,0.454 -0.25,0.692 -0.144,0.399 -0.06,0.845 0.219,1.164 0.279,0.32 0.708,0.464 1.123,0.377 L 29,32.235 V 36 c 0,0.552 0.448,1 1,1 0.552,0 1,-0.448 1,-1 v -3.765 l 3.437,0.731 c 0.416,0.084 0.844,-0.063 1.12,-0.385 0.276,-0.322 0.356,-0.768 0.21,-1.166 -0.085,-0.23 -0.168,-0.457 -0.249,-0.69 l -0.039,-0.106 3.371,-2.732 c 0.23,-0.187 0.461,-0.374 0.7,-0.559 0.324,-0.227 0.496,-0.615 0.446,-1.008 -0.05,-0.393 -0.315,-0.725 -0.686,-0.863 -0.108,-0.047 -0.214,-0.1 -0.32,-0.145 l 0.621,-1.924 c 0.13,-0.396 0.039,-0.831 -0.238,-1.141 -0.277,-0.311 -0.699,-0.451 -1.107,-0.368 l -1.8,0.383 c -0.075,-0.176 -0.15,-0.355 -0.226,-0.542 -0.131,-0.358 -0.442,-0.621 -0.817,-0.689 -0.378,-0.059 -0.759,0.083 -1.007,0.374 -0.1,0.115 -0.212,0.23 -0.318,0.345 l 0.473,-2.417 c 0.09,-0.451 -0.094,-0.914 -0.469,-1.18 C 33.727,17.887 33.23,17.866 32.833,18.1 l -0.654,0.379 C 31.855,17.842 31.431,17.004 31.043,16.235 30.845,15.841 30.441,15.591 30,15.591 c -0.441,0 -0.845,0.249 -1.043,0.644 -0.388,0.769 -0.812,1.608 -1.136,2.244 l -0.653,-0.378 c -0.396,-0.231 -0.891,-0.209 -1.265,0.056 -0.374,0.266 -0.558,0.726 -0.469,1.176 l 0.474,2.421 -0.324,-0.351 c -0.246,-0.296 -0.634,-0.436 -1.013,-0.366 -0.379,0.07 -0.69,0.34 -0.813,0.706 -0.071,0.176 -0.145,0.35 -0.218,0.523 l -1.794,-0.381 c -0.408,-0.087 -0.831,0.05 -1.11,0.359 -0.279,0.309 -0.372,0.744 -0.244,1.141 l 0.622,1.93 c -0.107,0.05 -0.214,0.1 -0.325,0.147 -0.37,0.139 -0.632,0.472 -0.681,0.864 -0.049,0.392 0.123,0.779 0.447,1.006 0.234,0.181 0.465,0.368 0.695,0.555 z m 2.468,-3.563 c 0.548,0.144 1.126,-0.084 1.429,-0.563 l 0.515,0.551 0.418,0.449 0.106,0.112 c 0.409,0.416 1.041,0.516 1.559,0.249 0.519,-0.272 0.795,-0.855 0.677,-1.429 -0.034,-0.192 -0.071,-0.383 -0.108,-0.575 L 27.738,20.69 c 0.24,0.074 0.496,0.077 0.737,0.007 0.363,-0.112 0.663,-0.372 0.824,-0.716 0.171,-0.335 0.423,-0.831 0.7,-1.38 0.278,0.55 0.53,1.046 0.7,1.383 0.162,0.343 0.46,0.602 0.823,0.713 0.241,0.07 0.496,0.067 0.736,-0.006 l -0.475,2.427 c -0.037,0.192 -0.074,0.383 -0.1,0.546 -0.131,0.576 0.137,1.169 0.656,1.45 0.519,0.282 1.163,0.183 1.574,-0.241 0.012,-0.011 0.094,-0.1 0.106,-0.112 l 0.418,-0.449 0.515,-0.551 c 0.304,0.482 0.886,0.709 1.436,0.562 l 0.876,-0.188 -0.342,1.065 c -0.189,0.494 -0.063,1.053 0.319,1.419 l -3.33,2.7 c -0.448,0.305 -0.655,0.86 -0.517,1.384 l -3.186,-0.677 c -0.144,-0.032 -0.293,-0.032 -0.437,0 l -3.165,0.673 c 0.139,-0.522 -0.066,-1.075 -0.512,-1.38 l -3.335,-2.7 c 0.382,-0.366 0.508,-0.925 0.319,-1.419 l -0.343,-1.062 z"
         inkscape:connector-curvature="0" />
    </g>
  </g>
</svg>
