<?xml version="1.0" encoding="UTF-8" standalone="no"?>
<!-- Created with Inkscape (http://www.inkscape.org/) -->

<svg
   xmlns:dc="http://purl.org/dc/elements/1.1/"
   xmlns:cc="http://creativecommons.org/ns#"
   xmlns:rdf="http://www.w3.org/1999/02/22-rdf-syntax-ns#"
   xmlns:svg="http://www.w3.org/2000/svg"
   xmlns="http://www.w3.org/2000/svg"
   xmlns:sodipodi="http://sodipodi.sourceforge.net/DTD/sodipodi-0.dtd"
   xmlns:inkscape="http://www.inkscape.org/namespaces/inkscape"
   width="26.598738mm"
   height="26.370384mm"
   viewBox="0 0 26.598737 26.370384"
   version="1.1"
   id="svg4520"
   inkscape:version="0.92.2 (5c3e80d, 2017-08-06)"
   sodipodi:docname="silver2.svg">
  <defs
     id="defs4514" />
  <sodipodi:namedview
     id="base"
     pagecolor="#ffffff"
     bordercolor="#666666"
     borderopacity="1.0"
     inkscape:pageopacity="0.0"
     inkscape:pageshadow="2"
     inkscape:zoom="8.565952"
     inkscape:cx="49.530684"
     inkscape:cy="45.327325"
     inkscape:document-units="mm"
     inkscape:current-layer="layer1"
     showgrid="false"
     fit-margin-top="0"
     fit-margin-left="0"
     fit-margin-right="0"
     fit-margin-bottom="0"
     inkscape:window-width="1920"
     inkscape:window-height="1017"
     inkscape:window-x="-8"
     inkscape:window-y="-8"
     inkscape:window-maximized="1" />
  <metadata
     id="metadata4517">
    <rdf:RDF>
      <cc:Work
         rdf:about="">
        <dc:format>image/svg+xml</dc:format>
        <dc:type
           rdf:resource="http://purl.org/dc/dcmitype/StillImage" />
        <dc:title></dc:title>
      </cc:Work>
    </rdf:RDF>
  </metadata>
  <g
     inkscape:label="Layer 1"
     inkscape:groupmode="layer"
     id="layer1"
     transform="translate(-75.524966,-135.8153)">
    <path
       style="fill:#cccccc;stroke-width:0.24033296"
       inkscape:connector-curvature="0"
       id="path1446-3"
       d="m 90.037316,137.63329 c -5.551979,0 -10.07415,5.21173 -10.07415,11.6103 0,6.39856 4.522171,11.61029 10.07415,11.61029 5.55197,0 10.074154,-5.21173 10.074154,-11.61029 0,-6.39857 -4.522184,-11.6103 -10.074154,-11.6103 z" />
    <path
       style="fill:#e6e6e6;stroke-width:0.29488391"
       inkscape:connector-curvature="0"
       id="path1500-3"
       d="m 90.489105,139.64049 c -5.669047,0 -10.301823,4.30806 -10.301823,9.64321 0,2.65331 1.158195,5.04984 2.986922,6.79018 1.798244,1.36946 4.084145,2.19683 6.55293,2.19683 5.699529,0 10.332296,-4.33659 10.332296,-9.67174 0,-2.33948 -0.883888,-4.47924 -2.346865,-6.13399 -1.859209,-1.74035 -4.419424,-2.82449 -7.22346,-2.82449 z" />
    <g
       transform="matrix(0.37585038,-0.09434883,0.08140474,0.40091034,74.636285,140.40801)"
       style="fill:#4d4d4d;fill-opacity:1;fill-rule:evenodd"
       id="Page-1">
      <g
         style="fill:#4d4d4d;fill-opacity:1;fill-rule:nonzero"
         id="013---Totem">
        <path
           inkscape:connector-curvature="0"
           id="Shape"
           d="M 58,10 H 38 V 2.62 C 37.999155,1.3198233 37.0446,0.21711081 35.757961,0.02997246 34.471322,-0.15716589 33.242189,0.6279347 32.871,1.874 32.487605,3.1388186 31.32165,4.0037362 30,4.0037362 28.67835,4.0037362 27.512395,3.1388186 27.129,1.874 26.757811,0.6279347 25.528678,-0.15716589 24.242039,0.02997246 22.9554,0.21711081 22.000845,1.3198233 22,2.62 V 10 H 2 c -1.1045695,0 -2,0.895431 -2,2 v 3 c 0,0.27 0.017,0.536 0.041,0.8 C 0.01985813,15.864913 0.00610454,15.932004 0,16 c 0.00349507,0.163788 0.04820475,0.324055 0.13,0.466 0.63423792,3.793352 3.6066479,6.765762 7.4,7.4 C 7.6727496,23.949844 7.8344977,23.99596 8,24 8.067996,23.993895 8.1350867,23.980142 8.2,23.959 8.463,23.983 8.729,24 9,24 h 13 v 32 c 0,2.209139 1.790861,4 4,4 h 8 c 2.209139,0 4,-1.790861 4,-4 V 24 h 13 c 0.27,0 0.536,-0.017 0.8,-0.041 0.06491,0.02114 0.132004,0.03489 0.2,0.041 0.163788,-0.0035 0.324055,-0.0482 0.466,-0.13 3.793352,-0.634238 6.765762,-3.606648 7.4,-7.4 C 59.94985,16.32725 59.99596,16.165502 60,16 59.9939,15.932 59.98014,15.864913 59.959,15.8 59.983,15.537 60,15.271 60,15 v -3 c 0,-1.10457 -0.89543,-2 -2,-2 z m 0,2 v 3 H 38 v -3 z m -12,5 v 5 H 43 V 17 Z M 36,43 H 24 v -3 h 12 z m 0,-20 v 2 H 24 V 22 H 36 Z M 24,38 V 27 H 36 V 38 Z M 24,2.62 C 23.997305,2.3088015 24.226435,2.0441472 24.534814,2.0022685 24.843194,1.9603898 25.134605,2.1543532 25.215,2.455 25.853991,4.563031 27.797251,6.0045604 30,6.0045604 32.202749,6.0045604 34.146009,4.563031 34.785,2.455 34.8684,2.1576196 35.158255,1.9672226 35.464301,2.0087843 35.770346,2.0503461 35.998925,2.3111473 36,2.62 V 20 H 23.999977 Z M 2,12 h 20 v 3 H 2 Z m 15,5 v 5 H 14 V 17 Z M 2.3,17 H 7 v 4.7 C 4.7442924,21.020634 2.9793662,19.255708 2.3,17 Z M 9,17 h 3 v 5 H 9 Z m 10,5 v -5 h 3 v 5 z m 5,34 V 45 h 5 v 13 h -3 c -1.10457,0 -2,-0.895431 -2,-2 z m 10,2 H 31 V 45 h 5 v 11 c 0,1.104569 -0.895431,2 -2,2 z m 4,-37 v -4 h 3 v 5 h -3 z m 10,1 v -5 h 3 v 5 z m 5,-0.3 V 17 h 4.7 c -0.677931,2.257625 -2.443097,4.024668 -4.7,4.705 z"
           style="fill:#4d4d4d;fill-opacity:1" />
        <path
           inkscape:connector-curvature="0"
           id="path7364"
           d="m 27,11 c 0.552285,0 1,-0.447715 1,-1 V 8 C 28,7.4477152 27.552285,7 27,7 26.447715,7 26,7.4477152 26,8 v 2 c 0,0.552285 0.447715,1 1,1 z"
           style="fill:#4d4d4d;fill-opacity:1" />
        <path
           inkscape:connector-curvature="0"
           id="path7366"
           d="m 33,11 c 0.552285,0 1,-0.447715 1,-1 V 8 C 34,7.4477152 33.552285,7 33,7 32.447715,7 32,7.4477152 32,8 v 2 c 0,0.552285 0.447715,1 1,1 z"
           style="fill:#4d4d4d;fill-opacity:1" />
        <path
           inkscape:connector-curvature="0"
           id="path7368"
           d="m 27,29 c -0.552285,0 -1,0.447715 -1,1 v 2 c 0,0.552285 0.447715,1 1,1 0.552285,0 1,-0.447715 1,-1 v -2 c 0,-0.552285 -0.447715,-1 -1,-1 z"
           style="fill:#4d4d4d;fill-opacity:1" />
        <path
           inkscape:connector-curvature="0"
           id="path7370"
           d="m 33,29 c -0.552285,0 -1,0.447715 -1,1 v 2 c 0,0.552285 0.447715,1 1,1 0.552285,0 1,-0.447715 1,-1 v -2 c 0,-0.552285 -0.447715,-1 -1,-1 z"
           style="fill:#4d4d4d;fill-opacity:1" />
        <path
           inkscape:connector-curvature="0"
           id="path7372"
           d="m 30,33 c -0.552285,0 -1,0.447715 -1,1 v 1 c 0,0.552285 0.447715,1 1,1 0.552285,0 1,-0.447715 1,-1 v -1 c 0,-0.552285 -0.447715,-1 -1,-1 z"
           style="fill:#4d4d4d;fill-opacity:1" />
        <path
           inkscape:connector-curvature="0"
           id="path7374"
           d="m 27.024,13.015 c -0.359366,0.624644 -0.349783,1.395483 0.025,2.011 l 1.238,2.064 c 0.358471,0.604472 1.010234,0.973918 1.713,0.971 0.70225,0.002 1.35327,-0.367285 1.712,-0.971 l 1.238,-2.063 c 0.374414,-0.615891 0.384374,-1.38664 0.026,-2.012 C 32.619706,12.387936 31.954217,12.000403 31.233,12 h -2.467 c -0.721199,-4.96e-4 -1.386809,0.387331 -1.742,1.015 z M 28.766,14 h 2.469 L 30,16.061 28.765,14 Z"
           style="fill:#4d4d4d;fill-opacity:1" />
      </g>
    </g>
    <path
       style="fill:#999999;stroke-width:0.28823882"
       inkscape:connector-curvature="0"
       id="path1448-7"
       d="m 94.381275,161.74794 c 1.414525,-2.94295 4.097111,-6.49326 5.397031,-9.72722 0.829384,-7.16237 -2.697285,-13.60499 -9.74099,-14.38743 -3.379838,-0.37545 -7.065034,0.69965 -9.619766,2.63902 2.623265,-2.28278 8.582424,-4.77696 12.274694,-4.36681 7.043692,0.78244 9.653176,8.5285 8.823806,15.69088 -0.43475,3.75447 -4.332978,8.14792 -7.134775,10.15156 z"
       sodipodi:nodetypes="cccccsc" />
  </g>
</svg>
