<?xml version="1.0" encoding="iso-8859-1"?>
<!-- Generator: Adobe Illustrator 19.0.0, SVG Export Plug-In . SVG Version: 6.00 Build 0)  -->
<svg version="1.1" id="Capa_1" xmlns="http://www.w3.org/2000/svg" xmlns:xlink="http://www.w3.org/1999/xlink" x="0px" y="0px"
	 viewBox="0 0 436.907 436.907" style="enable-background:new 0 0 436.907 436.907;" xml:space="preserve">
<circle style="fill:#EA8953;" cx="218.453" cy="218.453" r="218.453"/>
<path style="opacity:0.1;enable-background:new    ;" d="M429.287,275.662L250.198,96.572c-0.034,0-0.103-0.034-0.137-0.034
	c-1.434-0.478-15.394-4.881-25.225-3.243l-2.799-2.765c0,0-21.095-1.946-23.348,14.302c0,0-20.207,5.222-17.578,27.751l3.72,3.686
	c0.205,9.557,1.434,23.995,7.168,26.555c0,0-0.444-1.809-0.887-4.642c3.72,11.571,9.387,23.995,17.715,31.232v11.298l-11.947,5.7
	l-0.751,0.342h-29.15c-3.959,0-6.963,3.516-6.348,7.407l1.638,10.137c-2.014,2.697-3.345,5.939-3.755,9.455l-4.778,43.281h-60.45
	v19.285l15.701,15.667v34.475l89.497,89.497c6.581,0.597,13.233,0.948,19.969,0.948C319.3,436.906,404.139,368.553,429.287,275.662z
	"/>
<polygon style="fill:#DC8744;" points="93.303,277.028 93.303,296.304 108.996,296.304 108.996,346.453 327.91,346.453 
	327.91,296.304 343.604,296.304 343.604,277.028 "/>
<path style="fill:#D5D6DB;" d="M234.56,198.628l5.685,2.626l36.402,16.367c7.178,3.228,12.236,10.145,13.346,18.256l5.634,41.151
	H153.745l4.784-43.261c0.748-6.765,4.911-12.583,10.893-15.226l39.134-17.287l4.304-1.5"/>
<path style="fill:#F6C358;" d="M231.318,217.209H218.07c-5.109,0-9.252-4.142-9.252-9.252v-25.151h31.751v25.151
	C240.57,213.067,236.428,217.209,231.318,217.209z"/>
<path style="fill:#FCD462;" d="M264.468,131.059c-3.476,41.263-20.101,63.808-39.396,64.52c-31.838,1.176-40.168-64.52-40.168-64.52
	l30.654-22.955h21.303L264.468,131.059z"/>
<rect x="238.81" y="257.843" style="fill:#44C4A1;" width="22.337" height="7.465"/>
<polygon style="fill:#D5D6DB;" points="252.043,206.409 240.57,200.708 225.043,216.919 208.818,200.708 196.886,206.409 
	196.886,233.261 224.027,217.946 224.027,277.029 226.638,277.029 226.638,218.311 252.043,233.261 "/>
<g>
	<circle style="fill:#44C4A1;" cx="218.416" cy="232.141" r="3.294"/>
	<circle style="fill:#44C4A1;" cx="218.416" cy="244.736" r="3.294"/>
	<circle style="fill:#44C4A1;" cx="218.416" cy="257.297" r="3.294"/>
	<circle style="fill:#44C4A1;" cx="218.416" cy="269.892" r="3.294"/>
</g>
<path style="fill:#FCD462;" d="M256.291,139.097c0,0-3.811-14.283-5.008-18.274c0,0-8.428,14.819-3.615,17.289L256.291,139.097z"/>
<path style="fill:#64798A;" d="M191.997,162.82c0,0-7.946-33.537,8.942-37.66c0,0,13.735,14.294,43.599,1.374
	c0,0,14.665,0,13.82,32.437c0,0,8.725-12.37,6.755-25.84l3.378,6.048c0,0-3.378-38.21-30.961-41.233c0,0,5.348-3.299,12.666-1.374
	c0,0-23.325-7.803-31.928-0.603c0,0-1.041-3.69,3.781-5.445c0,0-21.11-1.924-23.362,14.294c0,0-20.214,5.223-17.566,27.764
	c0,0,2.93-1.182,3.774-4.852C184.895,127.73,183.337,158.972,191.997,162.82z"/>
<rect x="130.594" y="296.311" style="fill:#F6C358;" width="175.718" height="50.149"/>
<path style="fill:#3A556A;" d="M281.963,206.744H166.967c-3.945,0-6.952,3.533-6.322,7.427l10.164,62.856h107.313l10.164-62.856
	C288.914,210.277,285.908,206.744,281.963,206.744z"/>
<path style="fill:#EBF0F3;" d="M305.94,275.293c-2.21,0-4.006-1.796-4.006-4.006c0-2.21,1.796-4.006,4.006-4.006h34.603v8.012
	H305.94z"/>
<path style="fill:#F6C358;" d="M306.078,267.281h34.465c0.517,0,0.936-0.419,0.936-0.936v-0.003c0-0.517-0.419-0.936-0.936-0.936
	h-34.401c-3.132,0-5.867,2.363-6.069,5.488c-0.222,3.424,2.49,6.272,5.867,6.272h34.603c0.517,0,0.936-0.419,0.936-0.936
	c0-0.517-0.419-0.936-0.936-0.936H305.94c-2.383,0-4.285-2.089-3.973-4.532C302.226,268.742,304.042,267.281,306.078,267.281z"/>
<path style="fill:#EBF0F3;" d="M305.94,263.534c-2.21,0-4.006-1.796-4.006-4.006s1.796-4.006,4.006-4.006h34.603v8.012H305.94z"/>
<path style="fill:#D15241;" d="M306.078,255.521h34.465c0.517,0,0.936-0.419,0.936-0.936v-0.003c0-0.517-0.419-0.936-0.936-0.936
	h-34.401c-3.132,0-5.867,2.363-6.069,5.488c-0.222,3.424,2.49,6.272,5.867,6.272h34.603c0.517,0,0.936-0.419,0.936-0.936
	c0-0.517-0.419-0.936-0.936-0.936H305.94c-2.383,0-4.285-2.089-3.973-4.532C302.226,256.982,304.042,255.521,306.078,255.521z"/>
<path style="fill:#EBF0F3;" d="M305.94,251.774c-2.21,0-4.006-1.796-4.006-4.006c0-2.21,1.796-4.006,4.006-4.006h34.603v8.012
	H305.94z"/>
<path style="fill:#3EA69B;" d="M306.078,243.761h34.465c0.517,0,0.936-0.419,0.936-0.936v-0.003c0-0.517-0.419-0.936-0.936-0.936
	h-34.401c-3.132,0-5.867,2.363-6.069,5.488c-0.222,3.424,2.49,6.272,5.867,6.272h34.603c0.517,0,0.936-0.419,0.936-0.936
	c0-0.517-0.419-0.936-0.936-0.936H305.94c-2.383,0-4.285-2.089-3.973-4.532C302.226,245.222,304.042,243.761,306.078,243.761z"/>
<ellipse style="fill:#2F4859;" cx="224.461" cy="241.903" rx="8.134" ry="10.547"/>
<g>
</g>
<g>
</g>
<g>
</g>
<g>
</g>
<g>
</g>
<g>
</g>
<g>
</g>
<g>
</g>
<g>
</g>
<g>
</g>
<g>
</g>
<g>
</g>
<g>
</g>
<g>
</g>
<g>
</g>
</svg>
