<?xml version="1.0" encoding="UTF-8" standalone="no"?>
<svg
   xmlns:dc="http://purl.org/dc/elements/1.1/"
   xmlns:cc="http://creativecommons.org/ns#"
   xmlns:rdf="http://www.w3.org/1999/02/22-rdf-syntax-ns#"
   xmlns:svg="http://www.w3.org/2000/svg"
   xmlns="http://www.w3.org/2000/svg"
   xmlns:sodipodi="http://sodipodi.sourceforge.net/DTD/sodipodi-0.dtd"
   xmlns:inkscape="http://www.inkscape.org/namespaces/inkscape"
   height="512"
   viewBox="0 0 60 60"
   width="512"
   version="1.1"
   id="svg6197"
   sodipodi:docname="teepeered2.svg"
   inkscape:version="0.92.2 (5c3e80d, 2017-08-06)">
  <metadata
     id="metadata6203">
    <rdf:RDF>
      <cc:Work
         rdf:about="">
        <dc:format>image/svg+xml</dc:format>
        <dc:type
           rdf:resource="http://purl.org/dc/dcmitype/StillImage" />
        <dc:title></dc:title>
      </cc:Work>
    </rdf:RDF>
  </metadata>
  <defs
     id="defs6201" />
  <sodipodi:namedview
     pagecolor="#ffffff"
     bordercolor="#666666"
     borderopacity="1"
     objecttolerance="10"
     gridtolerance="10"
     guidetolerance="10"
     inkscape:pageopacity="0"
     inkscape:pageshadow="2"
     inkscape:window-width="1920"
     inkscape:window-height="1017"
     id="namedview6199"
     showgrid="false"
     inkscape:zoom="0.4609375"
     inkscape:cx="256"
     inkscape:cy="256"
     inkscape:window-x="-8"
     inkscape:window-y="-8"
     inkscape:window-maximized="1"
     inkscape:current-layer="svg6197" />
  <ellipse
     style="opacity:1;fill:#ffd5d5;stroke-width:0.09440736"
     id="path9176"
     cx="43.035522"
     cy="18.182648"
     rx="12.457627"
     ry="25.042374"
     transform="rotate(32.627407)" />
  <ellipse
     style="opacity:0.8;fill:#ffaaaa;stroke-width:0.09440736"
     id="path9176-5"
     cx="20.703196"
     cy="-43.974041"
     rx="12.457626"
     ry="25.042374"
     transform="matrix(0.95721613,-0.28937396,-0.28937396,-0.95721613,0,0)" />
  <g
     id="Page-1"
     fill="none"
     fill-rule="evenodd"
     style="fill:#ff5555">
    <g
       id="015---Teepee"
       fill="rgb(0,0,0)"
       fill-rule="nonzero"
       transform="translate(0 -1)"
       style="fill:#ff5555">
      <path
         id="Shape"
         d="m8.605 21.8h8.395c1.9055566-.0019151 3.6443564-1.0867935 4.4837473-2.7975163s.6334204-3.749831-.5311248-5.258136c-1.1645453-1.508305-3.0851751-2.2235441-4.9526225-1.8443477-.8917244-1.1859149-2.336487-1.822113-3.8133564-1.6792033-1.4768695.1429097-2.77284531 1.0443161-3.4206436 2.3792033-1.68956189-.1026738-3.299257.7298403-4.19191597 2.1680062-.89265896 1.4381659-.92436823 3.2501241-.08257625 4.718643.84179198 1.4685188 2.42137239 2.3568452 4.11349222 2.3133508zm0-7.211c.20027898-.0001233.39991315.0226921.595.068.53511081.1252633 1.0710263-.2047713 1.2-.739.2443989-1.0105073 1.1503628-1.7212132 2.19-1.718.8756887-.0088568 1.6749078.4974589 2.041 1.293.22355.4767396.7784889.6984528 1.269.507 1.1212237-.4311767 2.3915492-.1519417 3.228596.7096896.8370468.8616314 1.0794023 2.1395058.6159587 3.2477818-.4634437 1.1082761-1.543318 1.8332386-2.7445547 1.8425286h-8.395c-1.41908574-.0278025-2.55495345-1.1861419-2.55495345-2.6055s1.13586771-2.5776975 2.55495345-2.6055z"
         style="fill:#ff5555" />
      <path
         id="path6188"
         d="m53.4 16.606c1.6712267.0104283 3.2169222-.8854226 4.0386511-2.3407126.8217288-1.4552901.7904896-3.2415564-.0816232-4.66722361-.8721128-1.42566717-2.4481878-2.26692263-4.1180279-2.19806379-.6477983-1.33488723-1.9437741-2.23629363-3.4206436-2.3792033-1.4768694-.14290968-2.921632.49328841-3.8133564 1.6792033-1.8616133-.36381628-3.7687932.35710317-4.9242603 1.86138443-1.1554671 1.50428127-1.3602293 3.53286027-.5286876 5.23770767s2.556181 2.7923581 4.4529479 2.8079079zm-11.4-5.006c-.0029659-.9943546.4869591-1.92557072 1.3081017-2.48635106.8211427-.56078033 1.8667958-.67825166 2.7918983-.31364894.4923991.19202061 1.0492009-.03227719 1.271-.512.367469-.79274827 1.1652681-1.29670374 2.039-1.288 1.0414043-.00255033 1.9479663.71110852 2.19 1.724.1289737.53422866.6648892.86426329 1.2.739.9766315-.22931963 1.9981865.12232096 2.6267485.9041817.628562.7818608.7525187 1.8551084.3187327 2.759667s-1.3482883 1.4798076-2.3514812 1.4791513h-8.394c-1.6575957-.0038586-2.9994532-1.3483999-3-3.006z"
         style="fill:#ff5555" />
      <path
         id="path6190"
         d="m59 59h-3v-5c0-.5522847-.4477153-1-1-1s-1 .4477153-1 1v3.764l-20.642-41.284 5.569-11.138c.4794504-.95997264.4103416-2.10280769-.1812939-2.99801026s-1.6159141-1.40677007-2.687-1.342c-1.0710859.06477008-2.0262557.69603762-2.5057061 1.65601026l-3.553 7.106-3.553-7.106c-.7411661-1.48398912-2.5450109-2.08616613-4.029-1.345s-2.0861661 2.54501088-1.345 4.029l5.569 11.138-20.642 41.284v-3.764c0-.5522847-.44771525-1-1-1s-1 .4477153-1 1v5h-3c-.55228475 0-1 .4477153-1 1s.44771525 1 1 1h58c.5522847 0 1-.4477153 1-1s-.4477153-1-1-1zm-20.35 0-7.635-17.179c.0050326-.1122232.0000125-.2246717-.015-.336v-10.176c.1509844-.0843515.2901846-.1882473.414-.309l1.586-1.586 1.586 1.586c.7809997.7807639 2.0470003.7807639 2.828 0l.645-.645 14.323 28.645zm-16.709-28.645.645.645c.7809997.7807639 2.0470003.7807639 2.828 0l1.586-1.586 1.586 1.586c.1238154.1207527.2630156.2246485.414.309v8.439c-.484035.0040179-.950188.1834442-1.312.505l-10.806 9.622c-.5329917.470725-.7743019 1.1900811-.633 1.887.1308061.6871982.6189923 1.2520449 1.28 1.481 2.517.884 3.208 4.1 3.4 5.757h-13.311zm8.059-16.119 7.117 14.233-1.117 1.117-1.586-1.586c-.7809997-.7807639-2.0470003-.7807639-2.828 0l-1.581 1.581h-.005l-1.586-1.581c-.7809997-.7807639-2.0470003-.7807639-2.828 0l-1.586 1.586-1.117-1.117zm-1 27.552-6.532 14.7c-.4913686-2.3015278-2.0825071-4.2145578-4.256-5.117l10.788-9.62zm1 2.674 6.461 14.538h-12.922zm5.342-40.909c.1596977-.32153906.4788035-.53345569.8371134-.55592293.3583098-.02246724.7013879.1479282.9.44700002s.2225844.68138387.0628866 1.00292291l-4.9 9.8-1.124-2.247zm-12.48.894c-.2468713-.49705627-.0440563-1.10012872.453-1.347s1.1001287-.04405627 1.347.453l4.22 8.447-1.122 2.244z"
         style="fill:#ff5555" />
      <circle
         id="Oval"
         cx="27"
         cy="33"
         r="1"
         style="fill:#ff5555" />
      <circle
         id="circle6193"
         cx="33"
         cy="33"
         r="1"
         style="fill:#ff5555" />
    </g>
  </g>
</svg>
